<svg xmlns="http://www.w3.org/2000/svg" xmlns:xlink="http://www.w3.org/1999/xlink" xml:space="preserve" id="Layer_1" x="0" y="0" width="97" height="48" style="enable-background:new 0 0 97 48" version="1.1" viewBox="0 0 97 48"><style>.st0{clip-path:url(#SVGID_00000125589495503148695550000011641288005759403926_)}</style><defs><path id="SVGID_1_" d="M0 0h97v48H0z"/></defs><clipPath id="SVGID_00000080192554037585645770000003344143830291241145_"><use xlink:href="#SVGID_1_" style="overflow:visible"/></clipPath><g style="clip-path:url(#SVGID_00000080192554037585645770000003344143830291241145_)"><path d="M0 0h97v48H0z" style="fill:#fff"/><path d="M68.1 9.6c-2.5 0-4.6 2.1-4.6 4.6s2.1 4.6 4.6 4.6c2.5 0 4.6-2.1 4.6-4.6s-2.1-4.6-4.6-4.6zm-6.2 4.6c0-3.4 2.8-6.2 6.2-6.2s6.2 2.8 6.2 6.2-2.8 6.2-6.2 6.2-6.2-2.8-6.2-6.2zm-21.3-2.3v26.8h1.6v-9.9h2.6c7.6 0 10.9 5.7 10.9 9.8h1.6c0-4.9-3.9-11.4-12.5-11.4h-2.6V11.9h-1.6zM0 38.7V20.4c0-1.3.4-3 1.4-4.4 1.1-1.4 2.8-2.5 5.5-2.5 3.7 0 7.6 1.8 10.9 4.4 3.3-2.7 7.2-4.4 10.9-4.4 2.6 0 4.4 1 5.5 2.5 1.1 1.4 1.4 3.1 1.4 4.4v18.4H34V20.4c0-1.1-.3-2.4-1.1-3.5-.8-1-2-1.8-4.2-1.8-3.1 0-6.6 1.5-9.7 3.9l.2.2c3.5 3.4 6.1 7.9 6.1 12.5 0 1.3-.4 3.2-1.5 4.8-1.2 1.7-3.1 3-6.1 3h-.9c-2.5-.2-4.2-1.4-5.2-2.9-1.1-1.6-1.5-3.5-1.5-4.8 0-4.6 2.6-9.1 6.1-12.5l.2-.2c-3-2.4-6.5-3.9-9.7-3.9-2.2 0-3.4.8-4.2 1.8-.8 1-1.1 2.4-1.1 3.5v18.4H0zm17.8.8h-.9.9zm0-19.5c.1.1.2.2.4.3 3.3 3.2 5.6 7.4 5.6 11.4 0 1-.3 2.6-1.2 3.9-.9 1.2-2.3 2.3-4.8 2.3-2.4 0-3.9-1-4.8-2.3-.9-1.3-1.2-2.9-1.2-3.9 0-4 2.3-8.2 5.6-11.4.1 0 .2-.1.4-.3zm49.6 18.7V27.3H69v11.5h-1.6zM76 23.9v14.9h1.6V23.9c0-4.9 4-8.9 8.9-8.9s8.9 4 8.9 8.9v14.9H97v-15c-.1-5.7-4.7-10.4-10.5-10.4S76.1 18 76 23.9zm-27.9-5.7c0-2.5 2.1-4.6 4.6-4.6 2.5 0 4.6 2.1 4.6 4.6s-2.1 4.6-4.6 4.6c-2.5 0-4.6-2.1-4.6-4.6zm4.6-6.2c-3.4 0-6.2 2.8-6.2 6.2s2.8 6.2 6.2 6.2 6.2-2.8 6.2-6.2-2.8-6.2-6.2-6.2z" style="fill-rule:evenodd;clip-rule:evenodd;fill:#1d191a"/></g></svg>