<?xml version="1.0" encoding="utf-8"?>
<!-- Generator: Adobe Illustrator 26.4.1, SVG Export Plug-In . SVG Version: 6.00 Build 0)  -->
<svg version="1.1" id="Layer_1" xmlns="http://www.w3.org/2000/svg" xmlns:xlink="http://www.w3.org/1999/xlink" x="0px" y="0px"
	 viewBox="0 0 97 48" style="enable-background:new 0 0 97 48;" xml:space="preserve">
<style type="text/css">
	.st0{clip-path:url(#SVGID_00000125589495503148695550000011641288005759403926_);}
	.st1{fill:#FFFFFF;}
	.st2{fill-rule:evenodd;clip-rule:evenodd;fill:#1D191A;}
</style>
<g>
	<defs>
		<rect id="SVGID_1_" width="97" height="48"/>
	</defs>
	<clipPath id="SVGID_00000080192554037585645770000003344143830291241145_">
		<use xlink:href="#SVGID_1_"  style="overflow:visible;"/>
	</clipPath>
	<g style="clip-path:url(#SVGID_00000080192554037585645770000003344143830291241145_);">
		<rect class="st1" width="97" height="48"/>
		<path class="st2" d="M68.1,9.6c-2.5,0-4.6,2.1-4.6,4.6s2.1,4.6,4.6,4.6c2.5,0,4.6-2.1,4.6-4.6S70.6,9.6,68.1,9.6z M61.9,14.2
			c0-3.4,2.8-6.2,6.2-6.2s6.2,2.8,6.2,6.2s-2.8,6.2-6.2,6.2S61.9,17.6,61.9,14.2z M40.6,11.9v26.8h1.6v-9.9h2.6
			c7.6,0,10.9,5.7,10.9,9.8h1.6c0-4.9-3.9-11.4-12.5-11.4h-2.6V11.9H40.6z M0,38.7V20.4v0c0-1.3,0.4-3,1.4-4.4
			c1.1-1.4,2.8-2.5,5.5-2.5c3.7,0,7.6,1.8,10.9,4.4c3.3-2.7,7.2-4.4,10.9-4.4c2.6,0,4.4,1,5.5,2.5c1.1,1.4,1.4,3.1,1.4,4.4h0v18.4
			h-1.6V20.4h0c0-1.1-0.3-2.4-1.1-3.5c-0.8-1-2-1.8-4.2-1.8c-3.1,0-6.6,1.5-9.7,3.9c0.1,0.1,0.2,0.2,0.2,0.2
			c3.5,3.4,6.1,7.9,6.1,12.5c0,1.3-0.4,3.2-1.5,4.8c-1.2,1.7-3.1,3-6.1,3l-0.9,0c-2.5-0.2-4.2-1.4-5.2-2.9c-1.1-1.6-1.5-3.5-1.5-4.8
			c0-4.6,2.6-9.1,6.1-12.5c0.1-0.1,0.2-0.2,0.2-0.2c-3-2.4-6.5-3.9-9.7-3.9c-2.2,0-3.4,0.8-4.2,1.8c-0.8,1-1.1,2.4-1.1,3.5v18.4H0z
			 M17.8,39.5l-0.9,0C17.2,39.5,17.5,39.5,17.8,39.5z M17.8,20c0.1,0.1,0.2,0.2,0.4,0.3c3.3,3.2,5.6,7.4,5.6,11.4v0l0,0
			c0,1-0.3,2.6-1.2,3.9c-0.9,1.2-2.3,2.3-4.8,2.3c-2.4,0-3.9-1-4.8-2.3c-0.9-1.3-1.2-2.9-1.2-3.9l0,0v0c0-4,2.3-8.2,5.6-11.4
			C17.5,20.3,17.6,20.2,17.8,20z M67.4,38.7V27.3H69v11.5H67.4z M76,23.9v14.9h1.6V23.9c0-4.9,4-8.9,8.9-8.9c4.9,0,8.9,4,8.9,8.9
			v14.9H97V23.9c0,0,0,0,0,0v-0.1h0c-0.1-5.7-4.7-10.4-10.5-10.4S76.1,18,76,23.9L76,23.9L76,23.9z M48.1,18.2
			c0-2.5,2.1-4.6,4.6-4.6c2.5,0,4.6,2.1,4.6,4.6s-2.1,4.6-4.6,4.6C50.2,22.8,48.1,20.7,48.1,18.2z M52.7,12c-3.4,0-6.2,2.8-6.2,6.2
			s2.8,6.2,6.2,6.2s6.2-2.8,6.2-6.2S56.1,12,52.7,12z"/>
	</g>
</g>
</svg>
