<?xml version="1.0" encoding="UTF-8" standalone="no"?>
<!DOCTYPE svg PUBLIC "-//W3C//DTD SVG 1.1//EN" "http://www.w3.org/Graphics/SVG/1.1/DTD/svg11.dtd">
<svg xmlns="http://www.w3.org/2000/svg" xmlns:xlink="http://www.w3.org/1999/xlink" version="1.1" width="490.394pt" height="119.055pt" viewBox="0 0 490.394 119.055">
<g enable-background="new">
<g>
<g id="Layer-1" data-name="Layer">
<clipPath id="cp0">
<path transform="matrix(1,0,0,-1,0,119.055)" d="M 0 119.055 L 490.394 119.055 L 490.394 0 L 0 0 Z "/>
</clipPath>
<g clip-path="url(#cp0)">
<path transform="matrix(1,0,0,-1,250.1108,114.2073)" d="M 0 0 L -19.998 0 C -22.773 0 -25.023 2.25 -25.023 5.027 L -25.023 30.268 L -75.405 30.268 L -75.405 5.027 C -75.405 2.25 -77.655 0 -80.43 0 L -160.844 0 C -163.62 0 -165.872 2.25 -165.872 5.027 L -165.872 35.295 C -165.872 38.07 -163.62 40.32 -160.844 40.32 C -158.067 40.32 -155.817 38.07 -155.817 35.295 L -155.817 10.055 L -85.458 10.055 L -85.458 35.295 C -85.458 38.07 -83.208 40.32 -80.43 40.32 L -19.998 40.32 C -17.221 40.32 -14.971 38.07 -14.971 35.295 L -14.971 10.055 L -5.027 10.055 L -5.027 100.497 L -19.998 100.497 C -22.773 100.497 -25.023 102.748 -25.023 105.524 C -25.023 108.301 -22.773 110.551 -19.998 110.551 L 0 110.551 C 2.775 110.551 5.025 108.301 5.025 105.524 L 5.025 5.027 C 5.025 2.25 2.775 0 0 0 " fill="#3860d3"/>
<path transform="matrix(1,0,0,-1,8.833,114.2073)" d="M 0 0 C -2.777 0 -5.027 2.25 -5.027 5.027 L -5.027 105.524 C -5.027 107.563 -3.797 109.399 -1.912 110.174 C -.025 110.948 2.143 110.507 3.574 109.058 L 40.307 71.894 L 76.85 109.049 C 77.795 110.01 79.086 110.551 80.434 110.551 L 160.848 110.551 C 163.623 110.551 165.873 108.301 165.873 105.524 L 165.873 75.375 C 165.873 72.599 163.623 70.348 160.848 70.348 C 158.07 70.348 155.82 72.599 155.82 75.375 L 155.82 100.497 L 82.541 100.497 L 43.898 61.209 C 42.955 60.25 41.668 59.708 40.322 59.707 L 40.316 59.707 C 38.971 59.707 37.686 60.245 36.74 61.2 L 5.025 93.286 L 5.025 5.027 C 5.025 2.25 2.775 0 0 0 " fill="#3860d3"/>
<filter id="blend_1"><feBlend mode="multiply" in2="BackgroundImage" in="SourceGraphic"/></filter>
<g filter="url(#blend_1)">
<clipPath id="cp1">
<path transform="matrix(1,0,0,-1,0,119.055)" d="M 284.421 3.65625 L 486.587 3.65625 L 486.587 114.775 L 284.421 114.775 Z "/>
</clipPath>
<g clip-path="url(#cp1)">
<path transform="matrix(1,0,0,-1,408.4292,12.1175)" d="M 0 0 L -7.047 7.838 L -10.621 7.838 L -1.342 -2.486 L -1.342 -12.26 L 1.316 -12.26 L 1.316 -2.515 L 10.609 7.838 L 7.035 7.838 Z "/>
<g filter="url(#blend_1)">
<clipPath id="cp2">
<path transform="matrix(1,0,0,-1,0,119.055)" d="M 317.972 94.6841 L 333.986 94.6841 L 333.986 114.775 L 317.972 114.775 Z "/>
</clipPath>
<g clip-path="url(#cp2)">
<path transform="matrix(1,0,0,-1,317.9722,4.2854998)" d="M 0 0 L 0 -20.085 L 2.66 -20.085 L 2.66 -3.548 L 13.355 -13.276 L 13.355 -20.073 L 13.355 -20.077 L 16.014 -20.077 L 16.014 -20.073 L 16.014 .006 L 13.355 .006 L 13.355 -9.682 L 2.705 .006 L 1.842 .006 L 1.834 0 Z "/>
</g>
</g>
<g filter="url(#blend_1)">
<clipPath id="cp3">
<path transform="matrix(1,0,0,-1,0,119.055)" d="M 363.669 94.6929 L 379.703 94.6929 L 379.703 114.775 L 363.669 114.775 Z "/>
</clipPath>
<g clip-path="url(#cp3)">
<path transform="matrix(1,0,0,-1,370.3569,6.9315035)" d="M 0 0 L 0 -17.431 L 2.658 -17.431 L 2.658 0 L 9.346 0 L 9.346 2.652 L -6.687 2.652 L -6.687 0 Z "/>
</g>
</g>
<g filter="url(#blend_1)">
<clipPath id="cp4">
<path transform="matrix(1,0,0,-1,0,119.055)" d="M 309.765 94.6772 L 312.427 94.6772 L 312.427 114.775 L 309.765 114.775 Z "/>
</clipPath>
<g clip-path="url(#cp4)">
<path transform="matrix(1,0,0,-1,0,119.055)" d="M 309.765 94.677 L 312.427 94.677 L 312.427 114.775 L 309.765 114.775 Z "/>
</g>
</g>
<g filter="url(#blend_1)">
<clipPath id="cp5">
<path transform="matrix(1,0,0,-1,0,119.055)" d="M 285.423 94.6772 L 304.22 94.6772 L 304.22 114.775 L 285.423 114.775 Z "/>
</clipPath>
<g clip-path="url(#cp5)">
<path transform="matrix(1,0,0,-1,288.0894,8.938301)" d="M 0 0 L 6.75 -7.509 L 13.473 -.019 L 13.473 -15.439 L 16.131 -15.439 L 16.131 4.659 L 14.1 4.659 L 6.748 -3.53 L -.611 4.659 L -2.654 4.659 L -2.666 -15.439 L -.008 -15.439 Z "/>
</g>
</g>
<g filter="url(#blend_1)">
<clipPath id="cp6">
<path transform="matrix(1,0,0,-1,0,119.055)" d="M 339.531 94.6772 L 342.189 94.6772 L 342.189 114.775 L 339.531 114.775 Z "/>
</clipPath>
<g clip-path="url(#cp6)">
<path transform="matrix(1,0,0,-1,0,119.055)" d="M 339.531 94.677 L 342.189 94.677 L 342.189 114.775 L 339.531 114.775 Z "/>
</g>
</g>
<g filter="url(#blend_1)">
<clipPath id="cp7">
<path transform="matrix(1,0,0,-1,0,119.055)" d="M 383.437 94.6772 L 398.607 94.6772 L 398.607 114.775 L 383.437 114.775 Z "/>
</clipPath>
<g clip-path="url(#cp7)">
<path transform="matrix(1,0,0,-1,392.4468,15.101402)" d="M 0 0 L -6.352 0 L -6.352 8.168 L 0 8.168 C 2.295 8.168 3.113 6.058 3.113 4.083 C 3.113 1.641 1.859 0 0 0 M 5.771 4.083 C 5.771 8.082 3.49 10.775 .086 10.822 L -9.01 10.822 L -9.01 -9.271 L -6.352 -9.271 L -6.352 -2.659 L -.92 -2.659 L 3.059 -9.276 L 6.16 -9.276 L 1.963 -2.295 C 4.25 -1.417 5.771 .995 5.771 4.083 "/>
</g>
</g>
<g filter="url(#blend_1)">
<clipPath id="cp8">
<path transform="matrix(1,0,0,-1,0,119.055)" d="M 347.242 94.6772 L 361.753 94.6772 L 361.753 114.775 L 347.242 114.775 Z "/>
</clipPath>
<g clip-path="url(#cp8)">
<path transform="matrix(1,0,0,-1,361.7534,17.687302)" d="M 0 0 C 0 3.813 -2.33 6.592 -5.562 6.69 L -5.562 6.692 L -10.436 6.717 C -11.713 6.717 -11.852 8.127 -11.852 8.734 C -11.852 9.664 -11.48 10.749 -10.436 10.749 L -1.844 10.749 L -1.844 13.408 L -10.436 13.408 C -12.797 13.408 -14.512 11.443 -14.512 8.734 C -14.512 5.981 -12.836 4.059 -10.443 4.059 L -5.682 4.034 C -3.873 4 -2.66 2.391 -2.66 0 C -2.66 -1.955 -3.469 -4.042 -5.738 -4.042 L -14.453 -4.042 L -14.453 -6.69 L -5.512 -6.69 C -2.207 -6.572 0 -3.918 0 0 "/>
</g>
</g>
<g filter="url(#blend_1)">
<clipPath id="cp9">
<path transform="matrix(1,0,0,-1,0,119.055)" d="M 347.3 94.6665 L 356.242 94.6665 L 356.242 94.6772 L 347.3 94.6772 Z "/>
</clipPath>
<g clip-path="url(#cp9)">
<path transform="matrix(1,0,0,-1,347.3003,24.388504)" d="M 0 0 L 8.715 0 C 8.793 0 8.865 .009 8.941 .011 L 0 .011 Z "/>
</g>
</g>
<g filter="url(#blend_1)">
<clipPath id="cp10">
<path transform="matrix(1,0,0,-1,0,119.055)" d="M 284.421 34.2676 L 304.267 34.2676 L 304.267 54.3574 L 284.421 54.3574 Z "/>
</clipPath>
<g clip-path="url(#cp10)">
<path transform="matrix(1,0,0,-1,293.7495,67.3636)" d="M 0 0 L 1.191 0 L 4.189 -8.045 L -2.998 -8.045 Z M -3.988 -10.701 L 5.18 -10.701 L 7.684 -17.424 L 10.518 -17.424 L 3.033 2.666 L -1.842 2.666 L -9.328 -17.424 L -6.492 -17.424 Z "/>
</g>
</g>
<g filter="url(#blend_1)">
<clipPath id="cp11">
<path transform="matrix(1,0,0,-1,0,119.055)" d="M 307 34.2734 L 322.996 34.2734 L 322.996 54.3574 L 307 54.3574 Z "/>
</clipPath>
<g clip-path="url(#cp11)">
<path transform="matrix(1,0,0,-1,306.9995,64.6995)" d="M 0 0 L 0 -20.082 L 2.654 -20.082 L 2.654 -3.551 L 13.342 -13.271 L 13.342 -20.076 L 15.996 -20.076 L 15.996 .002 L 13.342 .002 L 13.342 -9.682 L 2.697 .002 L 1.838 .002 L 1.834 0 Z "/>
</g>
</g>
<g filter="url(#blend_1)">
<clipPath id="cp12">
<path transform="matrix(1,0,0,-1,0,119.055)" d="M 419.931 34.2754 L 435.931 34.2754 L 435.931 54.3613 L 419.931 54.3613 Z "/>
</clipPath>
<g clip-path="url(#cp12)">
<path transform="matrix(1,0,0,-1,421.7651,64.707309)" d="M 0 0 L -1.834 0 L -1.834 -20.072 L .824 -20.072 L .824 -3.543 L 11.51 -13.264 L 11.51 -20.066 L 11.51 -20.068 L 14.166 -20.068 L 14.166 -20.066 L 14.166 .012 L 11.51 .012 L 11.51 -9.674 L .861 .014 L .01 .014 Z "/>
</g>
</g>
<g filter="url(#blend_1)">
<clipPath id="cp13">
<path transform="matrix(1,0,0,-1,0,119.055)" d="M 396.548 34.2754 L 399.207 34.2754 L 399.207 54.3555 L 396.548 54.3555 Z "/>
</clipPath>
<g clip-path="url(#cp13)">
<path transform="matrix(1,0,0,-1,0,119.055)" d="M 396.548 34.275 L 399.206 34.275 L 399.206 54.355005 L 396.548 54.355005 Z "/>
</g>
</g>
<path transform="matrix(1,0,0,-1,407.814,84.775699)" d="M 0 0 L 8.436 0 L 8.436 2.658 L 0 2.658 C -.588 2.658 -1.066 3.135 -1.066 3.721 L -1.066 10.686 L 8.436 10.686 L 8.436 13.342 L -1.066 13.342 L -1.066 17.424 L 8.436 17.424 L 8.436 20.082 L -3.721 20.082 L -3.721 3.721 C -3.721 1.67 -2.053 0 0 0 "/>
<path transform="matrix(1,0,0,-1,462.4526,84.7874)" d="M 0 0 L 6.818 0 L 6.818 2.658 L -1.617 2.658 C -2.205 2.658 -2.684 3.135 -2.684 3.721 L -2.684 10.686 L 6.818 10.686 L 6.818 13.342 L -2.684 13.342 L -2.684 17.424 L 6.818 17.424 L 6.818 20.08 L -5.34 20.08 L -5.34 3.721 C -5.34 1.691 -3.707 .045 -1.687 .008 L 0 .008 Z "/>
<g filter="url(#blend_1)">
<clipPath id="cp14">
<path transform="matrix(1,0,0,-1,0,119.055)" d="M 377.595 34.2754 L 391.3 34.2754 L 391.3 54.3555 L 377.595 54.3555 Z "/>
</clipPath>
<g clip-path="url(#cp14)">
<path transform="matrix(1,0,0,-1,385.564,82.125308)" d="M 0 0 C -3.225 0 -5.311 2.898 -5.311 7.385 C -5.311 11.801 -3.176 14.768 0 14.768 L 5.736 14.768 L 5.736 17.426 L 0 17.426 C -4.691 17.426 -7.969 13.297 -7.969 7.385 C -7.969 1.393 -4.781 -2.637 -.033 -2.654 L 5.736 -2.654 L 5.736 0 Z "/>
</g>
</g>
<g filter="url(#blend_1)">
<clipPath id="cp15">
<path transform="matrix(1,0,0,-1,0,119.055)" d="M 439.308 34.2754 L 453.013 34.2754 L 453.013 54.3496 L 439.308 54.3496 Z "/>
</clipPath>
<g clip-path="url(#cp15)">
<path transform="matrix(1,0,0,-1,453.0132,82.131198)" d="M 0 0 L -5.738 0 C -8.965 0 -11.051 2.898 -11.051 7.387 C -11.051 11.803 -8.916 14.77 -5.738 14.77 L 0 14.77 L 0 17.426 L -5.738 17.426 C -10.43 17.426 -13.705 13.297 -13.705 7.387 C -13.705 1.436 -10.561 -2.576 -5.867 -2.648 L 0 -2.648 Z "/>
</g>
</g>
<g filter="url(#blend_1)">
<clipPath id="cp16">
<path transform="matrix(1,0,0,-1,0,119.055)" d="M 327.556 34.2734 L 343.919 34.2734 L 343.919 54.3555 L 327.556 54.3555 Z "/>
</clipPath>
<g clip-path="url(#cp16)">
<path transform="matrix(1,0,0,-1,330.2124,67.3577)" d="M 0 0 L 5.738 0 C 8.916 0 11.051 -2.967 11.051 -7.383 C 11.051 -11.869 8.967 -14.768 5.738 -14.768 L 0 -14.768 Z M 13.707 -7.383 C 13.707 -1.471 10.432 2.658 5.738 2.658 L -2.656 2.658 L -2.656 -17.424 L 5.738 -17.424 C 10.506 -17.424 13.707 -13.389 13.707 -7.383 "/>
</g>
</g>
<g filter="url(#blend_1)">
<clipPath id="cp17">
<path transform="matrix(1,0,0,-1,0,119.055)" d="M 360.003 34.2734 L 374.501 34.2734 L 374.501 54.3574 L 360.003 54.3574 Z "/>
</clipPath>
<g clip-path="url(#cp17)">
<path transform="matrix(1,0,0,-1,360.0034,69.359699)" d="M 0 0 C 0 -2.75 1.676 -4.672 4.064 -4.672 L 8.824 -4.695 C 10.631 -4.73 11.842 -6.338 11.842 -8.727 C 11.842 -10.68 11.037 -12.766 8.768 -12.766 L .059 -12.766 L .059 -15.422 L 7.437 -15.422 L 7.437 -15.42 L 8.801 -15.42 C 12.211 -15.402 14.498 -12.717 14.498 -8.727 C 14.498 -4.918 12.172 -2.141 8.941 -2.043 L 8.941 -2.039 L 8.893 -2.039 C 8.85 -2.039 4.07 -2.016 4.07 -2.016 C 2.795 -2.016 2.658 -.605 2.658 0 C 2.658 .93 3.027 2.014 4.07 2.014 L 12.658 2.014 L 12.658 4.662 L 3.99 4.662 C 1.676 4.615 0 2.672 0 0 "/>
</g>
</g>
<g filter="url(#blend_1)">
<clipPath id="cp18">
<path transform="matrix(1,0,0,-1,0,119.055)" d="M 363.994 54.3574 L 372.662 54.3574 L 372.662 54.3652 L 363.994 54.3652 Z "/>
</clipPath>
<g clip-path="url(#cp18)">
<path transform="matrix(1,0,0,-1,372.6616,64.689807)" d="M 0 0 L -8.588 0 C -8.615 0 -8.641 -.008 -8.668 -.008 L 0 -.008 Z "/>
</g>
</g>
<g filter="url(#blend_1)">
<clipPath id="cp19">
<path transform="matrix(1,0,0,-1,0,119.055)" d="M 366.605 34.2734 L 367.968 34.2734 L 367.968 34.2754 L 366.605 34.2754 Z "/>
</clipPath>
<g clip-path="url(#cp19)">
<path transform="matrix(1,0,0,-1,366.605,84.7816)" d="M 0 0 L 1.328 0 C 1.342 0 1.352 .002 1.363 .002 L 0 .002 Z "/>
</g>
</g>
<g filter="url(#blend_1)">
<clipPath id="cp20">
<path transform="matrix(1,0,0,-1,0,119.055)" d="M 368.101 64.043 L 386.689 64.043 L 386.689 84.519 L 368.101 84.519 Z "/>
</clipPath>
<g clip-path="url(#cp20)">
<path transform="matrix(1,0,0,-1,384.0308,34.536005)" d="M 0 0 L 0 -10.049 C 0 -14.695 -2.666 -17.816 -6.637 -17.816 C -10.67 -17.816 -13.271 -14.768 -13.271 -10.049 L -13.271 0 L -15.93 0 L -15.93 -10.049 C -15.93 -15.195 -13.385 -18.941 -9.371 -20.097 C -8.521 -20.34 -7.611 -20.476 -6.637 -20.476 C -5.691 -20.476 -4.799 -20.34 -3.961 -20.097 C .037 -18.931 2.658 -15.126 2.658 -10.049 L 2.658 0 Z "/>
</g>
</g>
<g filter="url(#blend_1)">
<clipPath id="cp21">
<path transform="matrix(1,0,0,-1,0,119.055)" d="M 470.574 64.4268 L 486.587 64.4268 L 486.587 84.5264 L 470.574 84.5264 Z "/>
</clipPath>
<g clip-path="url(#cp21)">
<path transform="matrix(1,0,0,-1,472.4077,34.549104)" d="M 0 0 L -1.834 0 L -1.834 -20.079 L .824 -20.079 L .824 -3.548 L 11.52 -13.277 L 11.52 -20.075 L 11.52 -20.078 L 14.18 -20.078 L 14.18 -20.075 L 14.18 .011 L 11.52 .011 L 11.52 -9.683 L .855 .021 L .02 .021 Z "/>
</g>
</g>
<g filter="url(#blend_1)">
<clipPath id="cp22">
<path transform="matrix(1,0,0,-1,0,119.055)" d="M 389.707 64.4468 L 403.423 64.4468 L 403.423 84.519 L 389.707 84.519 Z "/>
</clipPath>
<g clip-path="url(#cp22)">
<path transform="matrix(1,0,0,-1,403.4233,51.9769)" d="M 0 0 L -5.744 0 C -8.975 0 -11.061 2.901 -11.061 7.392 C -11.061 11.813 -8.922 14.782 -5.744 14.782 L 0 14.782 L 0 17.441 L -5.744 17.441 C -10.439 17.441 -13.717 13.309 -13.717 7.392 C -13.717 1.603 -10.74 -2.346 -6.262 -2.631 L 0 -2.631 Z "/>
</g>
</g>
<g filter="url(#blend_1)">
<clipPath id="cp23">
<path transform="matrix(1,0,0,-1,0,119.055)" d="M 348.712 64.4194 L 365.089 64.4194 L 365.089 84.519 L 348.712 84.519 Z "/>
</clipPath>
<g clip-path="url(#cp23)">
<path transform="matrix(1,0,0,-1,357.1128,51.9769)" d="M 0 0 L -5.74 0 L -5.74 14.782 L 0 14.782 C 3.18 14.782 5.316 11.813 5.316 7.392 C 5.316 2.901 3.23 0 0 0 M 7.977 7.392 C 7.977 13.309 4.697 17.441 0 17.441 L -8.4 17.441 L -8.4 -2.659 L 0 -2.659 C 4.771 -2.659 7.977 1.381 7.977 7.392 "/>
</g>
</g>
<g filter="url(#blend_1)">
<clipPath id="cp24">
<path transform="matrix(1,0,0,-1,0,119.055)" d="M 405.941 64.4468 L 424.769 64.4468 L 424.769 84.5264 L 405.941 84.5264 Z "/>
</clipPath>
<g clip-path="url(#cp24)">
<path transform="matrix(1,0,0,-1,414.8667,37.1961)" d="M 0 0 L .977 0 L 3.801 -8.051 L -2.824 -8.051 Z M -3.756 -10.71 L 4.732 -10.71 L 7.086 -17.412 L 9.902 -17.412 L 2.861 2.667 L -1.885 2.667 L -8.926 -17.412 L -6.109 -17.412 Z "/>
</g>
</g>
<g filter="url(#blend_1)">
<clipPath id="cp25">
<path transform="matrix(1,0,0,-1,0,119.055)" d="M 423.523 64.4468 L 439.554 64.4468 L 439.554 84.5264 L 423.523 84.5264 Z "/>
</clipPath>
<g clip-path="url(#cp25)">
<path transform="matrix(1,0,0,-1,439.5542,37.188798)" d="M 0 0 L 0 2.66 L -16.031 2.66 L -16.031 0 L -9.346 0 L -9.346 -17.419 L -6.687 -17.419 L -6.687 0 Z "/>
</g>
</g>
<g filter="url(#blend_1)">
<clipPath id="cp26">
<path transform="matrix(1,0,0,-1,0,119.055)" d="M 443.4 64.4468 L 446.06 64.4468 L 446.06 84.519 L 443.4 84.519 Z "/>
</clipPath>
<g clip-path="url(#cp26)">
<path transform="matrix(1,0,0,-1,0,119.055)" d="M 443.4 64.447 L 446.06 64.447 L 446.06 84.519 L 443.4 84.519 Z "/>
</g>
</g>
<g filter="url(#blend_1)">
<clipPath id="cp27">
<path transform="matrix(1,0,0,-1,0,119.055)" d="M 307.298 64.4194 L 319.003 64.4194 L 319.003 84.519 L 307.298 84.519 Z "/>
</clipPath>
<g clip-path="url(#cp27)">
<path transform="matrix(1,0,0,-1,319.0034,37.194604)" d="M 0 0 L 0 2.659 L -9.045 2.659 L -9.387 2.659 L -11.705 2.659 L -11.705 -17.441 L -9.045 -17.441 L -9.045 -6.751 L -1.484 -6.751 L -1.484 -4.092 L -9.045 -4.092 L -9.045 0 Z "/>
</g>
</g>
<path transform="matrix(1,0,0,-1,344.9116,37.1995)" d="M 0 0 L 0 2.659 L -12.168 2.659 L -12.168 -13.709 C -12.168 -15.762 -10.498 -17.432 -8.443 -17.432 L 0 -17.432 L 0 -14.773 L -8.443 -14.773 C -9.031 -14.773 -9.508 -14.296 -9.508 -13.709 L -9.508 -6.746 L 0 -6.746 L 0 -4.087 L -9.508 -4.087 L -9.508 0 Z "/>
<g filter="url(#blend_1)">
<clipPath id="cp28">
<path transform="matrix(1,0,0,-1,0,119.055)" d="M 449.404 64.0425 L 467.994 64.0425 L 467.994 84.896 L 449.404 84.896 Z "/>
</clipPath>
<g clip-path="url(#cp28)">
<path transform="matrix(1,0,0,-1,458.6948,52.352899)" d="M 0 0 C -4.029 0 -6.633 3.049 -6.633 7.768 C -6.633 12.414 -3.967 15.534 0 15.534 C 4.096 15.534 6.639 12.559 6.639 7.768 C 6.639 3.122 3.973 0 0 0 M 2.695 17.824 C 1.855 18.061 .955 18.194 0 18.194 C -.93 18.194 -1.809 18.06 -2.633 17.824 C -6.654 16.672 -9.291 12.862 -9.291 7.768 C -9.291 2.661 -6.787 -1.07 -2.826 -2.255 C -1.951 -2.518 -1.006 -2.66 0 -2.66 C .951 -2.66 1.848 -2.523 2.689 -2.275 C 6.684 -1.105 9.299 2.695 9.299 7.768 C 9.299 12.93 6.732 16.682 2.695 17.824 "/>
</g>
</g>
<g filter="url(#blend_1)">
<clipPath id="cp29">
<path transform="matrix(1,0,0,-1,0,119.055)" d="M 285.07 64.0425 L 303.662 64.0425 L 303.662 84.896 L 285.07 84.896 Z "/>
</clipPath>
<g clip-path="url(#cp29)">
<path transform="matrix(1,0,0,-1,294.3608,52.352899)" d="M 0 0 C -4.027 0 -6.631 3.049 -6.631 7.768 C -6.631 12.414 -3.965 15.534 0 15.534 C 4.098 15.534 6.641 12.559 6.641 7.768 C 6.641 3.122 3.973 0 0 0 M 2.697 17.824 C 1.855 18.061 .957 18.194 0 18.194 C -.93 18.194 -1.807 18.06 -2.631 17.824 C -6.654 16.672 -9.291 12.862 -9.291 7.768 C -9.291 2.661 -6.785 -1.07 -2.826 -2.255 C -1.949 -2.518 -1.006 -2.66 0 -2.66 C .953 -2.66 1.85 -2.523 2.691 -2.275 C 6.684 -1.105 9.301 2.695 9.301 7.768 C 9.301 12.93 6.734 16.682 2.697 17.824 "/>
</g>
</g>
<g filter="url(#blend_1)">
<clipPath id="cp30">
<path transform="matrix(1,0,0,-1,0,119.055)" d="M 373.601 4.04883 L 388.773 4.04883 L 388.773 24.1523 L 373.601 24.1523 Z "/>
</clipPath>
<g clip-path="url(#cp30)">
<path transform="matrix(1,0,0,-1,382.6128,105.7288)" d="M 0 0 L -6.352 0 L -6.352 8.166 L 0 8.166 C 2.297 8.166 3.113 6.057 3.113 4.082 C 3.113 1.641 1.863 0 0 0 M 5.771 4.082 C 5.771 8.115 3.453 10.826 0 10.826 L -9.012 10.826 L -9.01 10.818 L -9.012 10.818 L -9.012 -9.277 L -6.352 -9.277 L -6.352 -2.66 L -.924 -2.66 L 3.057 -9.277 L 6.16 -9.277 L 1.961 -2.297 C 4.252 -1.42 5.771 .992 5.771 4.082 "/>
</g>
</g>
<g filter="url(#blend_1)">
<clipPath id="cp31">
<path transform="matrix(1,0,0,-1,0,119.055)" d="M 391.046 4.04883 L 410.916 4.04883 L 410.916 24.168 L 391.046 24.168 Z "/>
</clipPath>
<g clip-path="url(#cp31)">
<path transform="matrix(1,0,0,-1,400.3823,97.5628)" d="M 0 0 L 1.195 0 L 4.195 -8.051 L -2.996 -8.051 Z M -6.498 -17.443 L -3.988 -10.709 L 5.187 -10.709 L 7.693 -17.443 L 10.533 -17.443 L 3.037 2.676 L -1.838 2.676 L -9.336 -17.443 Z "/>
</g>
</g>
<g filter="url(#blend_1)">
<clipPath id="cp32">
<path transform="matrix(1,0,0,-1,0,119.055)" d="M 422.14 4.04883 L 438.152 4.04883 L 438.152 24.168 L 422.14 24.168 Z "/>
</clipPath>
<g clip-path="url(#cp32)">
<path transform="matrix(1,0,0,-1,424.0093,94.8948)" d="M 0 0 L -1.869 0 L -1.869 -20.111 L .791 -20.111 L .791 -3.59 L 11.482 -13.32 L 11.482 -20.111 L 14.143 -20.111 L 14.143 -.004 L 11.482 -.004 L 11.482 -9.725 L .785 .008 L .008 .008 Z "/>
</g>
</g>
<g filter="url(#blend_1)">
<clipPath id="cp33">
<path transform="matrix(1,0,0,-1,0,119.055)" d="M 356.501 4.04883 L 371.396 4.04883 L 371.396 24.168 L 356.501 24.168 Z "/>
</clipPath>
<g clip-path="url(#cp33)">
<path transform="matrix(1,0,0,-1,364.4858,102.8695)" d="M 0 0 L 5.512 7.982 L 2.281 7.982 L -2.354 1.268 L -5.316 1.268 L -5.314 7.959 L -7.973 7.961 L -7.984 -12.127 L -5.324 -12.127 L -5.32 -1.391 L -2.268 -1.391 L 3.854 -12.137 L 6.91 -12.137 Z "/>
</g>
</g>
<g filter="url(#blend_1)">
<clipPath id="cp34">
<path transform="matrix(1,0,0,-1,0,119.055)" d="M 414.187 4.04883 L 416.845 4.04883 L 416.845 24.1582 L 414.187 24.1582 Z "/>
</clipPath>
<g clip-path="url(#cp34)">
<path transform="matrix(1,0,0,-1,0,119.055)" d="M 414.187 4.049 L 416.845 4.049 L 416.845 24.157999 L 414.187 24.157999 Z "/>
</g>
</g>
<path transform="matrix(1,0,0,-1,454.8823,97.5687)" d="M 0 0 L 0 2.658 L -12.168 2.658 L -12.168 -13.709 C -12.168 -15.764 -10.498 -17.432 -8.445 -17.432 L 0 -17.432 L 0 -14.773 L -8.445 -14.773 C -9.033 -14.773 -9.512 -14.297 -9.512 -13.709 L -9.512 -6.746 L 0 -6.746 L 0 -4.088 L -9.512 -4.088 L -9.512 0 Z "/>
<g filter="url(#blend_1)">
<clipPath id="cp35">
<path transform="matrix(1,0,0,-1,0,119.055)" d="M 307.476 4.04883 L 319.181 4.04883 L 319.181 24.1445 L 307.476 24.1445 Z "/>
</clipPath>
<g clip-path="url(#cp35)">
<path transform="matrix(1,0,0,-1,310.1343,104.3206)" d="M 0 0 L 7.562 0 L 7.562 2.66 L 0 2.66 L 0 6.752 L 9.047 6.752 L 9.047 9.41 L 0 9.41 L -.342 9.41 L -2.658 9.41 L -2.658 -10.686 L 0 -10.686 Z "/>
</g>
</g>
<g filter="url(#blend_1)">
<clipPath id="cp36">
<path transform="matrix(1,0,0,-1,0,119.055)" d="M 334.523 3.66797 L 353.113 3.66797 L 353.113 24.1445 L 334.523 24.1445 Z "/>
</clipPath>
<g clip-path="url(#cp36)">
<path transform="matrix(1,0,0,-1,350.4546,94.9105)" d="M 0 0 L 0 -10.049 C 0 -14.695 -2.668 -17.816 -6.637 -17.816 C -10.67 -17.816 -13.271 -14.768 -13.271 -10.049 L -13.271 0 L -15.932 0 L -15.932 -10.049 C -15.932 -15.195 -13.385 -18.941 -9.371 -20.096 C -8.521 -20.34 -7.611 -20.477 -6.637 -20.477 C -5.691 -20.477 -4.799 -20.34 -3.961 -20.096 C .037 -18.93 2.658 -15.127 2.658 -10.049 L 2.658 0 Z "/>
</g>
</g>
<g filter="url(#blend_1)">
<clipPath id="cp37">
<path transform="matrix(1,0,0,-1,0,119.055)" d="M 285.078 3.65625 L 303.667 3.65625 L 303.667 24.5098 L 285.078 24.5098 Z "/>
</clipPath>
<g clip-path="url(#cp37)">
<path transform="matrix(1,0,0,-1,294.3687,112.7405)" d="M 0 0 C -4.027 0 -6.631 3.051 -6.631 7.77 C -6.631 12.414 -3.967 15.535 0 15.535 C 4.096 15.535 6.641 12.559 6.641 7.77 C 6.641 3.123 3.973 0 0 0 M 2.697 17.824 C 1.855 18.062 .957 18.195 0 18.195 C -.93 18.195 -1.809 18.061 -2.633 17.824 C -6.654 16.672 -9.291 12.863 -9.291 7.77 C -9.291 2.662 -6.787 -1.068 -2.826 -2.254 C -1.949 -2.518 -1.006 -2.658 0 -2.658 C .953 -2.658 1.85 -2.521 2.689 -2.275 C 6.684 -1.105 9.299 2.695 9.299 7.77 C 9.299 12.932 6.732 16.684 2.697 17.824 "/>
</g>
</g>
</g>
</g>
</g>
</g>
</g>
</g>
</svg>
