<svg width="1694" height="263" viewBox="0 0 1694 263" fill="none" xmlns="http://www.w3.org/2000/svg">
<path d="M385.59 54.31C380.11 57.33 374.71 58.28 369.63 58.28C353.04 58.28 343.67 47.25 343.67 31.92C343.67 16.59 354.47 4.69 370.82 4.69C376.46 4.69 381.22 5.88 384.24 7.31V15.09C380.35 13.03 376.14 11.76 370.98 11.76C359.23 11.76 352.56 20.81 352.56 31.69C352.56 43.2 359.47 51.22 370.58 51.22C375.66 51.22 379.63 49.79 383.28 47.73L385.58 54.32L385.59 54.31Z" fill="#0F205D"/>
<path d="M398.381 5.16003H406.721V27.24H432.921V5.16003H441.261V57.48H432.921V34.3H406.721V57.48H398.381V5.16003Z" fill="#0F205D"/>
<path d="M472.23 4.92999H478.66L499.38 57.49H490.41L485.25 44.07H465.88L460.88 57.49H452.15L472.24 4.92999H472.23ZM482.71 37.24L478.42 25.33C476.99 21.04 476.2 18.66 475.64 16.91H475.48C475 18.74 474.21 21.12 472.62 25.33L468.33 37.24H482.7H482.71Z" fill="#0F205D"/>
<path d="M510.27 5.16003H523.37C528.45 5.16003 532.02 6.04003 534.72 7.55003C539.88 10.17 541.95 14.77 541.95 19.85C541.95 26.92 537.9 31.52 531.63 33.51V33.67C533.22 34.55 535.28 37.4 538.06 42.09L547.03 57.49H537.42L529.4 43.59C526.86 39.07 524.95 36.84 523.52 36.53H518.6V57.49H510.26V5.17003L510.27 5.16003ZM523.05 29.61C525.67 29.61 527.58 29.14 529.32 28.18C531.7 26.75 533.29 24.21 533.29 20.71C533.29 17.77 532.18 15.23 529.88 13.8C528.45 12.69 526.39 11.98 523.13 11.98H518.6V29.6H523.05V29.61Z" fill="#0F205D"/>
<path d="M559.27 5.16003H567.609V57.48H559.27V5.16003Z" fill="#0F205D"/>
<path d="M594.051 12.23H578.891V5.16003H618.991L616.611 12.23H602.401V57.49H594.061V12.23H594.051Z" fill="#0F205D"/>
<path d="M641.06 36.69L623.43 5.16998H632.56L645.34 29.15H645.5L657.97 5.16998H667.02L649.47 36.85V57.49H641.05V36.69H641.06Z" fill="#0F205D"/>
<path d="M698.789 5.16003H726.659L724.279 12.23H707.129V27.32H723.959V34.38H707.129V57.49H698.789V5.17003V5.16003Z" fill="#0F205D"/>
<path d="M737.15 31.52C737.15 15.64 748.03 4.69 763.27 4.69C778.51 4.69 789.31 15.81 789.31 31.52C789.31 47.23 778.19 58.28 763.27 58.28C748.35 58.28 737.15 47.64 737.15 31.52ZM780.5 31.52C780.5 19.69 773.99 11.75 763.27 11.75C752.55 11.75 746.04 19.29 746.04 31.52C746.04 43.75 752.95 51.21 763.27 51.21C773.59 51.21 780.5 43.75 780.5 31.52Z" fill="#0F205D"/>
<path d="M804.891 47.8C803.701 45.18 803.141 41.92 803.141 38.27V5.16003H811.481V37.64C811.481 40.34 811.881 42.8 812.751 44.71C814.581 48.92 818.391 51.22 824.101 51.22C829.811 51.22 833.551 48.92 835.371 44.71C836.321 42.8 836.721 40.34 836.721 37.48V5.16003H845.061V38.27C845.061 42 844.421 45.26 843.231 47.96C840.211 54.79 833.541 58.28 824.101 58.28C814.661 58.28 807.821 54.79 804.891 47.8Z" fill="#0F205D"/>
<path d="M899.299 57.49L875.799 26.52C873.179 23.19 871.189 20.33 869.369 17.86H869.209C869.369 20.16 869.449 22.86 869.449 26.28V57.48H861.109V5.16003H869.289L891.919 34.94C894.619 38.43 896.679 41.29 898.349 43.83H898.509C898.429 41.05 898.349 38.11 898.349 34.86V5.16003H906.679V57.48H899.299V57.49Z" fill="#0F205D"/>
<path d="M923.209 5.16003H938.219C956.799 5.16003 966.559 15.72 966.559 30.97C966.559 46.22 955.999 57.49 937.579 57.49H923.209V5.17003V5.16003ZM937.659 50.42C952.349 50.42 957.669 41.53 957.669 31.05C957.669 19.77 951.079 12.23 937.499 12.23H931.549V50.42H937.659Z" fill="#0F205D"/>
<path d="M995.15 4.92999H1001.58L1022.3 57.49H1013.33L1008.17 44.07H988.8L983.8 57.49H975.07L995.16 4.92999H995.15ZM1005.63 37.24L1001.34 25.33C999.91 21.04 999.12 18.66 998.56 16.91H998.4C997.93 18.74 997.13 21.12 995.54 25.33L991.26 37.24H1005.63Z" fill="#0F205D"/>
<path d="M1043.12 12.23H1027.95V5.16003H1068.04L1065.66 12.23H1051.45V57.49H1043.12V12.23Z" fill="#0F205D"/>
<path d="M1078.22 5.16003H1086.55V57.48H1078.22V5.16003Z" fill="#0F205D"/>
<path d="M1100.7 31.52C1100.7 15.64 1111.58 4.69 1126.82 4.69C1142.06 4.69 1152.86 15.81 1152.86 31.52C1152.86 47.23 1141.74 58.28 1126.82 58.28C1111.9 58.28 1100.7 47.64 1100.7 31.52ZM1144.05 31.52C1144.05 19.69 1137.54 11.75 1126.82 11.75C1116.1 11.75 1109.59 19.29 1109.59 31.52C1109.59 43.75 1116.5 51.21 1126.82 51.21C1137.14 51.21 1144.05 43.75 1144.05 31.52Z" fill="#0F205D"/>
<path d="M1205.27 57.49L1181.77 26.52C1179.15 23.19 1177.16 20.33 1175.34 17.86H1175.18C1175.34 20.16 1175.42 22.86 1175.42 26.28V57.48H1167.08V5.16003H1175.26L1197.89 34.94C1200.59 38.43 1202.65 41.29 1204.32 43.83H1204.48C1204.4 41.05 1204.32 38.11 1204.32 34.86V5.16003H1212.65V57.48H1205.27V57.49Z" fill="#0F205D"/>
<path d="M346.97 238.59C353.14 242.76 362.22 246.76 373.11 246.76C385.09 246.76 395.98 242.04 395.98 229.15C395.98 202.1 343.7 205.37 343.7 169.42C343.7 152.17 356.95 138.02 380 138.02C391.26 138.02 401.24 140.93 407.05 143.83V158.54C398.88 154.18 389.62 151.82 380.55 151.82C370.57 151.82 360.58 156 360.58 167.8C360.58 193.21 413.04 190.49 413.04 227.88C413.04 248.21 396.52 260.56 373.29 260.56C359.49 260.56 348.06 256.38 340.25 251.12L346.97 238.6V238.59Z" fill="#0F205D"/>
<path d="M442.24 139.11H502.69L497.79 152.91H458.4V190.85H497.43V204.64H458.4V244.94H503.42V258.74H442.24V139.11Z" fill="#0F205D"/>
<path d="M531.26 139.11H558.31C570.47 139.11 578.64 141.29 584.81 144.92C595.52 150.91 600.06 161.26 600.06 172.15C600.06 188.67 590.98 199.02 576.1 203.55V203.92C579.73 205.92 584.27 212.45 590.62 223.16L611.86 258.74H592.98L573.38 225.52C567.75 215.54 563.21 210.09 559.76 209.18H547.42V258.74H531.26V139.11ZM558.13 195.93C564.48 195.93 569.21 194.66 573.56 192.12C579.55 188.85 583.36 182.5 583.36 173.78C583.36 166.88 580.82 161.07 575.74 157.26C572.11 154.53 566.66 152.36 558.31 152.36H547.42V195.93H558.13Z" fill="#0F205D"/>
<path d="M635.85 139.11H652.01V190.66H714.82V139.11H730.79V258.74H714.82V204.46H652.01V258.74H635.85V139.11Z" fill="#0F205D"/>
<path d="M770 139.11H786.16V258.74H770V139.11Z" fill="#0F205D"/>
<path d="M981.93 139.11H1006.44C1018.06 139.11 1026.23 140.93 1032.76 144.56C1044.02 150.73 1050.73 161.99 1050.73 177.42C1050.73 191.22 1044.74 204.47 1029.67 211.18C1023.5 213.9 1015.69 215.54 1004.98 215.54H998.08V258.74H981.92V139.11H981.93ZM1006.07 202.28C1013.33 202.28 1018.6 201.01 1022.41 199.02C1030.22 195.02 1033.85 187.58 1033.85 177.42C1033.85 167.98 1030.22 160.36 1023.14 156.18C1019.14 153.82 1013.88 152.37 1006.26 152.37H998.09V202.29H1006.08L1006.07 202.28Z" fill="#0F205D"/>
<path d="M1076.77 139.11H1103.82C1115.98 139.11 1124.15 141.29 1130.32 144.92C1141.03 150.91 1145.57 161.26 1145.57 172.15C1145.57 188.67 1136.5 199.02 1121.61 203.55V203.92C1125.24 205.92 1129.78 212.45 1136.13 223.16L1157.37 258.74H1138.49L1118.88 225.52C1113.26 215.54 1108.72 210.09 1105.27 209.18H1092.92V258.74H1076.76V139.11H1076.77ZM1103.64 195.93C1110 195.93 1114.71 194.66 1119.07 192.12C1125.06 188.85 1128.87 182.5 1128.87 173.78C1128.87 166.88 1126.33 161.07 1121.24 157.26C1117.61 154.53 1112.17 152.36 1103.81 152.36H1092.92V195.93H1103.63H1103.64Z" fill="#0F205D"/>
<path d="M1202.85 210.99L1162.91 139.1H1180.7L1210.83 195.92H1211.2L1240.79 139.1H1258.4L1218.83 211.35V258.73H1202.85V210.99Z" fill="#0F205D"/>
<path d="M851.741 210.99L811.801 139.1H829.591L859.721 195.92H860.091L889.681 139.1H907.291L867.721 211.35V258.73H851.741V210.99Z" fill="#0F205D"/>
<path d="M1309.88 152.9H1275.39V139.1H1363.98L1359.08 152.9H1326.04V258.73H1309.88V152.9Z" fill="#0F205D"/>
<path d="M1388.59 235.86C1386.41 230.05 1385.32 223.15 1385.32 215.35V139.11H1401.48V214.08C1401.48 220.25 1402.21 225.88 1404.21 230.42C1408.38 240.95 1417.46 246.76 1431.44 246.76C1445.42 246.76 1454.68 240.95 1458.85 230.42C1460.66 225.88 1461.39 220.25 1461.39 213.54V139.11H1477.55V215.35C1477.55 223.34 1476.46 230.42 1473.92 236.23C1467.56 252.2 1452.86 260.56 1431.44 260.56C1410.02 260.56 1394.95 252.03 1388.6 235.87L1388.59 235.86Z" fill="#0F205D"/>
<path d="M1512.65 139.11H1528.81V244.94H1572.56V258.74H1512.65V139.11Z" fill="#0F205D"/>
<path d="M1635.44 138.74H1647.42L1693.89 258.73H1676.46L1664.84 227.33H1618.37L1606.93 258.73H1589.87L1635.43 138.74H1635.44ZM1659.77 214.08L1648.52 182.86C1645.07 172.69 1643.25 167.25 1641.8 162.89H1641.44C1640.17 167.24 1638.17 172.87 1634.54 183.04L1623.28 214.08H1659.77Z" fill="#0F205D"/>
<path d="M117.43 0.309998V221.45H158.36V41.22H221.24V117.64H262.16V0.309998H117.43Z" fill="#0F205D"/>
<path d="M221.24 221.45V262.37H262.16V221.45V158.56H221.24V221.45Z" fill="#0F205D"/>
<path d="M221.239 117.64H158.359V158.56H221.239H262.159V117.64H221.239Z" fill="#D48232"/>
<path d="M41.0196 221.45V158.56H117.43V117.64H0.0996094V262.37H221.24V221.45H41.0196Z" fill="#D48232"/>
</svg>
