<svg width="320" height="340" viewBox="0 0 320 340" fill="none" xmlns="http://www.w3.org/2000/svg">
    <g clip-path="url(#clip0_1187_51076)">
        <path d="M274.371 260.476C268.845 260.476 264.365 255.996 264.365 250.47C264.365 244.943 268.845 240.463 274.371 240.463C279.898 240.463 284.378 244.943 284.378 250.47C284.378 255.996 279.898 260.476 274.371 260.476Z" fill="#212121"/>
        <path d="M241.766 259.859C236.58 259.859 232.376 255.655 232.376 250.469C232.376 245.284 236.58 241.08 241.766 241.08C246.951 241.08 251.155 245.284 251.155 250.469C251.155 255.655 246.951 259.859 241.766 259.859Z" fill="#212121"/>
        <path d="M209.335 260.788C203.636 260.788 199.016 256.168 199.016 250.469C199.016 244.77 203.636 240.15 209.335 240.15C215.034 240.15 219.654 244.77 219.654 250.469C219.654 256.168 215.034 260.788 209.335 260.788Z" fill="#212121"/>
        <path d="M176.948 256.671C173.523 256.671 170.746 253.894 170.746 250.469C170.746 247.044 173.523 244.268 176.948 244.268C180.373 244.268 183.149 247.044 183.149 250.469C183.149 253.894 180.373 256.671 176.948 256.671Z" fill="#212121"/>
        <path d="M144.379 258.726C139.819 258.726 136.123 255.029 136.123 250.469C136.123 245.909 139.819 242.213 144.379 242.213C148.939 242.213 152.636 245.909 152.636 250.469C152.636 255.029 148.939 258.726 144.379 258.726Z" fill="#212121"/>
        <path d="M112.101 255.799C109.157 255.799 106.77 253.413 106.77 250.469C106.77 247.525 109.157 245.139 112.101 245.139C115.044 245.139 117.431 247.525 117.431 250.469C117.431 253.413 115.044 255.799 112.101 255.799Z" fill="#212121"/>
        <path d="M79.5325 255.662C76.6649 255.662 74.3403 253.337 74.3403 250.469C74.3403 247.602 76.6649 245.277 79.5325 245.277C82.4 245.277 84.7246 247.602 84.7246 250.469C84.7246 253.337 82.4 255.662 79.5325 255.662Z" fill="#212121"/>
        <path d="M47.058 259.074C42.3055 259.074 38.4528 255.221 38.4528 250.468C38.4528 245.716 42.3055 241.863 47.058 241.863C51.8105 241.863 55.6631 245.716 55.6631 250.468C55.6631 255.221 51.8105 259.074 47.058 259.074Z" fill="#212121"/>
        <path d="M14.4374 258.516C9.99375 258.516 6.39145 254.914 6.39145 250.47C6.39145 246.026 9.99375 242.424 14.4374 242.424C18.8811 242.424 22.4834 246.026 22.4834 250.47C22.4834 254.914 18.8811 258.516 14.4374 258.516Z" fill="#212121"/>
        <path d="M14.6553 281.586C11.6755 281.586 9.25986 279.17 9.25986 276.19C9.25986 273.211 11.6755 270.795 14.6553 270.795C17.6351 270.795 20.0508 273.211 20.0508 276.19C20.0508 279.17 17.6351 281.586 14.6553 281.586Z" fill="#212121"/>
        <path d="M47.0574 286.038C41.6191 286.038 37.2105 281.629 37.2105 276.191C37.2105 270.752 41.6191 266.344 47.0574 266.344C52.4957 266.344 56.9043 270.752 56.9043 276.191C56.9043 281.629 52.4957 286.038 47.0574 286.038Z" fill="#212121"/>
        <path d="M47.0575 305.84C44.9319 305.84 43.2088 304.117 43.2088 301.991C43.2088 299.866 44.9319 298.143 47.0575 298.143C49.1831 298.143 50.9062 299.866 50.9062 301.991C50.9062 304.117 49.1831 305.84 47.0575 305.84Z" fill="#212121"/>
        <path d="M79.6848 304.003C78.5739 304.003 77.6733 303.103 77.6733 301.992C77.6733 300.881 78.5739 299.98 79.6848 299.98C80.7957 299.98 81.6963 300.881 81.6963 301.992C81.6963 303.103 80.7957 304.003 79.6848 304.003Z" fill="#212121"/>
        <path d="M79.4807 282.966C75.7388 282.966 72.7055 279.933 72.7055 276.191C72.7055 272.449 75.7388 269.416 79.4807 269.416C83.2225 269.416 86.2559 272.449 86.2559 276.191C86.2559 279.933 83.2225 282.966 79.4807 282.966Z" fill="#212121"/>
        <path d="M112.13 278.035C111.111 278.035 110.286 277.209 110.286 276.19C110.286 275.171 111.111 274.346 112.13 274.346C113.149 274.346 113.975 275.171 113.975 276.19C113.975 277.209 113.149 278.035 112.13 278.035Z" fill="#212121"/>
        <path d="M112.13 308.475C108.548 308.475 105.645 305.572 105.645 301.991C105.645 298.409 108.548 295.506 112.13 295.506C115.711 295.506 118.614 298.409 118.614 301.991C118.614 305.572 115.711 308.475 112.13 308.475Z" fill="#212121"/>
        <path d="M144.466 311.743C139.08 311.743 134.714 307.377 134.714 301.991C134.714 296.605 139.08 292.238 144.466 292.238C149.852 292.238 154.219 296.605 154.219 301.991C154.219 307.377 149.852 311.743 144.466 311.743Z" fill="#212121"/>
        <path d="M144.466 288.157C137.857 288.157 132.499 282.799 132.499 276.19C132.499 269.581 137.857 264.223 144.466 264.223C151.076 264.223 156.434 269.581 156.434 276.19C156.434 282.799 151.076 288.157 144.466 288.157Z" fill="#212121"/>
        <path d="M176.905 283.059C173.111 283.059 170.035 279.984 170.035 276.19C170.035 272.396 173.111 269.32 176.905 269.32C180.699 269.32 183.774 272.396 183.774 276.19C183.774 279.984 180.699 283.059 176.905 283.059Z" fill="#212121"/>
        <path d="M209.452 281.593C206.468 281.593 204.049 279.174 204.049 276.19C204.049 273.206 206.468 270.787 209.452 270.787C212.436 270.787 214.854 273.206 214.854 276.19C214.854 279.174 212.436 281.593 209.452 281.593Z" fill="#212121"/>
        <path d="M209.451 306.668C206.869 306.668 204.775 304.574 204.775 301.991C204.775 299.408 206.869 297.314 209.451 297.314C212.034 297.314 214.128 299.408 214.128 301.991C214.128 304.574 212.034 306.668 209.451 306.668Z" fill="#212121"/>
        <path d="M241.969 308.077C238.609 308.077 235.884 305.352 235.884 301.992C235.884 298.631 238.609 295.906 241.969 295.906C245.33 295.906 248.055 298.631 248.055 301.992C248.055 305.352 245.33 308.077 241.969 308.077Z" fill="#212121"/>
        <path d="M241.97 282.471C238.5 282.471 235.688 279.659 235.688 276.19C235.688 272.72 238.5 269.908 241.97 269.908C245.439 269.908 248.251 272.72 248.251 276.19C248.251 279.659 245.439 282.471 241.97 282.471Z" fill="#212121"/>
        <path d="M274.371 283.887C270.12 283.887 266.674 280.441 266.674 276.19C266.674 271.938 270.12 268.492 274.371 268.492C278.622 268.492 282.068 271.938 282.068 276.19C282.068 280.441 278.622 283.887 274.371 283.887Z" fill="#212121"/>
        <path d="M274.372 309.245C270.365 309.245 267.117 305.997 267.117 301.991C267.117 297.984 270.365 294.736 274.372 294.736C278.378 294.736 281.626 297.984 281.626 301.991C281.626 305.997 278.378 309.245 274.372 309.245Z" fill="#212121"/>
        <path d="M306.904 306.429C304.453 306.429 302.467 304.442 302.467 301.992C302.467 299.541 304.453 297.555 306.904 297.555C309.354 297.555 311.341 299.541 311.341 301.992C311.341 304.442 309.354 306.429 306.904 306.429Z" fill="#212121"/>
        <path d="M306.904 283.241C303.01 283.241 299.853 280.084 299.853 276.19C299.853 272.296 303.01 269.139 306.904 269.139C310.798 269.139 313.955 272.296 313.955 276.19C313.955 280.084 310.798 283.241 306.904 283.241Z" fill="#212121"/>
        <path d="M306.846 252.852C305.53 252.852 304.464 251.785 304.464 250.47C304.464 249.154 305.53 248.088 306.846 248.088C308.161 248.088 309.228 249.154 309.228 250.47C309.228 251.785 308.161 252.852 306.846 252.852Z" fill="#212121"/>
        <path d="M176.904 310.821C172.027 310.821 168.074 306.867 168.074 301.99C168.074 297.114 172.027 293.16 176.904 293.16C181.781 293.16 185.734 297.114 185.734 301.99C185.734 306.867 181.781 310.821 176.904 310.821Z" fill="#212121"/>
        <path d="M14.5537 312.15C8.943 312.15 4.39459 307.602 4.39459 301.991C4.39459 296.38 8.943 291.832 14.5537 291.832C20.1645 291.832 24.7129 296.38 24.7129 301.991C24.7129 307.602 20.1645 312.15 14.5537 312.15Z" fill="#212121"/>
        <path d="M274.371 337.476C268.845 337.476 264.365 332.996 264.365 327.47C264.365 321.943 268.845 317.463 274.371 317.463C279.898 317.463 284.378 321.943 284.378 327.47C284.378 332.996 279.898 337.476 274.371 337.476Z" fill="#212121"/>
        <path d="M241.766 336.859C236.58 336.859 232.376 332.655 232.376 327.469C232.376 322.284 236.58 318.08 241.766 318.08C246.951 318.08 251.155 322.284 251.155 327.469C251.155 332.655 246.951 336.859 241.766 336.859Z" fill="#212121"/>
        <path d="M209.335 337.788C203.636 337.788 199.016 333.168 199.016 327.469C199.016 321.77 203.636 317.15 209.335 317.15C215.034 317.15 219.654 321.77 219.654 327.469C219.654 333.168 215.034 337.788 209.335 337.788Z" fill="#212121"/>
        <path d="M176.948 333.671C173.523 333.671 170.746 330.894 170.746 327.469C170.746 324.044 173.523 321.268 176.948 321.268C180.373 321.268 183.149 324.044 183.149 327.469C183.149 330.894 180.373 333.671 176.948 333.671Z" fill="#212121"/>
        <path d="M144.379 335.726C139.819 335.726 136.123 332.029 136.123 327.469C136.123 322.909 139.819 319.213 144.379 319.213C148.939 319.213 152.636 322.909 152.636 327.469C152.636 332.029 148.939 335.726 144.379 335.726Z" fill="#212121"/>
        <path d="M112.101 332.799C109.157 332.799 106.77 330.413 106.77 327.469C106.77 324.525 109.157 322.139 112.101 322.139C115.044 322.139 117.431 324.525 117.431 327.469C117.431 330.413 115.044 332.799 112.101 332.799Z" fill="#212121"/>
        <path d="M79.5325 332.662C76.6649 332.662 74.3403 330.337 74.3403 327.469C74.3403 324.602 76.6649 322.277 79.5325 322.277C82.4 322.277 84.7246 324.602 84.7246 327.469C84.7246 330.337 82.4 332.662 79.5325 332.662Z" fill="#212121"/>
        <path d="M47.058 336.074C42.3055 336.074 38.4528 332.221 38.4528 327.468C38.4528 322.716 42.3055 318.863 47.058 318.863C51.8105 318.863 55.6631 322.716 55.6631 327.468C55.6631 332.221 51.8105 336.074 47.058 336.074Z" fill="#212121"/>
        <path d="M14.4374 335.516C9.99375 335.516 6.39145 331.914 6.39145 327.47C6.39145 323.026 9.99375 319.424 14.4374 319.424C18.8811 319.424 22.4834 323.026 22.4834 327.47C22.4834 331.914 18.8811 335.516 14.4374 335.516Z" fill="#212121"/>
        <path d="M306.846 329.852C305.53 329.852 304.464 328.785 304.464 327.47C304.464 326.154 305.53 325.088 306.846 325.088C308.161 325.088 309.228 326.154 309.228 327.47C309.228 328.785 308.161 329.852 306.846 329.852Z" fill="#212121"/>
        <path d="M47.3279 213.825C52.8545 213.825 57.3346 218.305 57.3346 223.831C57.3346 229.358 52.8545 233.838 47.3279 233.838C41.8014 233.838 37.3213 229.358 37.3213 223.831C37.3213 218.305 41.8014 213.825 47.3279 213.825Z" fill="#212121"/>
        <path d="M79.9333 214.442C85.119 214.442 89.3228 218.646 89.3228 223.831C89.3228 229.017 85.119 233.221 79.9333 233.221C74.7477 233.221 70.5439 229.017 70.5439 223.831C70.5439 218.646 74.7477 214.442 79.9333 214.442Z" fill="#212121"/>
        <path d="M112.364 213.513C118.063 213.513 122.683 218.132 122.683 223.831C122.683 229.53 118.063 234.15 112.364 234.15C106.665 234.15 102.045 229.53 102.045 223.831C102.045 218.132 106.665 213.513 112.364 213.513Z" fill="#212121"/>
        <path d="M144.751 217.63C148.176 217.63 150.953 220.407 150.953 223.832C150.953 227.257 148.176 230.033 144.751 230.033C141.326 230.033 138.55 227.257 138.55 223.832C138.55 220.407 141.326 217.63 144.751 217.63Z" fill="#212121"/>
        <path d="M177.32 215.575C181.88 215.575 185.577 219.271 185.577 223.831C185.577 228.391 181.88 232.088 177.32 232.088C172.76 232.088 169.063 228.391 169.063 223.831C169.063 219.271 172.76 215.575 177.32 215.575Z" fill="#212121"/>
        <path d="M209.599 218.502C212.542 218.502 214.929 220.888 214.929 223.832C214.929 226.776 212.542 229.162 209.599 229.162C206.655 229.162 204.269 226.776 204.269 223.832C204.269 220.888 206.655 218.502 209.599 218.502Z" fill="#212121"/>
        <path d="M242.167 218.639C245.034 218.639 247.359 220.964 247.359 223.831C247.359 226.699 245.034 229.023 242.167 229.023C239.299 229.023 236.975 226.699 236.975 223.831C236.975 220.964 239.299 218.639 242.167 218.639Z" fill="#212121"/>
        <path d="M274.641 215.227C279.394 215.227 283.246 219.08 283.246 223.832C283.246 228.585 279.394 232.437 274.641 232.437C269.889 232.437 266.036 228.585 266.036 223.832C266.036 219.08 269.889 215.227 274.641 215.227Z" fill="#212121"/>
        <path d="M307.262 215.785C311.705 215.785 315.308 219.387 315.308 223.831C315.308 228.275 311.705 231.877 307.262 231.877C302.818 231.877 299.216 228.275 299.216 223.831C299.216 219.387 302.818 215.785 307.262 215.785Z" fill="#212121"/>
        <path d="M307.044 192.715C310.024 192.715 312.439 195.131 312.439 198.11C312.439 201.09 310.024 203.506 307.044 203.506C304.064 203.506 301.648 201.09 301.648 198.11C301.648 195.131 304.064 192.715 307.044 192.715Z" fill="#212121"/>
        <path d="M274.642 188.263C280.08 188.263 284.489 192.672 284.489 198.11C284.489 203.548 280.08 207.957 274.642 207.957C269.204 207.957 264.795 203.548 264.795 198.11C264.795 192.672 269.204 188.263 274.642 188.263Z" fill="#212121"/>
        <path d="M274.642 168.461C276.767 168.461 278.49 170.184 278.49 172.309C278.49 174.435 276.767 176.158 274.642 176.158C272.516 176.158 270.793 174.435 270.793 172.309C270.793 170.184 272.516 168.461 274.642 168.461Z" fill="#212121"/>
        <path d="M242.014 170.297C243.125 170.297 244.026 171.198 244.026 172.309C244.026 173.42 243.125 174.32 242.014 174.32C240.904 174.32 240.003 173.42 240.003 172.309C240.003 171.198 240.904 170.297 242.014 170.297Z" fill="#212121"/>
        <path d="M242.219 191.334C245.96 191.334 248.994 194.368 248.994 198.11C248.994 201.851 245.96 204.885 242.219 204.885C238.477 204.885 235.443 201.851 235.443 198.11C235.443 194.368 238.477 191.334 242.219 191.334Z" fill="#212121"/>
        <path d="M209.569 196.266C210.588 196.266 211.414 197.092 211.414 198.111C211.414 199.129 210.588 199.955 209.569 199.955C208.55 199.955 207.725 199.129 207.725 198.111C207.725 197.092 208.55 196.266 209.569 196.266Z" fill="#212121"/>
        <path d="M209.57 165.825C213.151 165.825 216.054 168.729 216.054 172.31C216.054 175.892 213.151 178.795 209.57 178.795C205.988 178.795 203.085 175.892 203.085 172.31C203.085 168.729 205.988 165.825 209.57 165.825Z" fill="#212121"/>
        <path d="M177.233 162.558C182.619 162.558 186.985 166.924 186.985 172.31C186.985 177.696 182.619 182.062 177.233 182.062C171.847 182.062 167.48 177.696 167.48 172.31C167.48 166.924 171.847 162.558 177.233 162.558Z" fill="#212121"/>
        <path d="M177.233 186.144C183.842 186.144 189.2 191.501 189.2 198.111C189.2 204.72 183.842 210.078 177.233 210.078C170.624 210.078 165.266 204.72 165.266 198.111C165.266 191.501 170.624 186.144 177.233 186.144Z" fill="#212121"/>
        <path d="M144.794 191.241C148.588 191.241 151.664 194.317 151.664 198.111C151.664 201.905 148.588 204.98 144.794 204.98C141 204.98 137.925 201.905 137.925 198.111C137.925 194.317 141 191.241 144.794 191.241Z" fill="#212121"/>
        <path d="M112.247 192.708C115.231 192.708 117.65 195.127 117.65 198.111C117.65 201.095 115.231 203.514 112.247 203.514C109.264 203.514 106.845 201.095 106.845 198.111C106.845 195.127 109.264 192.708 112.247 192.708Z" fill="#212121"/>
        <path d="M112.248 167.633C114.831 167.633 116.924 169.727 116.924 172.31C116.924 174.893 114.831 176.986 112.248 176.986C109.665 176.986 107.571 174.893 107.571 172.31C107.571 169.727 109.665 167.633 112.248 167.633Z" fill="#212121"/>
        <path d="M79.7299 166.224C83.0907 166.224 85.8152 168.948 85.8152 172.309C85.8152 175.67 83.0907 178.395 79.7299 178.395C76.369 178.395 73.6445 175.67 73.6445 172.309C73.6445 168.948 76.369 166.224 79.7299 166.224Z" fill="#212121"/>
        <path d="M79.7296 191.83C83.1987 191.83 86.011 194.642 86.011 198.111C86.011 201.58 83.1987 204.393 79.7296 204.393C76.2605 204.393 73.4482 201.58 73.4482 198.111C73.4482 194.642 76.2605 191.83 79.7296 191.83Z" fill="#212121"/>
        <path d="M47.3283 190.414C51.5795 190.414 55.0257 193.86 55.0257 198.111C55.0257 202.362 51.5795 205.809 47.3283 205.809C43.0771 205.809 39.6309 202.362 39.6309 198.111C39.6309 193.86 43.0771 190.414 47.3283 190.414Z" fill="#212121"/>
        <path d="M47.3277 165.056C51.3342 165.056 54.5822 168.303 54.5822 172.31C54.5822 176.317 51.3342 179.564 47.3277 179.564C43.3212 179.564 40.0732 176.317 40.0732 172.31C40.0732 168.303 43.3212 165.056 47.3277 165.056Z" fill="#212121"/>
        <path d="M14.7953 167.872C17.2457 167.872 19.2322 169.859 19.2322 172.309C19.2322 174.76 17.2457 176.746 14.7953 176.746C12.3449 176.746 10.3584 174.76 10.3584 172.309C10.3584 169.859 12.3449 167.872 14.7953 167.872Z" fill="#212121"/>
        <path d="M14.7953 191.06C18.6895 191.06 21.8464 194.217 21.8464 198.111C21.8464 202.005 18.6895 205.162 14.7953 205.162C10.901 205.162 7.74414 202.005 7.74414 198.111C7.74414 194.217 10.901 191.06 14.7953 191.06Z" fill="#212121"/>
        <path d="M14.8535 221.449C16.169 221.449 17.2354 222.516 17.2354 223.831C17.2354 225.146 16.169 226.213 14.8535 226.213C13.5381 226.213 12.4717 225.146 12.4717 223.831C12.4717 222.516 13.5381 221.449 14.8535 221.449Z" fill="#212121"/>
        <path d="M144.795 163.48C149.672 163.48 153.625 167.434 153.625 172.31C153.625 177.187 149.672 181.141 144.795 181.141C139.918 181.141 135.965 177.187 135.965 172.31C135.965 167.434 139.918 163.48 144.795 163.48Z" fill="#212121"/>
        <path d="M307.145 162.15C312.756 162.15 317.305 166.699 317.305 172.31C317.305 177.92 312.756 182.469 307.145 182.469C301.535 182.469 296.986 177.92 296.986 172.31C296.986 166.699 301.535 162.15 307.145 162.15Z" fill="#212121"/>
        <path d="M47.3279 136.674C52.8545 136.674 57.3346 141.154 57.3346 146.681C57.3346 152.207 52.8545 156.687 47.3279 156.687C41.8014 156.687 37.3213 152.207 37.3213 146.681C37.3213 141.154 41.8014 136.674 47.3279 136.674Z" fill="#212121"/>
        <path d="M79.9333 137.292C85.119 137.292 89.3228 141.495 89.3228 146.681C89.3228 151.867 85.119 156.07 79.9333 156.07C74.7477 156.07 70.5439 151.867 70.5439 146.681C70.5439 141.495 74.7477 137.292 79.9333 137.292Z" fill="#212121"/>
        <path d="M112.364 136.362C118.063 136.362 122.683 140.982 122.683 146.681C122.683 152.38 118.063 157 112.364 157C106.665 157 102.045 152.38 102.045 146.681C102.045 140.982 106.665 136.362 112.364 136.362Z" fill="#212121"/>
        <path d="M144.751 140.48C148.176 140.48 150.953 143.256 150.953 146.681C150.953 150.106 148.176 152.883 144.751 152.883C141.326 152.883 138.55 150.106 138.55 146.681C138.55 143.256 141.326 140.48 144.751 140.48Z" fill="#212121"/>
        <path d="M177.32 138.424C181.88 138.424 185.577 142.121 185.577 146.681C185.577 151.241 181.88 154.937 177.32 154.937C172.76 154.937 169.063 151.241 169.063 146.681C169.063 142.121 172.76 138.424 177.32 138.424Z" fill="#212121"/>
        <path d="M209.599 141.352C212.542 141.352 214.929 143.738 214.929 146.682C214.929 149.625 212.542 152.012 209.599 152.012C206.655 152.012 204.269 149.625 204.269 146.682C204.269 143.738 206.655 141.352 209.599 141.352Z" fill="#212121"/>
        <path d="M242.167 141.489C245.034 141.489 247.359 143.813 247.359 146.681C247.359 149.548 245.034 151.873 242.167 151.873C239.299 151.873 236.975 149.548 236.975 146.681C236.975 143.813 239.299 141.489 242.167 141.489Z" fill="#212121"/>
        <path d="M274.641 138.077C279.394 138.077 283.246 141.929 283.246 146.682C283.246 151.434 279.394 155.287 274.641 155.287C269.889 155.287 266.036 151.434 266.036 146.682C266.036 141.929 269.889 138.077 274.641 138.077Z" fill="#212121"/>
        <path d="M307.262 138.635C311.705 138.635 315.308 142.237 315.308 146.681C315.308 151.124 311.705 154.727 307.262 154.727C302.818 154.727 299.216 151.124 299.216 146.681C299.216 142.237 302.818 138.635 307.262 138.635Z" fill="#212121"/>
        <path d="M307.044 115.565C310.024 115.565 312.439 117.98 312.439 120.96C312.439 123.94 310.024 126.355 307.044 126.355C304.064 126.355 301.648 123.94 301.648 120.96C301.648 117.98 304.064 115.565 307.044 115.565Z" fill="#212121"/>
        <path d="M274.642 111.113C280.08 111.113 284.489 115.521 284.489 120.96C284.489 126.398 280.08 130.807 274.642 130.807C269.204 130.807 264.795 126.398 264.795 120.96C264.795 115.521 269.204 111.113 274.642 111.113Z" fill="#212121"/>
        <path d="M274.642 91.3104C276.767 91.3104 278.49 93.0335 278.49 95.1591C278.49 97.2846 276.767 99.0078 274.642 99.0078C272.516 99.0078 270.793 97.2847 270.793 95.1591C270.793 93.0335 272.516 91.3104 274.642 91.3104Z" fill="#212121"/>
        <path d="M242.014 93.1469C243.125 93.1469 244.026 94.0475 244.026 95.1584C244.026 96.2693 243.125 97.1699 242.014 97.1699C240.904 97.1699 240.003 96.2693 240.003 95.1584C240.003 94.0475 240.904 93.1469 242.014 93.1469Z" fill="#212121"/>
        <path d="M242.219 114.184C245.96 114.184 248.994 117.217 248.994 120.959C248.994 124.701 245.96 127.734 242.219 127.734C238.477 127.734 235.443 124.701 235.443 120.959C235.443 117.217 238.477 114.184 242.219 114.184Z" fill="#212121"/>
        <path d="M209.569 119.116C210.588 119.116 211.414 119.942 211.414 120.96C211.414 121.979 210.588 122.805 209.569 122.805C208.55 122.805 207.725 121.979 207.725 120.96C207.725 119.942 208.55 119.116 209.569 119.116Z" fill="#212121"/>
        <path d="M209.57 88.6751C213.151 88.6751 216.054 91.5784 216.054 95.1598C216.054 98.7412 213.151 101.645 209.57 101.645C205.988 101.645 203.085 98.7412 203.085 95.1598C203.085 91.5784 205.988 88.6751 209.57 88.6751Z" fill="#212121"/>
        <path d="M177.233 85.4071C182.619 85.4071 186.985 89.7735 186.985 95.1596C186.985 100.546 182.619 104.912 177.233 104.912C171.847 104.912 167.48 100.546 167.48 95.1596C167.48 89.7735 171.847 85.4071 177.233 85.4071Z" fill="#212121"/>
        <path d="M177.233 108.993C183.842 108.993 189.2 114.351 189.2 120.96C189.2 127.57 183.842 132.928 177.233 132.928C170.624 132.928 165.266 127.57 165.266 120.96C165.266 114.351 170.624 108.993 177.233 108.993Z" fill="#212121"/>
        <path d="M144.794 114.091C148.588 114.091 151.664 117.167 151.664 120.961C151.664 124.754 148.588 127.83 144.794 127.83C141 127.83 137.925 124.754 137.925 120.961C137.925 117.167 141 114.091 144.794 114.091Z" fill="#212121"/>
        <path d="M112.247 115.558C115.231 115.558 117.65 117.977 117.65 120.961C117.65 123.944 115.231 126.363 112.247 126.363C109.264 126.363 106.845 123.944 106.845 120.961C106.845 117.977 109.264 115.558 112.247 115.558Z" fill="#212121"/>
        <path d="M112.248 90.4828C114.831 90.4828 116.924 92.5766 116.924 95.1594C116.924 97.7422 114.831 99.8359 112.248 99.8359C109.665 99.8359 107.571 97.7422 107.571 95.1594C107.571 92.5766 109.665 90.4828 112.248 90.4828Z" fill="#212121"/>
        <path d="M79.7299 89.0735C83.0907 89.0735 85.8152 91.798 85.8152 95.1588C85.8152 98.5196 83.0907 101.244 79.7299 101.244C76.369 101.244 73.6445 98.5196 73.6445 95.1588C73.6445 91.798 76.369 89.0735 79.7299 89.0735Z" fill="#212121"/>
        <path d="M79.7296 114.679C83.1987 114.679 86.011 117.492 86.011 120.961C86.011 124.43 83.1987 127.242 79.7296 127.242C76.2605 127.242 73.4482 124.43 73.4482 120.961C73.4482 117.492 76.2605 114.679 79.7296 114.679Z" fill="#212121"/>
        <path d="M47.3283 113.263C51.5795 113.263 55.0257 116.71 55.0257 120.961C55.0257 125.212 51.5795 128.658 47.3283 128.658C43.0771 128.658 39.6309 125.212 39.6309 120.961C39.6309 116.71 43.0771 113.263 47.3283 113.263Z" fill="#212121"/>
        <path d="M47.3277 87.9052C51.3342 87.9052 54.5822 91.1531 54.5822 95.1596C54.5822 99.1661 51.3342 102.414 47.3277 102.414C43.3212 102.414 40.0732 99.1661 40.0732 95.1596C40.0732 91.1531 43.3212 87.9052 47.3277 87.9052Z" fill="#212121"/>
        <path d="M14.7953 90.7219C17.2457 90.7219 19.2322 92.7083 19.2322 95.1588C19.2322 97.6092 17.2457 99.5957 14.7953 99.5957C12.3449 99.5957 10.3584 97.6092 10.3584 95.1588C10.3584 92.7083 12.3449 90.7219 14.7953 90.7219Z" fill="#212121"/>
        <path d="M14.7953 113.909C18.6895 113.909 21.8464 117.066 21.8464 120.961C21.8464 124.855 18.6895 128.012 14.7953 128.012C10.901 128.012 7.74414 124.855 7.74414 120.961C7.74414 117.066 10.901 113.909 14.7953 113.909Z" fill="#212121"/>
        <path d="M14.8535 144.299C16.169 144.299 17.2354 145.365 17.2354 146.681C17.2354 147.996 16.169 149.062 14.8535 149.062C13.5381 149.062 12.4717 147.996 12.4717 146.681C12.4717 145.365 13.5381 144.299 14.8535 144.299Z" fill="#212121"/>
        <path d="M144.795 86.3297C149.672 86.3297 153.625 90.2831 153.625 95.16C153.625 100.037 149.672 103.99 144.795 103.99C139.918 103.99 135.965 100.037 135.965 95.16C135.965 90.2831 139.918 86.3297 144.795 86.3297Z" fill="#212121"/>
        <path d="M307.145 85.0001C312.756 85.0001 317.305 89.5485 317.305 95.1592C317.305 100.77 312.756 105.318 307.145 105.318C301.535 105.318 296.986 100.77 296.986 95.1592C296.986 89.5485 301.535 85.0001 307.145 85.0001Z" fill="#212121"/>
        <path d="M270.371 59.5238C264.845 59.5238 260.365 64.0039 260.365 69.5304C260.365 75.057 264.845 79.5371 270.371 79.5371C275.898 79.5371 280.378 75.057 280.378 69.5304C280.378 64.0039 275.898 59.5238 270.371 59.5238Z" fill="#212121"/>
        <path d="M237.766 60.1411C232.58 60.1411 228.376 64.3449 228.376 69.5305C228.376 74.7161 232.58 78.9199 237.766 78.9199C242.951 78.9199 247.155 74.7161 247.155 69.5305C247.155 64.3449 242.951 60.1411 237.766 60.1411Z" fill="#212121"/>
        <path d="M205.335 59.2118C199.636 59.2118 195.016 63.8317 195.016 69.5307C195.016 75.2297 199.636 79.8496 205.335 79.8496C211.034 79.8496 215.654 75.2297 215.654 69.5307C215.654 63.8317 211.034 59.2118 205.335 59.2118Z" fill="#212121"/>
        <path d="M172.948 63.3294C169.523 63.3294 166.746 66.1059 166.746 69.5309C166.746 72.9559 169.523 75.7324 172.948 75.7324C176.373 75.7324 179.149 72.9559 179.149 69.5309C179.149 66.1059 176.373 63.3294 172.948 63.3294Z" fill="#212121"/>
        <path d="M140.379 61.274C135.819 61.274 132.123 64.9706 132.123 69.5305C132.123 74.0905 135.819 77.7871 140.379 77.7871C144.939 77.7871 148.636 74.0905 148.636 69.5305C148.636 64.9706 144.939 61.274 140.379 61.274Z" fill="#212121"/>
        <path d="M108.101 64.2011C105.157 64.2011 102.77 66.5875 102.77 69.5312C102.77 72.4749 105.157 74.8613 108.101 74.8613C111.044 74.8613 113.431 72.4749 113.431 69.5312C113.431 66.5875 111.044 64.2011 108.101 64.2011Z" fill="#212121"/>
        <path d="M75.5325 64.3384C72.6649 64.3384 70.3403 66.663 70.3403 69.5305C70.3403 72.398 72.6649 74.7227 75.5325 74.7227C78.4 74.7227 80.7246 72.398 80.7246 69.5305C80.7246 66.663 78.4 64.3384 75.5325 64.3384Z" fill="#212121"/>
        <path d="M43.058 60.9264C38.3055 60.9264 34.4528 64.7791 34.4528 69.5315C34.4528 74.284 38.3055 78.1367 43.058 78.1367C47.8105 78.1367 51.6631 74.284 51.6631 69.5316C51.6631 64.7791 47.8105 60.9264 43.058 60.9264Z" fill="#212121"/>
        <path d="M10.4374 61.4842C5.99375 61.4842 2.39145 65.0865 2.39145 69.5302C2.39145 73.9738 5.99375 77.5762 10.4374 77.5762C14.8811 77.5762 18.4834 73.9738 18.4834 69.5302C18.4834 65.0865 14.8811 61.4842 10.4374 61.4842Z" fill="#212121"/>
        <path d="M10.6553 38.4142C7.67548 38.4142 5.25986 40.8298 5.25986 43.8096C5.25986 46.7895 7.67548 49.2051 10.6553 49.2051C13.6351 49.2051 16.0508 46.7895 16.0508 43.8096C16.0508 40.8298 13.6351 38.4142 10.6553 38.4142Z" fill="#212121"/>
        <path d="M43.0574 33.9625C37.6191 33.9625 33.2105 38.3711 33.2105 43.8094C33.2105 49.2476 37.6191 53.6562 43.0574 53.6562C48.4957 53.6562 52.9043 49.2476 52.9043 43.8094C52.9043 38.3711 48.4957 33.9625 43.0574 33.9625Z" fill="#212121"/>
        <path d="M43.0575 14.16C40.9319 14.16 39.2088 15.8831 39.2088 18.0087C39.2088 20.1343 40.9319 21.8574 43.0575 21.8574C45.1831 21.8574 46.9063 20.1343 46.9063 18.0087C46.9063 15.8831 45.1831 14.16 43.0575 14.16Z" fill="#212121"/>
        <path d="M75.6848 15.9966C74.5739 15.9966 73.6733 16.8971 73.6733 18.008C73.6733 19.1189 74.5739 20.0195 75.6848 20.0195C76.7957 20.0195 77.6963 19.1189 77.6963 18.008C77.6963 16.8971 76.7957 15.9966 75.6848 15.9966Z" fill="#212121"/>
        <path d="M75.4807 37.0336C71.7388 37.0336 68.7055 40.067 68.7055 43.8088C68.7055 47.5506 71.7388 50.584 75.4807 50.584C79.2225 50.584 82.2559 47.5506 82.2559 43.8088C82.2559 40.067 79.2225 37.0336 75.4807 37.0336Z" fill="#212121"/>
        <path d="M108.13 41.9653C107.111 41.9653 106.286 42.7912 106.286 43.8098C106.286 44.8285 107.111 45.6543 108.13 45.6543C109.149 45.6543 109.975 44.8285 109.975 43.8098C109.975 42.7912 109.149 41.9653 108.13 41.9653Z" fill="#212121"/>
        <path d="M108.13 11.5247C104.548 11.5247 101.645 14.428 101.645 18.0094C101.645 21.5908 104.548 24.4941 108.13 24.4941C111.711 24.4941 114.614 21.5908 114.614 18.0094C114.614 14.428 111.711 11.5247 108.13 11.5247Z" fill="#212121"/>
        <path d="M140.466 8.25674C135.08 8.25674 130.714 12.6231 130.714 18.0092C130.714 23.3954 135.08 27.7617 140.466 27.7617C145.852 27.7617 150.219 23.3954 150.219 18.0092C150.219 12.6231 145.852 8.25674 140.466 8.25674Z" fill="#212121"/>
        <path d="M140.466 31.8427C133.857 31.8427 128.499 37.2007 128.499 43.81C128.499 50.4194 133.857 55.7773 140.466 55.7773C147.076 55.7773 152.434 50.4194 152.434 43.81C152.434 37.2007 147.076 31.8427 140.466 31.8427Z" fill="#212121"/>
        <path d="M172.905 36.9405C169.111 36.9405 166.035 40.0162 166.035 43.8101C166.035 47.6041 169.111 50.6797 172.905 50.6797C176.699 50.6797 179.774 47.6041 179.774 43.8101C179.774 40.0162 176.699 36.9405 172.905 36.9405Z" fill="#212121"/>
        <path d="M205.452 38.4074C202.468 38.4074 200.049 40.8263 200.049 43.8102C200.049 46.794 202.468 49.2129 205.452 49.2129C208.436 49.2129 210.854 46.794 210.854 43.8102C210.854 40.8263 208.436 38.4074 205.452 38.4074Z" fill="#212121"/>
        <path d="M205.451 13.3324C202.869 13.3324 200.775 15.4262 200.775 18.009C200.775 20.5918 202.869 22.6855 205.451 22.6855C208.034 22.6855 210.128 20.5918 210.128 18.009C210.128 15.4262 208.034 13.3324 205.451 13.3324Z" fill="#212121"/>
        <path d="M237.969 11.9231C234.609 11.9231 231.884 14.6476 231.884 18.0084C231.884 21.3693 234.609 24.0937 237.969 24.0937C241.33 24.0937 244.055 21.3693 244.055 18.0084C244.055 14.6476 241.33 11.9231 237.969 11.9231Z" fill="#212121"/>
        <path d="M237.97 37.529C234.5 37.529 231.688 40.3413 231.688 43.8104C231.688 47.2795 234.5 50.0918 237.97 50.0918C241.439 50.0918 244.251 47.2795 244.251 43.8104C244.251 40.3413 241.439 37.529 237.97 37.529Z" fill="#212121"/>
        <path d="M270.371 36.1129C266.12 36.1129 262.674 39.5592 262.674 43.8104C262.674 48.0616 266.12 51.5078 270.371 51.5078C274.622 51.5078 278.068 48.0616 278.068 43.8104C278.068 39.5592 274.622 36.1129 270.371 36.1129Z" fill="#212121"/>
        <path d="M270.372 10.7548C266.365 10.7548 263.117 14.0027 263.117 18.0092C263.117 22.0157 266.365 25.2637 270.372 25.2637C274.378 25.2637 277.626 22.0157 277.626 18.0092C277.626 14.0027 274.378 10.7548 270.372 10.7548Z" fill="#212121"/>
        <path d="M302.904 13.5715C300.453 13.5715 298.467 15.5579 298.467 18.0084C298.467 20.4588 300.453 22.4453 302.904 22.4453C305.354 22.4453 307.341 20.4588 307.341 18.0084C307.341 15.5579 305.354 13.5715 302.904 13.5715Z" fill="#212121"/>
        <path d="M302.904 36.7591C299.01 36.7591 295.853 39.916 295.853 43.8102C295.853 47.7045 299.01 50.8613 302.904 50.8613C306.798 50.8613 309.955 47.7045 309.955 43.8102C309.955 39.916 306.798 36.7591 302.904 36.7591Z" fill="#212121"/>
        <path d="M302.846 67.1484C301.53 67.1484 300.464 68.2148 300.464 69.5302C300.464 70.8457 301.53 71.9121 302.846 71.9121C304.161 71.9121 305.228 70.8457 305.228 69.5302C305.228 68.2148 304.161 67.1484 302.846 67.1484Z" fill="#212121"/>
        <path d="M172.904 9.17933C168.027 9.17933 164.074 13.1328 164.074 18.0096C164.074 22.8864 168.027 26.8398 172.904 26.8398C177.781 26.8398 181.734 22.8864 181.734 18.0096C181.734 13.1328 177.781 9.17933 172.904 9.17933Z" fill="#212121"/>
        <path d="M10.5537 7.84968C4.943 7.84968 0.394594 12.3981 0.394593 18.0088C0.394593 23.6196 4.943 28.168 10.5537 28.168C16.1645 28.168 20.7129 23.6196 20.7129 18.0088C20.7129 12.3981 16.1645 7.84968 10.5537 7.84968Z" fill="#212121"/>
    </g>
    <defs>
        <clipPath id="clip0_1187_51076">
            <rect width="320" height="340" fill="white" transform="matrix(-1 0 0 1 320 0)"/>
        </clipPath>
    </defs>
</svg>
