<svg width="492" height="552" viewBox="0 0 492 552" fill="none" xmlns="http://www.w3.org/2000/svg">
    <g clip-path="url(#clip0_1187_56016)">
        <path d="M56.161 345.781C56.161 340.523 60.4232 336.261 65.6811 336.261C70.9389 336.261 75.2012 340.523 75.2012 345.781C75.2012 351.038 70.9389 355.301 65.6811 355.301C60.4232 355.301 56.161 351.038 56.161 345.781Z" fill="#212121"/>
        <path d="M36.2129 345.569C36.2129 343.5 37.8906 341.822 39.96 341.822C42.0294 341.822 43.707 343.5 43.707 345.569C43.707 347.639 42.0294 349.316 39.96 349.316C37.8906 349.316 36.2129 347.639 36.2129 345.569Z" fill="#212121"/>
        <path d="M55.6742 280.671C55.6742 275.145 60.1543 270.664 65.6808 270.664C71.2073 270.664 75.6875 275.145 75.6875 280.671C75.6875 286.198 71.2073 290.678 65.6808 290.678C60.1543 290.678 55.6742 286.198 55.6742 280.671Z" fill="#212121"/>
        <path d="M56.2915 248.068C56.2915 242.882 60.4953 238.678 65.6809 238.678C70.8665 238.678 75.0703 242.882 75.0703 248.068C75.0703 253.253 70.8665 257.457 65.6809 257.457C60.4953 257.457 56.2915 253.253 56.2915 248.068Z" fill="#212121"/>
        <path d="M55.3622 215.636C55.3622 209.937 59.9821 205.317 65.6811 205.317C71.3801 205.317 76 209.937 76 215.636C76 221.335 71.3801 225.955 65.6811 225.955C59.9821 225.955 55.3622 221.335 55.3622 215.636Z" fill="#212121"/>
        <path d="M59.4798 183.25C59.4798 179.825 62.2563 177.048 65.6813 177.048C69.1063 177.048 71.8828 179.825 71.8828 183.25C71.8828 186.675 69.1063 189.451 65.6813 189.451C62.2563 189.451 59.4798 186.675 59.4798 183.25Z" fill="#212121"/>
        <path d="M57.4244 150.679C57.4244 146.119 61.1209 142.422 65.6809 142.422C70.2409 142.422 73.9375 146.119 73.9375 150.679C73.9375 155.239 70.2409 158.936 65.6809 158.936C61.1209 158.936 57.4244 155.239 57.4244 150.679Z" fill="#212121"/>
        <path d="M60.3505 118.402C60.3505 115.459 62.7369 113.072 65.6806 113.072C68.6244 113.072 71.0107 115.459 71.0107 118.402C71.0107 121.346 68.6244 123.732 65.6806 123.732C62.7369 123.732 60.3505 121.346 60.3505 118.402Z" fill="#212121"/>
        <path d="M60.4888 85.8333C60.4888 82.9657 62.8134 80.6411 65.6809 80.6411C68.5484 80.6411 70.873 82.9657 70.873 85.8333C70.873 88.7008 68.5484 91.0254 65.6809 91.0254C62.8134 91.0254 60.4888 88.7008 60.4888 85.8333Z" fill="#212121"/>
        <path d="M57.0758 53.3578C57.0758 48.6053 60.9285 44.7526 65.681 44.7526C70.4335 44.7526 74.2861 48.6053 74.2861 53.3578C74.2861 58.1103 70.4335 61.9629 65.681 61.9629C60.9285 61.9629 57.0758 58.1103 57.0758 53.3578Z" fill="#212121"/>
        <path d="M57.6355 20.7392C57.6355 16.2955 61.2379 12.6932 65.6815 12.6932C70.1252 12.6932 73.7275 16.2955 73.7275 20.7392C73.7275 25.1829 70.1252 28.7852 65.6815 28.7852C61.2379 28.7852 57.6355 25.1829 57.6355 20.7392Z" fill="#212121"/>
        <path d="M34.5646 20.9561C34.5646 17.9763 36.9802 15.5606 39.96 15.5606C42.9398 15.5606 45.3555 17.9763 45.3555 20.9561C45.3555 23.9359 42.9398 26.3516 39.96 26.3516C36.9802 26.3516 34.5646 23.9359 34.5646 20.9561Z" fill="#212121"/>
        <path d="M30.1129 53.3582C30.1129 47.9199 34.5215 43.5113 39.9597 43.5113C45.398 43.5113 49.8066 47.9199 49.8066 53.3582C49.8066 58.7965 45.398 63.2051 39.9597 63.2051C34.5215 63.2051 30.1129 58.7965 30.1129 53.3582Z" fill="#212121"/>
        <path d="M10.3104 53.3583C10.3104 51.2327 12.0335 49.5096 14.1591 49.5096C16.2847 49.5096 18.0078 51.2327 18.0078 53.3583C18.0078 55.4839 16.2847 57.207 14.1591 57.207C12.0335 57.207 10.3104 55.4839 10.3104 53.3583Z" fill="#212121"/>
        <path d="M12.1479 85.9846C12.1479 84.8737 13.0485 83.9731 14.1594 83.9731C15.2703 83.9731 16.1709 84.8737 16.1709 85.9846C16.1709 87.0955 15.2703 87.9961 14.1594 87.9961C13.0485 87.9961 12.1479 87.0955 12.1479 85.9846Z" fill="#212121"/>
        <path d="M33.185 85.7815C33.185 82.0396 36.2183 79.0063 39.9602 79.0063C43.702 79.0063 46.7354 82.0396 46.7354 85.7815C46.7354 89.5233 43.702 92.5566 39.9602 92.5566C36.2183 92.5566 33.185 89.5233 33.185 85.7815Z" fill="#212121"/>
        <path d="M38.1157 118.431C38.1157 117.412 38.9416 116.586 39.9602 116.586C40.9789 116.586 41.8047 117.412 41.8047 118.431C41.8047 119.45 40.9789 120.275 39.9602 120.275C38.9416 120.275 38.1157 119.45 38.1157 118.431Z" fill="#212121"/>
        <path d="M7.67413 118.431C7.67413 114.85 10.5774 111.947 14.1588 111.947C17.7403 111.947 20.6436 114.85 20.6436 118.431C20.6436 122.013 17.7403 124.916 14.1588 124.916C10.5774 124.916 7.67413 122.013 7.67413 118.431Z" fill="#212121"/>
        <path d="M4.40616 150.767C4.40616 145.381 8.77249 141.015 14.1586 141.015C19.5448 141.015 23.9111 145.381 23.9111 150.767C23.9111 156.153 19.5448 160.52 14.1586 160.52C8.77249 160.52 4.40615 156.153 4.40616 150.767Z" fill="#212121"/>
        <path d="M27.9931 150.767C27.9931 144.158 33.3511 138.8 39.9604 138.8C46.5698 138.8 51.9277 144.158 51.9277 150.767C51.9277 157.376 46.5698 162.734 39.9604 162.734C33.3511 162.734 27.9931 157.376 27.9931 150.767Z" fill="#212121"/>
        <path d="M33.0909 183.205C33.0909 179.411 36.1665 176.335 39.9605 176.335C43.7545 176.335 46.8301 179.411 46.8301 183.205C46.8301 186.999 43.7545 190.074 39.9605 190.074C36.1665 190.074 33.0909 186.999 33.0909 183.205Z" fill="#212121"/>
        <path d="M34.5569 215.752C34.5569 212.768 36.9757 210.349 39.9596 210.349C42.9434 210.349 45.3623 212.768 45.3623 215.752C45.3623 218.735 42.9434 221.154 39.9596 221.154C36.9757 221.154 34.5569 218.735 34.5569 215.752Z" fill="#212121"/>
        <path d="M9.48283 215.753C9.48283 213.17 11.5766 211.077 14.1594 211.077C16.7422 211.077 18.8359 213.17 18.8359 215.753C18.8359 218.336 16.7422 220.43 14.1594 220.43C11.5766 220.43 9.48283 218.336 9.48283 215.753Z" fill="#212121"/>
        <path d="M8.07349 248.27C8.07349 244.909 10.798 242.185 14.1588 242.185C17.5196 242.185 20.2441 244.909 20.2441 248.27C20.2441 251.631 17.5196 254.355 14.1588 254.355C10.798 254.355 8.07349 251.631 8.07349 248.27Z" fill="#212121"/>
        <path d="M33.6784 248.269C33.6784 244.8 36.4907 241.988 39.9598 241.988C43.429 241.988 46.2412 244.8 46.2412 248.269C46.2412 251.739 43.429 254.551 39.9598 254.551C36.4907 254.551 33.6784 251.739 33.6784 248.269Z" fill="#212121"/>
        <path d="M32.2624 280.672C32.2624 276.421 35.7086 272.974 39.9598 272.974C44.211 272.974 47.6572 276.421 47.6572 280.672C47.6572 284.923 44.211 288.369 39.9598 288.369C35.7086 288.369 32.2624 284.923 32.2624 280.672Z" fill="#212121"/>
        <path d="M6.90516 280.671C6.90516 276.665 10.1531 273.417 14.1596 273.417C18.1661 273.417 21.4141 276.665 21.4141 280.671C21.4141 284.678 18.1661 287.926 14.1596 287.926C10.1531 287.926 6.90516 284.678 6.90516 280.671Z" fill="#212121"/>
        <path d="M9.72185 313.204C9.72185 310.753 11.7083 308.767 14.1588 308.767C16.6092 308.767 18.5957 310.753 18.5957 313.204C18.5957 315.654 16.6092 317.641 14.1588 317.641C11.7083 317.641 9.72185 315.654 9.72185 313.204Z" fill="#212121"/>
        <path d="M32.9085 313.205C32.9085 309.31 36.0654 306.154 39.9596 306.154C43.8539 306.154 47.0107 309.31 47.0107 313.205C47.0107 317.099 43.8539 320.256 39.9596 320.256C36.0654 320.256 32.9085 317.099 32.9085 313.205Z" fill="#212121"/>
        <path d="M63.2988 313.145C63.2988 311.83 64.3652 310.764 65.6806 310.764C66.9961 310.764 68.0625 311.83 68.0625 313.145C68.0625 314.461 66.9961 315.527 65.6806 315.527C64.3652 315.527 63.2988 314.461 63.2988 313.145Z" fill="#212121"/>
        <path d="M5.32875 183.205C5.32875 178.328 9.28217 174.375 14.159 174.375C19.0358 174.375 22.9893 178.328 22.9893 183.205C22.9893 188.082 19.0358 192.035 14.159 192.035C9.28217 192.035 5.32875 188.082 5.32875 183.205Z" fill="#212121"/>
        <path d="M4.00007 20.8545C4.00007 15.2438 8.54847 10.6954 14.1592 10.6954C19.77 10.6954 24.3184 15.2438 24.3184 20.8545C24.3184 26.4653 19.77 31.0137 14.1592 31.0137C8.54847 31.0137 4.00007 26.4653 4.00007 20.8545Z" fill="#212121"/>
        <path d="M366.161 345.781C366.161 340.523 370.423 336.261 375.681 336.261C380.939 336.261 385.201 340.523 385.201 345.781C385.201 351.038 380.939 355.301 375.681 355.301C370.423 355.301 366.161 351.038 366.161 345.781Z" fill="#212121"/>
        <path d="M346.213 345.569C346.213 343.5 347.891 341.822 349.96 341.822C352.029 341.822 353.707 343.5 353.707 345.569C353.707 347.639 352.029 349.316 349.96 349.316C347.891 349.316 346.213 347.639 346.213 345.569Z" fill="#212121"/>
        <path d="M365.674 280.671C365.674 275.145 370.154 270.664 375.681 270.664C381.207 270.664 385.688 275.145 385.688 280.671C385.688 286.198 381.207 290.678 375.681 290.678C370.154 290.678 365.674 286.198 365.674 280.671Z" fill="#212121"/>
        <path d="M366.292 248.068C366.292 242.882 370.495 238.678 375.681 238.678C380.867 238.678 385.07 242.882 385.07 248.068C385.07 253.253 380.867 257.457 375.681 257.457C370.495 257.457 366.292 253.253 366.292 248.068Z" fill="#212121"/>
        <path d="M365.362 215.636C365.362 209.937 369.982 205.317 375.681 205.317C381.38 205.317 386 209.937 386 215.636C386 221.335 381.38 225.955 375.681 225.955C369.982 225.955 365.362 221.335 365.362 215.636Z" fill="#212121"/>
        <path d="M369.48 183.25C369.48 179.825 372.256 177.048 375.681 177.048C379.106 177.048 381.883 179.825 381.883 183.25C381.883 186.675 379.106 189.451 375.681 189.451C372.256 189.451 369.48 186.675 369.48 183.25Z" fill="#212121"/>
        <path d="M367.424 150.679C367.424 146.119 371.121 142.422 375.681 142.422C380.241 142.422 383.938 146.119 383.938 150.679C383.938 155.239 380.241 158.936 375.681 158.936C371.121 158.936 367.424 155.239 367.424 150.679Z" fill="#212121"/>
        <path d="M370.351 118.402C370.351 115.459 372.737 113.072 375.681 113.072C378.624 113.072 381.011 115.459 381.011 118.402C381.011 121.346 378.624 123.732 375.681 123.732C372.737 123.732 370.351 121.346 370.351 118.402Z" fill="#212121"/>
        <path d="M370.489 85.8333C370.489 82.9657 372.813 80.6411 375.681 80.6411C378.548 80.6411 380.873 82.9657 380.873 85.8333C380.873 88.7008 378.548 91.0254 375.681 91.0254C372.813 91.0254 370.489 88.7008 370.489 85.8333Z" fill="#212121"/>
        <path d="M367.076 53.3578C367.076 48.6053 370.928 44.7526 375.681 44.7526C380.433 44.7526 384.286 48.6053 384.286 53.3578C384.286 58.1103 380.433 61.9629 375.681 61.9629C370.928 61.9629 367.076 58.1103 367.076 53.3578Z" fill="#212121"/>
        <path d="M367.636 20.7392C367.636 16.2955 371.238 12.6932 375.682 12.6932C380.125 12.6932 383.728 16.2955 383.728 20.7392C383.728 25.1829 380.125 28.7852 375.682 28.7852C371.238 28.7852 367.636 25.1829 367.636 20.7392Z" fill="#212121"/>
        <path d="M344.565 20.9561C344.565 17.9763 346.98 15.5606 349.96 15.5606C352.94 15.5606 355.355 17.9763 355.355 20.9561C355.355 23.9359 352.94 26.3516 349.96 26.3516C346.98 26.3516 344.565 23.9359 344.565 20.9561Z" fill="#212121"/>
        <path d="M340.113 53.3582C340.113 47.9199 344.521 43.5113 349.96 43.5113C355.398 43.5113 359.807 47.9199 359.807 53.3582C359.807 58.7965 355.398 63.2051 349.96 63.2051C344.521 63.2051 340.113 58.7965 340.113 53.3582Z" fill="#212121"/>
        <path d="M320.31 53.3583C320.31 51.2327 322.033 49.5096 324.159 49.5096C326.285 49.5096 328.008 51.2327 328.008 53.3583C328.008 55.4839 326.285 57.207 324.159 57.207C322.033 57.207 320.31 55.4839 320.31 53.3583Z" fill="#212121"/>
        <path d="M322.148 85.9846C322.148 84.8737 323.048 83.9731 324.159 83.9731C325.27 83.9731 326.171 84.8737 326.171 85.9846C326.171 87.0955 325.27 87.9961 324.159 87.9961C323.048 87.9961 322.148 87.0955 322.148 85.9846Z" fill="#212121"/>
        <path d="M343.185 85.7815C343.185 82.0396 346.218 79.0063 349.96 79.0063C353.702 79.0063 356.735 82.0396 356.735 85.7815C356.735 89.5233 353.702 92.5566 349.96 92.5566C346.218 92.5566 343.185 89.5233 343.185 85.7815Z" fill="#212121"/>
        <path d="M348.116 118.431C348.116 117.412 348.942 116.586 349.96 116.586C350.979 116.586 351.805 117.412 351.805 118.431C351.805 119.45 350.979 120.275 349.96 120.275C348.942 120.275 348.116 119.45 348.116 118.431Z" fill="#212121"/>
        <path d="M317.674 118.431C317.674 114.85 320.577 111.947 324.159 111.947C327.74 111.947 330.644 114.85 330.644 118.431C330.644 122.013 327.74 124.916 324.159 124.916C320.577 124.916 317.674 122.013 317.674 118.431Z" fill="#212121"/>
        <path d="M314.406 150.767C314.406 145.381 318.772 141.015 324.159 141.015C329.545 141.015 333.911 145.381 333.911 150.767C333.911 156.153 329.545 160.52 324.159 160.52C318.772 160.52 314.406 156.153 314.406 150.767Z" fill="#212121"/>
        <path d="M337.993 150.767C337.993 144.158 343.351 138.8 349.96 138.8C356.57 138.8 361.928 144.158 361.928 150.767C361.928 157.376 356.57 162.734 349.96 162.734C343.351 162.734 337.993 157.376 337.993 150.767Z" fill="#212121"/>
        <path d="M343.091 183.205C343.091 179.411 346.167 176.335 349.961 176.335C353.754 176.335 356.83 179.411 356.83 183.205C356.83 186.999 353.754 190.074 349.961 190.074C346.167 190.074 343.091 186.999 343.091 183.205Z" fill="#212121"/>
        <path d="M344.557 215.752C344.557 212.768 346.976 210.349 349.96 210.349C352.943 210.349 355.362 212.768 355.362 215.752C355.362 218.735 352.943 221.154 349.96 221.154C346.976 221.154 344.557 218.735 344.557 215.752Z" fill="#212121"/>
        <path d="M319.483 215.753C319.483 213.17 321.577 211.077 324.159 211.077C326.742 211.077 328.836 213.17 328.836 215.753C328.836 218.336 326.742 220.43 324.159 220.43C321.577 220.43 319.483 218.336 319.483 215.753Z" fill="#212121"/>
        <path d="M318.073 248.27C318.073 244.909 320.798 242.185 324.159 242.185C327.52 242.185 330.244 244.909 330.244 248.27C330.244 251.631 327.52 254.355 324.159 254.355C320.798 254.355 318.073 251.631 318.073 248.27Z" fill="#212121"/>
        <path d="M343.678 248.269C343.678 244.8 346.491 241.988 349.96 241.988C353.429 241.988 356.241 244.8 356.241 248.269C356.241 251.739 353.429 254.551 349.96 254.551C346.491 254.551 343.678 251.739 343.678 248.269Z" fill="#212121"/>
        <path d="M342.262 280.672C342.262 276.421 345.709 272.974 349.96 272.974C354.211 272.974 357.657 276.421 357.657 280.672C357.657 284.923 354.211 288.369 349.96 288.369C345.709 288.369 342.262 284.923 342.262 280.672Z" fill="#212121"/>
        <path d="M316.905 280.671C316.905 276.665 320.153 273.417 324.16 273.417C328.166 273.417 331.414 276.665 331.414 280.671C331.414 284.678 328.166 287.926 324.16 287.926C320.153 287.926 316.905 284.678 316.905 280.671Z" fill="#212121"/>
        <path d="M319.722 313.204C319.722 310.753 321.708 308.767 324.159 308.767C326.609 308.767 328.596 310.753 328.596 313.204C328.596 315.654 326.609 317.641 324.159 317.641C321.708 317.641 319.722 315.654 319.722 313.204Z" fill="#212121"/>
        <path d="M342.908 313.205C342.908 309.31 346.065 306.154 349.96 306.154C353.854 306.154 357.011 309.31 357.011 313.205C357.011 317.099 353.854 320.256 349.96 320.256C346.065 320.256 342.908 317.099 342.908 313.205Z" fill="#212121"/>
        <path d="M373.299 313.145C373.299 311.83 374.365 310.764 375.681 310.764C376.996 310.764 378.063 311.83 378.063 313.145C378.063 314.461 376.996 315.527 375.681 315.527C374.365 315.527 373.299 314.461 373.299 313.145Z" fill="#212121"/>
        <path d="M315.329 183.205C315.329 178.328 319.282 174.375 324.159 174.375C329.036 174.375 332.989 178.328 332.989 183.205C332.989 188.082 329.036 192.035 324.159 192.035C319.282 192.035 315.329 188.082 315.329 183.205Z" fill="#212121"/>
        <path d="M314 20.8545C314 15.2438 318.548 10.6954 324.159 10.6954C329.77 10.6954 334.318 15.2438 334.318 20.8545C334.318 26.4653 329.77 31.0137 324.159 31.0137C318.548 31.0137 314 26.4653 314 20.8545Z" fill="#212121"/>
        <path d="M211.161 345.781C211.161 340.523 215.423 336.261 220.681 336.261C225.939 336.261 230.201 340.523 230.201 345.781C230.201 351.038 225.939 355.301 220.681 355.301C215.423 355.301 211.161 351.038 211.161 345.781Z" fill="#212121"/>
        <path d="M191.213 345.569C191.213 343.5 192.891 341.822 194.96 341.822C197.029 341.822 198.707 343.5 198.707 345.569C198.707 347.639 197.029 349.316 194.96 349.316C192.891 349.316 191.213 347.639 191.213 345.569Z" fill="#212121"/>
        <path d="M210.674 280.671C210.674 275.145 215.154 270.664 220.681 270.664C226.207 270.664 230.688 275.145 230.688 280.671C230.688 286.198 226.207 290.678 220.681 290.678C215.154 290.678 210.674 286.198 210.674 280.671Z" fill="#212121"/>
        <path d="M211.292 248.068C211.292 242.882 215.495 238.678 220.681 238.678C225.867 238.678 230.07 242.882 230.07 248.068C230.07 253.253 225.867 257.457 220.681 257.457C215.495 257.457 211.292 253.253 211.292 248.068Z" fill="#212121"/>
        <path d="M210.362 215.636C210.362 209.937 214.982 205.317 220.681 205.317C226.38 205.317 231 209.937 231 215.636C231 221.335 226.38 225.955 220.681 225.955C214.982 225.955 210.362 221.335 210.362 215.636Z" fill="#212121"/>
        <path d="M214.48 183.25C214.48 179.825 217.256 177.048 220.681 177.048C224.106 177.048 226.883 179.825 226.883 183.25C226.883 186.675 224.106 189.451 220.681 189.451C217.256 189.451 214.48 186.675 214.48 183.25Z" fill="#212121"/>
        <path d="M212.424 150.679C212.424 146.119 216.121 142.422 220.681 142.422C225.241 142.422 228.938 146.119 228.938 150.679C228.938 155.239 225.241 158.936 220.681 158.936C216.121 158.936 212.424 155.239 212.424 150.679Z" fill="#212121"/>
        <path d="M215.351 118.402C215.351 115.459 217.737 113.072 220.681 113.072C223.624 113.072 226.011 115.459 226.011 118.402C226.011 121.346 223.624 123.732 220.681 123.732C217.737 123.732 215.351 121.346 215.351 118.402Z" fill="#212121"/>
        <path d="M215.489 85.8333C215.489 82.9657 217.813 80.6411 220.681 80.6411C223.548 80.6411 225.873 82.9657 225.873 85.8333C225.873 88.7008 223.548 91.0254 220.681 91.0254C217.813 91.0254 215.489 88.7008 215.489 85.8333Z" fill="#212121"/>
        <path d="M212.076 53.3578C212.076 48.6053 215.928 44.7526 220.681 44.7526C225.433 44.7526 229.286 48.6053 229.286 53.3578C229.286 58.1103 225.433 61.9629 220.681 61.9629C215.928 61.9629 212.076 58.1103 212.076 53.3578Z" fill="#212121"/>
        <path d="M212.636 20.7392C212.636 16.2955 216.238 12.6932 220.682 12.6932C225.125 12.6932 228.728 16.2955 228.728 20.7392C228.728 25.1829 225.125 28.7852 220.682 28.7852C216.238 28.7852 212.636 25.1829 212.636 20.7392Z" fill="#212121"/>
        <path d="M189.565 20.9561C189.565 17.9763 191.98 15.5606 194.96 15.5606C197.94 15.5606 200.355 17.9763 200.355 20.9561C200.355 23.9359 197.94 26.3516 194.96 26.3516C191.98 26.3516 189.565 23.9359 189.565 20.9561Z" fill="#212121"/>
        <path d="M185.113 53.3582C185.113 47.9199 189.521 43.5113 194.96 43.5113C200.398 43.5113 204.807 47.9199 204.807 53.3582C204.807 58.7965 200.398 63.2051 194.96 63.2051C189.521 63.2051 185.113 58.7965 185.113 53.3582Z" fill="#212121"/>
        <path d="M165.31 53.3583C165.31 51.2327 167.033 49.5096 169.159 49.5096C171.285 49.5096 173.008 51.2327 173.008 53.3583C173.008 55.4839 171.285 57.207 169.159 57.207C167.033 57.207 165.31 55.4839 165.31 53.3583Z" fill="#212121"/>
        <path d="M167.148 85.9846C167.148 84.8737 168.048 83.9731 169.159 83.9731C170.27 83.9731 171.171 84.8737 171.171 85.9846C171.171 87.0955 170.27 87.9961 169.159 87.9961C168.048 87.9961 167.148 87.0955 167.148 85.9846Z" fill="#212121"/>
        <path d="M188.185 85.7815C188.185 82.0396 191.218 79.0063 194.96 79.0063C198.702 79.0063 201.735 82.0396 201.735 85.7815C201.735 89.5233 198.702 92.5566 194.96 92.5566C191.218 92.5566 188.185 89.5233 188.185 85.7815Z" fill="#212121"/>
        <path d="M193.116 118.431C193.116 117.412 193.942 116.586 194.96 116.586C195.979 116.586 196.805 117.412 196.805 118.431C196.805 119.45 195.979 120.275 194.96 120.275C193.942 120.275 193.116 119.45 193.116 118.431Z" fill="#212121"/>
        <path d="M162.674 118.431C162.674 114.85 165.577 111.947 169.159 111.947C172.74 111.947 175.644 114.85 175.644 118.431C175.644 122.013 172.74 124.916 169.159 124.916C165.577 124.916 162.674 122.013 162.674 118.431Z" fill="#212121"/>
        <path d="M159.406 150.767C159.406 145.381 163.772 141.015 169.159 141.015C174.545 141.015 178.911 145.381 178.911 150.767C178.911 156.153 174.545 160.52 169.159 160.52C163.772 160.52 159.406 156.153 159.406 150.767Z" fill="#212121"/>
        <path d="M182.993 150.767C182.993 144.158 188.351 138.8 194.96 138.8C201.57 138.8 206.928 144.158 206.928 150.767C206.928 157.376 201.57 162.734 194.96 162.734C188.351 162.734 182.993 157.376 182.993 150.767Z" fill="#212121"/>
        <path d="M188.091 183.205C188.091 179.411 191.167 176.335 194.961 176.335C198.754 176.335 201.83 179.411 201.83 183.205C201.83 186.999 198.754 190.074 194.961 190.074C191.167 190.074 188.091 186.999 188.091 183.205Z" fill="#212121"/>
        <path d="M189.557 215.752C189.557 212.768 191.976 210.349 194.96 210.349C197.943 210.349 200.362 212.768 200.362 215.752C200.362 218.735 197.943 221.154 194.96 221.154C191.976 221.154 189.557 218.735 189.557 215.752Z" fill="#212121"/>
        <path d="M164.483 215.753C164.483 213.17 166.577 211.077 169.159 211.077C171.742 211.077 173.836 213.17 173.836 215.753C173.836 218.336 171.742 220.43 169.159 220.43C166.577 220.43 164.483 218.336 164.483 215.753Z" fill="#212121"/>
        <path d="M163.073 248.27C163.073 244.909 165.798 242.185 169.159 242.185C172.52 242.185 175.244 244.909 175.244 248.27C175.244 251.631 172.52 254.355 169.159 254.355C165.798 254.355 163.073 251.631 163.073 248.27Z" fill="#212121"/>
        <path d="M188.678 248.269C188.678 244.8 191.491 241.988 194.96 241.988C198.429 241.988 201.241 244.8 201.241 248.269C201.241 251.739 198.429 254.551 194.96 254.551C191.491 254.551 188.678 251.739 188.678 248.269Z" fill="#212121"/>
        <path d="M187.262 280.672C187.262 276.421 190.709 272.974 194.96 272.974C199.211 272.974 202.657 276.421 202.657 280.672C202.657 284.923 199.211 288.369 194.96 288.369C190.709 288.369 187.262 284.923 187.262 280.672Z" fill="#212121"/>
        <path d="M161.905 280.671C161.905 276.665 165.153 273.417 169.16 273.417C173.166 273.417 176.414 276.665 176.414 280.671C176.414 284.678 173.166 287.926 169.16 287.926C165.153 287.926 161.905 284.678 161.905 280.671Z" fill="#212121"/>
        <path d="M164.722 313.204C164.722 310.753 166.708 308.767 169.159 308.767C171.609 308.767 173.596 310.753 173.596 313.204C173.596 315.654 171.609 317.641 169.159 317.641C166.708 317.641 164.722 315.654 164.722 313.204Z" fill="#212121"/>
        <path d="M187.908 313.205C187.908 309.31 191.065 306.154 194.96 306.154C198.854 306.154 202.011 309.31 202.011 313.205C202.011 317.099 198.854 320.256 194.96 320.256C191.065 320.256 187.908 317.099 187.908 313.205Z" fill="#212121"/>
        <path d="M218.299 313.145C218.299 311.83 219.365 310.764 220.681 310.764C221.996 310.764 223.063 311.83 223.063 313.145C223.063 314.461 221.996 315.527 220.681 315.527C219.365 315.527 218.299 314.461 218.299 313.145Z" fill="#212121"/>
        <path d="M160.329 183.205C160.329 178.328 164.282 174.375 169.159 174.375C174.036 174.375 177.989 178.328 177.989 183.205C177.989 188.082 174.036 192.035 169.159 192.035C164.282 192.035 160.329 188.082 160.329 183.205Z" fill="#212121"/>
        <path d="M159 20.8545C159 15.2438 163.548 10.6954 169.159 10.6954C174.77 10.6954 179.318 15.2438 179.318 20.8545C179.318 26.4653 174.77 31.0137 169.159 31.0137C163.548 31.0137 159 26.4653 159 20.8545Z" fill="#212121"/>
        <path d="M103.326 52.6297C103.326 58.1562 98.8457 62.6364 93.3192 62.6364C87.7927 62.6364 83.3125 58.1562 83.3125 52.6297C83.3125 47.1032 87.7927 42.623 93.3192 42.623C98.8457 42.623 103.326 47.1032 103.326 52.6297Z" fill="#212121"/>
        <path d="M102.708 85.2332C102.708 90.4188 98.5047 94.6226 93.3191 94.6226C88.1335 94.6226 83.9297 90.4188 83.9297 85.2332C83.9297 80.0475 88.1335 75.8438 93.3191 75.8438C98.5047 75.8438 102.708 80.0475 102.708 85.2332Z" fill="#212121"/>
        <path d="M103.638 117.665C103.638 123.364 99.0179 127.984 93.3189 127.984C87.6199 127.984 83 123.364 83 117.665C83 111.966 87.6199 107.346 93.3189 107.346C99.0179 107.346 103.638 111.966 103.638 117.665Z" fill="#212121"/>
        <path d="M99.5202 150.051C99.5202 153.476 96.7437 156.253 93.3187 156.253C89.8937 156.253 87.1172 153.476 87.1172 150.051C87.1172 146.626 89.8937 143.85 93.3187 143.85C96.7437 143.85 99.5202 146.626 99.5202 150.051Z" fill="#212121"/>
        <path d="M101.576 182.622C101.576 187.182 97.8791 190.878 93.3191 190.878C88.7591 190.878 85.0625 187.182 85.0625 182.622C85.0625 178.062 88.7591 174.365 93.3191 174.365C97.8791 174.365 101.576 178.062 101.576 182.622Z" fill="#212121"/>
        <path d="M98.6495 214.898C98.6495 217.842 96.2631 220.229 93.3194 220.229C90.3756 220.229 87.9893 217.842 87.9893 214.898C87.9893 211.955 90.3756 209.568 93.3194 209.568C96.2631 209.568 98.6495 211.955 98.6495 214.898Z" fill="#212121"/>
        <path d="M98.5112 247.468C98.5112 250.335 96.1866 252.66 93.3191 252.66C90.4516 252.66 88.127 250.335 88.127 247.468C88.127 244.6 90.4516 242.275 93.3191 242.275C96.1866 242.275 98.5112 244.6 98.5112 247.468Z" fill="#212121"/>
        <path d="M101.924 279.943C101.924 284.696 98.0715 288.548 93.319 288.548C88.5665 288.548 84.7139 284.696 84.7139 279.943C84.7139 275.191 88.5665 271.338 93.319 271.338C98.0715 271.338 101.924 275.191 101.924 279.943Z" fill="#212121"/>
        <path d="M101.364 312.562C101.364 317.005 97.7621 320.608 93.3185 320.608C88.8748 320.608 85.2725 317.005 85.2725 312.562C85.2725 308.118 88.8748 304.516 93.3185 304.516C97.7621 304.516 101.364 308.118 101.364 312.562Z" fill="#212121"/>
        <path d="M124.435 312.345C124.435 315.325 122.02 317.74 119.04 317.74C116.06 317.74 113.645 315.325 113.645 312.345C113.645 309.365 116.06 306.949 119.04 306.949C122.02 306.949 124.435 309.365 124.435 312.345Z" fill="#212121"/>
        <path d="M128.887 279.943C128.887 285.381 124.479 289.789 119.04 289.789C113.602 289.789 109.193 285.381 109.193 279.943C109.193 274.504 113.602 270.096 119.04 270.096C124.479 270.096 128.887 274.504 128.887 279.943Z" fill="#212121"/>
        <path d="M148.69 279.942C148.69 282.068 146.967 283.791 144.841 283.791C142.715 283.791 140.992 282.068 140.992 279.942C140.992 277.817 142.715 276.094 144.841 276.094C146.967 276.094 148.69 277.817 148.69 279.942Z" fill="#212121"/>
        <path d="M146.852 247.316C146.852 248.427 145.952 249.328 144.841 249.328C143.73 249.328 142.829 248.427 142.829 247.316C142.829 246.205 143.73 245.305 144.841 245.305C145.952 245.305 146.852 246.205 146.852 247.316Z" fill="#212121"/>
        <path d="M125.815 247.519C125.815 251.261 122.782 254.295 119.04 254.295C115.298 254.295 112.265 251.261 112.265 247.519C112.265 243.777 115.298 240.744 119.04 240.744C122.782 240.744 125.815 243.777 125.815 247.519Z" fill="#212121"/>
        <path d="M120.884 214.87C120.884 215.889 120.058 216.714 119.04 216.714C118.021 216.714 117.195 215.889 117.195 214.87C117.195 213.851 118.021 213.025 119.04 213.025C120.058 213.025 120.884 213.851 120.884 214.87Z" fill="#212121"/>
        <path d="M151.326 214.869C151.326 218.451 148.423 221.354 144.841 221.354C141.26 221.354 138.356 218.451 138.356 214.869C138.356 211.288 141.26 208.385 144.841 208.385C148.423 208.385 151.326 211.288 151.326 214.869Z" fill="#212121"/>
        <path d="M154.594 182.534C154.594 187.92 150.228 192.286 144.841 192.286C139.455 192.286 135.089 187.92 135.089 182.534C135.089 177.148 139.455 172.781 144.841 172.781C150.228 172.781 154.594 177.148 154.594 182.534Z" fill="#212121"/>
        <path d="M131.007 182.534C131.007 189.143 125.649 194.501 119.04 194.501C112.43 194.501 107.072 189.143 107.072 182.534C107.072 175.924 112.43 170.566 119.04 170.566C125.649 170.566 131.007 175.924 131.007 182.534Z" fill="#212121"/>
        <path d="M125.909 150.096C125.909 153.89 122.833 156.966 119.039 156.966C115.246 156.966 112.17 153.89 112.17 150.096C112.17 146.302 115.246 143.227 119.039 143.227C122.833 143.227 125.909 146.302 125.909 150.096Z" fill="#212121"/>
        <path d="M124.443 117.549C124.443 120.533 122.024 122.952 119.04 122.952C116.057 122.952 113.638 120.533 113.638 117.549C113.638 114.565 116.057 112.146 119.04 112.146C122.024 112.146 124.443 114.565 124.443 117.549Z" fill="#212121"/>
        <path d="M149.517 117.548C149.517 120.13 147.423 122.224 144.841 122.224C142.258 122.224 140.164 120.13 140.164 117.548C140.164 114.965 142.258 112.871 144.841 112.871C147.423 112.871 149.517 114.965 149.517 117.548Z" fill="#212121"/>
        <path d="M150.927 85.0306C150.927 88.3915 148.202 91.116 144.841 91.116C141.48 91.116 138.756 88.3915 138.756 85.0306C138.756 81.6698 141.48 78.9453 144.841 78.9453C148.202 78.9453 150.927 81.6698 150.927 85.0306Z" fill="#212121"/>
        <path d="M125.322 85.0314C125.322 88.5005 122.509 91.3128 119.04 91.3128C115.571 91.3128 112.759 88.5005 112.759 85.0314C112.759 81.5623 115.571 78.75 119.04 78.75C122.509 78.75 125.322 81.5623 125.322 85.0314Z" fill="#212121"/>
        <path d="M126.738 52.6291C126.738 56.8802 123.291 60.3265 119.04 60.3265C114.789 60.3265 111.343 56.8802 111.343 52.6291C111.343 48.3779 114.789 44.9316 119.04 44.9316C123.291 44.9316 126.738 48.3779 126.738 52.6291Z" fill="#212121"/>
        <path d="M152.095 52.6295C152.095 56.636 148.847 59.8839 144.84 59.8839C140.834 59.8839 137.586 56.636 137.586 52.6295C137.586 48.6229 140.834 45.375 144.84 45.375C148.847 45.375 152.095 48.6229 152.095 52.6295Z" fill="#212121"/>
        <path d="M149.278 20.0971C149.278 22.5475 147.292 24.534 144.841 24.534C142.391 24.534 140.404 22.5475 140.404 20.0971C140.404 17.6466 142.391 15.6602 144.841 15.6602C147.292 15.6602 149.278 17.6466 149.278 20.0971Z" fill="#212121"/>
        <path d="M126.092 20.0961C126.092 23.9903 122.935 27.1472 119.04 27.1472C115.146 27.1472 111.989 23.9903 111.989 20.0961C111.989 16.2018 115.146 13.0449 119.04 13.0449C122.935 13.0449 126.092 16.2018 126.092 20.0961Z" fill="#212121"/>
        <path d="M95.7012 20.1553C95.7012 21.4707 94.6348 22.5371 93.3194 22.5371C92.0039 22.5371 90.9375 21.4707 90.9375 20.1553C90.9375 18.8398 92.0039 17.7734 93.3194 17.7734C94.6348 17.7734 95.7012 18.8398 95.7012 20.1553Z" fill="#212121"/>
        <path d="M153.671 150.096C153.671 154.973 149.718 158.926 144.841 158.926C139.964 158.926 136.011 154.973 136.011 150.096C136.011 145.219 139.964 141.266 144.841 141.266C149.718 141.266 153.671 145.219 153.671 150.096Z" fill="#212121"/>
        <path d="M155 312.446C155 318.057 150.452 322.605 144.841 322.605C139.23 322.605 134.682 318.057 134.682 312.446C134.682 306.836 139.23 302.287 144.841 302.287C150.452 302.287 155 306.836 155 312.446Z" fill="#212121"/>
        <path d="M150.244 344.899C150.244 347.883 147.825 350.302 144.841 350.302C141.857 350.302 139.438 347.883 139.438 344.899C139.438 341.915 141.857 339.496 144.841 339.496C147.825 339.496 150.244 341.915 150.244 344.899Z" fill="#212121"/>
        <path d="M411.839 345.781C411.839 340.523 407.577 336.261 402.319 336.261C397.061 336.261 392.799 340.523 392.799 345.781C392.799 351.038 397.061 355.301 402.319 355.301C407.577 355.301 411.839 351.038 411.839 345.781Z" fill="#212121"/>
        <path d="M431.787 345.569C431.787 343.5 430.109 341.822 428.04 341.822C425.971 341.822 424.293 343.5 424.293 345.569C424.293 347.639 425.971 349.316 428.04 349.316C430.109 349.316 431.787 347.639 431.787 345.569Z" fill="#212121"/>
        <path d="M412.326 280.671C412.326 275.145 407.846 270.664 402.319 270.664C396.793 270.664 392.312 275.145 392.312 280.671C392.312 286.198 396.793 290.678 402.319 290.678C407.846 290.678 412.326 286.198 412.326 280.671Z" fill="#212121"/>
        <path d="M411.708 248.068C411.708 242.882 407.505 238.678 402.319 238.678C397.133 238.678 392.93 242.882 392.93 248.068C392.93 253.253 397.133 257.457 402.319 257.457C407.505 257.457 411.708 253.253 411.708 248.068Z" fill="#212121"/>
        <path d="M412.638 215.636C412.638 209.937 408.018 205.317 402.319 205.317C396.62 205.317 392 209.937 392 215.636C392 221.335 396.62 225.955 402.319 225.955C408.018 225.955 412.638 221.335 412.638 215.636Z" fill="#212121"/>
        <path d="M408.52 183.25C408.52 179.825 405.744 177.048 402.319 177.048C398.894 177.048 396.117 179.825 396.117 183.25C396.117 186.675 398.894 189.451 402.319 189.451C405.744 189.451 408.52 186.675 408.52 183.25Z" fill="#212121"/>
        <path d="M410.576 150.679C410.576 146.119 406.879 142.422 402.319 142.422C397.759 142.422 394.062 146.119 394.062 150.679C394.062 155.239 397.759 158.936 402.319 158.936C406.879 158.936 410.576 155.239 410.576 150.679Z" fill="#212121"/>
        <path d="M407.649 118.402C407.649 115.459 405.263 113.072 402.319 113.072C399.376 113.072 396.989 115.459 396.989 118.402C396.989 121.346 399.376 123.732 402.319 123.732C405.263 123.732 407.649 121.346 407.649 118.402Z" fill="#212121"/>
        <path d="M407.511 85.8333C407.511 82.9657 405.187 80.6411 402.319 80.6411C399.452 80.6411 397.127 82.9657 397.127 85.8333C397.127 88.7008 399.452 91.0254 402.319 91.0254C405.187 91.0254 407.511 88.7008 407.511 85.8333Z" fill="#212121"/>
        <path d="M410.924 53.3578C410.924 48.6053 407.072 44.7526 402.319 44.7526C397.567 44.7526 393.714 48.6053 393.714 53.3578C393.714 58.1103 397.567 61.9629 402.319 61.9629C407.072 61.9629 410.924 58.1103 410.924 53.3578Z" fill="#212121"/>
        <path d="M410.364 20.7392C410.364 16.2955 406.762 12.6932 402.318 12.6932C397.875 12.6932 394.272 16.2955 394.272 20.7392C394.272 25.1829 397.875 28.7852 402.318 28.7852C406.762 28.7852 410.364 25.1829 410.364 20.7392Z" fill="#212121"/>
        <path d="M433.435 20.9561C433.435 17.9763 431.02 15.5606 428.04 15.5606C425.06 15.5606 422.645 17.9763 422.645 20.9561C422.645 23.9359 425.06 26.3516 428.04 26.3516C431.02 26.3516 433.435 23.9359 433.435 20.9561Z" fill="#212121"/>
        <path d="M437.887 53.3582C437.887 47.9199 433.479 43.5113 428.04 43.5113C422.602 43.5113 418.193 47.9199 418.193 53.3582C418.193 58.7965 422.602 63.2051 428.04 63.2051C433.479 63.2051 437.887 58.7965 437.887 53.3582Z" fill="#212121"/>
        <path d="M457.69 53.3583C457.69 51.2327 455.967 49.5096 453.841 49.5096C451.715 49.5096 449.992 51.2327 449.992 53.3583C449.992 55.4839 451.715 57.207 453.841 57.207C455.967 57.207 457.69 55.4839 457.69 53.3583Z" fill="#212121"/>
        <path d="M455.852 85.9846C455.852 84.8737 454.952 83.9731 453.841 83.9731C452.73 83.9731 451.829 84.8737 451.829 85.9846C451.829 87.0955 452.73 87.9961 453.841 87.9961C454.952 87.9961 455.852 87.0955 455.852 85.9846Z" fill="#212121"/>
        <path d="M434.815 85.7815C434.815 82.0396 431.782 79.0063 428.04 79.0063C424.298 79.0063 421.265 82.0396 421.265 85.7815C421.265 89.5233 424.298 92.5566 428.04 92.5566C431.782 92.5566 434.815 89.5233 434.815 85.7815Z" fill="#212121"/>
        <path d="M429.884 118.431C429.884 117.412 429.058 116.586 428.04 116.586C427.021 116.586 426.195 117.412 426.195 118.431C426.195 119.45 427.021 120.275 428.04 120.275C429.058 120.275 429.884 119.45 429.884 118.431Z" fill="#212121"/>
        <path d="M460.326 118.431C460.326 114.85 457.423 111.947 453.841 111.947C450.26 111.947 447.356 114.85 447.356 118.431C447.356 122.013 450.26 124.916 453.841 124.916C457.423 124.916 460.326 122.013 460.326 118.431Z" fill="#212121"/>
        <path d="M463.594 150.767C463.594 145.381 459.228 141.015 453.841 141.015C448.455 141.015 444.089 145.381 444.089 150.767C444.089 156.153 448.455 160.52 453.841 160.52C459.228 160.52 463.594 156.153 463.594 150.767Z" fill="#212121"/>
        <path d="M440.007 150.767C440.007 144.158 434.649 138.8 428.04 138.8C421.43 138.8 416.072 144.158 416.072 150.767C416.072 157.376 421.43 162.734 428.04 162.734C434.649 162.734 440.007 157.376 440.007 150.767Z" fill="#212121"/>
        <path d="M434.909 183.205C434.909 179.411 431.833 176.335 428.039 176.335C424.246 176.335 421.17 179.411 421.17 183.205C421.17 186.999 424.246 190.074 428.039 190.074C431.833 190.074 434.909 186.999 434.909 183.205Z" fill="#212121"/>
        <path d="M433.443 215.752C433.443 212.768 431.024 210.349 428.04 210.349C425.057 210.349 422.638 212.768 422.638 215.752C422.638 218.735 425.057 221.154 428.04 221.154C431.024 221.154 433.443 218.735 433.443 215.752Z" fill="#212121"/>
        <path d="M458.517 215.753C458.517 213.17 456.423 211.077 453.841 211.077C451.258 211.077 449.164 213.17 449.164 215.753C449.164 218.336 451.258 220.43 453.841 220.43C456.423 220.43 458.517 218.336 458.517 215.753Z" fill="#212121"/>
        <path d="M459.927 248.27C459.927 244.909 457.202 242.185 453.841 242.185C450.48 242.185 447.756 244.909 447.756 248.27C447.756 251.631 450.48 254.355 453.841 254.355C457.202 254.355 459.927 251.631 459.927 248.27Z" fill="#212121"/>
        <path d="M434.322 248.269C434.322 244.8 431.509 241.988 428.04 241.988C424.571 241.988 421.759 244.8 421.759 248.269C421.759 251.739 424.571 254.551 428.04 254.551C431.509 254.551 434.322 251.739 434.322 248.269Z" fill="#212121"/>
        <path d="M435.738 280.672C435.738 276.421 432.291 272.974 428.04 272.974C423.789 272.974 420.343 276.421 420.343 280.672C420.343 284.923 423.789 288.369 428.04 288.369C432.291 288.369 435.738 284.923 435.738 280.672Z" fill="#212121"/>
        <path d="M461.095 280.671C461.095 276.665 457.847 273.417 453.84 273.417C449.834 273.417 446.586 276.665 446.586 280.671C446.586 284.678 449.834 287.926 453.84 287.926C457.847 287.926 461.095 284.678 461.095 280.671Z" fill="#212121"/>
        <path d="M458.278 313.204C458.278 310.753 456.292 308.767 453.841 308.767C451.391 308.767 449.404 310.753 449.404 313.204C449.404 315.654 451.391 317.641 453.841 317.641C456.292 317.641 458.278 315.654 458.278 313.204Z" fill="#212121"/>
        <path d="M435.092 313.205C435.092 309.31 431.935 306.154 428.04 306.154C424.146 306.154 420.989 309.31 420.989 313.205C420.989 317.099 424.146 320.256 428.04 320.256C431.935 320.256 435.092 317.099 435.092 313.205Z" fill="#212121"/>
        <path d="M404.701 313.145C404.701 311.83 403.635 310.764 402.319 310.764C401.004 310.764 399.937 311.83 399.937 313.145C399.937 314.461 401.004 315.527 402.319 315.527C403.635 315.527 404.701 314.461 404.701 313.145Z" fill="#212121"/>
        <path d="M462.671 183.205C462.671 178.328 458.718 174.375 453.841 174.375C448.964 174.375 445.011 178.328 445.011 183.205C445.011 188.082 448.964 192.035 453.841 192.035C458.718 192.035 462.671 188.082 462.671 183.205Z" fill="#212121"/>
        <path d="M464 20.8545C464 15.2438 459.452 10.6954 453.841 10.6954C448.23 10.6954 443.682 15.2438 443.682 20.8545C443.682 26.4653 448.23 31.0137 453.841 31.0137C459.452 31.0137 464 26.4653 464 20.8545Z" fill="#212121"/>
        <path d="M286.674 52.6297C286.674 58.1562 291.154 62.6364 296.681 62.6364C302.207 62.6364 306.688 58.1562 306.688 52.6297C306.688 47.1032 302.207 42.623 296.681 42.623C291.154 42.623 286.674 47.1032 286.674 52.6297Z" fill="#212121"/>
        <path d="M287.292 85.2332C287.292 90.4188 291.495 94.6226 296.681 94.6226C301.867 94.6226 306.07 90.4188 306.07 85.2332C306.07 80.0475 301.867 75.8438 296.681 75.8438C291.495 75.8438 287.292 80.0475 287.292 85.2332Z" fill="#212121"/>
        <path d="M286.362 117.665C286.362 123.364 290.982 127.984 296.681 127.984C302.38 127.984 307 123.364 307 117.665C307 111.966 302.38 107.346 296.681 107.346C290.982 107.346 286.362 111.966 286.362 117.665Z" fill="#212121"/>
        <path d="M290.48 150.051C290.48 153.476 293.256 156.253 296.681 156.253C300.106 156.253 302.883 153.476 302.883 150.051C302.883 146.626 300.106 143.85 296.681 143.85C293.256 143.85 290.48 146.626 290.48 150.051Z" fill="#212121"/>
        <path d="M288.424 182.622C288.424 187.182 292.121 190.878 296.681 190.878C301.241 190.878 304.938 187.182 304.938 182.622C304.938 178.062 301.241 174.365 296.681 174.365C292.121 174.365 288.424 178.062 288.424 182.622Z" fill="#212121"/>
        <path d="M291.351 214.898C291.351 217.842 293.737 220.229 296.681 220.229C299.624 220.229 302.011 217.842 302.011 214.898C302.011 211.955 299.624 209.568 296.681 209.568C293.737 209.568 291.351 211.955 291.351 214.898Z" fill="#212121"/>
        <path d="M291.489 247.468C291.489 250.335 293.813 252.66 296.681 252.66C299.548 252.66 301.873 250.335 301.873 247.468C301.873 244.6 299.548 242.275 296.681 242.275C293.813 242.275 291.489 244.6 291.489 247.468Z" fill="#212121"/>
        <path d="M288.076 279.943C288.076 284.696 291.928 288.548 296.681 288.548C301.433 288.548 305.286 284.696 305.286 279.943C305.286 275.191 301.433 271.338 296.681 271.338C291.928 271.338 288.076 275.191 288.076 279.943Z" fill="#212121"/>
        <path d="M288.636 312.562C288.636 317.005 292.238 320.608 296.682 320.608C301.125 320.608 304.728 317.005 304.728 312.562C304.728 308.118 301.125 304.516 296.682 304.516C292.238 304.516 288.636 308.118 288.636 312.562Z" fill="#212121"/>
        <path d="M265.565 312.345C265.565 315.325 267.98 317.74 270.96 317.74C273.94 317.74 276.355 315.325 276.355 312.345C276.355 309.365 273.94 306.949 270.96 306.949C267.98 306.949 265.565 309.365 265.565 312.345Z" fill="#212121"/>
        <path d="M261.113 279.943C261.113 285.381 265.521 289.789 270.96 289.789C276.398 289.789 280.807 285.381 280.807 279.943C280.807 274.504 276.398 270.096 270.96 270.096C265.521 270.096 261.113 274.504 261.113 279.943Z" fill="#212121"/>
        <path d="M241.31 279.942C241.31 282.068 243.033 283.791 245.159 283.791C247.285 283.791 249.008 282.068 249.008 279.942C249.008 277.817 247.285 276.094 245.159 276.094C243.033 276.094 241.31 277.817 241.31 279.942Z" fill="#212121"/>
        <path d="M243.148 247.316C243.148 248.427 244.048 249.328 245.159 249.328C246.27 249.328 247.171 248.427 247.171 247.316C247.171 246.205 246.27 245.305 245.159 245.305C244.048 245.305 243.148 246.205 243.148 247.316Z" fill="#212121"/>
        <path d="M264.185 247.519C264.185 251.261 267.218 254.295 270.96 254.295C274.702 254.295 277.735 251.261 277.735 247.519C277.735 243.777 274.702 240.744 270.96 240.744C267.218 240.744 264.185 243.777 264.185 247.519Z" fill="#212121"/>
        <path d="M269.116 214.87C269.116 215.889 269.942 216.714 270.96 216.714C271.979 216.714 272.805 215.889 272.805 214.87C272.805 213.851 271.979 213.025 270.96 213.025C269.942 213.025 269.116 213.851 269.116 214.87Z" fill="#212121"/>
        <path d="M238.674 214.869C238.674 218.451 241.577 221.354 245.159 221.354C248.74 221.354 251.644 218.451 251.644 214.869C251.644 211.288 248.74 208.385 245.159 208.385C241.577 208.385 238.674 211.288 238.674 214.869Z" fill="#212121"/>
        <path d="M235.406 182.534C235.406 187.92 239.772 192.286 245.159 192.286C250.545 192.286 254.911 187.92 254.911 182.534C254.911 177.148 250.545 172.781 245.159 172.781C239.772 172.781 235.406 177.148 235.406 182.534Z" fill="#212121"/>
        <path d="M258.993 182.534C258.993 189.143 264.351 194.501 270.96 194.501C277.57 194.501 282.928 189.143 282.928 182.534C282.928 175.924 277.57 170.566 270.96 170.566C264.351 170.566 258.993 175.924 258.993 182.534Z" fill="#212121"/>
        <path d="M264.091 150.096C264.091 153.89 267.167 156.966 270.961 156.966C274.754 156.966 277.83 153.89 277.83 150.096C277.83 146.302 274.754 143.227 270.961 143.227C267.167 143.227 264.091 146.302 264.091 150.096Z" fill="#212121"/>
        <path d="M265.557 117.549C265.557 120.533 267.976 122.952 270.96 122.952C273.943 122.952 276.362 120.533 276.362 117.549C276.362 114.565 273.943 112.146 270.96 112.146C267.976 112.146 265.557 114.565 265.557 117.549Z" fill="#212121"/>
        <path d="M240.483 117.548C240.483 120.13 242.577 122.224 245.159 122.224C247.742 122.224 249.836 120.13 249.836 117.548C249.836 114.965 247.742 112.871 245.159 112.871C242.577 112.871 240.483 114.965 240.483 117.548Z" fill="#212121"/>
        <path d="M239.073 85.0306C239.073 88.3915 241.798 91.116 245.159 91.116C248.52 91.116 251.244 88.3915 251.244 85.0306C251.244 81.6698 248.52 78.9453 245.159 78.9453C241.798 78.9453 239.073 81.6698 239.073 85.0306Z" fill="#212121"/>
        <path d="M264.678 85.0314C264.678 88.5005 267.491 91.3128 270.96 91.3128C274.429 91.3128 277.241 88.5005 277.241 85.0314C277.241 81.5623 274.429 78.75 270.96 78.75C267.491 78.75 264.678 81.5623 264.678 85.0314Z" fill="#212121"/>
        <path d="M263.262 52.6291C263.262 56.8802 266.709 60.3265 270.96 60.3265C275.211 60.3265 278.657 56.8802 278.657 52.6291C278.657 48.3779 275.211 44.9316 270.96 44.9316C266.709 44.9316 263.262 48.3779 263.262 52.6291Z" fill="#212121"/>
        <path d="M237.905 52.6295C237.905 56.636 241.153 59.8839 245.16 59.8839C249.166 59.8839 252.414 56.636 252.414 52.6295C252.414 48.6229 249.166 45.375 245.16 45.375C241.153 45.375 237.905 48.6229 237.905 52.6295Z" fill="#212121"/>
        <path d="M240.722 20.0971C240.722 22.5475 242.708 24.534 245.159 24.534C247.609 24.534 249.596 22.5475 249.596 20.0971C249.596 17.6466 247.609 15.6602 245.159 15.6602C242.708 15.6602 240.722 17.6466 240.722 20.0971Z" fill="#212121"/>
        <path d="M263.908 20.0961C263.908 23.9903 267.065 27.1472 270.96 27.1472C274.854 27.1472 278.011 23.9903 278.011 20.0961C278.011 16.2018 274.854 13.0449 270.96 13.0449C267.065 13.0449 263.908 16.2018 263.908 20.0961Z" fill="#212121"/>
        <path d="M294.299 20.1553C294.299 21.4707 295.365 22.5371 296.681 22.5371C297.996 22.5371 299.063 21.4707 299.063 20.1553C299.063 18.8398 297.996 17.7734 296.681 17.7734C295.365 17.7734 294.299 18.8398 294.299 20.1553Z" fill="#212121"/>
        <path d="M236.329 150.096C236.329 154.973 240.282 158.926 245.159 158.926C250.036 158.926 253.989 154.973 253.989 150.096C253.989 145.219 250.036 141.266 245.159 141.266C240.282 141.266 236.329 145.219 236.329 150.096Z" fill="#212121"/>
        <path d="M235 312.446C235 318.057 239.548 322.605 245.159 322.605C250.77 322.605 255.318 318.057 255.318 312.446C255.318 306.836 250.77 302.287 245.159 302.287C239.548 302.287 235 306.836 235 312.446Z" fill="#212121"/>
        <path d="M239.756 344.899C239.756 347.883 242.175 350.302 245.159 350.302C248.143 350.302 250.562 347.883 250.562 344.899C250.562 341.915 248.143 339.496 245.159 339.496C242.175 339.496 239.756 341.915 239.756 344.899Z" fill="#212121"/>
        <path d="M56.161 378.52C56.161 383.778 60.4232 388.04 65.6811 388.04C70.9389 388.04 75.2012 383.778 75.2012 378.52C75.2012 373.262 70.9389 369 65.6811 369C60.4232 369 56.161 373.262 56.161 378.52Z" fill="#212121"/>
        <path d="M36.2129 378.731C36.2129 380.801 37.8906 382.478 39.96 382.478C42.0294 382.478 43.707 380.801 43.707 378.731C43.707 376.662 42.0294 374.984 39.96 374.984C37.8906 374.984 36.2129 376.662 36.2129 378.731Z" fill="#212121"/>
        <path d="M55.6742 443.628C55.6742 449.154 60.1543 453.634 65.6808 453.634C71.2073 453.634 75.6875 449.154 75.6875 443.628C75.6875 438.101 71.2073 433.621 65.6808 433.621C60.1543 433.621 55.6742 438.101 55.6742 443.628Z" fill="#212121"/>
        <path d="M56.2915 476.233C56.2915 481.419 60.4953 485.623 65.6809 485.623C70.8665 485.623 75.0703 481.419 75.0703 476.233C75.0703 471.048 70.8665 466.844 65.6809 466.844C60.4953 466.844 56.2915 471.048 56.2915 476.233Z" fill="#212121"/>
        <path d="M55.3621 508.665C55.3621 514.364 59.9821 518.984 65.6811 518.984C71.3801 518.984 76 514.364 76 508.665C76 502.966 71.3801 498.346 65.6811 498.346C59.9821 498.346 55.3621 502.966 55.3621 508.665Z" fill="#212121"/>
        <path d="M59.4798 541.051C59.4798 544.476 62.2563 547.253 65.6813 547.253C69.1063 547.253 71.8828 544.476 71.8828 541.051C71.8828 537.626 69.1063 534.85 65.6813 534.85C62.2563 534.85 59.4798 537.626 59.4798 541.051Z" fill="#212121"/>
        <path d="M33.0909 541.096C33.0909 544.89 36.1665 547.966 39.9605 547.966C43.7545 547.966 46.8301 544.89 46.8301 541.096C46.8301 537.302 43.7545 534.227 39.9605 534.227C36.1665 534.227 33.0909 537.302 33.0909 541.096Z" fill="#212121"/>
        <path d="M34.5569 508.549C34.5569 511.533 36.9757 513.952 39.9596 513.952C42.9434 513.952 45.3623 511.533 45.3623 508.549C45.3623 505.565 42.9434 503.146 39.9596 503.146C36.9757 503.146 34.5569 505.565 34.5569 508.549Z" fill="#212121"/>
        <path d="M9.48283 508.548C9.48283 511.13 11.5766 513.224 14.1594 513.224C16.7422 513.224 18.8359 511.13 18.8359 508.548C18.8359 505.965 16.7422 503.871 14.1594 503.871C11.5766 503.871 9.48283 505.965 9.48283 508.548Z" fill="#212121"/>
        <path d="M8.07349 476.031C8.07349 479.391 10.798 482.116 14.1588 482.116C17.5196 482.116 20.2441 479.391 20.2441 476.031C20.2441 472.67 17.5196 469.945 14.1588 469.945C10.798 469.945 8.07349 472.67 8.07349 476.031Z" fill="#212121"/>
        <path d="M33.6784 476.031C33.6784 479.501 36.4907 482.313 39.9598 482.313C43.429 482.313 46.2412 479.501 46.2412 476.031C46.2412 472.562 43.429 469.75 39.9598 469.75C36.4907 469.75 33.6784 472.562 33.6784 476.031Z" fill="#212121"/>
        <path d="M32.2624 443.629C32.2624 447.88 35.7086 451.326 39.9598 451.326C44.211 451.326 47.6572 447.88 47.6572 443.629C47.6572 439.378 44.211 435.932 39.9598 435.932C35.7086 435.932 32.2624 439.378 32.2624 443.629Z" fill="#212121"/>
        <path d="M6.90516 443.629C6.90516 447.636 10.1531 450.884 14.1596 450.884C18.1661 450.884 21.4141 447.636 21.4141 443.629C21.4141 439.623 18.1661 436.375 14.1596 436.375C10.1531 436.375 6.90516 439.623 6.90516 443.629Z" fill="#212121"/>
        <path d="M9.72185 411.097C9.72185 413.548 11.7083 415.534 14.1588 415.534C16.6092 415.534 18.5957 413.548 18.5957 411.097C18.5957 408.647 16.6092 406.66 14.1588 406.66C11.7083 406.66 9.72185 408.647 9.72185 411.097Z" fill="#212121"/>
        <path d="M32.9085 411.096C32.9085 414.99 36.0654 418.147 39.9596 418.147C43.8539 418.147 47.0107 414.99 47.0107 411.096C47.0107 407.202 43.8539 404.045 39.9596 404.045C36.0654 404.045 32.9085 407.202 32.9085 411.096Z" fill="#212121"/>
        <path d="M63.2988 411.155C63.2988 412.471 64.3652 413.537 65.6806 413.537C66.9961 413.537 68.0625 412.471 68.0625 411.155C68.0625 409.84 66.9961 408.773 65.6806 408.773C64.3652 408.773 63.2988 409.84 63.2988 411.155Z" fill="#212121"/>
        <path d="M5.32875 541.096C5.32875 545.973 9.28217 549.926 14.159 549.926C19.0358 549.926 22.9893 545.973 22.9893 541.096C22.9893 536.219 19.0358 532.266 14.159 532.266C9.28217 532.266 5.32875 536.219 5.32875 541.096Z" fill="#212121"/>
        <path d="M366.161 378.52C366.161 383.778 370.423 388.04 375.681 388.04C380.939 388.04 385.201 383.778 385.201 378.52C385.201 373.262 380.939 369 375.681 369C370.423 369 366.161 373.262 366.161 378.52Z" fill="#212121"/>
        <path d="M346.213 378.731C346.213 380.801 347.891 382.478 349.96 382.478C352.029 382.478 353.707 380.801 353.707 378.731C353.707 376.662 352.029 374.984 349.96 374.984C347.891 374.984 346.213 376.662 346.213 378.731Z" fill="#212121"/>
        <path d="M365.674 443.628C365.674 449.154 370.154 453.634 375.681 453.634C381.207 453.634 385.687 449.154 385.687 443.628C385.687 438.101 381.207 433.621 375.681 433.621C370.154 433.621 365.674 438.101 365.674 443.628Z" fill="#212121"/>
        <path d="M366.292 476.233C366.292 481.419 370.495 485.623 375.681 485.623C380.867 485.623 385.07 481.419 385.07 476.233C385.07 471.048 380.867 466.844 375.681 466.844C370.495 466.844 366.292 471.048 366.292 476.233Z" fill="#212121"/>
        <path d="M365.362 508.665C365.362 514.364 369.982 518.984 375.681 518.984C381.38 518.984 386 514.364 386 508.665C386 502.966 381.38 498.346 375.681 498.346C369.982 498.346 365.362 502.966 365.362 508.665Z" fill="#212121"/>
        <path d="M369.48 541.051C369.48 544.476 372.256 547.253 375.681 547.253C379.106 547.253 381.883 544.476 381.883 541.051C381.883 537.626 379.106 534.85 375.681 534.85C372.256 534.85 369.48 537.626 369.48 541.051Z" fill="#212121"/>
        <path d="M343.091 541.096C343.091 544.89 346.167 547.966 349.961 547.966C353.754 547.966 356.83 544.89 356.83 541.096C356.83 537.302 353.754 534.227 349.961 534.227C346.167 534.227 343.091 537.302 343.091 541.096Z" fill="#212121"/>
        <path d="M344.557 508.549C344.557 511.533 346.976 513.952 349.96 513.952C352.943 513.952 355.362 511.533 355.362 508.549C355.362 505.565 352.943 503.146 349.96 503.146C346.976 503.146 344.557 505.565 344.557 508.549Z" fill="#212121"/>
        <path d="M319.483 508.548C319.483 511.13 321.577 513.224 324.159 513.224C326.742 513.224 328.836 511.13 328.836 508.548C328.836 505.965 326.742 503.871 324.159 503.871C321.577 503.871 319.483 505.965 319.483 508.548Z" fill="#212121"/>
        <path d="M318.073 476.031C318.073 479.391 320.798 482.116 324.159 482.116C327.52 482.116 330.244 479.391 330.244 476.031C330.244 472.67 327.52 469.945 324.159 469.945C320.798 469.945 318.073 472.67 318.073 476.031Z" fill="#212121"/>
        <path d="M343.678 476.031C343.678 479.501 346.491 482.313 349.96 482.313C353.429 482.313 356.241 479.501 356.241 476.031C356.241 472.562 353.429 469.75 349.96 469.75C346.491 469.75 343.678 472.562 343.678 476.031Z" fill="#212121"/>
        <path d="M342.262 443.629C342.262 447.88 345.709 451.326 349.96 451.326C354.211 451.326 357.657 447.88 357.657 443.629C357.657 439.378 354.211 435.932 349.96 435.932C345.709 435.932 342.262 439.378 342.262 443.629Z" fill="#212121"/>
        <path d="M316.905 443.629C316.905 447.636 320.153 450.884 324.16 450.884C328.166 450.884 331.414 447.636 331.414 443.629C331.414 439.623 328.166 436.375 324.16 436.375C320.153 436.375 316.905 439.623 316.905 443.629Z" fill="#212121"/>
        <path d="M319.722 411.097C319.722 413.548 321.708 415.534 324.159 415.534C326.609 415.534 328.596 413.548 328.596 411.097C328.596 408.647 326.609 406.66 324.159 406.66C321.708 406.66 319.722 408.647 319.722 411.097Z" fill="#212121"/>
        <path d="M342.908 411.096C342.908 414.99 346.065 418.147 349.96 418.147C353.854 418.147 357.011 414.99 357.011 411.096C357.011 407.202 353.854 404.045 349.96 404.045C346.065 404.045 342.908 407.202 342.908 411.096Z" fill="#212121"/>
        <path d="M373.299 411.155C373.299 412.471 374.365 413.537 375.681 413.537C376.996 413.537 378.062 412.471 378.062 411.155C378.062 409.84 376.996 408.773 375.681 408.773C374.365 408.773 373.299 409.84 373.299 411.155Z" fill="#212121"/>
        <path d="M315.329 541.096C315.329 545.973 319.282 549.926 324.159 549.926C329.036 549.926 332.989 545.973 332.989 541.096C332.989 536.219 329.036 532.266 324.159 532.266C319.282 532.266 315.329 536.219 315.329 541.096Z" fill="#212121"/>
        <g clip-path="url(#clip1_1187_56016)">
            <path d="M211.161 378.52C211.161 383.778 215.423 388.04 220.681 388.04C225.939 388.04 230.201 383.778 230.201 378.52C230.201 373.262 225.939 369 220.681 369C215.423 369 211.161 373.262 211.161 378.52Z" fill="#212121"/>
            <path d="M191.213 378.731C191.213 380.801 192.891 382.478 194.96 382.478C197.029 382.478 198.707 380.801 198.707 378.731C198.707 376.662 197.029 374.984 194.96 374.984C192.891 374.984 191.213 376.662 191.213 378.731Z" fill="#212121"/>
            <path d="M210.674 443.628C210.674 449.154 215.154 453.634 220.681 453.634C226.207 453.634 230.687 449.154 230.687 443.628C230.687 438.101 226.207 433.621 220.681 433.621C215.154 433.621 210.674 438.101 210.674 443.628Z" fill="#212121"/>
            <path d="M211.292 476.233C211.292 481.419 215.495 485.623 220.681 485.623C225.867 485.623 230.07 481.419 230.07 476.233C230.07 471.048 225.867 466.844 220.681 466.844C215.495 466.844 211.292 471.048 211.292 476.233Z" fill="#212121"/>
            <path d="M210.362 508.665C210.362 514.364 214.982 518.984 220.681 518.984C226.38 518.984 231 514.364 231 508.665C231 502.966 226.38 498.346 220.681 498.346C214.982 498.346 210.362 502.966 210.362 508.665Z" fill="#212121"/>
            <path d="M214.48 541.051C214.48 544.476 217.256 547.253 220.681 547.253C224.106 547.253 226.883 544.476 226.883 541.051C226.883 537.626 224.106 534.85 220.681 534.85C217.256 534.85 214.48 537.626 214.48 541.051Z" fill="#212121"/>
            <path d="M188.091 541.096C188.091 544.89 191.167 547.966 194.961 547.966C198.754 547.966 201.83 544.89 201.83 541.096C201.83 537.302 198.754 534.227 194.961 534.227C191.167 534.227 188.091 537.302 188.091 541.096Z" fill="#212121"/>
            <path d="M189.557 508.549C189.557 511.533 191.976 513.952 194.96 513.952C197.943 513.952 200.362 511.533 200.362 508.549C200.362 505.565 197.943 503.146 194.96 503.146C191.976 503.146 189.557 505.565 189.557 508.549Z" fill="#212121"/>
            <path d="M164.483 508.548C164.483 511.13 166.577 513.224 169.159 513.224C171.742 513.224 173.836 511.13 173.836 508.548C173.836 505.965 171.742 503.871 169.159 503.871C166.577 503.871 164.483 505.965 164.483 508.548Z" fill="#212121"/>
            <path d="M163.073 476.031C163.073 479.391 165.798 482.116 169.159 482.116C172.52 482.116 175.244 479.391 175.244 476.031C175.244 472.67 172.52 469.945 169.159 469.945C165.798 469.945 163.073 472.67 163.073 476.031Z" fill="#212121"/>
            <path d="M188.678 476.031C188.678 479.501 191.491 482.313 194.96 482.313C198.429 482.313 201.241 479.501 201.241 476.031C201.241 472.562 198.429 469.75 194.96 469.75C191.491 469.75 188.678 472.562 188.678 476.031Z" fill="#212121"/>
            <path d="M187.262 443.629C187.262 447.88 190.709 451.326 194.96 451.326C199.211 451.326 202.657 447.88 202.657 443.629C202.657 439.378 199.211 435.932 194.96 435.932C190.709 435.932 187.262 439.378 187.262 443.629Z" fill="#212121"/>
            <path d="M161.905 443.629C161.905 447.636 165.153 450.884 169.16 450.884C173.166 450.884 176.414 447.636 176.414 443.629C176.414 439.623 173.166 436.375 169.16 436.375C165.153 436.375 161.905 439.623 161.905 443.629Z" fill="#212121"/>
            <path d="M164.722 411.097C164.722 413.548 166.708 415.534 169.159 415.534C171.609 415.534 173.596 413.548 173.596 411.097C173.596 408.647 171.609 406.66 169.159 406.66C166.708 406.66 164.722 408.647 164.722 411.097Z" fill="#212121"/>
            <path d="M187.908 411.096C187.908 414.99 191.065 418.147 194.96 418.147C198.854 418.147 202.011 414.99 202.011 411.096C202.011 407.202 198.854 404.045 194.96 404.045C191.065 404.045 187.908 407.202 187.908 411.096Z" fill="#212121"/>
            <path d="M218.299 411.155C218.299 412.471 219.365 413.537 220.681 413.537C221.996 413.537 223.062 412.471 223.062 411.155C223.062 409.84 221.996 408.773 220.681 408.773C219.365 408.773 218.299 409.84 218.299 411.155Z" fill="#212121"/>
            <path d="M160.329 541.096C160.329 545.973 164.282 549.926 169.159 549.926C174.036 549.926 177.989 545.973 177.989 541.096C177.989 536.219 174.036 532.266 169.159 532.266C164.282 532.266 160.329 536.219 160.329 541.096Z" fill="#212121"/>
        </g>
        <g clip-path="url(#clip2_1187_56016)">
            <path d="M135.674 346.628C135.674 352.154 140.154 356.634 145.681 356.634C151.207 356.634 155.687 352.154 155.687 346.628C155.687 341.101 151.207 336.621 145.681 336.621C140.154 336.621 135.674 341.101 135.674 346.628Z" fill="#212121"/>
            <path d="M136.292 379.233C136.292 384.419 140.495 388.623 145.681 388.623C150.867 388.623 155.07 384.419 155.07 379.233C155.07 374.048 150.867 369.844 145.681 369.844C140.495 369.844 136.292 374.048 136.292 379.233Z" fill="#212121"/>
            <path d="M135.362 411.665C135.362 417.364 139.982 421.984 145.681 421.984C151.38 421.984 156 417.364 156 411.665C156 405.966 151.38 401.346 145.681 401.346C139.982 401.346 135.362 405.966 135.362 411.665Z" fill="#212121"/>
            <path d="M139.48 444.051C139.48 447.476 142.256 450.253 145.681 450.253C149.106 450.253 151.883 447.476 151.883 444.051C151.883 440.626 149.106 437.85 145.681 437.85C142.256 437.85 139.48 440.626 139.48 444.051Z" fill="#212121"/>
            <path d="M137.424 476.622C137.424 481.182 141.121 484.878 145.681 484.878C150.241 484.878 153.937 481.182 153.937 476.622C153.937 472.062 150.241 468.365 145.681 468.365C141.121 468.365 137.424 472.062 137.424 476.622Z" fill="#212121"/>
            <path d="M140.351 508.898C140.351 511.842 142.737 514.229 145.681 514.229C148.624 514.229 151.011 511.842 151.011 508.898C151.011 505.955 148.624 503.568 145.681 503.568C142.737 503.568 140.351 505.955 140.351 508.898Z" fill="#212121"/>
            <path d="M140.489 541.468C140.489 544.335 142.813 546.66 145.681 546.66C148.548 546.66 150.873 544.335 150.873 541.468C150.873 538.6 148.548 536.275 145.681 536.275C142.813 536.275 140.489 538.6 140.489 541.468Z" fill="#212121"/>
            <path d="M92.1479 541.316C92.1479 542.427 93.0485 543.328 94.1594 543.328C95.2703 543.328 96.1709 542.427 96.1709 541.316C96.1709 540.205 95.2703 539.305 94.1594 539.305C93.0485 539.305 92.1479 540.205 92.1479 541.316Z" fill="#212121"/>
            <path d="M113.185 541.519C113.185 545.261 116.218 548.295 119.96 548.295C123.702 548.295 126.735 545.261 126.735 541.519C126.735 537.777 123.702 534.744 119.96 534.744C116.218 534.744 113.185 537.777 113.185 541.519Z" fill="#212121"/>
            <path d="M118.116 508.87C118.116 509.889 118.942 510.714 119.96 510.714C120.979 510.714 121.805 509.889 121.805 508.87C121.805 507.851 120.979 507.025 119.96 507.025C118.942 507.025 118.116 507.851 118.116 508.87Z" fill="#212121"/>
            <path d="M87.6741 508.869C87.6741 512.451 90.5774 515.354 94.1588 515.354C97.7403 515.354 100.644 512.451 100.644 508.869C100.644 505.288 97.7403 502.385 94.1588 502.385C90.5774 502.385 87.6741 505.288 87.6741 508.869Z" fill="#212121"/>
            <path d="M84.4062 476.534C84.4062 481.92 88.7725 486.286 94.1586 486.286C99.5448 486.286 103.911 481.92 103.911 476.534C103.911 471.148 99.5448 466.781 94.1586 466.781C88.7725 466.781 84.4062 471.148 84.4062 476.534Z" fill="#212121"/>
            <path d="M107.993 476.534C107.993 483.143 113.351 488.501 119.96 488.501C126.57 488.501 131.928 483.143 131.928 476.534C131.928 469.924 126.57 464.566 119.96 464.566C113.351 464.566 107.993 469.924 107.993 476.534Z" fill="#212121"/>
            <path d="M113.091 444.096C113.091 447.89 116.167 450.966 119.961 450.966C123.754 450.966 126.83 447.89 126.83 444.096C126.83 440.302 123.754 437.227 119.961 437.227C116.167 437.227 113.091 440.302 113.091 444.096Z" fill="#212121"/>
            <path d="M114.557 411.549C114.557 414.533 116.976 416.952 119.96 416.952C122.943 416.952 125.362 414.533 125.362 411.549C125.362 408.565 122.943 406.146 119.96 406.146C116.976 406.146 114.557 408.565 114.557 411.549Z" fill="#212121"/>
            <path d="M89.4828 411.548C89.4828 414.13 91.5766 416.224 94.1594 416.224C96.7422 416.224 98.8359 414.13 98.8359 411.548C98.8359 408.965 96.7422 406.871 94.1594 406.871C91.5766 406.871 89.4828 408.965 89.4828 411.548Z" fill="#212121"/>
            <path d="M88.0735 379.031C88.0735 382.391 90.798 385.116 94.1588 385.116C97.5196 385.116 100.244 382.391 100.244 379.031C100.244 375.67 97.5196 372.945 94.1588 372.945C90.798 372.945 88.0735 375.67 88.0735 379.031Z" fill="#212121"/>
            <path d="M113.678 379.031C113.678 382.501 116.491 385.313 119.96 385.313C123.429 385.313 126.241 382.501 126.241 379.031C126.241 375.562 123.429 372.75 119.96 372.75C116.491 372.75 113.678 375.562 113.678 379.031Z" fill="#212121"/>
            <path d="M112.262 346.629C112.262 350.88 115.709 354.326 119.96 354.326C124.211 354.326 127.657 350.88 127.657 346.629C127.657 342.378 124.211 338.932 119.96 338.932C115.709 338.932 112.262 342.378 112.262 346.629Z" fill="#212121"/>
            <path d="M86.9052 346.629C86.9052 350.636 90.1531 353.884 94.1596 353.884C98.1661 353.884 101.414 350.636 101.414 346.629C101.414 342.623 98.1661 339.375 94.1596 339.375C90.1531 339.375 86.9052 342.623 86.9052 346.629Z" fill="#212121"/>
            <path d="M89.7219 314.097C89.7219 316.548 91.7083 318.534 94.1588 318.534C96.6092 318.534 98.5957 316.548 98.5957 314.097C98.5957 311.647 96.6092 309.66 94.1588 309.66C91.7083 309.66 89.7219 311.647 89.7219 314.097Z" fill="#212121"/>
            <path d="M112.908 314.096C112.908 317.99 116.065 321.147 119.96 321.147C123.854 321.147 127.011 317.99 127.011 314.096C127.011 310.202 123.854 307.045 119.96 307.045C116.065 307.045 112.908 310.202 112.908 314.096Z" fill="#212121"/>
            <path d="M143.299 314.155C143.299 315.471 144.365 316.537 145.681 316.537C146.996 316.537 148.062 315.471 148.062 314.155C148.062 312.84 146.996 311.773 145.681 311.773C144.365 311.773 143.299 312.84 143.299 314.155Z" fill="#212121"/>
            <path d="M85.3287 444.096C85.3287 448.973 89.2822 452.926 94.159 452.926C99.0358 452.926 102.989 448.973 102.989 444.096C102.989 439.219 99.0358 435.266 94.159 435.266C89.2822 435.266 85.3287 439.219 85.3287 444.096Z" fill="#212121"/>
        </g>
        <path d="M446.161 281.52C446.161 286.778 450.423 291.04 455.681 291.04C460.939 291.04 465.201 286.778 465.201 281.52C465.201 276.262 460.939 272 455.681 272C450.423 272 446.161 276.262 446.161 281.52Z" fill="#212121"/>
        <path d="M426.213 281.731C426.213 283.801 427.891 285.478 429.96 285.478C432.029 285.478 433.707 283.801 433.707 281.731C433.707 279.662 432.029 277.984 429.96 277.984C427.891 277.984 426.213 279.662 426.213 281.731Z" fill="#212121"/>
        <path d="M445.674 346.628C445.674 352.154 450.154 356.634 455.681 356.634C461.207 356.634 465.687 352.154 465.687 346.628C465.687 341.101 461.207 336.621 455.681 336.621C450.154 336.621 445.674 341.101 445.674 346.628Z" fill="#212121"/>
        <path d="M446.292 379.233C446.292 384.419 450.495 388.623 455.681 388.623C460.867 388.623 465.07 384.419 465.07 379.233C465.07 374.048 460.867 369.844 455.681 369.844C450.495 369.844 446.292 374.048 446.292 379.233Z" fill="#212121"/>
        <path d="M445.362 411.665C445.362 417.364 449.982 421.984 455.681 421.984C461.38 421.984 466 417.364 466 411.665C466 405.966 461.38 401.346 455.681 401.346C449.982 401.346 445.362 405.966 445.362 411.665Z" fill="#212121"/>
        <path d="M449.48 444.051C449.48 447.476 452.256 450.253 455.681 450.253C459.106 450.253 461.883 447.476 461.883 444.051C461.883 440.626 459.106 437.85 455.681 437.85C452.256 437.85 449.48 440.626 449.48 444.051Z" fill="#212121"/>
        <path d="M447.424 476.622C447.424 481.182 451.121 484.878 455.681 484.878C460.241 484.878 463.937 481.182 463.937 476.622C463.937 472.062 460.241 468.365 455.681 468.365C451.121 468.365 447.424 472.062 447.424 476.622Z" fill="#212121"/>
        <path d="M450.351 508.898C450.351 511.842 452.737 514.229 455.681 514.229C458.624 514.229 461.011 511.842 461.011 508.898C461.011 505.955 458.624 503.568 455.681 503.568C452.737 503.568 450.351 505.955 450.351 508.898Z" fill="#212121"/>
        <path d="M450.489 541.468C450.489 544.335 452.813 546.66 455.681 546.66C458.548 546.66 460.873 544.335 460.873 541.468C460.873 538.6 458.548 536.275 455.681 536.275C452.813 536.275 450.489 538.6 450.489 541.468Z" fill="#212121"/>
        <path d="M402.148 541.316C402.148 542.427 403.048 543.328 404.159 543.328C405.27 543.328 406.171 542.427 406.171 541.316C406.171 540.205 405.27 539.305 404.159 539.305C403.048 539.305 402.148 540.205 402.148 541.316Z" fill="#212121"/>
        <path d="M423.185 541.519C423.185 545.261 426.218 548.295 429.96 548.295C433.702 548.295 436.735 545.261 436.735 541.519C436.735 537.777 433.702 534.744 429.96 534.744C426.218 534.744 423.185 537.777 423.185 541.519Z" fill="#212121"/>
        <path d="M428.116 508.87C428.116 509.889 428.942 510.714 429.96 510.714C430.979 510.714 431.805 509.889 431.805 508.87C431.805 507.851 430.979 507.025 429.96 507.025C428.942 507.025 428.116 507.851 428.116 508.87Z" fill="#212121"/>
        <path d="M397.674 508.869C397.674 512.451 400.577 515.354 404.159 515.354C407.74 515.354 410.644 512.451 410.644 508.869C410.644 505.288 407.74 502.385 404.159 502.385C400.577 502.385 397.674 505.288 397.674 508.869Z" fill="#212121"/>
        <path d="M394.406 476.534C394.406 481.92 398.772 486.286 404.159 486.286C409.545 486.286 413.911 481.92 413.911 476.534C413.911 471.148 409.545 466.781 404.159 466.781C398.772 466.781 394.406 471.148 394.406 476.534Z" fill="#212121"/>
        <path d="M417.993 476.534C417.993 483.143 423.351 488.501 429.96 488.501C436.57 488.501 441.928 483.143 441.928 476.534C441.928 469.924 436.57 464.566 429.96 464.566C423.351 464.566 417.993 469.924 417.993 476.534Z" fill="#212121"/>
        <path d="M423.091 444.096C423.091 447.89 426.167 450.966 429.961 450.966C433.754 450.966 436.83 447.89 436.83 444.096C436.83 440.302 433.754 437.227 429.961 437.227C426.167 437.227 423.091 440.302 423.091 444.096Z" fill="#212121"/>
        <path d="M424.557 411.549C424.557 414.533 426.976 416.952 429.96 416.952C432.943 416.952 435.362 414.533 435.362 411.549C435.362 408.565 432.943 406.146 429.96 406.146C426.976 406.146 424.557 408.565 424.557 411.549Z" fill="#212121"/>
        <path d="M399.483 411.548C399.483 414.13 401.577 416.224 404.159 416.224C406.742 416.224 408.836 414.13 408.836 411.548C408.836 408.965 406.742 406.871 404.159 406.871C401.577 406.871 399.483 408.965 399.483 411.548Z" fill="#212121"/>
        <path d="M398.073 379.031C398.073 382.391 400.798 385.116 404.159 385.116C407.52 385.116 410.244 382.391 410.244 379.031C410.244 375.67 407.52 372.945 404.159 372.945C400.798 372.945 398.073 375.67 398.073 379.031Z" fill="#212121"/>
        <path d="M423.678 379.031C423.678 382.501 426.491 385.313 429.96 385.313C433.429 385.313 436.241 382.501 436.241 379.031C436.241 375.562 433.429 372.75 429.96 372.75C426.491 372.75 423.678 375.562 423.678 379.031Z" fill="#212121"/>
        <path d="M422.262 346.629C422.262 350.88 425.709 354.326 429.96 354.326C434.211 354.326 437.657 350.88 437.657 346.629C437.657 342.378 434.211 338.932 429.96 338.932C425.709 338.932 422.262 342.378 422.262 346.629Z" fill="#212121"/>
        <path d="M396.905 346.629C396.905 350.636 400.153 353.884 404.16 353.884C408.166 353.884 411.414 350.636 411.414 346.629C411.414 342.623 408.166 339.375 404.16 339.375C400.153 339.375 396.905 342.623 396.905 346.629Z" fill="#212121"/>
        <path d="M399.722 314.097C399.722 316.548 401.708 318.534 404.159 318.534C406.609 318.534 408.596 316.548 408.596 314.097C408.596 311.647 406.609 309.66 404.159 309.66C401.708 309.66 399.722 311.647 399.722 314.097Z" fill="#212121"/>
        <path d="M422.908 314.096C422.908 317.99 426.065 321.147 429.96 321.147C433.854 321.147 437.011 317.99 437.011 314.096C437.011 310.202 433.854 307.045 429.96 307.045C426.065 307.045 422.908 310.202 422.908 314.096Z" fill="#212121"/>
        <path d="M453.299 314.155C453.299 315.471 454.365 316.537 455.681 316.537C456.996 316.537 458.062 315.471 458.062 314.155C458.062 312.84 456.996 311.773 455.681 311.773C454.365 311.773 453.299 312.84 453.299 314.155Z" fill="#212121"/>
        <path d="M395.329 444.096C395.329 448.973 399.282 452.926 404.159 452.926C409.036 452.926 412.989 448.973 412.989 444.096C412.989 439.219 409.036 435.266 404.159 435.266C399.282 435.266 395.329 439.219 395.329 444.096Z" fill="#212121"/>
        <g clip-path="url(#clip3_1187_56016)">
            <path d="M258.708 379.233C258.708 384.419 254.505 388.623 249.319 388.623C244.133 388.623 239.93 384.419 239.93 379.233C239.93 374.048 244.133 369.844 249.319 369.844C254.505 369.844 258.708 374.048 258.708 379.233Z" fill="#212121"/>
            <path d="M259.638 411.665C259.638 417.364 255.018 421.984 249.319 421.984C243.62 421.984 239 417.364 239 411.665C239 405.966 243.62 401.346 249.319 401.346C255.018 401.346 259.638 405.966 259.638 411.665Z" fill="#212121"/>
            <path d="M255.52 444.051C255.52 447.476 252.744 450.253 249.319 450.253C245.894 450.253 243.117 447.476 243.117 444.051C243.117 440.626 245.894 437.85 249.319 437.85C252.744 437.85 255.52 440.626 255.52 444.051Z" fill="#212121"/>
            <path d="M257.576 476.622C257.576 481.182 253.879 484.878 249.319 484.878C244.759 484.878 241.063 481.182 241.063 476.622C241.063 472.062 244.759 468.365 249.319 468.365C253.879 468.365 257.576 472.062 257.576 476.622Z" fill="#212121"/>
            <path d="M254.649 508.898C254.649 511.842 252.263 514.229 249.319 514.229C246.376 514.229 243.989 511.842 243.989 508.898C243.989 505.955 246.376 503.568 249.319 503.568C252.263 503.568 254.649 505.955 254.649 508.898Z" fill="#212121"/>
            <path d="M254.511 541.468C254.511 544.335 252.187 546.66 249.319 546.66C246.452 546.66 244.127 544.335 244.127 541.468C244.127 538.6 246.452 536.275 249.319 536.275C252.187 536.275 254.511 538.6 254.511 541.468Z" fill="#212121"/>
            <path d="M302.852 541.316C302.852 542.427 301.952 543.328 300.841 543.328C299.73 543.328 298.829 542.427 298.829 541.316C298.829 540.205 299.73 539.305 300.841 539.305C301.952 539.305 302.852 540.205 302.852 541.316Z" fill="#212121"/>
            <path d="M281.815 541.519C281.815 545.261 278.782 548.295 275.04 548.295C271.298 548.295 268.265 545.261 268.265 541.519C268.265 537.777 271.298 534.744 275.04 534.744C278.782 534.744 281.815 537.777 281.815 541.519Z" fill="#212121"/>
            <path d="M276.884 508.87C276.884 509.889 276.058 510.714 275.04 510.714C274.021 510.714 273.195 509.889 273.195 508.87C273.195 507.851 274.021 507.025 275.04 507.025C276.058 507.025 276.884 507.851 276.884 508.87Z" fill="#212121"/>
            <path d="M307.326 508.869C307.326 512.451 304.423 515.354 300.841 515.354C297.26 515.354 294.356 512.451 294.356 508.869C294.356 505.288 297.26 502.385 300.841 502.385C304.423 502.385 307.326 505.288 307.326 508.869Z" fill="#212121"/>
            <path d="M310.594 476.534C310.594 481.92 306.228 486.286 300.841 486.286C295.455 486.286 291.089 481.92 291.089 476.534C291.089 471.148 295.455 466.781 300.841 466.781C306.228 466.781 310.594 471.148 310.594 476.534Z" fill="#212121"/>
            <path d="M287.007 476.534C287.007 483.143 281.649 488.501 275.04 488.501C268.43 488.501 263.072 483.143 263.072 476.534C263.072 469.924 268.43 464.566 275.04 464.566C281.649 464.566 287.007 469.924 287.007 476.534Z" fill="#212121"/>
            <path d="M281.909 444.096C281.909 447.89 278.833 450.966 275.039 450.966C271.246 450.966 268.17 447.89 268.17 444.096C268.17 440.302 271.246 437.227 275.039 437.227C278.833 437.227 281.909 440.302 281.909 444.096Z" fill="#212121"/>
            <path d="M280.443 411.549C280.443 414.533 278.024 416.952 275.04 416.952C272.057 416.952 269.638 414.533 269.638 411.549C269.638 408.565 272.057 406.146 275.04 406.146C278.024 406.146 280.443 408.565 280.443 411.549Z" fill="#212121"/>
            <path d="M305.517 411.548C305.517 414.13 303.423 416.224 300.841 416.224C298.258 416.224 296.164 414.13 296.164 411.548C296.164 408.965 298.258 406.871 300.841 406.871C303.423 406.871 305.517 408.965 305.517 411.548Z" fill="#212121"/>
            <path d="M306.927 379.031C306.927 382.391 304.202 385.116 300.841 385.116C297.48 385.116 294.756 382.391 294.756 379.031C294.756 375.67 297.48 372.945 300.841 372.945C304.202 372.945 306.927 375.67 306.927 379.031Z" fill="#212121"/>
            <path d="M281.322 379.031C281.322 382.501 278.509 385.313 275.04 385.313C271.571 385.313 268.759 382.501 268.759 379.031C268.759 375.562 271.571 372.75 275.04 372.75C278.509 372.75 281.322 375.562 281.322 379.031Z" fill="#212121"/>
            <path d="M309.671 444.096C309.671 448.973 305.718 452.926 300.841 452.926C295.964 452.926 292.011 448.973 292.011 444.096C292.011 439.219 295.964 435.266 300.841 435.266C305.718 435.266 309.671 439.219 309.671 444.096Z" fill="#212121"/>
        </g>
        <path d="M478.148 541.316C478.148 542.427 479.048 543.328 480.159 543.328C481.27 543.328 482.171 542.427 482.171 541.316C482.171 540.205 481.27 539.305 480.159 539.305C479.048 539.305 478.148 540.205 478.148 541.316Z" fill="#212121"/>
        <path d="M473.674 508.869C473.674 512.451 476.577 515.354 480.159 515.354C483.74 515.354 486.644 512.451 486.644 508.869C486.644 505.288 483.74 502.385 480.159 502.385C476.577 502.385 473.674 505.288 473.674 508.869Z" fill="#212121"/>
        <path d="M470.406 476.534C470.406 481.92 474.772 486.286 480.159 486.286C485.545 486.286 489.911 481.92 489.911 476.534C489.911 471.148 485.545 466.781 480.159 466.781C474.772 466.781 470.406 471.148 470.406 476.534Z" fill="#212121"/>
        <path d="M475.483 411.548C475.483 414.13 477.577 416.224 480.159 416.224C482.742 416.224 484.836 414.13 484.836 411.548C484.836 408.965 482.742 406.871 480.159 406.871C477.577 406.871 475.483 408.965 475.483 411.548Z" fill="#212121"/>
        <path d="M474.073 379.031C474.073 382.391 476.798 385.116 480.159 385.116C483.52 385.116 486.244 382.391 486.244 379.031C486.244 375.67 483.52 372.945 480.159 372.945C476.798 372.945 474.073 375.67 474.073 379.031Z" fill="#212121"/>
        <path d="M472.905 346.629C472.905 350.636 476.153 353.884 480.16 353.884C484.166 353.884 487.414 350.636 487.414 346.629C487.414 342.623 484.166 339.375 480.16 339.375C476.153 339.375 472.905 342.623 472.905 346.629Z" fill="#212121"/>
        <path d="M475.722 314.097C475.722 316.548 477.708 318.534 480.159 318.534C482.609 318.534 484.596 316.548 484.596 314.097C484.596 311.647 482.609 309.66 480.159 309.66C477.708 309.66 475.722 311.647 475.722 314.097Z" fill="#212121"/>
        <path d="M471.329 444.096C471.329 448.973 475.282 452.926 480.159 452.926C485.036 452.926 488.989 448.973 488.989 444.096C488.989 439.219 485.036 435.266 480.159 435.266C475.282 435.266 471.329 439.219 471.329 444.096Z" fill="#212121"/>
        <path d="M487.839 345.781C487.839 340.523 483.577 336.261 478.319 336.261C473.061 336.261 468.799 340.523 468.799 345.781C468.799 351.038 473.061 355.301 478.319 355.301C483.577 355.301 487.839 351.038 487.839 345.781Z" fill="#212121"/>
        <path d="M488.326 280.673C488.326 275.147 483.846 270.666 478.319 270.666C472.793 270.666 468.313 275.147 468.313 280.673C468.313 286.2 472.793 290.68 478.319 290.68C483.846 290.68 488.326 286.2 488.326 280.673Z" fill="#212121"/>
        <path d="M487.708 248.068C487.708 242.882 483.505 238.678 478.319 238.678C473.133 238.678 468.93 242.882 468.93 248.068C468.93 253.253 473.133 257.457 478.319 257.457C483.505 257.457 487.708 253.253 487.708 248.068Z" fill="#212121"/>
        <path d="M488.638 215.636C488.638 209.937 484.018 205.317 478.319 205.317C472.62 205.317 468 209.937 468 215.636C468 221.335 472.62 225.955 478.319 225.955C484.018 225.955 488.638 221.335 488.638 215.636Z" fill="#212121"/>
        <path d="M484.52 183.25C484.52 179.825 481.744 177.048 478.319 177.048C474.894 177.048 472.117 179.825 472.117 183.25C472.117 186.675 474.894 189.451 478.319 189.451C481.744 189.451 484.52 186.675 484.52 183.25Z" fill="#212121"/>
        <path d="M486.576 150.679C486.576 146.119 482.879 142.422 478.319 142.422C473.759 142.422 470.063 146.119 470.063 150.679C470.063 155.239 473.759 158.936 478.319 158.936C482.879 158.936 486.576 155.239 486.576 150.679Z" fill="#212121"/>
        <path d="M483.649 118.402C483.649 115.459 481.263 113.072 478.319 113.072C475.376 113.072 472.989 115.459 472.989 118.402C472.989 121.346 475.376 123.732 478.319 123.732C481.263 123.732 483.649 121.346 483.649 118.402Z" fill="#212121"/>
        <path d="M483.511 85.8333C483.511 82.9657 481.187 80.6411 478.319 80.6411C475.452 80.6411 473.127 82.9657 473.127 85.8333C473.127 88.7008 475.452 91.0254 478.319 91.0254C481.187 91.0254 483.511 88.7008 483.511 85.8333Z" fill="#212121"/>
        <path d="M486.924 53.3578C486.924 48.6053 483.072 44.7526 478.319 44.7526C473.567 44.7526 469.714 48.6053 469.714 53.3578C469.714 58.1103 473.567 61.9629 478.319 61.9629C483.072 61.9629 486.924 58.1103 486.924 53.3578Z" fill="#212121"/>
        <path d="M486.365 20.7392C486.365 16.2955 482.763 12.6932 478.319 12.6932C473.876 12.6932 470.273 16.2955 470.273 20.7392C470.273 25.1829 473.876 28.7852 478.319 28.7852C482.763 28.7852 486.365 25.1829 486.365 20.7392Z" fill="#212121"/>
        <path d="M480.701 313.146C480.701 311.83 479.635 310.764 478.319 310.764C477.004 310.764 475.938 311.83 475.938 313.145C475.938 314.461 477.004 315.527 478.319 315.527C479.635 315.527 480.701 314.461 480.701 313.146Z" fill="#212121"/>
    </g>
    <defs>
        <clipPath id="clip0_1187_56016">
            <rect width="492" height="552" fill="white"/>
        </clipPath>
        <clipPath id="clip1_1187_56016">
            <rect width="372.301" height="72" fill="white" transform="translate(231 369) rotate(90)"/>
        </clipPath>
        <clipPath id="clip2_1187_56016">
            <rect width="72" height="342" fill="white" transform="translate(84 302)"/>
        </clipPath>
        <clipPath id="clip3_1187_56016">
            <rect width="72" height="287" fill="white" transform="matrix(-1 0 0 1 311 357)"/>
        </clipPath>
    </defs>
</svg>
