<?xml version="1.0" standalone="no"?>
<!DOCTYPE svg PUBLIC "-//W3C//DTD SVG 20010904//EN"
 "http://www.w3.org/TR/2001/REC-SVG-20010904/DTD/svg10.dtd">
<svg version="1.0" xmlns="http://www.w3.org/2000/svg"
 width="700.000000pt" height="700.000000pt" viewBox="0 0 700.000000 700.000000"
 preserveAspectRatio="xMidYMid meet">
<metadata>
Created by potrace 1.14, written by Peter Selinger 2001-2017
</metadata>
<g transform="translate(0.000000,700.000000) scale(0.100000,-0.100000)"
fill="#000000" stroke="none">
<path d="M3441 6423 c-124 -65 -93 -242 45 -259 73 -9 141 46 150 122 13 104
-103 186 -195 137z"/>
<path d="M3444 6131 c-32 -14 -73 -68 -80 -107 -9 -47 19 -108 61 -134 70 -44
166 -15 200 59 23 52 14 102 -29 148 -27 30 -40 36 -82 39 -27 2 -58 0 -70 -5z"/>
<path d="M1844 5839 c-18 -5 -46 -25 -63 -44 -25 -29 -31 -44 -31 -83 0 -109
99 -172 197 -125 52 25 75 67 70 131 -4 62 -39 106 -96 122 -41 11 -36 11 -77
-1z"/>
<path d="M3455 5835 c-119 -42 -124 -194 -8 -254 52 -27 133 -1 168 53 71 108
-37 243 -160 201z"/>
<path d="M5075 5839 c-114 -33 -127 -202 -21 -253 97 -46 196 17 196 126 0 39
-6 54 -31 82 -17 20 -47 40 -67 46 -42 11 -37 11 -77 -1z"/>
<path d="M1821 5533 c-46 -23 -71 -67 -71 -125 0 -87 84 -151 167 -129 121 33
140 202 29 255 -43 20 -82 20 -125 -1z"/>
<path d="M2142 5530 c-149 -91 -38 -312 122 -242 53 24 79 67 78 129 -1 102
-114 165 -200 113z"/>
<path d="M3433 5530 c-87 -53 -95 -167 -16 -227 72 -55 185 -22 213 63 40 119
-91 229 -197 164z"/>
<path d="M4734 5536 c-107 -47 -100 -209 10 -251 121 -46 233 84 166 193 -39
64 -109 87 -176 58z"/>
<path d="M5053 5534 c-109 -54 -91 -220 28 -255 49 -15 99 2 139 47 24 28 30
44 30 82 0 108 -102 173 -197 126z"/>
<path d="M1813 5230 c-115 -70 -63 -250 72 -250 76 0 135 59 135 135 0 106
-116 171 -207 115z"/>
<path d="M2132 5230 c-35 -22 -62 -72 -62 -116 0 -71 62 -134 133 -134 132 0
191 152 92 239 -29 25 -44 31 -83 31 -29 0 -59 -8 -80 -20z"/>
<path d="M3428 5233 c-15 -10 -37 -36 -49 -58 -28 -53 -20 -103 24 -152 64
-69 176 -53 217 31 11 23 20 52 20 65 0 35 -36 94 -68 114 -38 22 -109 22
-144 0z"/>
<path d="M4705 5219 c-99 -87 -40 -239 92 -239 49 0 95 29 116 73 47 98 -16
197 -125 197 -39 0 -54 -6 -83 -31z"/>
<path d="M5043 5230 c-115 -70 -63 -250 72 -250 76 0 135 59 135 135 0 106
-116 171 -207 115z"/>
<path d="M2483 5215 c-76 -33 -83 -157 -11 -192 42 -20 56 -22 93 -12 93 26
99 167 10 205 -42 17 -51 17 -92 -1z"/>
<path d="M4423 5144 c-15 -24 -15 -29 -2 -53 11 -20 22 -26 49 -26 27 0 38 6
49 26 13 24 13 29 -2 53 -12 18 -26 26 -47 26 -21 0 -35 -8 -47 -26z"/>
<path d="M1825 4940 c-50 -25 -75 -65 -75 -120 0 -54 30 -103 74 -124 46 -22
81 -20 126 5 101 57 91 199 -17 245 -43 19 -61 18 -108 -6z"/>
<path d="M2471 4943 c-124 -65 -93 -242 45 -259 73 -9 141 46 150 122 13 104
-103 186 -195 137z"/>
<path d="M3441 4943 c-124 -65 -93 -242 45 -259 73 -9 141 46 150 122 13 104
-103 186 -195 137z"/>
<path d="M4411 4943 c-124 -65 -93 -242 45 -259 102 -13 183 97 139 190 -34
72 -118 104 -184 69z"/>
<path d="M5065 4946 c-74 -33 -107 -123 -71 -191 20 -37 81 -75 121 -75 73 0
135 64 135 140 0 55 -25 96 -75 120 -48 23 -69 24 -110 6z"/>
<path d="M1813 4640 c-46 -28 -66 -72 -60 -134 4 -41 10 -55 41 -83 34 -32 56
-38 116 -33 88 6 139 127 90 208 -36 59 -126 80 -187 42z"/>
<path d="M2463 4641 c-63 -40 -84 -99 -59 -166 42 -108 193 -118 247 -15 33
60 21 117 -35 169 -36 33 -110 39 -153 12z"/>
<path d="M3433 4640 c-92 -55 -94 -181 -4 -234 67 -39 156 -14 193 54 47 86
-23 200 -122 200 -19 0 -49 -9 -67 -20z"/>
<path d="M4414 4650 c-27 -11 -72 -65 -80 -96 -22 -85 47 -167 138 -166 110 2
174 131 107 216 -39 49 -109 69 -165 46z"/>
<path d="M5053 4645 c-90 -39 -96 -184 -11 -239 49 -31 120 -24 164 17 31 28
37 42 41 83 11 115 -88 186 -194 139z"/>
<path d="M1851 4359 c-112 -24 -137 -189 -38 -249 89 -55 207 10 207 113 0 94
-77 156 -169 136z"/>
<path d="M2505 4360 c-52 -11 -76 -30 -97 -77 -74 -167 164 -273 248 -111 49
95 -44 211 -151 188z"/>
<path d="M3455 4355 c-119 -42 -124 -194 -8 -254 52 -27 133 -1 168 53 71 108
-37 243 -160 201z"/>
<path d="M4424 4354 c-48 -16 -81 -53 -90 -99 -9 -49 1 -80 39 -121 51 -56
126 -59 186 -8 45 38 58 92 37 148 -27 71 -99 105 -172 80z"/>
<path d="M5082 4359 c-119 -25 -139 -208 -27 -255 107 -44 203 25 192 139 -7
83 -81 134 -165 116z"/>
<path d="M1823 4054 c-44 -22 -73 -71 -73 -124 0 -56 25 -96 78 -121 55 -27
101 -19 149 24 68 63 54 176 -29 218 -45 23 -82 24 -125 3z"/>
<path d="M2471 4053 c-69 -36 -97 -111 -66 -177 61 -128 244 -100 261 40 13
104 -103 186 -195 137z"/>
<path d="M3441 4053 c-124 -65 -93 -242 45 -259 73 -9 141 46 150 122 13 104
-103 186 -195 137z"/>
<path d="M4411 4053 c-122 -64 -94 -238 40 -259 72 -12 146 48 156 124 12 102
-105 183 -196 135z"/>
<path d="M5049 4050 c-80 -42 -93 -155 -26 -217 48 -43 94 -51 149 -24 53 25
78 65 78 121 0 107 -106 170 -201 120z"/>
<path d="M1813 3750 c-115 -70 -63 -250 72 -250 76 0 135 59 135 135 0 106
-116 171 -207 115z"/>
<path d="M2474 3760 c-31 -13 -72 -66 -80 -105 -8 -44 25 -114 65 -138 39 -23
106 -22 146 3 36 22 65 73 65 114 0 40 -34 99 -68 119 -32 18 -93 22 -128 7z"/>
<path d="M3427 3752 c-30 -19 -67 -85 -67 -121 0 -34 38 -95 70 -114 15 -10
47 -17 70 -17 23 0 55 7 70 17 32 19 70 80 70 114 0 37 -37 103 -69 122 -37
22 -108 21 -144 -1z"/>
<path d="M4398 3754 c-33 -22 -68 -83 -68 -119 0 -73 64 -135 140 -135 56 0
96 25 121 78 27 55 19 101 -25 149 -28 31 -40 37 -87 40 -39 3 -61 -1 -81 -13z"/>
<path d="M5043 3750 c-115 -70 -63 -250 72 -250 76 0 135 59 135 135 0 106
-116 171 -207 115z"/>
<path d="M1835 3466 c-52 -23 -85 -71 -85 -124 0 -59 26 -103 73 -125 44 -21
80 -21 123 -1 51 24 77 74 72 135 -6 56 -33 93 -85 115 -40 17 -59 17 -98 0z"/>
<path d="M2166 3470 c-82 -25 -121 -124 -76 -198 39 -64 106 -86 174 -58 104
43 106 200 3 247 -46 20 -58 21 -101 9z"/>
<path d="M2492 3473 c-34 -7 -90 -68 -98 -107 -13 -73 39 -148 111 -162 46 -8
77 0 114 31 81 69 54 207 -47 235 -38 10 -41 10 -80 3z"/>
<path d="M3136 3470 c-62 -19 -101 -80 -93 -147 14 -131 193 -166 253 -51 37
71 9 154 -61 188 -45 22 -55 23 -99 10z"/>
<path d="M3765 3460 c-71 -35 -97 -118 -61 -188 61 -118 241 -79 253 55 9 108
-96 182 -192 133z"/>
<path d="M4423 3469 c-96 -29 -121 -167 -42 -234 55 -45 123 -45 178 1 114 96
9 277 -136 233z"/>
<path d="M4733 3461 c-50 -23 -76 -68 -75 -128 1 -102 114 -165 200 -113 151
92 35 315 -125 241z"/>
<path d="M5065 3466 c-108 -48 -114 -201 -11 -250 43 -20 79 -20 123 1 75 35
98 141 46 204 -28 32 -78 59 -110 59 -10 -1 -31 -7 -48 -14z"/>
<path d="M3442 3397 c-23 -25 -29 -75 -12 -107 14 -27 64 -41 100 -28 36 12
50 35 50 81 0 69 -90 105 -138 54z"/>
<path d="M1823 3165 c-45 -19 -73 -69 -73 -127 0 -39 6 -54 31 -83 87 -99 239
-40 239 92 0 98 -102 159 -197 118z"/>
<path d="M2155 3170 c-11 -4 -33 -22 -49 -38 -56 -60 -42 -161 29 -208 34 -23
103 -22 142 1 62 36 87 132 49 190 -35 54 -113 79 -171 55z"/>
<path d="M2463 3160 c-66 -40 -86 -103 -55 -173 23 -52 66 -80 122 -80 44 0
95 25 116 58 77 117 -64 268 -183 195z"/>
<path d="M3111 3162 c-121 -66 -74 -255 63 -255 106 0 171 107 122 201 -33 64
-121 90 -185 54z"/>
<path d="M3760 3162 c-92 -46 -96 -184 -7 -237 39 -23 108 -24 142 -1 145 95
21 317 -135 238z"/>
<path d="M4402 3160 c-93 -57 -93 -188 0 -236 41 -21 95 -21 137 0 42 22 76
93 67 141 -18 94 -124 143 -204 95z"/>
<path d="M4723 3161 c-18 -11 -40 -32 -49 -46 -23 -34 -22 -103 1 -142 24 -41
70 -66 121 -66 121 0 178 144 91 230 -45 46 -114 56 -164 24z"/>
<path d="M5051 3163 c-43 -21 -71 -67 -71 -116 0 -128 147 -189 235 -97 39 40
46 119 15 168 -36 57 -114 77 -179 45z"/>
<path d="M3423 3115 c-33 -33 -35 -39 -30 -82 4 -35 12 -53 31 -70 74 -63 172
-26 183 70 5 43 3 49 -30 82 -29 29 -42 35 -77 35 -35 0 -48 -6 -77 -35z"/>
<path d="M1794 2847 c-66 -60 -56 -171 19 -217 90 -55 207 9 207 113 0 81 -58
137 -143 137 -40 0 -53 -5 -83 -33z"/>
<path d="M2132 2860 c-84 -51 -79 -185 9 -232 146 -78 278 112 154 221 -29 25
-44 31 -83 31 -29 0 -59 -8 -80 -20z"/>
<path d="M2457 2862 c-15 -9 -37 -36 -48 -60 -27 -55 -19 -101 26 -150 31 -35
37 -37 93 -37 65 0 98 20 128 77 29 56 5 135 -50 169 -39 24 -112 24 -149 1z"/>
<path d="M2759 2841 c-35 -34 -39 -44 -39 -87 0 -86 55 -144 135 -144 75 0
135 59 135 133 0 82 -58 137 -144 137 -43 0 -53 -4 -87 -39z"/>
<path d="M3103 2860 c-114 -69 -61 -250 72 -250 67 0 131 52 135 110 5 65 -1
83 -39 121 -34 35 -44 39 -87 39 -31 0 -61 -7 -81 -20z"/>
<path d="M3729 2841 c-38 -38 -44 -56 -39 -121 4 -58 68 -110 134 -110 101 0
167 110 121 201 -23 43 -71 69 -129 69 -43 0 -53 -4 -87 -39z"/>
<path d="M4073 2860 c-115 -70 -63 -250 72 -250 80 0 135 58 135 144 0 43 -4
53 -39 87 -34 35 -44 39 -87 39 -31 0 -61 -7 -81 -20z"/>
<path d="M4394 2861 c-55 -34 -79 -113 -50 -169 64 -122 237 -100 262 34 8 43
-25 113 -65 137 -38 23 -108 22 -147 -2z"/>
<path d="M4705 2849 c-76 -67 -63 -178 27 -225 61 -32 147 -5 180 57 51 95
-14 199 -124 199 -39 0 -54 -6 -83 -31z"/>
<path d="M5043 2860 c-115 -70 -63 -250 72 -250 132 0 184 166 79 249 -35 28
-107 28 -151 1z"/>
<path d="M3453 2774 c-15 -24 -15 -29 -2 -53 11 -20 22 -26 49 -26 27 0 38 6
49 26 13 24 13 29 -2 53 -12 18 -26 26 -47 26 -21 0 -35 -8 -47 -26z"/>
<path d="M1819 2569 c-46 -27 -69 -66 -69 -119 0 -55 24 -94 75 -121 53 -28
103 -20 152 24 69 64 53 176 -31 217 -53 25 -82 25 -127 -1z"/>
<path d="M2793 2574 c-100 -50 -96 -203 6 -249 53 -23 102 -14 149 30 35 31
37 37 37 93 0 50 -4 65 -25 87 -48 53 -110 67 -167 39z"/>
<path d="M3120 2572 c-125 -63 -93 -241 47 -258 142 -18 201 189 73 257 -43
24 -75 24 -120 1z"/>
<path d="M3760 2572 c-44 -24 -73 -72 -73 -122 0 -141 180 -188 253 -67 69
113 -64 253 -180 189z"/>
<path d="M4095 2576 c-16 -7 -41 -26 -55 -41 -21 -22 -25 -37 -25 -87 0 -56 2
-62 37 -93 47 -44 96 -53 149 -30 49 23 79 69 79 124 0 57 -23 97 -70 121 -45
23 -73 25 -115 6z"/>
<path d="M5055 2570 c-50 -25 -75 -65 -75 -120 0 -55 25 -96 75 -120 52 -25
78 -25 125 1 47 27 70 66 70 119 0 53 -23 92 -70 119 -47 26 -74 26 -125 1z"/>
<path d="M1813 2270 c-112 -68 -65 -250 64 -250 84 0 143 56 143 135 0 106
-116 171 -207 115z"/>
<path d="M2783 2270 c-42 -25 -63 -68 -63 -126 0 -41 5 -51 39 -85 34 -34 44
-39 85 -39 87 0 146 55 146 135 0 106 -116 171 -207 115z"/>
<path d="M3444 2281 c-32 -14 -73 -68 -80 -107 -4 -24 -1 -48 11 -75 48 -106
202 -106 250 0 23 52 14 102 -29 148 -27 30 -40 36 -82 39 -27 2 -58 0 -70 -5z"/>
<path d="M4073 2270 c-86 -52 -82 -189 6 -235 17 -8 51 -15 77 -15 41 0 51 5
85 39 35 34 39 44 39 87 0 86 -55 144 -137 144 -21 0 -52 -9 -70 -20z"/>
<path d="M5043 2270 c-86 -52 -82 -189 6 -235 96 -49 201 15 201 122 0 104
-117 168 -207 113z"/>
<path d="M1844 1989 c-18 -5 -46 -25 -63 -44 -25 -29 -31 -44 -31 -83 0 -109
99 -172 197 -125 52 25 75 67 70 131 -4 62 -39 106 -96 122 -41 11 -36 11 -77
-1z"/>
<path d="M2166 1990 c-141 -43 -117 -254 31 -267 83 -7 144 48 145 130 2 94
-87 164 -176 137z"/>
<path d="M2485 1985 c-109 -38 -124 -177 -26 -242 118 -79 265 72 187 192 -32
48 -102 70 -161 50z"/>
<path d="M2814 1989 c-18 -5 -46 -25 -63 -44 -76 -87 -11 -225 106 -225 42 0
94 32 115 71 58 109 -40 233 -158 198z"/>
<path d="M3136 1990 c-153 -47 -108 -283 51 -267 78 8 126 62 125 139 -1 88
-91 154 -176 128z"/>
<path d="M3455 1985 c-119 -42 -124 -194 -8 -254 52 -27 133 -1 168 53 71 108
-37 243 -160 201z"/>
<path d="M3785 1989 c-84 -26 -122 -118 -81 -197 48 -93 188 -93 238 -1 58
108 -41 234 -157 198z"/>
<path d="M4106 1990 c-113 -34 -129 -196 -25 -252 95 -51 199 14 199 124 0 39
-6 54 -31 82 -17 20 -47 40 -67 46 -42 11 -37 11 -76 0z"/>
<path d="M4440 1992 c-39 -6 -87 -48 -100 -88 -41 -122 96 -232 201 -161 128
85 51 276 -101 249z"/>
<path d="M4754 1989 c-101 -29 -132 -167 -53 -233 60 -51 132 -47 187 8 100
99 1 265 -134 225z"/>
<path d="M5075 1989 c-114 -33 -127 -202 -21 -253 97 -46 196 17 196 126 0 39
-6 54 -31 82 -17 20 -47 40 -67 46 -42 11 -37 11 -77 -1z"/>
<path d="M2793 1685 c-43 -19 -73 -69 -73 -123 0 -58 25 -98 77 -123 119 -58
238 72 175 190 -34 62 -110 86 -179 56z"/>
<path d="M3433 1680 c-87 -53 -95 -167 -16 -227 72 -55 185 -22 213 63 40 119
-91 229 -197 164z"/>
<path d="M4081 1682 c-66 -35 -90 -125 -51 -189 39 -65 107 -86 173 -54 52 25
77 65 77 123 0 106 -106 170 -199 120z"/>
<path d="M2794 1390 c-42 -17 -74 -68 -74 -118 0 -110 105 -176 201 -127 90
47 90 193 0 240 -32 16 -93 19 -127 5z"/>
<path d="M3103 1381 c-114 -72 -62 -251 72 -251 67 0 131 52 135 110 5 60 -1
82 -33 117 -29 31 -41 37 -88 40 -42 3 -61 0 -86 -16z"/>
<path d="M3428 1383 c-15 -10 -37 -36 -49 -58 -28 -53 -20 -103 24 -152 64
-69 176 -53 217 31 11 23 20 52 20 65 0 35 -36 94 -68 114 -38 22 -109 22
-144 0z"/>
<path d="M3764 1390 c-68 -27 -99 -134 -58 -198 38 -59 130 -79 192 -42 84 51
80 190 -7 235 -32 16 -93 19 -127 5z"/>
<path d="M4073 1380 c-115 -70 -63 -250 72 -250 79 0 135 59 135 141 0 102
-117 164 -207 109z"/>
<path d="M3120 1092 c-106 -53 -105 -192 2 -248 84 -44 191 27 190 126 -1 57
-27 99 -75 121 -52 23 -73 24 -117 1z"/>
<path d="M3441 1093 c-124 -65 -93 -242 45 -259 73 -9 141 46 150 122 13 104
-103 186 -195 137z"/>
<path d="M3765 1092 c-70 -33 -97 -120 -61 -190 61 -118 241 -79 253 55 9 108
-94 181 -192 135z"/>
<path d="M3433 790 c-65 -39 -89 -118 -55 -180 53 -96 191 -96 244 0 47 86
-23 200 -122 200 -19 0 -49 -9 -67 -20z"/>
</g>
</svg>
