<svg width="120" height="120" viewBox="0 0 120 120" fill="none" xmlns="http://www.w3.org/2000/svg">
    <g clip-path="url(#clip0_2775_74313)">
        <path d="M79.5998 76.3978C91.4397 56.878 78.1332 29.5983 69.9999 18.3984C75.8665 25.3317 87.1997 44.3181 85.5998 64.7979C83.9998 85.2777 60.9334 95.9976 49.6002 98.7975C49.4668 98.5309 48.8002 97.6775 47.2002 96.3976C66.72 91.2776 76.9332 80.9311 79.5998 76.3978Z" fill="#212121"/>
        <path d="M56.8003 91.6124C60.3349 91.6124 63.2002 88.747 63.2002 85.2124C63.2002 81.6779 60.3349 78.8125 56.8003 78.8125C53.2657 78.8125 50.4004 81.6779 50.4004 85.2124C50.4004 88.747 53.2657 91.6124 56.8003 91.6124Z" fill="#212121"/>
        <path d="M68.8003 105.19C72.3349 105.19 75.2002 102.325 75.2002 98.7906C75.2002 95.256 72.3349 92.3906 68.8003 92.3906C65.2657 92.3906 62.4004 95.256 62.4004 98.7906C62.4004 102.325 65.2657 105.19 68.8003 105.19Z" fill="#212121"/>
        <path d="M67.9994 17.2C68.883 17.2 69.5994 16.4836 69.5994 15.6C69.5994 14.7163 68.883 14 67.9994 14C67.1158 14 66.3994 14.7163 66.3994 15.6C66.3994 16.4836 67.1158 17.2 67.9994 17.2Z" fill="#212121"/>
        <path d="M69.6011 25.9874C70.9266 25.9874 72.0011 24.9129 72.0011 23.5875C72.0011 22.262 70.9266 21.1875 69.6011 21.1875C68.2757 21.1875 67.2012 22.262 67.2012 23.5875C67.2012 24.9129 68.2757 25.9874 69.6011 25.9874Z" fill="#212121"/>
        <path d="M75.9986 22.8078C77.3241 22.8078 78.3986 21.7333 78.3986 20.4078C78.3986 19.0823 77.3241 18.0078 75.9986 18.0078C74.6731 18.0078 73.5986 19.0823 73.5986 20.4078C73.5986 21.7333 74.6731 22.8078 75.9986 22.8078Z" fill="#212121"/>
        <path d="M72.7996 34.8062C74.5669 34.8062 75.9995 33.3735 75.9995 31.6062C75.9995 29.8389 74.5669 28.4062 72.7996 28.4062C71.0323 28.4062 69.5996 29.8389 69.5996 31.6062C69.5996 33.3735 71.0323 34.8062 72.7996 34.8062Z" fill="#212121"/>
        <path d="M82.4002 32.3999C84.1675 32.3999 85.6001 30.9673 85.6001 29.2C85.6001 27.4327 84.1675 26 82.4002 26C80.6329 26 79.2002 27.4327 79.2002 29.2C79.2002 30.9673 80.6329 32.3999 82.4002 32.3999Z" fill="#212121"/>
        <path d="M75.999 45.1952C78.2081 45.1952 79.9989 43.4044 79.9989 41.1953C79.9989 38.9862 78.2081 37.1953 75.999 37.1953C73.7899 37.1953 71.999 38.9862 71.999 41.1953C71.999 43.4044 73.7899 45.1952 75.999 45.1952Z" fill="#212121"/>
        <path d="M87.999 45.1952C90.2081 45.1952 91.9989 43.4044 91.9989 41.1953C91.9989 38.9862 90.2081 37.1953 87.999 37.1953C85.7899 37.1953 83.999 38.9862 83.999 41.1953C83.999 43.4044 85.7899 45.1952 87.999 45.1952Z" fill="#212121"/>
        <path d="M77.9986 57.1983C80.4286 57.1983 82.3985 55.2284 82.3985 52.7984C82.3985 50.3684 80.4286 48.3984 77.9986 48.3984C75.5686 48.3984 73.5986 50.3684 73.5986 52.7984C73.5986 55.2284 75.5686 57.1983 77.9986 57.1983Z" fill="#212121"/>
        <path d="M91.5992 59.6046C94.0292 59.6046 95.9991 57.6347 95.9991 55.2046C95.9991 52.7746 94.0292 50.8047 91.5992 50.8047C89.1691 50.8047 87.1992 52.7746 87.1992 55.2046C87.1992 57.6347 89.1691 59.6046 91.5992 59.6046Z" fill="#212121"/>
        <path d="M77.6007 69.9983C80.2517 69.9983 82.4007 67.8493 82.4007 65.1984C82.4007 62.5475 80.2517 60.3984 77.6007 60.3984C74.9498 60.3984 72.8008 62.5475 72.8008 65.1984C72.8008 67.8493 74.9498 69.9983 77.6007 69.9983Z" fill="#212121"/>
        <path d="M90.3996 76.4124C93.0505 76.4124 95.1995 74.2634 95.1995 71.6124C95.1995 68.9615 93.0505 66.8125 90.3996 66.8125C87.7486 66.8125 85.5996 68.9615 85.5996 71.6124C85.5996 74.2634 87.7486 76.4124 90.3996 76.4124Z" fill="#212121"/>
        <path d="M69.6009 81.9889C72.6937 81.9889 75.2009 79.4818 75.2009 76.389C75.2009 73.2962 72.6937 70.7891 69.6009 70.7891C66.5082 70.7891 64.001 73.2962 64.001 76.389C64.001 79.4818 66.5082 81.9889 69.6009 81.9889Z" fill="#212121"/>
        <path d="M82.3988 93.1921C85.4915 93.1921 87.9987 90.6849 87.9987 87.5921C87.9987 84.4994 85.4915 81.9922 82.3988 81.9922C79.306 81.9922 76.7988 84.4994 76.7988 87.5921C76.7988 90.6849 79.306 93.1921 82.3988 93.1921Z" fill="#212121"/>
        <path d="M16.3992 76.3978C4.55933 56.878 17.8658 29.5983 25.9991 18.3984C20.1325 25.3317 8.79928 44.3181 10.3993 64.7979C11.9992 85.2777 35.0656 95.9976 46.3989 98.7975C46.5322 98.5309 47.1988 97.6775 48.7988 96.3976C29.279 91.2776 19.0658 80.9311 16.3992 76.3978Z" fill="#212121"/>
        <path d="M39.1987 91.6124C35.6641 91.6124 32.7988 88.747 32.7988 85.2124C32.7988 81.6779 35.6641 78.8125 39.1987 78.8125C42.7333 78.8125 45.5986 81.6779 45.5986 85.2124C45.5986 88.747 42.7333 91.6124 39.1987 91.6124Z" fill="#212121"/>
        <path d="M27.1987 105.19C23.6641 105.19 20.7988 102.325 20.7988 98.7906C20.7988 95.256 23.6641 92.3906 27.1987 92.3906C30.7333 92.3906 33.5986 95.256 33.5986 98.7906C33.5986 102.325 30.7333 105.19 27.1987 105.19Z" fill="#212121"/>
        <path d="M27.9986 17.2C27.115 17.2 26.3987 16.4836 26.3987 15.6C26.3987 14.7163 27.115 14 27.9986 14C28.8823 14 29.5986 14.7163 29.5986 15.6C29.5986 16.4836 28.8823 17.2 27.9986 17.2Z" fill="#212121"/>
        <path d="M26.3998 25.9874C25.0744 25.9874 23.9999 24.9129 23.9999 23.5875C23.9999 22.262 25.0744 21.1875 26.3998 21.1875C27.7253 21.1875 28.7998 22.262 28.7998 23.5875C28.7998 24.9129 27.7253 25.9874 26.3998 25.9874Z" fill="#212121"/>
        <path d="M19.9994 22.8078C18.674 22.8078 17.5995 21.7333 17.5995 20.4078C17.5995 19.0823 18.674 18.0078 19.9994 18.0078C21.3249 18.0078 22.3994 19.0823 22.3994 20.4078C22.3994 21.7333 21.3249 22.8078 19.9994 22.8078Z" fill="#212121"/>
        <path d="M23.1994 34.8062C21.4322 34.8062 19.9995 33.3735 19.9995 31.6062C19.9995 29.8389 21.4322 28.4062 23.1994 28.4062C24.9667 28.4062 26.3994 29.8389 26.3994 31.6062C26.3994 33.3735 24.9667 34.8062 23.1994 34.8062Z" fill="#212121"/>
        <path d="M13.5998 32.3999C11.8325 32.3999 10.3999 30.9673 10.3999 29.2C10.3999 27.4327 11.8325 26 13.5998 26C15.3671 26 16.7998 27.4327 16.7998 29.2C16.7998 30.9673 15.3671 32.3999 13.5998 32.3999Z" fill="#212121"/>
        <path d="M20 45.1952C17.7909 45.1952 16.0001 43.4044 16.0001 41.1953C16.0001 38.9862 17.7909 37.1953 20 37.1953C22.2092 37.1953 24 38.9862 24 41.1953C24 43.4044 22.2092 45.1952 20 45.1952Z" fill="#212121"/>
        <path d="M8.00004 45.1952C5.79093 45.1952 4.00009 43.4044 4.00009 41.1953C4.00009 38.9862 5.79093 37.1953 8.00004 37.1953C10.2092 37.1953 12 38.9862 12 41.1953C12 43.4044 10.2092 45.1952 8.00004 45.1952Z" fill="#212121"/>
        <path d="M17.9995 57.1983C15.5694 57.1983 13.5995 55.2284 13.5995 52.7984C13.5995 50.3684 15.5694 48.3984 17.9995 48.3984C20.4295 48.3984 22.3994 50.3684 22.3994 52.7984C22.3994 55.2284 20.4295 57.1983 17.9995 57.1983Z" fill="#212121"/>
        <path d="M4.39888 59.6046C1.96885 59.6046 -0.00107193 57.6347 -0.00107193 55.2046C-0.00107193 52.7746 1.96885 50.8047 4.39888 50.8047C6.8289 50.8047 8.79883 52.7746 8.79883 55.2046C8.79883 57.6347 6.8289 59.6046 4.39888 59.6046Z" fill="#212121"/>
        <path d="M18.3983 69.9983C15.7474 69.9983 13.5983 67.8493 13.5983 65.1984C13.5983 62.5475 15.7474 60.3984 18.3983 60.3984C21.0492 60.3984 23.1982 62.5475 23.1982 65.1984C23.1982 67.8493 21.0492 69.9983 18.3983 69.9983Z" fill="#212121"/>
        <path d="M5.59947 76.4124C2.94853 76.4124 0.799521 74.2634 0.799521 71.6124C0.799521 68.9615 2.94853 66.8125 5.59947 66.8125C8.2504 66.8125 10.3994 68.9615 10.3994 71.6124C10.3994 74.2634 8.2504 76.4124 5.59947 76.4124Z" fill="#212121"/>
        <path d="M26.3981 81.9889C23.3053 81.9889 20.7982 79.4818 20.7982 76.389C20.7982 73.2962 23.3053 70.7891 26.3981 70.7891C29.4909 70.7891 31.998 73.2962 31.998 76.389C31.998 79.4818 29.4909 81.9889 26.3981 81.9889Z" fill="#212121"/>
        <path d="M13.5993 93.1921C10.5065 93.1921 7.99934 90.6849 7.99934 87.5921C7.99934 84.4994 10.5065 81.9922 13.5993 81.9922C16.692 81.9922 19.1992 84.4994 19.1992 87.5921C19.1992 90.6849 16.692 93.1921 13.5993 93.1921Z" fill="#212121"/>
    </g>
    <defs>
        <clipPath id="clip0_2775_74313">
            <rect width="120" height="120" fill="white"/>
        </clipPath>
    </defs>
</svg>
