<svg width="320" height="340" viewBox="0 0 320 340" fill="none" xmlns="http://www.w3.org/2000/svg">
<g clip-path="url(#clip0_3142_86665)">
<path d="M274.372 260.474C268.846 260.474 264.366 255.994 264.366 250.468C264.366 244.941 268.846 240.461 274.372 240.461C279.899 240.461 284.379 244.941 284.379 250.468C284.379 255.994 279.899 260.474 274.372 260.474Z" fill="#212121"/>
<path d="M241.767 259.857C236.581 259.857 232.377 255.653 232.377 250.468C232.377 245.282 236.581 241.078 241.767 241.078C246.952 241.078 251.156 245.282 251.156 250.468C251.156 255.653 246.952 259.857 241.767 259.857Z" fill="#212121"/>
<path d="M209.335 260.786C203.636 260.786 199.016 256.166 199.016 250.467C199.016 244.768 203.636 240.148 209.335 240.148C215.034 240.148 219.654 244.768 219.654 250.467C219.654 256.166 215.034 260.786 209.335 260.786Z" fill="#212121"/>
<path d="M176.949 256.669C173.524 256.669 170.747 253.892 170.747 250.467C170.747 247.042 173.524 244.266 176.949 244.266C180.374 244.266 183.15 247.042 183.15 250.467C183.15 253.892 180.374 256.669 176.949 256.669Z" fill="#212121"/>
<path d="M144.378 258.724C139.818 258.724 136.122 255.027 136.122 250.468C136.122 245.908 139.818 242.211 144.378 242.211C148.938 242.211 152.635 245.908 152.635 250.468C152.635 255.027 148.938 258.724 144.378 258.724Z" fill="#212121"/>
<path d="M112.101 255.801C109.157 255.801 106.77 253.414 106.77 250.471C106.77 247.527 109.157 245.141 112.101 245.141C115.044 245.141 117.431 247.527 117.431 250.471C117.431 253.414 115.044 255.801 112.101 255.801Z" fill="#212121"/>
<path d="M79.5325 255.658C76.6649 255.658 74.3403 253.333 74.3403 250.466C74.3403 247.598 76.6649 245.273 79.5325 245.273C82.4 245.273 84.7246 247.598 84.7246 250.466C84.7246 253.333 82.4 255.658 79.5325 255.658Z" fill="#212121"/>
<path d="M47.058 259.07C42.3055 259.07 38.4528 255.217 38.4528 250.465C38.4528 245.712 42.3055 241.859 47.058 241.859C51.8105 241.859 55.6631 245.712 55.6631 250.465C55.6631 255.217 51.8105 259.07 47.058 259.07Z" fill="#212121"/>
<path d="M14.4374 258.514C9.99375 258.514 6.39145 254.912 6.39145 250.468C6.39145 246.024 9.99375 242.422 14.4374 242.422C18.8811 242.422 22.4834 246.024 22.4834 250.468C22.4834 254.912 18.8811 258.514 14.4374 258.514Z" fill="#212121"/>
<path d="M14.6553 281.58C11.6755 281.58 9.25986 279.164 9.25986 276.185C9.25986 273.205 11.6755 270.789 14.6553 270.789C17.6351 270.789 20.0508 273.205 20.0508 276.185C20.0508 279.164 17.6351 281.58 14.6553 281.58Z" fill="#212121"/>
<path d="M47.0574 286.038C41.6191 286.038 37.2105 281.629 37.2105 276.191C37.2105 270.752 41.6191 266.344 47.0574 266.344C52.4957 266.344 56.9043 270.752 56.9043 276.191C56.9043 281.629 52.4957 286.038 47.0574 286.038Z" fill="#212121"/>
<path d="M47.0575 305.838C44.9319 305.838 43.2088 304.115 43.2088 301.989C43.2088 299.864 44.9319 298.141 47.0575 298.141C49.1831 298.141 50.9062 299.864 50.9062 301.989C50.9062 304.115 49.1831 305.838 47.0575 305.838Z" fill="#212121"/>
<path d="M79.6848 304C78.5739 304 77.6733 303.099 77.6733 301.988C77.6733 300.877 78.5739 299.977 79.6848 299.977C80.7957 299.977 81.6963 300.877 81.6963 301.988C81.6963 303.099 80.7957 304 79.6848 304Z" fill="#212121"/>
<path d="M79.4807 282.964C75.7388 282.964 72.7055 279.931 72.7055 276.189C72.7055 272.447 75.7388 269.414 79.4807 269.414C83.2225 269.414 86.2559 272.447 86.2559 276.189C86.2559 279.931 83.2225 282.964 79.4807 282.964Z" fill="#212121"/>
<path d="M112.13 278.033C111.111 278.033 110.286 277.207 110.286 276.188C110.286 275.17 111.111 274.344 112.13 274.344C113.149 274.344 113.975 275.17 113.975 276.188C113.975 277.207 113.149 278.033 112.13 278.033Z" fill="#212121"/>
<path d="M112.13 308.477C108.548 308.477 105.645 305.574 105.645 301.993C105.645 298.411 108.548 295.508 112.13 295.508C115.711 295.508 118.614 298.411 118.614 301.993C118.614 305.574 115.711 308.477 112.13 308.477Z" fill="#212121"/>
<path d="M144.466 311.739C139.08 311.739 134.714 307.373 134.714 301.987C134.714 296.601 139.08 292.234 144.466 292.234C149.852 292.234 154.219 296.601 154.219 301.987C154.219 307.373 149.852 311.739 144.466 311.739Z" fill="#212121"/>
<path d="M144.466 288.153C137.857 288.153 132.499 282.795 132.499 276.186C132.499 269.577 137.857 264.219 144.466 264.219C151.076 264.219 156.434 269.577 156.434 276.186C156.434 282.795 151.076 288.153 144.466 288.153Z" fill="#212121"/>
<path d="M176.904 283.059C173.11 283.059 170.034 279.984 170.034 276.19C170.034 272.396 173.11 269.32 176.904 269.32C180.698 269.32 183.773 272.396 183.773 276.19C183.773 279.984 180.698 283.059 176.904 283.059Z" fill="#212121"/>
<path d="M209.451 281.595C206.467 281.595 204.048 279.176 204.048 276.192C204.048 273.208 206.467 270.789 209.451 270.789C212.435 270.789 214.854 273.208 214.854 276.192C214.854 279.176 212.435 281.595 209.451 281.595Z" fill="#212121"/>
<path d="M209.452 306.666C206.87 306.666 204.776 304.572 204.776 301.989C204.776 299.406 206.87 297.312 209.452 297.312C212.035 297.312 214.129 299.406 214.129 301.989C214.129 304.572 212.035 306.666 209.452 306.666Z" fill="#212121"/>
<path d="M241.969 308.077C238.609 308.077 235.884 305.352 235.884 301.992C235.884 298.631 238.609 295.906 241.969 295.906C245.33 295.906 248.055 298.631 248.055 301.992C248.055 305.352 245.33 308.077 241.969 308.077Z" fill="#212121"/>
<path d="M241.969 282.469C238.499 282.469 235.687 279.657 235.687 276.188C235.687 272.718 238.499 269.906 241.969 269.906C245.438 269.906 248.25 272.718 248.25 276.188C248.25 279.657 245.438 282.469 241.969 282.469Z" fill="#212121"/>
<path d="M274.371 283.887C270.12 283.887 266.674 280.441 266.674 276.19C266.674 271.938 270.12 268.492 274.371 268.492C278.622 268.492 282.068 271.938 282.068 276.19C282.068 280.441 278.622 283.887 274.371 283.887Z" fill="#212121"/>
<path d="M274.371 309.243C270.364 309.243 267.116 305.995 267.116 301.989C267.116 297.982 270.364 294.734 274.371 294.734C278.377 294.734 281.625 297.982 281.625 301.989C281.625 305.995 278.377 309.243 274.371 309.243Z" fill="#212121"/>
<path d="M306.903 306.429C304.452 306.429 302.466 304.442 302.466 301.992C302.466 299.541 304.452 297.555 306.903 297.555C309.353 297.555 311.34 299.541 311.34 301.992C311.34 304.442 309.353 306.429 306.903 306.429Z" fill="#212121"/>
<path d="M306.904 283.243C303.01 283.243 299.853 280.086 299.853 276.192C299.853 272.297 303.01 269.141 306.904 269.141C310.798 269.141 313.955 272.297 313.955 276.192C313.955 280.086 310.798 283.243 306.904 283.243Z" fill="#212121"/>
<path d="M306.845 252.85C305.529 252.85 304.463 251.783 304.463 250.468C304.463 249.152 305.529 248.086 306.845 248.086C308.16 248.086 309.227 249.152 309.227 250.468C309.227 251.783 308.16 252.85 306.845 252.85Z" fill="#212121"/>
<path d="M176.904 310.817C172.027 310.817 168.074 306.863 168.074 301.987C168.074 297.11 172.027 293.156 176.904 293.156C181.781 293.156 185.734 297.11 185.734 301.987C185.734 306.863 181.781 310.817 176.904 310.817Z" fill="#212121"/>
<path d="M14.5537 312.146C8.943 312.146 4.39459 307.598 4.39459 301.987C4.39459 296.377 8.943 291.828 14.5537 291.828C20.1645 291.828 24.7129 296.377 24.7129 301.987C24.7129 307.598 20.1645 312.146 14.5537 312.146Z" fill="#212121"/>
<path d="M274.372 337.474C268.846 337.474 264.366 332.994 264.366 327.468C264.366 321.941 268.846 317.461 274.372 317.461C279.899 317.461 284.379 321.941 284.379 327.468C284.379 332.994 279.899 337.474 274.372 337.474Z" fill="#212121"/>
<path d="M241.767 336.857C236.581 336.857 232.377 332.653 232.377 327.468C232.377 322.282 236.581 318.078 241.767 318.078C246.952 318.078 251.156 322.282 251.156 327.468C251.156 332.653 246.952 336.857 241.767 336.857Z" fill="#212121"/>
<path d="M209.335 337.786C203.636 337.786 199.016 333.166 199.016 327.467C199.016 321.768 203.636 317.148 209.335 317.148C215.034 317.148 219.654 321.768 219.654 327.467C219.654 333.166 215.034 337.786 209.335 337.786Z" fill="#212121"/>
<path d="M176.949 333.669C173.524 333.669 170.747 330.892 170.747 327.467C170.747 324.042 173.524 321.266 176.949 321.266C180.374 321.266 183.15 324.042 183.15 327.467C183.15 330.892 180.374 333.669 176.949 333.669Z" fill="#212121"/>
<path d="M144.378 335.724C139.818 335.724 136.122 332.027 136.122 327.468C136.122 322.908 139.818 319.211 144.378 319.211C148.938 319.211 152.635 322.908 152.635 327.468C152.635 332.027 148.938 335.724 144.378 335.724Z" fill="#212121"/>
<path d="M112.101 332.801C109.157 332.801 106.77 330.414 106.77 327.471C106.77 324.527 109.157 322.141 112.101 322.141C115.044 322.141 117.431 324.527 117.431 327.471C117.431 330.414 115.044 332.801 112.101 332.801Z" fill="#212121"/>
<path d="M79.5325 332.658C76.6649 332.658 74.3403 330.333 74.3403 327.466C74.3403 324.598 76.6649 322.273 79.5325 322.273C82.4 322.273 84.7246 324.598 84.7246 327.466C84.7246 330.333 82.4 332.658 79.5325 332.658Z" fill="#212121"/>
<path d="M47.058 336.07C42.3055 336.07 38.4528 332.217 38.4528 327.465C38.4528 322.712 42.3055 318.859 47.058 318.859C51.8105 318.859 55.6631 322.712 55.6631 327.465C55.6631 332.217 51.8105 336.07 47.058 336.07Z" fill="#212121"/>
<path d="M14.4374 335.514C9.99375 335.514 6.39145 331.912 6.39145 327.468C6.39145 323.024 9.99375 319.422 14.4374 319.422C18.8811 319.422 22.4834 323.024 22.4834 327.468C22.4834 331.912 18.8811 335.514 14.4374 335.514Z" fill="#212121"/>
<path d="M306.845 329.85C305.529 329.85 304.463 328.783 304.463 327.468C304.463 326.152 305.529 325.086 306.845 325.086C308.16 325.086 309.227 326.152 309.227 327.468C309.227 328.783 308.16 329.85 306.845 329.85Z" fill="#212121"/>
<path d="M47.3279 213.823C52.8545 213.823 57.3346 218.303 57.3346 223.829C57.3346 229.356 52.8545 233.836 47.3279 233.836C41.8014 233.836 37.3213 229.356 37.3213 223.829C37.3213 218.303 41.8014 213.823 47.3279 213.823Z" fill="#212121"/>
<path d="M79.9333 214.44C85.119 214.44 89.3228 218.644 89.3228 223.829C89.3228 229.015 85.119 233.219 79.9333 233.219C74.7477 233.219 70.5439 229.015 70.5439 223.829C70.5439 218.644 74.7477 214.44 79.9333 214.44Z" fill="#212121"/>
<path d="M112.364 213.511C118.063 213.511 122.683 218.131 122.683 223.83C122.683 229.528 118.063 234.148 112.364 234.148C106.665 234.148 102.045 229.528 102.045 223.83C102.045 218.131 106.665 213.511 112.364 213.511Z" fill="#212121"/>
<path d="M144.75 217.628C148.175 217.628 150.952 220.405 150.952 223.83C150.952 227.255 148.175 230.031 144.75 230.031C141.325 230.031 138.549 227.255 138.549 223.83C138.549 220.405 141.325 217.628 144.75 217.628Z" fill="#212121"/>
<path d="M177.321 215.573C181.881 215.573 185.578 219.269 185.578 223.829C185.578 228.389 181.881 232.086 177.321 232.086C172.761 232.086 169.064 228.389 169.064 223.829C169.064 219.269 172.761 215.573 177.321 215.573Z" fill="#212121"/>
<path d="M209.598 218.496C212.541 218.496 214.928 220.882 214.928 223.826C214.928 226.77 212.541 229.156 209.598 229.156C206.654 229.156 204.268 226.77 204.268 223.826C204.268 220.882 206.654 218.496 209.598 218.496Z" fill="#212121"/>
<path d="M242.167 218.639C245.034 218.639 247.359 220.964 247.359 223.831C247.359 226.699 245.034 229.023 242.167 229.023C239.299 229.023 236.975 226.699 236.975 223.831C236.975 220.964 239.299 218.639 242.167 218.639Z" fill="#212121"/>
<path d="M274.642 215.227C279.395 215.227 283.247 219.08 283.247 223.832C283.247 228.585 279.395 232.437 274.642 232.437C269.89 232.437 266.037 228.585 266.037 223.832C266.037 219.08 269.89 215.227 274.642 215.227Z" fill="#212121"/>
<path d="M307.261 215.783C311.704 215.783 315.307 219.385 315.307 223.829C315.307 228.273 311.704 231.875 307.261 231.875C302.817 231.875 299.215 228.273 299.215 223.829C299.215 219.385 302.817 215.783 307.261 215.783Z" fill="#212121"/>
<path d="M307.044 192.709C310.024 192.709 312.439 195.125 312.439 198.105C312.439 201.084 310.024 203.5 307.044 203.5C304.064 203.5 301.648 201.084 301.648 198.105C301.648 195.125 304.064 192.709 307.044 192.709Z" fill="#212121"/>
<path d="M274.642 188.259C280.08 188.259 284.489 192.668 284.489 198.106C284.489 203.545 280.08 207.953 274.642 207.953C269.204 207.953 264.795 203.545 264.795 198.106C264.795 192.668 269.204 188.259 274.642 188.259Z" fill="#212121"/>
<path d="M274.642 168.459C276.767 168.459 278.49 170.182 278.49 172.308C278.49 174.433 276.767 176.156 274.642 176.156C272.516 176.156 270.793 174.433 270.793 172.308C270.793 170.182 272.516 168.459 274.642 168.459Z" fill="#212121"/>
<path d="M242.015 170.297C243.126 170.297 244.027 171.198 244.027 172.309C244.027 173.42 243.126 174.32 242.015 174.32C240.904 174.32 240.004 173.42 240.004 172.309C240.004 171.198 240.904 170.297 242.015 170.297Z" fill="#212121"/>
<path d="M242.219 191.332C245.96 191.332 248.994 194.366 248.994 198.108C248.994 201.849 245.96 204.883 242.219 204.883C238.477 204.883 235.443 201.849 235.443 198.108C235.443 194.366 238.477 191.332 242.219 191.332Z" fill="#212121"/>
<path d="M209.569 196.264C210.588 196.264 211.414 197.09 211.414 198.109C211.414 199.127 210.588 199.953 209.569 199.953C208.55 199.953 207.725 199.127 207.725 198.109C207.725 197.09 208.55 196.264 209.569 196.264Z" fill="#212121"/>
<path d="M209.569 165.82C213.15 165.82 216.053 168.723 216.053 172.304C216.053 175.886 213.15 178.789 209.569 178.789C205.987 178.789 203.084 175.886 203.084 172.304C203.084 168.723 205.987 165.82 209.569 165.82Z" fill="#212121"/>
<path d="M177.233 162.558C182.619 162.558 186.985 166.924 186.985 172.31C186.985 177.696 182.619 182.062 177.233 182.062C171.847 182.062 167.48 177.696 167.48 172.31C167.48 166.924 171.847 162.558 177.233 162.558Z" fill="#212121"/>
<path d="M177.233 186.144C183.842 186.144 189.2 191.501 189.2 198.111C189.2 204.72 183.842 210.078 177.233 210.078C170.624 210.078 165.266 204.72 165.266 198.111C165.266 191.501 170.624 186.144 177.233 186.144Z" fill="#212121"/>
<path d="M144.795 191.237C148.589 191.237 151.665 194.313 151.665 198.107C151.665 201.901 148.589 204.977 144.795 204.977C141.001 204.977 137.926 201.901 137.926 198.107C137.926 194.313 141.001 191.237 144.795 191.237Z" fill="#212121"/>
<path d="M112.247 192.702C115.231 192.702 117.65 195.121 117.65 198.105C117.65 201.089 115.231 203.508 112.247 203.508C109.264 203.508 106.845 201.089 106.845 198.105C106.845 195.121 109.264 192.702 112.247 192.702Z" fill="#212121"/>
<path d="M112.248 167.631C114.831 167.631 116.924 169.725 116.924 172.308C116.924 174.891 114.831 176.984 112.248 176.984C109.665 176.984 107.571 174.891 107.571 172.308C107.571 169.725 109.665 167.631 112.248 167.631Z" fill="#212121"/>
<path d="M79.7299 166.22C83.0907 166.22 85.8152 168.944 85.8152 172.305C85.8152 175.666 83.0907 178.391 79.7299 178.391C76.369 178.391 73.6445 175.666 73.6445 172.305C73.6445 168.944 76.369 166.22 79.7299 166.22Z" fill="#212121"/>
<path d="M79.7296 191.828C83.1987 191.828 86.011 194.64 86.011 198.109C86.011 201.578 83.1987 204.391 79.7296 204.391C76.2605 204.391 73.4482 201.578 73.4482 198.109C73.4482 194.64 76.2605 191.828 79.7296 191.828Z" fill="#212121"/>
<path d="M47.3283 190.41C51.5795 190.41 55.0257 193.856 55.0257 198.107C55.0257 202.358 51.5795 205.805 47.3283 205.805C43.0771 205.805 39.6309 202.358 39.6309 198.107C39.6309 193.856 43.0771 190.41 47.3283 190.41Z" fill="#212121"/>
<path d="M47.3277 165.054C51.3342 165.054 54.5822 168.302 54.5822 172.308C54.5822 176.315 51.3342 179.562 47.3277 179.562C43.3212 179.562 40.0732 176.315 40.0732 172.308C40.0732 168.302 43.3212 165.054 47.3277 165.054Z" fill="#212121"/>
<path d="M14.7953 167.868C17.2457 167.868 19.2322 169.855 19.2322 172.305C19.2322 174.756 17.2457 176.742 14.7953 176.742C12.3449 176.742 10.3584 174.756 10.3584 172.305C10.3584 169.855 12.3449 167.868 14.7953 167.868Z" fill="#212121"/>
<path d="M14.7953 191.054C18.6895 191.054 21.8464 194.211 21.8464 198.105C21.8464 201.999 18.6895 205.156 14.7953 205.156C10.901 205.156 7.74414 201.999 7.74414 198.105C7.74414 194.211 10.901 191.054 14.7953 191.054Z" fill="#212121"/>
<path d="M14.8535 221.447C16.169 221.447 17.2354 222.514 17.2354 223.829C17.2354 225.145 16.169 226.211 14.8535 226.211C13.5381 226.211 12.4717 225.145 12.4717 223.829C12.4717 222.514 13.5381 221.447 14.8535 221.447Z" fill="#212121"/>
<path d="M144.795 163.48C149.672 163.48 153.625 167.434 153.625 172.31C153.625 177.187 149.672 181.141 144.795 181.141C139.918 181.141 135.965 177.187 135.965 172.31C135.965 167.434 139.918 163.48 144.795 163.48Z" fill="#212121"/>
<path d="M307.145 162.15C312.756 162.15 317.305 166.699 317.305 172.31C317.305 177.92 312.756 182.469 307.145 182.469C301.535 182.469 296.986 177.92 296.986 172.31C296.986 166.699 301.535 162.15 307.145 162.15Z" fill="#212121"/>
<path d="M47.3279 136.674C52.8545 136.674 57.3346 141.154 57.3346 146.681C57.3346 152.207 52.8545 156.687 47.3279 156.687C41.8014 156.687 37.3213 152.207 37.3213 146.681C37.3213 141.154 41.8014 136.674 47.3279 136.674Z" fill="#212121"/>
<path d="M79.9333 137.292C85.119 137.292 89.3228 141.495 89.3228 146.681C89.3228 151.867 85.119 156.07 79.9333 156.07C74.7477 156.07 70.5439 151.867 70.5439 146.681C70.5439 141.495 74.7477 137.292 79.9333 137.292Z" fill="#212121"/>
<path d="M112.364 136.362C118.063 136.362 122.683 140.982 122.683 146.681C122.683 152.38 118.063 157 112.364 157C106.665 157 102.045 152.38 102.045 146.681C102.045 140.982 106.665 136.362 112.364 136.362Z" fill="#212121"/>
<path d="M144.75 140.48C148.175 140.48 150.952 143.256 150.952 146.681C150.952 150.106 148.175 152.883 144.75 152.883C141.325 152.883 138.549 150.106 138.549 146.681C138.549 143.256 141.325 140.48 144.75 140.48Z" fill="#212121"/>
<path d="M177.321 138.424C181.881 138.424 185.578 142.121 185.578 146.681C185.578 151.241 181.881 154.937 177.321 154.937C172.761 154.937 169.064 151.241 169.064 146.681C169.064 142.121 172.761 138.424 177.321 138.424Z" fill="#212121"/>
<path d="M209.598 141.348C212.541 141.348 214.928 143.734 214.928 146.678C214.928 149.621 212.541 152.008 209.598 152.008C206.654 152.008 204.268 149.621 204.268 146.678C204.268 143.734 206.654 141.348 209.598 141.348Z" fill="#212121"/>
<path d="M242.167 141.491C245.034 141.491 247.359 143.815 247.359 146.683C247.359 149.55 245.034 151.875 242.167 151.875C239.299 151.875 236.975 149.55 236.975 146.683C236.975 143.815 239.299 141.491 242.167 141.491Z" fill="#212121"/>
<path d="M274.642 138.079C279.395 138.079 283.247 141.931 283.247 146.684C283.247 151.436 279.395 155.289 274.642 155.289C269.89 155.289 266.037 151.436 266.037 146.684C266.037 141.931 269.89 138.079 274.642 138.079Z" fill="#212121"/>
<path d="M307.261 138.635C311.704 138.635 315.307 142.237 315.307 146.681C315.307 151.124 311.704 154.727 307.261 154.727C302.817 154.727 299.215 151.124 299.215 146.681C299.215 142.237 302.817 138.635 307.261 138.635Z" fill="#212121"/>
<path d="M307.044 115.561C310.024 115.561 312.439 117.976 312.439 120.956C312.439 123.936 310.024 126.352 307.044 126.352C304.064 126.352 301.648 123.936 301.648 120.956C301.648 117.976 304.064 115.561 307.044 115.561Z" fill="#212121"/>
<path d="M274.642 111.111C280.08 111.111 284.489 115.519 284.489 120.958C284.489 126.396 280.08 130.805 274.642 130.805C269.204 130.805 264.795 126.396 264.795 120.958C264.795 115.52 269.204 111.111 274.642 111.111Z" fill="#212121"/>
<path d="M274.642 91.3104C276.767 91.3104 278.49 93.0335 278.49 95.1591C278.49 97.2846 276.767 99.0078 274.642 99.0078C272.516 99.0078 270.793 97.2847 270.793 95.1591C270.793 93.0335 272.516 91.3104 274.642 91.3104Z" fill="#212121"/>
<path d="M242.015 93.1489C243.126 93.1489 244.027 94.0494 244.027 95.1604C244.027 96.2713 243.126 97.1719 242.015 97.1719C240.904 97.1719 240.004 96.2713 240.004 95.1604C240.004 94.0494 240.904 93.1489 242.015 93.1489Z" fill="#212121"/>
<path d="M242.219 114.184C245.96 114.184 248.994 117.217 248.994 120.959C248.994 124.701 245.96 127.734 242.219 127.734C238.477 127.734 235.443 124.701 235.443 120.959C235.443 117.217 238.477 114.184 242.219 114.184Z" fill="#212121"/>
<path d="M209.569 119.116C210.588 119.116 211.414 119.942 211.414 120.96C211.414 121.979 210.588 122.805 209.569 122.805C208.55 122.805 207.725 121.979 207.725 120.96C207.725 119.942 208.55 119.116 209.569 119.116Z" fill="#212121"/>
<path d="M209.569 88.6712C213.15 88.6712 216.053 91.5745 216.053 95.1559C216.053 98.7373 213.15 101.641 209.569 101.641C205.987 101.641 203.084 98.7373 203.084 95.1559C203.084 91.5745 205.987 88.6712 209.569 88.6712Z" fill="#212121"/>
<path d="M177.233 85.4091C182.619 85.4091 186.985 89.7754 186.985 95.1616C186.985 100.548 182.619 104.914 177.233 104.914C171.847 104.914 167.48 100.548 167.48 95.1616C167.48 89.7754 171.847 85.4091 177.233 85.4091Z" fill="#212121"/>
<path d="M177.233 108.995C183.842 108.995 189.2 114.353 189.2 120.962C189.2 127.572 183.842 132.93 177.233 132.93C170.624 132.93 165.266 127.572 165.266 120.962C165.266 114.353 170.624 108.995 177.233 108.995Z" fill="#212121"/>
<path d="M144.795 114.089C148.589 114.089 151.665 117.165 151.665 120.959C151.665 124.753 148.589 127.828 144.795 127.828C141.001 127.828 137.926 124.753 137.926 120.959C137.926 117.165 141.001 114.089 144.795 114.089Z" fill="#212121"/>
<path d="M112.247 115.554C115.231 115.554 117.65 117.973 117.65 120.957C117.65 123.94 115.231 126.359 112.247 126.359C109.264 126.359 106.845 123.94 106.845 120.957C106.845 117.973 109.264 115.554 112.247 115.554Z" fill="#212121"/>
<path d="M112.248 90.4828C114.831 90.4828 116.924 92.5766 116.924 95.1594C116.924 97.7422 114.831 99.8359 112.248 99.8359C109.665 99.8359 107.571 97.7422 107.571 95.1594C107.571 92.5766 109.665 90.4828 112.248 90.4828Z" fill="#212121"/>
<path d="M79.7299 89.0715C83.0907 89.0715 85.8152 91.796 85.8152 95.1569C85.8152 98.5177 83.0907 101.242 79.7299 101.242C76.369 101.242 73.6445 98.5177 73.6445 95.1569C73.6445 91.796 76.369 89.0715 79.7299 89.0715Z" fill="#212121"/>
<path d="M79.7296 114.679C83.1987 114.679 86.011 117.492 86.011 120.961C86.011 124.43 83.1987 127.242 79.7296 127.242C76.2605 127.242 73.4482 124.43 73.4482 120.961C73.4482 117.492 76.2605 114.679 79.7296 114.679Z" fill="#212121"/>
<path d="M47.3283 113.261C51.5795 113.261 55.0257 116.708 55.0257 120.959C55.0257 125.21 51.5795 128.656 47.3283 128.656C43.0771 128.656 39.6309 125.21 39.6309 120.959C39.6309 116.708 43.0771 113.261 47.3283 113.261Z" fill="#212121"/>
<path d="M47.3277 87.9052C51.3342 87.9052 54.5822 91.1531 54.5822 95.1596C54.5822 99.1661 51.3342 102.414 47.3277 102.414C43.3212 102.414 40.0732 99.1661 40.0732 95.1596C40.0732 91.1531 43.3212 87.9052 47.3277 87.9052Z" fill="#212121"/>
<path d="M14.7953 90.7199C17.2457 90.7199 19.2322 92.7064 19.2322 95.1568C19.2322 97.6072 17.2457 99.5937 14.7953 99.5937C12.3449 99.5937 10.3584 97.6072 10.3584 95.1568C10.3584 92.7064 12.3449 90.7199 14.7953 90.7199Z" fill="#212121"/>
<path d="M14.7953 113.906C18.6895 113.906 21.8464 117.062 21.8464 120.957C21.8464 124.851 18.6895 128.008 14.7953 128.008C10.901 128.008 7.74414 124.851 7.74414 120.957C7.74414 117.062 10.901 113.906 14.7953 113.906Z" fill="#212121"/>
<path d="M14.8535 144.299C16.169 144.299 17.2354 145.365 17.2354 146.681C17.2354 147.996 16.169 149.062 14.8535 149.062C13.5381 149.062 12.4717 147.996 12.4717 146.681C12.4717 145.365 13.5381 144.299 14.8535 144.299Z" fill="#212121"/>
<path d="M144.795 86.3317C149.672 86.3317 153.625 90.2851 153.625 95.1619C153.625 100.039 149.672 103.992 144.795 103.992C139.918 103.992 135.965 100.039 135.965 95.1619C135.965 90.2851 139.918 86.3317 144.795 86.3317Z" fill="#212121"/>
<path d="M307.145 85.002C312.756 85.002 317.305 89.5504 317.305 95.1612C317.305 100.772 312.756 105.32 307.145 105.32C301.535 105.32 296.986 100.772 296.986 95.1612C296.986 89.5504 301.535 85.002 307.145 85.002Z" fill="#212121"/>
<path d="M270.372 59.5258C264.846 59.5258 260.366 64.0059 260.366 69.5324C260.366 75.0589 264.846 79.5391 270.372 79.5391C275.899 79.5391 280.379 75.0589 280.379 69.5324C280.379 64.0059 275.899 59.5258 270.372 59.5258Z" fill="#212121"/>
<path d="M237.767 60.1431C232.581 60.1431 228.377 64.3468 228.377 69.5325C228.377 74.7181 232.581 78.9219 237.767 78.9219C242.952 78.9219 247.156 74.7181 247.156 69.5325C247.156 64.3468 242.952 60.1431 237.767 60.1431Z" fill="#212121"/>
<path d="M205.335 59.2137C199.636 59.2137 195.016 63.8337 195.016 69.5326C195.016 75.2316 199.636 79.8516 205.335 79.8516C211.034 79.8516 215.654 75.2316 215.654 69.5326C215.654 63.8337 211.034 59.2137 205.335 59.2137Z" fill="#212121"/>
<path d="M172.949 63.3314C169.524 63.3314 166.747 66.1079 166.747 69.5329C166.747 72.9579 169.524 75.7344 172.949 75.7344C176.374 75.7344 179.15 72.9579 179.15 69.5329C179.15 66.1079 176.374 63.3314 172.949 63.3314Z" fill="#212121"/>
<path d="M140.378 61.2759C135.818 61.2759 132.122 64.9725 132.122 69.5325C132.122 74.0925 135.818 77.7891 140.378 77.7891C144.938 77.7891 148.635 74.0925 148.635 69.5325C148.635 64.9725 144.938 61.2759 140.378 61.2759Z" fill="#212121"/>
<path d="M108.101 64.1992C105.157 64.1992 102.77 66.5855 102.77 69.5293C102.77 72.473 105.157 74.8594 108.101 74.8594C111.044 74.8594 113.431 72.473 113.431 69.5293C113.431 66.5855 111.044 64.1992 108.101 64.1992Z" fill="#212121"/>
<path d="M75.5325 64.3423C72.6649 64.3423 70.3403 66.6669 70.3403 69.5344C70.3403 72.4019 72.6649 74.7266 75.5325 74.7266C78.4 74.7266 80.7246 72.4019 80.7246 69.5344C80.7246 66.6669 78.4 64.3423 75.5325 64.3423Z" fill="#212121"/>
<path d="M43.058 60.9303C38.3055 60.9303 34.4528 64.783 34.4528 69.5355C34.4528 74.2879 38.3055 78.1406 43.058 78.1406C47.8105 78.1406 51.6631 74.2879 51.6631 69.5355C51.6631 64.783 47.8105 60.9303 43.058 60.9303Z" fill="#212121"/>
<path d="M10.4374 61.4861C5.99375 61.4861 2.39145 65.0884 2.39145 69.5321C2.39145 73.9758 5.99375 77.5781 10.4374 77.5781C14.8811 77.5781 18.4834 73.9758 18.4834 69.5321C18.4834 65.0884 14.8811 61.4861 10.4374 61.4861Z" fill="#212121"/>
<path d="M10.6553 38.4122C7.67548 38.4122 5.25986 40.8278 5.25986 43.8077C5.25986 46.7875 7.67548 49.2031 10.6553 49.2031C13.6351 49.2031 16.0508 46.7875 16.0508 43.8077C16.0508 40.8278 13.6351 38.4122 10.6553 38.4122Z" fill="#212121"/>
<path d="M43.0574 33.9625C37.6191 33.9625 33.2105 38.3711 33.2105 43.8094C33.2105 49.2476 37.6191 53.6562 43.0574 53.6562C48.4957 53.6562 52.9043 49.2476 52.9043 43.8094C52.9043 38.3711 48.4957 33.9625 43.0574 33.9625Z" fill="#212121"/>
<path d="M43.0575 14.1619C40.9319 14.1619 39.2088 15.885 39.2088 18.0106C39.2088 20.1362 40.9319 21.8594 43.0575 21.8594C45.1831 21.8594 46.9063 20.1362 46.9063 18.0106C46.9063 15.885 45.1831 14.1619 43.0575 14.1619Z" fill="#212121"/>
<path d="M75.6848 16.0005C74.5739 16.0005 73.6733 16.901 73.6733 18.0119C73.6733 19.1228 74.5739 20.0234 75.6848 20.0234C76.7957 20.0234 77.6963 19.1228 77.6963 18.0119C77.6963 16.901 76.7957 16.0005 75.6848 16.0005Z" fill="#212121"/>
<path d="M75.4807 37.0355C71.7388 37.0355 68.7055 40.0689 68.7055 43.8107C68.7055 47.5526 71.7388 50.5859 75.4807 50.5859C79.2225 50.5859 82.2559 47.5526 82.2559 43.8107C82.2559 40.0689 79.2225 37.0355 75.4807 37.0355Z" fill="#212121"/>
<path d="M108.13 41.9673C107.111 41.9673 106.286 42.7931 106.286 43.8118C106.286 44.8305 107.111 45.6562 108.13 45.6562C109.149 45.6562 109.975 44.8305 109.975 43.8118C109.975 42.7931 109.149 41.9673 108.13 41.9673Z" fill="#212121"/>
<path d="M108.13 11.5228C104.548 11.5228 101.645 14.4261 101.645 18.0075C101.645 21.5889 104.548 24.4922 108.13 24.4922C111.711 24.4922 114.614 21.5889 114.614 18.0075C114.614 14.4261 111.711 11.5228 108.13 11.5228Z" fill="#212121"/>
<path d="M140.466 8.26065C135.08 8.26065 130.714 12.627 130.714 18.0131C130.714 23.3993 135.08 27.7656 140.466 27.7656C145.852 27.7656 150.219 23.3993 150.219 18.0131C150.219 12.627 145.852 8.26065 140.466 8.26065Z" fill="#212121"/>
<path d="M140.466 31.8466C133.857 31.8466 128.499 37.2046 128.499 43.8139C128.499 50.4233 133.857 55.7812 140.466 55.7812C147.076 55.7812 152.434 50.4233 152.434 43.8139C152.434 37.2046 147.076 31.8466 140.466 31.8466Z" fill="#212121"/>
<path d="M172.904 36.9405C169.11 36.9405 166.034 40.0162 166.034 43.8101C166.034 47.6041 169.11 50.6797 172.904 50.6797C176.698 50.6797 179.773 47.6041 179.773 43.8101C179.773 40.0162 176.698 36.9405 172.904 36.9405Z" fill="#212121"/>
<path d="M205.451 38.4055C202.467 38.4055 200.048 40.8244 200.048 43.8082C200.048 46.7921 202.467 49.2109 205.451 49.2109C208.435 49.2109 210.854 46.7921 210.854 43.8082C210.854 40.8244 208.435 38.4055 205.451 38.4055Z" fill="#212121"/>
<path d="M205.452 13.3344C202.87 13.3344 200.776 15.4282 200.776 18.0109C200.776 20.5937 202.87 22.6875 205.452 22.6875C208.035 22.6875 210.129 20.5937 210.129 18.0109C210.129 15.4282 208.035 13.3344 205.452 13.3344Z" fill="#212121"/>
<path d="M237.969 11.9231C234.609 11.9231 231.884 14.6476 231.884 18.0084C231.884 21.3693 234.609 24.0937 237.969 24.0937C241.33 24.0937 244.055 21.3693 244.055 18.0084C244.055 14.6476 241.33 11.9231 237.969 11.9231Z" fill="#212121"/>
<path d="M237.969 37.531C234.499 37.531 231.687 40.3433 231.687 43.8124C231.687 47.2815 234.499 50.0937 237.969 50.0937C241.438 50.0937 244.25 47.2815 244.25 43.8124C244.25 40.3433 241.438 37.531 237.969 37.531Z" fill="#212121"/>
<path d="M270.371 36.1129C266.12 36.1129 262.674 39.5592 262.674 43.8104C262.674 48.0616 266.12 51.5078 270.371 51.5078C274.622 51.5078 278.068 48.0616 278.068 43.8104C278.068 39.5592 274.622 36.1129 270.371 36.1129Z" fill="#212121"/>
<path d="M270.371 10.7567C266.364 10.7567 263.116 14.0046 263.116 18.0112C263.116 22.0177 266.364 25.2656 270.371 25.2656C274.377 25.2656 277.625 22.0177 277.625 18.0112C277.625 14.0046 274.377 10.7567 270.371 10.7567Z" fill="#212121"/>
<path d="M302.903 13.5715C300.452 13.5715 298.466 15.5579 298.466 18.0084C298.466 20.4588 300.452 22.4453 302.903 22.4453C305.353 22.4453 307.34 20.4588 307.34 18.0084C307.34 15.5579 305.353 13.5715 302.903 13.5715Z" fill="#212121"/>
<path d="M302.904 36.7571C299.01 36.7571 295.853 39.914 295.853 43.8083C295.853 47.7025 299.01 50.8594 302.904 50.8594C306.798 50.8594 309.955 47.7025 309.955 43.8083C309.955 39.914 306.798 36.7571 302.904 36.7571Z" fill="#212121"/>
<path d="M302.845 67.1504C301.529 67.1504 300.463 68.2167 300.463 69.5322C300.463 70.8477 301.529 71.9141 302.845 71.9141C304.16 71.9141 305.227 70.8477 305.227 69.5322C305.227 68.2167 304.16 67.1504 302.845 67.1504Z" fill="#212121"/>
<path d="M172.904 9.18324C168.027 9.18324 164.074 13.1367 164.074 18.0135C164.074 22.8903 168.027 26.8437 172.904 26.8437C177.781 26.8437 181.734 22.8903 181.734 18.0135C181.734 13.1367 177.781 9.18324 172.904 9.18324Z" fill="#212121"/>
<path d="M10.5537 7.85359C4.943 7.85359 0.394594 12.402 0.394593 18.0127C0.394593 23.6235 4.943 28.1719 10.5537 28.1719C16.1645 28.1719 20.7129 23.6235 20.7129 18.0127C20.7129 12.402 16.1645 7.85359 10.5537 7.85359Z" fill="#212121"/>
</g>
<defs>
<clipPath id="clip0_3142_86665">
<rect width="320" height="340" fill="white" transform="matrix(-1 0 0 1 320 0)"/>
</clipPath>
</defs>
</svg>
