<svg width="565" height="552" viewBox="0 0 565 552" fill="none" xmlns="http://www.w3.org/2000/svg">
<g clip-path="url(#clip0_3142_85634)">
<path d="M52.161 345.777C52.161 340.519 56.4232 336.257 61.6811 336.257C66.9389 336.257 71.2012 340.519 71.2012 345.777C71.2012 351.035 66.9389 355.297 61.6811 355.297C56.4232 355.297 52.161 351.035 52.161 345.777Z" fill="#212121"/>
<path d="M32.2129 345.565C32.2129 343.496 33.8906 341.818 35.96 341.818C38.0294 341.818 39.707 343.496 39.707 345.565C39.707 347.635 38.0294 349.312 35.96 349.312C33.8906 349.312 32.2129 347.635 32.2129 345.565Z" fill="#212121"/>
<path d="M51.6742 280.665C51.6742 275.139 56.1543 270.659 61.6808 270.659C67.2073 270.659 71.6875 275.139 71.6875 280.665C71.6875 286.192 67.2073 290.672 61.6808 290.672C56.1543 290.672 51.6742 286.192 51.6742 280.665Z" fill="#212121"/>
<path d="M52.2915 248.064C52.2915 242.878 56.4953 238.674 61.6809 238.674C66.8665 238.674 71.0703 242.878 71.0703 248.064C71.0703 253.249 66.8665 257.453 61.6809 257.453C56.4953 257.453 52.2915 253.249 52.2915 248.064Z" fill="#212121"/>
<path d="M51.3622 215.634C51.3622 209.935 55.9821 205.315 61.6811 205.315C67.3801 205.315 72 209.935 72 215.634C72 221.333 67.3801 225.953 61.6811 225.953C55.9821 225.953 51.3622 221.333 51.3622 215.634Z" fill="#212121"/>
<path d="M55.4798 183.244C55.4798 179.819 58.2563 177.042 61.6813 177.042C65.1063 177.042 67.8828 179.819 67.8828 183.244C67.8828 186.669 65.1063 189.445 61.6813 189.445C58.2563 189.445 55.4798 186.669 55.4798 183.244Z" fill="#212121"/>
<path d="M53.4244 150.673C53.4244 146.113 57.1209 142.417 61.6809 142.417C66.2409 142.417 69.9375 146.113 69.9375 150.673C69.9375 155.233 66.2409 158.93 61.6809 158.93C57.1209 158.93 53.4244 155.233 53.4244 150.673Z" fill="#212121"/>
<path d="M56.3505 118.396C56.3505 115.453 58.7369 113.066 61.6806 113.066C64.6244 113.066 67.0107 115.453 67.0107 118.396C67.0107 121.34 64.6244 123.727 61.6806 123.727C58.7369 123.727 56.3505 121.34 56.3505 118.396Z" fill="#212121"/>
<path d="M56.4888 85.8313C56.4888 82.9638 58.8134 80.6392 61.6809 80.6392C64.5484 80.6392 66.873 82.9638 66.873 85.8313C66.873 88.6988 64.5484 91.0234 61.6809 91.0234C58.8134 91.0234 56.4888 88.6988 56.4888 85.8313Z" fill="#212121"/>
<path d="M53.0758 53.3558C53.0758 48.6033 56.9285 44.7507 61.681 44.7507C66.4335 44.7507 70.2861 48.6033 70.2861 53.3558C70.2861 58.1083 66.4335 61.9609 61.681 61.9609C56.9285 61.9609 53.0758 58.1083 53.0758 53.3558Z" fill="#212121"/>
<path d="M53.6355 20.7353C53.6355 16.2916 57.2379 12.6893 61.6815 12.6893C66.1252 12.6893 69.7275 16.2916 69.7275 20.7353C69.7275 25.1789 66.1252 28.7812 61.6815 28.7812C57.2379 28.7812 53.6355 25.1789 53.6355 20.7353Z" fill="#212121"/>
<path d="M30.5646 20.9561C30.5646 17.9763 32.9802 15.5606 35.96 15.5606C38.9398 15.5606 41.3555 17.9763 41.3555 20.9561C41.3555 23.9359 38.9398 26.3516 35.96 26.3516C32.9802 26.3516 30.5646 23.9359 30.5646 20.9561Z" fill="#212121"/>
<path d="M26.1129 53.3562C26.1129 47.9179 30.5215 43.5093 35.9597 43.5093C41.398 43.5093 45.8066 47.9179 45.8066 53.3562C45.8066 58.7945 41.398 63.2031 35.9597 63.2031C30.5215 63.2031 26.1129 58.7945 26.1129 53.3562Z" fill="#212121"/>
<path d="M6.31036 53.3544C6.31036 51.2288 8.03348 49.5057 10.1591 49.5057C12.2847 49.5057 14.0078 51.2288 14.0078 53.3544C14.0078 55.48 12.2847 57.2031 10.1591 57.2031C8.03348 57.2031 6.31036 55.48 6.31036 53.3544Z" fill="#212121"/>
<path d="M8.14792 85.9807C8.14792 84.8698 9.04847 83.9692 10.1594 83.9692C11.2703 83.9692 12.1709 84.8698 12.1709 85.9807C12.1709 87.0916 11.2703 87.9922 10.1594 87.9922C9.04847 87.9922 8.14792 87.0916 8.14792 85.9807Z" fill="#212121"/>
<path d="M29.185 85.7795C29.185 82.0377 32.2183 79.0043 35.9602 79.0043C39.702 79.0043 42.7354 82.0377 42.7354 85.7795C42.7354 89.5213 39.702 92.5547 35.9602 92.5547C32.2183 92.5547 29.185 89.5213 29.185 85.7795Z" fill="#212121"/>
<path d="M34.1157 118.429C34.1157 117.41 34.9416 116.584 35.9602 116.584C36.9789 116.584 37.8047 117.41 37.8047 118.429C37.8047 119.448 36.9789 120.273 35.9602 120.273C34.9416 120.273 34.1157 119.448 34.1157 118.429Z" fill="#212121"/>
<path d="M3.67413 118.429C3.67413 114.848 6.57743 111.945 10.1588 111.945C13.7403 111.945 16.6436 114.848 16.6436 118.429C16.6436 122.011 13.7403 124.914 10.1588 124.914C6.57743 124.914 3.67413 122.011 3.67413 118.429Z" fill="#212121"/>
<path d="M0.406155 150.763C0.406155 145.377 4.77249 141.011 10.1586 141.011C15.5448 141.011 19.9111 145.377 19.9111 150.763C19.9111 156.149 15.5448 160.516 10.1586 160.516C4.77249 160.516 0.406155 156.149 0.406155 150.763Z" fill="#212121"/>
<path d="M23.9931 150.767C23.9931 144.158 29.3511 138.8 35.9604 138.8C42.5698 138.8 47.9277 144.158 47.9277 150.767C47.9277 157.376 42.5698 162.734 35.9604 162.734C29.3511 162.734 23.9931 157.376 23.9931 150.767Z" fill="#212121"/>
<path d="M29.0909 183.201C29.0909 179.407 32.1665 176.331 35.9605 176.331C39.7545 176.331 42.8301 179.407 42.8301 183.201C42.8301 186.995 39.7545 190.07 35.9605 190.07C32.1665 190.07 29.0909 186.995 29.0909 183.201Z" fill="#212121"/>
<path d="M30.5569 215.746C30.5569 212.762 32.9757 210.343 35.9596 210.343C38.9434 210.343 41.3623 212.762 41.3623 215.746C41.3623 218.73 38.9434 221.148 35.9596 221.148C32.9757 221.148 30.5569 218.73 30.5569 215.746Z" fill="#212121"/>
<path d="M5.48283 215.745C5.48283 213.163 7.5766 211.069 10.1594 211.069C12.7422 211.069 14.8359 213.163 14.8359 215.745C14.8359 218.328 12.7422 220.422 10.1594 220.422C7.5766 220.422 5.48283 218.328 5.48283 215.745Z" fill="#212121"/>
<path d="M4.07349 248.266C4.07349 244.905 6.79798 242.181 10.1588 242.181C13.5196 242.181 16.2441 244.905 16.2441 248.266C16.2441 251.627 13.5196 254.352 10.1588 254.352C6.79798 254.352 4.07349 251.627 4.07349 248.266Z" fill="#212121"/>
<path d="M29.6784 248.265C29.6784 244.796 32.4907 241.984 35.9598 241.984C39.429 241.984 42.2412 244.796 42.2412 248.265C42.2412 251.735 39.429 254.547 35.9598 254.547C32.4907 254.547 29.6784 251.735 29.6784 248.265Z" fill="#212121"/>
<path d="M28.2624 280.67C28.2624 276.419 31.7086 272.972 35.9598 272.972C40.211 272.972 43.6572 276.419 43.6572 280.67C43.6572 284.921 40.211 288.367 35.9598 288.367C31.7086 288.367 28.2624 284.921 28.2624 280.67Z" fill="#212121"/>
<path d="M2.90516 280.667C2.90516 276.661 6.15309 273.413 10.1596 273.413C14.1661 273.413 17.4141 276.661 17.4141 280.667C17.4141 284.674 14.1661 287.922 10.1596 287.922C6.15308 287.922 2.90516 284.674 2.90516 280.667Z" fill="#212121"/>
<path d="M5.72185 313.204C5.72185 310.753 7.70832 308.767 10.1588 308.767C12.6092 308.767 14.5957 310.753 14.5957 313.204C14.5957 315.654 12.6092 317.641 10.1588 317.641C7.70831 317.641 5.72185 315.654 5.72185 313.204Z" fill="#212121"/>
<path d="M28.9085 313.199C28.9085 309.305 32.0654 306.148 35.9596 306.148C39.8539 306.148 43.0107 309.305 43.0107 313.199C43.0107 317.093 39.8539 320.25 35.9596 320.25C32.0654 320.25 28.9085 317.093 28.9085 313.199Z" fill="#212121"/>
<path d="M59.2988 313.142C59.2988 311.826 60.3652 310.76 61.6806 310.76C62.9961 310.76 64.0625 311.826 64.0625 313.142C64.0625 314.457 62.9961 315.523 61.6806 315.523C60.3652 315.523 59.2988 314.457 59.2988 313.142Z" fill="#212121"/>
<path d="M1.32875 183.201C1.32875 178.324 5.28217 174.371 10.159 174.371C15.0358 174.371 18.9893 178.324 18.9893 183.201C18.9893 188.078 15.0358 192.031 10.159 192.031C5.28217 192.031 1.32875 188.078 1.32875 183.201Z" fill="#212121"/>
<path d="M7.29233e-05 20.8487C7.31686e-05 15.2379 4.54847 10.6895 10.1592 10.6895C15.77 10.6895 20.3184 15.2379 20.3184 20.8487C20.3184 26.4594 15.77 31.0078 10.1592 31.0078C4.54847 31.0078 7.26781e-05 26.4594 7.29233e-05 20.8487Z" fill="#212121"/>
<path d="M362.161 345.777C362.161 340.519 366.423 336.257 371.681 336.257C376.939 336.257 381.201 340.519 381.201 345.777C381.201 351.035 376.939 355.297 371.681 355.297C366.423 355.297 362.161 351.035 362.161 345.777Z" fill="#212121"/>
<path d="M342.213 345.565C342.213 343.496 343.891 341.818 345.96 341.818C348.029 341.818 349.707 343.496 349.707 345.565C349.707 347.635 348.029 349.312 345.96 349.312C343.891 349.312 342.213 347.635 342.213 345.565Z" fill="#212121"/>
<path d="M361.674 280.665C361.674 275.139 366.154 270.659 371.681 270.659C377.207 270.659 381.688 275.139 381.688 280.665C381.688 286.192 377.207 290.672 371.681 290.672C366.154 290.672 361.674 286.192 361.674 280.665Z" fill="#212121"/>
<path d="M362.292 248.064C362.292 242.878 366.495 238.674 371.681 238.674C376.867 238.674 381.07 242.878 381.07 248.064C381.07 253.249 376.867 257.453 371.681 257.453C366.495 257.453 362.292 253.249 362.292 248.064Z" fill="#212121"/>
<path d="M361.362 215.634C361.362 209.935 365.982 205.315 371.681 205.315C377.38 205.315 382 209.935 382 215.634C382 221.333 377.38 225.953 371.681 225.953C365.982 225.953 361.362 221.333 361.362 215.634Z" fill="#212121"/>
<path d="M365.48 183.244C365.48 179.819 368.256 177.042 371.681 177.042C375.106 177.042 377.883 179.819 377.883 183.244C377.883 186.669 375.106 189.445 371.681 189.445C368.256 189.445 365.48 186.669 365.48 183.244Z" fill="#212121"/>
<path d="M363.424 150.673C363.424 146.113 367.121 142.417 371.681 142.417C376.241 142.417 379.938 146.113 379.938 150.673C379.938 155.233 376.241 158.93 371.681 158.93C367.121 158.93 363.424 155.233 363.424 150.673Z" fill="#212121"/>
<path d="M366.351 118.396C366.351 115.453 368.737 113.066 371.681 113.066C374.624 113.066 377.011 115.453 377.011 118.396C377.011 121.34 374.624 123.727 371.681 123.727C368.737 123.727 366.351 121.34 366.351 118.396Z" fill="#212121"/>
<path d="M366.489 85.8313C366.489 82.9638 368.813 80.6392 371.681 80.6392C374.548 80.6392 376.873 82.9638 376.873 85.8313C376.873 88.6988 374.548 91.0234 371.681 91.0234C368.813 91.0234 366.489 88.6988 366.489 85.8313Z" fill="#212121"/>
<path d="M363.076 53.3558C363.076 48.6033 366.928 44.7507 371.681 44.7507C376.433 44.7507 380.286 48.6033 380.286 53.3558C380.286 58.1083 376.433 61.9609 371.681 61.9609C366.928 61.9609 363.076 58.1083 363.076 53.3558Z" fill="#212121"/>
<path d="M363.636 20.7353C363.636 16.2916 367.238 12.6893 371.682 12.6893C376.125 12.6893 379.728 16.2916 379.728 20.7353C379.728 25.1789 376.125 28.7812 371.682 28.7812C367.238 28.7812 363.636 25.1789 363.636 20.7353Z" fill="#212121"/>
<path d="M340.565 20.9561C340.565 17.9763 342.98 15.5606 345.96 15.5606C348.94 15.5606 351.355 17.9763 351.355 20.9561C351.355 23.9359 348.94 26.3516 345.96 26.3516C342.98 26.3516 340.565 23.9359 340.565 20.9561Z" fill="#212121"/>
<path d="M336.113 53.3562C336.113 47.9179 340.521 43.5093 345.96 43.5093C351.398 43.5093 355.807 47.9179 355.807 53.3562C355.807 58.7945 351.398 63.2031 345.96 63.2031C340.521 63.2031 336.113 58.7945 336.113 53.3562Z" fill="#212121"/>
<path d="M316.31 53.3544C316.31 51.2288 318.033 49.5057 320.159 49.5057C322.285 49.5057 324.008 51.2288 324.008 53.3544C324.008 55.48 322.285 57.2031 320.159 57.2031C318.033 57.2031 316.31 55.48 316.31 53.3544Z" fill="#212121"/>
<path d="M318.148 85.9807C318.148 84.8698 319.048 83.9692 320.159 83.9692C321.27 83.9692 322.171 84.8698 322.171 85.9807C322.171 87.0916 321.27 87.9922 320.159 87.9922C319.048 87.9922 318.148 87.0916 318.148 85.9807Z" fill="#212121"/>
<path d="M339.185 85.7795C339.185 82.0377 342.218 79.0043 345.96 79.0043C349.702 79.0043 352.735 82.0377 352.735 85.7795C352.735 89.5213 349.702 92.5547 345.96 92.5547C342.218 92.5547 339.185 89.5213 339.185 85.7795Z" fill="#212121"/>
<path d="M344.116 118.429C344.116 117.41 344.942 116.584 345.96 116.584C346.979 116.584 347.805 117.41 347.805 118.429C347.805 119.448 346.979 120.273 345.96 120.273C344.942 120.273 344.116 119.448 344.116 118.429Z" fill="#212121"/>
<path d="M313.674 118.429C313.674 114.848 316.577 111.945 320.159 111.945C323.74 111.945 326.644 114.848 326.644 118.429C326.644 122.011 323.74 124.914 320.159 124.914C316.577 124.914 313.674 122.011 313.674 118.429Z" fill="#212121"/>
<path d="M310.406 150.763C310.406 145.377 314.772 141.011 320.159 141.011C325.545 141.011 329.911 145.377 329.911 150.763C329.911 156.149 325.545 160.516 320.159 160.516C314.772 160.516 310.406 156.149 310.406 150.763Z" fill="#212121"/>
<path d="M333.993 150.767C333.993 144.158 339.351 138.8 345.96 138.8C352.57 138.8 357.928 144.158 357.928 150.767C357.928 157.376 352.57 162.734 345.96 162.734C339.351 162.734 333.993 157.376 333.993 150.767Z" fill="#212121"/>
<path d="M339.091 183.201C339.091 179.407 342.167 176.331 345.961 176.331C349.754 176.331 352.83 179.407 352.83 183.201C352.83 186.995 349.754 190.07 345.961 190.07C342.167 190.07 339.091 186.995 339.091 183.201Z" fill="#212121"/>
<path d="M340.557 215.746C340.557 212.762 342.976 210.343 345.96 210.343C348.943 210.343 351.362 212.762 351.362 215.746C351.362 218.73 348.943 221.148 345.96 221.148C342.976 221.148 340.557 218.73 340.557 215.746Z" fill="#212121"/>
<path d="M315.483 215.745C315.483 213.163 317.577 211.069 320.159 211.069C322.742 211.069 324.836 213.163 324.836 215.745C324.836 218.328 322.742 220.422 320.159 220.422C317.577 220.422 315.483 218.328 315.483 215.745Z" fill="#212121"/>
<path d="M314.073 248.266C314.073 244.905 316.798 242.181 320.159 242.181C323.52 242.181 326.244 244.905 326.244 248.266C326.244 251.627 323.52 254.352 320.159 254.352C316.798 254.352 314.073 251.627 314.073 248.266Z" fill="#212121"/>
<path d="M339.678 248.265C339.678 244.796 342.491 241.984 345.96 241.984C349.429 241.984 352.241 244.796 352.241 248.265C352.241 251.735 349.429 254.547 345.96 254.547C342.491 254.547 339.678 251.735 339.678 248.265Z" fill="#212121"/>
<path d="M338.262 280.67C338.262 276.419 341.709 272.972 345.96 272.972C350.211 272.972 353.657 276.419 353.657 280.67C353.657 284.921 350.211 288.367 345.96 288.367C341.709 288.367 338.262 284.921 338.262 280.67Z" fill="#212121"/>
<path d="M312.905 280.667C312.905 276.661 316.153 273.413 320.16 273.413C324.166 273.413 327.414 276.661 327.414 280.667C327.414 284.674 324.166 287.922 320.16 287.922C316.153 287.922 312.905 284.674 312.905 280.667Z" fill="#212121"/>
<path d="M315.722 313.204C315.722 310.753 317.708 308.767 320.159 308.767C322.609 308.767 324.596 310.753 324.596 313.204C324.596 315.654 322.609 317.641 320.159 317.641C317.708 317.641 315.722 315.654 315.722 313.204Z" fill="#212121"/>
<path d="M338.908 313.199C338.908 309.305 342.065 306.148 345.96 306.148C349.854 306.148 353.011 309.305 353.011 313.199C353.011 317.093 349.854 320.25 345.96 320.25C342.065 320.25 338.908 317.093 338.908 313.199Z" fill="#212121"/>
<path d="M369.299 313.142C369.299 311.826 370.365 310.76 371.681 310.76C372.996 310.76 374.063 311.826 374.063 313.142C374.063 314.457 372.996 315.523 371.681 315.523C370.365 315.523 369.299 314.457 369.299 313.142Z" fill="#212121"/>
<path d="M311.329 183.201C311.329 178.324 315.282 174.371 320.159 174.371C325.036 174.371 328.989 178.324 328.989 183.201C328.989 188.078 325.036 192.031 320.159 192.031C315.282 192.031 311.329 188.078 311.329 183.201Z" fill="#212121"/>
<path d="M310 20.8487C310 15.2379 314.548 10.6895 320.159 10.6895C325.77 10.6895 330.318 15.2379 330.318 20.8487C330.318 26.4594 325.77 31.0078 320.159 31.0078C314.548 31.0078 310 26.4594 310 20.8487Z" fill="#212121"/>
<path d="M207.161 345.777C207.161 340.519 211.423 336.257 216.681 336.257C221.939 336.257 226.201 340.519 226.201 345.777C226.201 351.035 221.939 355.297 216.681 355.297C211.423 355.297 207.161 351.035 207.161 345.777Z" fill="#212121"/>
<path d="M187.213 345.565C187.213 343.496 188.891 341.818 190.96 341.818C193.029 341.818 194.707 343.496 194.707 345.565C194.707 347.635 193.029 349.312 190.96 349.312C188.891 349.312 187.213 347.635 187.213 345.565Z" fill="#212121"/>
<path d="M206.674 280.665C206.674 275.139 211.154 270.659 216.681 270.659C222.207 270.659 226.688 275.139 226.688 280.665C226.688 286.192 222.207 290.672 216.681 290.672C211.154 290.672 206.674 286.192 206.674 280.665Z" fill="#212121"/>
<path d="M207.292 248.064C207.292 242.878 211.495 238.674 216.681 238.674C221.867 238.674 226.07 242.878 226.07 248.064C226.07 253.249 221.867 257.453 216.681 257.453C211.495 257.453 207.292 253.249 207.292 248.064Z" fill="#212121"/>
<path d="M206.362 215.634C206.362 209.935 210.982 205.315 216.681 205.315C222.38 205.315 227 209.935 227 215.634C227 221.333 222.38 225.953 216.681 225.953C210.982 225.953 206.362 221.333 206.362 215.634Z" fill="#212121"/>
<path d="M210.48 183.244C210.48 179.819 213.256 177.042 216.681 177.042C220.106 177.042 222.883 179.819 222.883 183.244C222.883 186.669 220.106 189.445 216.681 189.445C213.256 189.445 210.48 186.669 210.48 183.244Z" fill="#212121"/>
<path d="M208.424 150.673C208.424 146.113 212.121 142.417 216.681 142.417C221.241 142.417 224.938 146.113 224.938 150.673C224.938 155.233 221.241 158.93 216.681 158.93C212.121 158.93 208.424 155.233 208.424 150.673Z" fill="#212121"/>
<path d="M211.351 118.396C211.351 115.453 213.737 113.066 216.681 113.066C219.624 113.066 222.011 115.453 222.011 118.396C222.011 121.34 219.624 123.727 216.681 123.727C213.737 123.727 211.351 121.34 211.351 118.396Z" fill="#212121"/>
<path d="M211.489 85.8313C211.489 82.9638 213.813 80.6392 216.681 80.6392C219.548 80.6392 221.873 82.9638 221.873 85.8313C221.873 88.6988 219.548 91.0234 216.681 91.0234C213.813 91.0234 211.489 88.6988 211.489 85.8313Z" fill="#212121"/>
<path d="M208.076 53.3558C208.076 48.6033 211.928 44.7507 216.681 44.7507C221.433 44.7507 225.286 48.6033 225.286 53.3558C225.286 58.1083 221.433 61.9609 216.681 61.9609C211.928 61.9609 208.076 58.1083 208.076 53.3558Z" fill="#212121"/>
<path d="M208.636 20.7353C208.636 16.2916 212.238 12.6893 216.682 12.6893C221.125 12.6893 224.728 16.2916 224.728 20.7353C224.728 25.1789 221.125 28.7812 216.682 28.7812C212.238 28.7812 208.636 25.1789 208.636 20.7353Z" fill="#212121"/>
<path d="M185.565 20.9561C185.565 17.9763 187.98 15.5606 190.96 15.5606C193.94 15.5606 196.355 17.9763 196.355 20.9561C196.355 23.9359 193.94 26.3516 190.96 26.3516C187.98 26.3516 185.565 23.9359 185.565 20.9561Z" fill="#212121"/>
<path d="M181.113 53.3562C181.113 47.9179 185.521 43.5093 190.96 43.5093C196.398 43.5093 200.807 47.9179 200.807 53.3562C200.807 58.7945 196.398 63.2031 190.96 63.2031C185.521 63.2031 181.113 58.7945 181.113 53.3562Z" fill="#212121"/>
<path d="M161.31 53.3544C161.31 51.2288 163.033 49.5057 165.159 49.5057C167.285 49.5057 169.008 51.2288 169.008 53.3544C169.008 55.48 167.285 57.2031 165.159 57.2031C163.033 57.2031 161.31 55.48 161.31 53.3544Z" fill="#212121"/>
<path d="M163.148 85.9807C163.148 84.8698 164.048 83.9692 165.159 83.9692C166.27 83.9692 167.171 84.8698 167.171 85.9807C167.171 87.0916 166.27 87.9922 165.159 87.9922C164.048 87.9922 163.148 87.0916 163.148 85.9807Z" fill="#212121"/>
<path d="M184.185 85.7795C184.185 82.0377 187.218 79.0043 190.96 79.0043C194.702 79.0043 197.735 82.0377 197.735 85.7795C197.735 89.5213 194.702 92.5547 190.96 92.5547C187.218 92.5547 184.185 89.5213 184.185 85.7795Z" fill="#212121"/>
<path d="M189.116 118.429C189.116 117.41 189.942 116.584 190.96 116.584C191.979 116.584 192.805 117.41 192.805 118.429C192.805 119.448 191.979 120.273 190.96 120.273C189.942 120.273 189.116 119.448 189.116 118.429Z" fill="#212121"/>
<path d="M158.674 118.429C158.674 114.848 161.577 111.945 165.159 111.945C168.74 111.945 171.644 114.848 171.644 118.429C171.644 122.011 168.74 124.914 165.159 124.914C161.577 124.914 158.674 122.011 158.674 118.429Z" fill="#212121"/>
<path d="M155.406 150.763C155.406 145.377 159.772 141.011 165.159 141.011C170.545 141.011 174.911 145.377 174.911 150.763C174.911 156.149 170.545 160.516 165.159 160.516C159.772 160.516 155.406 156.149 155.406 150.763Z" fill="#212121"/>
<path d="M178.993 150.767C178.993 144.158 184.351 138.8 190.96 138.8C197.57 138.8 202.928 144.158 202.928 150.767C202.928 157.376 197.57 162.734 190.96 162.734C184.351 162.734 178.993 157.376 178.993 150.767Z" fill="#212121"/>
<path d="M184.091 183.201C184.091 179.407 187.167 176.331 190.961 176.331C194.754 176.331 197.83 179.407 197.83 183.201C197.83 186.995 194.754 190.07 190.961 190.07C187.167 190.07 184.091 186.995 184.091 183.201Z" fill="#212121"/>
<path d="M185.557 215.746C185.557 212.762 187.976 210.343 190.96 210.343C193.943 210.343 196.362 212.762 196.362 215.746C196.362 218.73 193.943 221.148 190.96 221.148C187.976 221.148 185.557 218.73 185.557 215.746Z" fill="#212121"/>
<path d="M160.483 215.745C160.483 213.163 162.577 211.069 165.159 211.069C167.742 211.069 169.836 213.163 169.836 215.745C169.836 218.328 167.742 220.422 165.159 220.422C162.577 220.422 160.483 218.328 160.483 215.745Z" fill="#212121"/>
<path d="M159.073 248.266C159.073 244.905 161.798 242.181 165.159 242.181C168.52 242.181 171.244 244.905 171.244 248.266C171.244 251.627 168.52 254.352 165.159 254.352C161.798 254.352 159.073 251.627 159.073 248.266Z" fill="#212121"/>
<path d="M184.678 248.265C184.678 244.796 187.491 241.984 190.96 241.984C194.429 241.984 197.241 244.796 197.241 248.265C197.241 251.735 194.429 254.547 190.96 254.547C187.491 254.547 184.678 251.735 184.678 248.265Z" fill="#212121"/>
<path d="M183.262 280.67C183.262 276.419 186.709 272.972 190.96 272.972C195.211 272.972 198.657 276.419 198.657 280.67C198.657 284.921 195.211 288.367 190.96 288.367C186.709 288.367 183.262 284.921 183.262 280.67Z" fill="#212121"/>
<path d="M157.905 280.667C157.905 276.661 161.153 273.413 165.16 273.413C169.166 273.413 172.414 276.661 172.414 280.667C172.414 284.674 169.166 287.922 165.16 287.922C161.153 287.922 157.905 284.674 157.905 280.667Z" fill="#212121"/>
<path d="M160.722 313.204C160.722 310.753 162.708 308.767 165.159 308.767C167.609 308.767 169.596 310.753 169.596 313.204C169.596 315.654 167.609 317.641 165.159 317.641C162.708 317.641 160.722 315.654 160.722 313.204Z" fill="#212121"/>
<path d="M183.908 313.199C183.908 309.305 187.065 306.148 190.96 306.148C194.854 306.148 198.011 309.305 198.011 313.199C198.011 317.093 194.854 320.25 190.96 320.25C187.065 320.25 183.908 317.093 183.908 313.199Z" fill="#212121"/>
<path d="M214.299 313.142C214.299 311.826 215.365 310.76 216.681 310.76C217.996 310.76 219.063 311.826 219.063 313.142C219.063 314.457 217.996 315.523 216.681 315.523C215.365 315.523 214.299 314.457 214.299 313.142Z" fill="#212121"/>
<path d="M156.329 183.201C156.329 178.324 160.282 174.371 165.159 174.371C170.036 174.371 173.989 178.324 173.989 183.201C173.989 188.078 170.036 192.031 165.159 192.031C160.282 192.031 156.329 188.078 156.329 183.201Z" fill="#212121"/>
<path d="M155 20.8487C155 15.2379 159.548 10.6895 165.159 10.6895C170.77 10.6895 175.318 15.2379 175.318 20.8487C175.318 26.4594 170.77 31.0078 165.159 31.0078C159.548 31.0078 155 26.4594 155 20.8487Z" fill="#212121"/>
<path d="M99.3258 52.6317C99.3258 58.1582 94.8457 62.6383 89.3192 62.6383C83.7927 62.6383 79.3125 58.1582 79.3125 52.6316C79.3125 47.1051 83.7927 42.625 89.3192 42.625C94.8457 42.625 99.3258 47.1051 99.3258 52.6317Z" fill="#212121"/>
<path d="M98.7085 85.2332C98.7085 90.4188 94.5047 94.6226 89.3191 94.6226C84.1335 94.6226 79.9297 90.4188 79.9297 85.2332C79.9297 80.0475 84.1335 75.8438 89.3191 75.8438C94.5047 75.8438 98.7085 80.0475 98.7085 85.2332Z" fill="#212121"/>
<path d="M99.6378 117.663C99.6378 123.362 95.0179 127.982 89.3189 127.982C83.6199 127.982 79 123.362 79 117.663C79 111.964 83.6199 107.344 89.3189 107.344C95.0179 107.344 99.6378 111.964 99.6378 117.663Z" fill="#212121"/>
<path d="M95.5202 150.053C95.5202 153.478 92.7437 156.255 89.3187 156.255C85.8937 156.255 83.1172 153.478 83.1172 150.053C83.1172 146.628 85.8937 143.852 89.3187 143.852C92.7437 143.852 95.5202 146.628 95.5202 150.053Z" fill="#212121"/>
<path d="M97.5756 182.624C97.5756 187.184 93.8791 190.88 89.3191 190.88C84.7591 190.88 81.0625 187.184 81.0625 182.624C81.0625 178.064 84.7591 174.367 89.3191 174.367C93.8791 174.367 97.5756 178.064 97.5756 182.624Z" fill="#212121"/>
<path d="M94.6495 214.9C94.6495 217.844 92.2631 220.231 89.3194 220.231C86.3756 220.231 83.9893 217.844 83.9893 214.9C83.9893 211.957 86.3756 209.57 89.3194 209.57C92.2631 209.57 94.6495 211.957 94.6495 214.9Z" fill="#212121"/>
<path d="M94.5112 247.466C94.5112 250.333 92.1866 252.658 89.3191 252.658C86.4516 252.658 84.127 250.333 84.127 247.466C84.127 244.598 86.4516 242.273 89.3191 242.273C92.1866 242.273 94.5112 244.598 94.5112 247.466Z" fill="#212121"/>
<path d="M97.9242 279.941C97.9242 284.694 94.0715 288.546 89.319 288.546C84.5665 288.546 80.7139 284.694 80.7139 279.941C80.7139 275.189 84.5665 271.336 89.319 271.336C94.0715 271.336 97.9242 275.189 97.9242 279.941Z" fill="#212121"/>
<path d="M97.3645 312.562C97.3645 317.005 93.7621 320.608 89.3185 320.608C84.8748 320.608 81.2725 317.005 81.2725 312.562C81.2725 308.118 84.8748 304.516 89.3185 304.516C93.7621 304.516 97.3645 308.118 97.3645 312.562Z" fill="#212121"/>
<path d="M120.435 312.341C120.435 315.321 118.02 317.736 115.04 317.736C112.06 317.736 109.645 315.321 109.645 312.341C109.645 309.361 112.06 306.945 115.04 306.945C118.02 306.945 120.435 309.361 120.435 312.341Z" fill="#212121"/>
<path d="M124.887 279.941C124.887 285.379 120.479 289.788 115.04 289.788C109.602 289.788 105.193 285.379 105.193 279.941C105.193 274.502 109.602 270.094 115.04 270.094C120.479 270.094 124.887 274.502 124.887 279.941Z" fill="#212121"/>
<path d="M144.69 279.942C144.69 282.068 142.967 283.791 140.841 283.791C138.715 283.791 136.992 282.068 136.992 279.942C136.992 277.817 138.715 276.094 140.841 276.094C142.967 276.094 144.69 277.817 144.69 279.942Z" fill="#212121"/>
<path d="M142.852 247.316C142.852 248.427 141.952 249.328 140.841 249.328C139.73 249.328 138.829 248.427 138.829 247.316C138.829 246.205 139.73 245.305 140.841 245.305C141.952 245.305 142.852 246.205 142.852 247.316Z" fill="#212121"/>
<path d="M121.815 247.517C121.815 251.259 118.782 254.293 115.04 254.293C111.298 254.293 108.265 251.259 108.265 247.517C108.265 243.776 111.298 240.742 115.04 240.742C118.782 240.742 121.815 243.776 121.815 247.517Z" fill="#212121"/>
<path d="M116.884 214.868C116.884 215.887 116.058 216.712 115.04 216.712C114.021 216.712 113.195 215.887 113.195 214.868C113.195 213.849 114.021 213.023 115.04 213.023C116.058 213.023 116.884 213.849 116.884 214.868Z" fill="#212121"/>
<path d="M147.326 214.868C147.326 218.449 144.423 221.352 140.841 221.352C137.26 221.352 134.356 218.449 134.356 214.868C134.356 211.286 137.26 208.383 140.841 208.383C144.423 208.383 147.326 211.286 147.326 214.868Z" fill="#212121"/>
<path d="M150.594 182.534C150.594 187.92 146.228 192.286 140.841 192.286C135.455 192.286 131.089 187.92 131.089 182.534C131.089 177.148 135.455 172.781 140.841 172.781C146.228 172.781 150.594 177.148 150.594 182.534Z" fill="#212121"/>
<path d="M127.007 182.53C127.007 189.139 121.649 194.497 115.04 194.497C108.43 194.497 103.072 189.139 103.072 182.53C103.072 175.92 108.43 170.563 115.04 170.563C121.649 170.563 127.007 175.92 127.007 182.53Z" fill="#212121"/>
<path d="M121.909 150.096C121.909 153.89 118.833 156.966 115.039 156.966C111.246 156.966 108.17 153.89 108.17 150.096C108.17 146.302 111.246 143.227 115.039 143.227C118.833 143.227 121.909 146.302 121.909 150.096Z" fill="#212121"/>
<path d="M120.443 117.551C120.443 120.535 118.024 122.954 115.04 122.954C112.057 122.954 109.638 120.535 109.638 117.551C109.638 114.567 112.057 112.148 115.04 112.148C118.024 112.148 120.443 114.567 120.443 117.551Z" fill="#212121"/>
<path d="M145.517 117.552C145.517 120.134 143.423 122.228 140.841 122.228C138.258 122.228 136.164 120.134 136.164 117.552C136.164 114.969 138.258 112.875 140.841 112.875C143.423 112.875 145.517 114.969 145.517 117.552Z" fill="#212121"/>
<path d="M146.927 85.0306C146.927 88.3915 144.202 91.116 140.841 91.116C137.48 91.116 134.756 88.3915 134.756 85.0306C134.756 81.6698 137.48 78.9453 140.841 78.9453C144.202 78.9453 146.927 81.6698 146.927 85.0306Z" fill="#212121"/>
<path d="M121.322 85.0314C121.322 88.5005 118.509 91.3128 115.04 91.3128C111.571 91.3128 108.759 88.5005 108.759 85.0314C108.759 81.5623 111.571 78.75 115.04 78.75C118.509 78.75 121.322 81.5623 121.322 85.0314Z" fill="#212121"/>
<path d="M122.738 52.6271C122.738 56.8783 119.291 60.3245 115.04 60.3245C110.789 60.3245 107.343 56.8783 107.343 52.6271C107.343 48.3759 110.789 44.9297 115.04 44.9297C119.291 44.9297 122.738 48.3759 122.738 52.6271Z" fill="#212121"/>
<path d="M148.095 52.6295C148.095 56.636 144.847 59.8839 140.84 59.8839C136.834 59.8839 133.586 56.636 133.586 52.6295C133.586 48.6229 136.834 45.375 140.84 45.375C144.847 45.375 148.095 48.6229 148.095 52.6295Z" fill="#212121"/>
<path d="M145.278 20.0932C145.278 22.5436 143.292 24.5301 140.841 24.5301C138.391 24.5301 136.404 22.5436 136.404 20.0932C136.404 17.6427 138.391 15.6563 140.841 15.6563C143.292 15.6563 145.278 17.6427 145.278 20.0932Z" fill="#212121"/>
<path d="M122.092 20.098C122.092 23.9922 118.935 27.1491 115.04 27.1491C111.146 27.1491 107.989 23.9922 107.989 20.098C107.989 16.2038 111.146 13.0469 115.04 13.0469C118.935 13.0469 122.092 16.2038 122.092 20.098Z" fill="#212121"/>
<path d="M91.7012 20.1553C91.7012 21.4707 90.6348 22.5371 89.3194 22.5371C88.0039 22.5371 86.9375 21.4707 86.9375 20.1553C86.9375 18.8398 88.0039 17.7734 89.3194 17.7734C90.6348 17.7734 91.7012 18.8398 91.7012 20.1553Z" fill="#212121"/>
<path d="M149.671 150.096C149.671 154.973 145.718 158.926 140.841 158.926C135.964 158.926 132.011 154.973 132.011 150.096C132.011 145.219 135.964 141.266 140.841 141.266C145.718 141.266 149.671 145.219 149.671 150.096Z" fill="#212121"/>
<path d="M151 312.448C151 318.059 146.452 322.607 140.841 322.607C135.23 322.607 130.682 318.059 130.682 312.448C130.682 306.837 135.23 302.289 140.841 302.289C146.452 302.289 151 306.837 151 312.448Z" fill="#212121"/>
<path d="M146.244 344.895C146.244 347.879 143.825 350.298 140.841 350.298C137.857 350.298 135.438 347.879 135.438 344.895C135.438 341.911 137.857 339.492 140.841 339.492C143.825 339.492 146.244 341.911 146.244 344.895Z" fill="#212121"/>
<path d="M407.839 345.777C407.839 340.519 403.577 336.257 398.319 336.257C393.061 336.257 388.799 340.519 388.799 345.777C388.799 351.035 393.061 355.297 398.319 355.297C403.577 355.297 407.839 351.035 407.839 345.777Z" fill="#212121"/>
<path d="M427.787 345.565C427.787 343.496 426.109 341.818 424.04 341.818C421.971 341.818 420.293 343.496 420.293 345.565C420.293 347.635 421.971 349.312 424.04 349.312C426.109 349.312 427.787 347.635 427.787 345.565Z" fill="#212121"/>
<path d="M408.326 280.665C408.326 275.139 403.846 270.659 398.319 270.659C392.793 270.659 388.312 275.139 388.312 280.665C388.312 286.192 392.793 290.672 398.319 290.672C403.846 290.672 408.326 286.192 408.326 280.665Z" fill="#212121"/>
<path d="M407.708 248.064C407.708 242.878 403.505 238.674 398.319 238.674C393.133 238.674 388.93 242.878 388.93 248.064C388.93 253.249 393.133 257.453 398.319 257.453C403.505 257.453 407.708 253.249 407.708 248.064Z" fill="#212121"/>
<path d="M408.638 215.634C408.638 209.935 404.018 205.315 398.319 205.315C392.62 205.315 388 209.935 388 215.634C388 221.333 392.62 225.953 398.319 225.953C404.018 225.953 408.638 221.333 408.638 215.634Z" fill="#212121"/>
<path d="M404.52 183.244C404.52 179.819 401.744 177.042 398.319 177.042C394.894 177.042 392.117 179.819 392.117 183.244C392.117 186.669 394.894 189.445 398.319 189.445C401.744 189.445 404.52 186.669 404.52 183.244Z" fill="#212121"/>
<path d="M406.576 150.673C406.576 146.113 402.879 142.417 398.319 142.417C393.759 142.417 390.062 146.113 390.062 150.673C390.062 155.233 393.759 158.93 398.319 158.93C402.879 158.93 406.576 155.233 406.576 150.673Z" fill="#212121"/>
<path d="M403.649 118.396C403.649 115.453 401.263 113.066 398.319 113.066C395.376 113.066 392.989 115.453 392.989 118.396C392.989 121.34 395.376 123.727 398.319 123.727C401.263 123.727 403.649 121.34 403.649 118.396Z" fill="#212121"/>
<path d="M403.511 85.8313C403.511 82.9638 401.187 80.6392 398.319 80.6392C395.452 80.6392 393.127 82.9638 393.127 85.8313C393.127 88.6988 395.452 91.0234 398.319 91.0234C401.187 91.0234 403.511 88.6988 403.511 85.8313Z" fill="#212121"/>
<path d="M406.924 53.3558C406.924 48.6033 403.072 44.7507 398.319 44.7507C393.567 44.7507 389.714 48.6033 389.714 53.3558C389.714 58.1083 393.567 61.9609 398.319 61.9609C403.072 61.9609 406.924 58.1083 406.924 53.3558Z" fill="#212121"/>
<path d="M406.364 20.7353C406.364 16.2916 402.762 12.6893 398.318 12.6893C393.875 12.6893 390.272 16.2916 390.272 20.7353C390.272 25.1789 393.875 28.7812 398.318 28.7812C402.762 28.7812 406.364 25.1789 406.364 20.7353Z" fill="#212121"/>
<path d="M429.435 20.9561C429.435 17.9763 427.02 15.5606 424.04 15.5606C421.06 15.5606 418.645 17.9763 418.645 20.9561C418.645 23.9359 421.06 26.3516 424.04 26.3516C427.02 26.3516 429.435 23.9359 429.435 20.9561Z" fill="#212121"/>
<path d="M433.887 53.3562C433.887 47.9179 429.479 43.5093 424.04 43.5093C418.602 43.5093 414.193 47.9179 414.193 53.3562C414.193 58.7945 418.602 63.2031 424.04 63.2031C429.479 63.2031 433.887 58.7945 433.887 53.3562Z" fill="#212121"/>
<path d="M453.69 53.3544C453.69 51.2288 451.967 49.5057 449.841 49.5057C447.715 49.5057 445.992 51.2288 445.992 53.3544C445.992 55.48 447.715 57.2031 449.841 57.2031C451.967 57.2031 453.69 55.48 453.69 53.3544Z" fill="#212121"/>
<path d="M451.852 85.9807C451.852 84.8698 450.952 83.9692 449.841 83.9692C448.73 83.9692 447.829 84.8698 447.829 85.9807C447.829 87.0916 448.73 87.9922 449.841 87.9922C450.952 87.9922 451.852 87.0916 451.852 85.9807Z" fill="#212121"/>
<path d="M430.815 85.7795C430.815 82.0377 427.782 79.0043 424.04 79.0043C420.298 79.0043 417.265 82.0377 417.265 85.7795C417.265 89.5213 420.298 92.5547 424.04 92.5547C427.782 92.5547 430.815 89.5213 430.815 85.7795Z" fill="#212121"/>
<path d="M425.884 118.429C425.884 117.41 425.058 116.584 424.04 116.584C423.021 116.584 422.195 117.41 422.195 118.429C422.195 119.448 423.021 120.273 424.04 120.273C425.058 120.273 425.884 119.448 425.884 118.429Z" fill="#212121"/>
<path d="M456.326 118.429C456.326 114.848 453.423 111.945 449.841 111.945C446.26 111.945 443.356 114.848 443.356 118.429C443.356 122.011 446.26 124.914 449.841 124.914C453.423 124.914 456.326 122.011 456.326 118.429Z" fill="#212121"/>
<path d="M459.594 150.763C459.594 145.377 455.228 141.011 449.841 141.011C444.455 141.011 440.089 145.377 440.089 150.763C440.089 156.149 444.455 160.516 449.841 160.516C455.228 160.516 459.594 156.149 459.594 150.763Z" fill="#212121"/>
<path d="M436.007 150.767C436.007 144.158 430.649 138.8 424.04 138.8C417.43 138.8 412.072 144.158 412.072 150.767C412.072 157.376 417.43 162.734 424.04 162.734C430.649 162.734 436.007 157.376 436.007 150.767Z" fill="#212121"/>
<path d="M430.909 183.201C430.909 179.407 427.833 176.331 424.039 176.331C420.246 176.331 417.17 179.407 417.17 183.201C417.17 186.995 420.246 190.07 424.039 190.07C427.833 190.07 430.909 186.995 430.909 183.201Z" fill="#212121"/>
<path d="M429.443 215.746C429.443 212.762 427.024 210.343 424.04 210.343C421.057 210.343 418.638 212.762 418.638 215.746C418.638 218.73 421.057 221.148 424.04 221.148C427.024 221.148 429.443 218.73 429.443 215.746Z" fill="#212121"/>
<path d="M454.517 215.745C454.517 213.163 452.423 211.069 449.841 211.069C447.258 211.069 445.164 213.163 445.164 215.745C445.164 218.328 447.258 220.422 449.841 220.422C452.423 220.422 454.517 218.328 454.517 215.745Z" fill="#212121"/>
<path d="M455.927 248.266C455.927 244.905 453.202 242.181 449.841 242.181C446.48 242.181 443.756 244.905 443.756 248.266C443.756 251.627 446.48 254.352 449.841 254.352C453.202 254.352 455.927 251.627 455.927 248.266Z" fill="#212121"/>
<path d="M430.322 248.265C430.322 244.796 427.509 241.984 424.04 241.984C420.571 241.984 417.759 244.796 417.759 248.265C417.759 251.735 420.571 254.547 424.04 254.547C427.509 254.547 430.322 251.735 430.322 248.265Z" fill="#212121"/>
<path d="M431.738 280.67C431.738 276.419 428.291 272.972 424.04 272.972C419.789 272.972 416.343 276.419 416.343 280.67C416.343 284.921 419.789 288.367 424.04 288.367C428.291 288.367 431.738 284.921 431.738 280.67Z" fill="#212121"/>
<path d="M457.095 280.667C457.095 276.661 453.847 273.413 449.84 273.413C445.834 273.413 442.586 276.661 442.586 280.667C442.586 284.674 445.834 287.922 449.84 287.922C453.847 287.922 457.095 284.674 457.095 280.667Z" fill="#212121"/>
<path d="M454.278 313.204C454.278 310.753 452.292 308.767 449.841 308.767C447.391 308.767 445.404 310.753 445.404 313.204C445.404 315.654 447.391 317.641 449.841 317.641C452.292 317.641 454.278 315.654 454.278 313.204Z" fill="#212121"/>
<path d="M431.092 313.199C431.092 309.305 427.935 306.148 424.04 306.148C420.146 306.148 416.989 309.305 416.989 313.199C416.989 317.093 420.146 320.25 424.04 320.25C427.935 320.25 431.092 317.093 431.092 313.199Z" fill="#212121"/>
<path d="M400.701 313.142C400.701 311.826 399.635 310.76 398.319 310.76C397.004 310.76 395.937 311.826 395.937 313.142C395.937 314.457 397.004 315.523 398.319 315.523C399.635 315.523 400.701 314.457 400.701 313.142Z" fill="#212121"/>
<path d="M458.671 183.201C458.671 178.324 454.718 174.371 449.841 174.371C444.964 174.371 441.011 178.324 441.011 183.201C441.011 188.078 444.964 192.031 449.841 192.031C454.718 192.031 458.671 188.078 458.671 183.201Z" fill="#212121"/>
<path d="M460 20.8487C460 15.2379 455.452 10.6895 449.841 10.6895C444.23 10.6895 439.682 15.2379 439.682 20.8487C439.682 26.4594 444.23 31.0078 449.841 31.0078C455.452 31.0078 460 26.4594 460 20.8487Z" fill="#212121"/>
<path d="M282.674 52.6317C282.674 58.1582 287.154 62.6383 292.681 62.6383C298.207 62.6383 302.688 58.1582 302.688 52.6316C302.688 47.1051 298.207 42.625 292.681 42.625C287.154 42.625 282.674 47.1051 282.674 52.6317Z" fill="#212121"/>
<path d="M283.292 85.2332C283.292 90.4188 287.495 94.6226 292.681 94.6226C297.867 94.6226 302.07 90.4188 302.07 85.2332C302.07 80.0475 297.867 75.8438 292.681 75.8438C287.495 75.8438 283.292 80.0475 283.292 85.2332Z" fill="#212121"/>
<path d="M282.362 117.663C282.362 123.362 286.982 127.982 292.681 127.982C298.38 127.982 303 123.362 303 117.663C303 111.964 298.38 107.344 292.681 107.344C286.982 107.344 282.362 111.964 282.362 117.663Z" fill="#212121"/>
<path d="M286.48 150.053C286.48 153.478 289.256 156.255 292.681 156.255C296.106 156.255 298.883 153.478 298.883 150.053C298.883 146.628 296.106 143.852 292.681 143.852C289.256 143.852 286.48 146.628 286.48 150.053Z" fill="#212121"/>
<path d="M284.424 182.624C284.424 187.184 288.121 190.88 292.681 190.88C297.241 190.88 300.938 187.184 300.938 182.624C300.938 178.064 297.241 174.367 292.681 174.367C288.121 174.367 284.424 178.064 284.424 182.624Z" fill="#212121"/>
<path d="M287.351 214.9C287.351 217.844 289.737 220.231 292.681 220.231C295.624 220.231 298.011 217.844 298.011 214.9C298.011 211.957 295.624 209.57 292.681 209.57C289.737 209.57 287.351 211.957 287.351 214.9Z" fill="#212121"/>
<path d="M287.489 247.466C287.489 250.333 289.813 252.658 292.681 252.658C295.548 252.658 297.873 250.333 297.873 247.466C297.873 244.598 295.548 242.273 292.681 242.273C289.813 242.273 287.489 244.598 287.489 247.466Z" fill="#212121"/>
<path d="M284.076 279.941C284.076 284.694 287.928 288.546 292.681 288.546C297.433 288.546 301.286 284.694 301.286 279.941C301.286 275.189 297.433 271.336 292.681 271.336C287.928 271.336 284.076 275.189 284.076 279.941Z" fill="#212121"/>
<path d="M284.636 312.562C284.636 317.005 288.238 320.608 292.682 320.608C297.125 320.608 300.728 317.005 300.728 312.562C300.728 308.118 297.125 304.516 292.682 304.516C288.238 304.516 284.636 308.118 284.636 312.562Z" fill="#212121"/>
<path d="M261.565 312.341C261.565 315.321 263.98 317.736 266.96 317.736C269.94 317.736 272.355 315.321 272.355 312.341C272.355 309.361 269.94 306.945 266.96 306.945C263.98 306.945 261.565 309.361 261.565 312.341Z" fill="#212121"/>
<path d="M257.113 279.941C257.113 285.379 261.521 289.788 266.96 289.788C272.398 289.788 276.807 285.379 276.807 279.941C276.807 274.502 272.398 270.094 266.96 270.094C261.521 270.094 257.113 274.502 257.113 279.941Z" fill="#212121"/>
<path d="M237.31 279.942C237.31 282.068 239.033 283.791 241.159 283.791C243.285 283.791 245.008 282.068 245.008 279.942C245.008 277.817 243.285 276.094 241.159 276.094C239.033 276.094 237.31 277.817 237.31 279.942Z" fill="#212121"/>
<path d="M239.148 247.316C239.148 248.427 240.048 249.328 241.159 249.328C242.27 249.328 243.171 248.427 243.171 247.316C243.171 246.205 242.27 245.305 241.159 245.305C240.048 245.305 239.148 246.205 239.148 247.316Z" fill="#212121"/>
<path d="M260.185 247.517C260.185 251.259 263.218 254.293 266.96 254.293C270.702 254.293 273.735 251.259 273.735 247.517C273.735 243.776 270.702 240.742 266.96 240.742C263.218 240.742 260.185 243.776 260.185 247.517Z" fill="#212121"/>
<path d="M265.116 214.868C265.116 215.887 265.942 216.712 266.96 216.712C267.979 216.712 268.805 215.887 268.805 214.868C268.805 213.849 267.979 213.023 266.96 213.023C265.942 213.023 265.116 213.849 265.116 214.868Z" fill="#212121"/>
<path d="M234.674 214.868C234.674 218.449 237.577 221.352 241.159 221.352C244.74 221.352 247.644 218.449 247.644 214.868C247.644 211.286 244.74 208.383 241.159 208.383C237.577 208.383 234.674 211.286 234.674 214.868Z" fill="#212121"/>
<path d="M231.406 182.534C231.406 187.92 235.772 192.286 241.159 192.286C246.545 192.286 250.911 187.92 250.911 182.534C250.911 177.148 246.545 172.781 241.159 172.781C235.772 172.781 231.406 177.148 231.406 182.534Z" fill="#212121"/>
<path d="M254.993 182.53C254.993 189.139 260.351 194.497 266.96 194.497C273.57 194.497 278.928 189.139 278.928 182.53C278.928 175.92 273.57 170.563 266.96 170.563C260.351 170.563 254.993 175.92 254.993 182.53Z" fill="#212121"/>
<path d="M260.091 150.096C260.091 153.89 263.167 156.966 266.961 156.966C270.754 156.966 273.83 153.89 273.83 150.096C273.83 146.302 270.754 143.227 266.961 143.227C263.167 143.227 260.091 146.302 260.091 150.096Z" fill="#212121"/>
<path d="M261.557 117.551C261.557 120.535 263.976 122.954 266.96 122.954C269.943 122.954 272.362 120.535 272.362 117.551C272.362 114.567 269.943 112.148 266.96 112.148C263.976 112.148 261.557 114.567 261.557 117.551Z" fill="#212121"/>
<path d="M236.483 117.552C236.483 120.134 238.577 122.228 241.159 122.228C243.742 122.228 245.836 120.134 245.836 117.552C245.836 114.969 243.742 112.875 241.159 112.875C238.577 112.875 236.483 114.969 236.483 117.552Z" fill="#212121"/>
<path d="M235.073 85.0306C235.073 88.3915 237.798 91.116 241.159 91.116C244.52 91.116 247.244 88.3915 247.244 85.0306C247.244 81.6698 244.52 78.9453 241.159 78.9453C237.798 78.9453 235.073 81.6698 235.073 85.0306Z" fill="#212121"/>
<path d="M260.678 85.0314C260.678 88.5005 263.491 91.3128 266.96 91.3128C270.429 91.3128 273.241 88.5005 273.241 85.0314C273.241 81.5623 270.429 78.75 266.96 78.75C263.491 78.75 260.678 81.5623 260.678 85.0314Z" fill="#212121"/>
<path d="M259.262 52.6271C259.262 56.8783 262.709 60.3245 266.96 60.3245C271.211 60.3245 274.657 56.8783 274.657 52.6271C274.657 48.3759 271.211 44.9297 266.96 44.9297C262.709 44.9297 259.262 48.3759 259.262 52.6271Z" fill="#212121"/>
<path d="M233.905 52.6295C233.905 56.636 237.153 59.8839 241.16 59.8839C245.166 59.8839 248.414 56.636 248.414 52.6295C248.414 48.6229 245.166 45.375 241.16 45.375C237.153 45.375 233.905 48.6229 233.905 52.6295Z" fill="#212121"/>
<path d="M236.722 20.0932C236.722 22.5436 238.708 24.5301 241.159 24.5301C243.609 24.5301 245.596 22.5436 245.596 20.0932C245.596 17.6427 243.609 15.6563 241.159 15.6563C238.708 15.6563 236.722 17.6427 236.722 20.0932Z" fill="#212121"/>
<path d="M259.908 20.098C259.908 23.9922 263.065 27.1491 266.96 27.1491C270.854 27.1491 274.011 23.9922 274.011 20.098C274.011 16.2038 270.854 13.0469 266.96 13.0469C263.065 13.0469 259.908 16.2038 259.908 20.098Z" fill="#212121"/>
<path d="M290.299 20.1553C290.299 21.4707 291.365 22.5371 292.681 22.5371C293.996 22.5371 295.063 21.4707 295.063 20.1553C295.063 18.8398 293.996 17.7734 292.681 17.7734C291.365 17.7734 290.299 18.8398 290.299 20.1553Z" fill="#212121"/>
<path d="M232.329 150.096C232.329 154.973 236.282 158.926 241.159 158.926C246.036 158.926 249.989 154.973 249.989 150.096C249.989 145.219 246.036 141.266 241.159 141.266C236.282 141.266 232.329 145.219 232.329 150.096Z" fill="#212121"/>
<path d="M231 312.448C231 318.059 235.548 322.607 241.159 322.607C246.77 322.607 251.318 318.059 251.318 312.448C251.318 306.837 246.77 302.289 241.159 302.289C235.548 302.289 231 306.837 231 312.448Z" fill="#212121"/>
<path d="M235.756 344.895C235.756 347.879 238.175 350.298 241.159 350.298C244.143 350.298 246.562 347.879 246.562 344.895C246.562 341.911 244.143 339.492 241.159 339.492C238.175 339.492 235.756 341.911 235.756 344.895Z" fill="#212121"/>
<path d="M52.161 378.52C52.161 383.778 56.4232 388.04 61.6811 388.04C66.9389 388.04 71.2012 383.778 71.2012 378.52C71.2012 373.262 66.9389 369 61.6811 369C56.4232 369 52.161 373.262 52.161 378.52Z" fill="#212121"/>
<path d="M32.2129 378.731C32.2129 380.801 33.8906 382.478 35.96 382.478C38.0294 382.478 39.707 380.801 39.707 378.731C39.707 376.662 38.0294 374.984 35.96 374.984C33.8906 374.984 32.2129 376.662 32.2129 378.731Z" fill="#212121"/>
<path d="M51.6742 443.632C51.6742 449.158 56.1543 453.638 61.6808 453.638C67.2073 453.638 71.6875 449.158 71.6875 443.632C71.6875 438.105 67.2073 433.625 61.6808 433.625C56.1543 433.625 51.6742 438.105 51.6742 443.632Z" fill="#212121"/>
<path d="M52.2915 476.233C52.2915 481.419 56.4953 485.623 61.6809 485.623C66.8665 485.623 71.0703 481.419 71.0703 476.233C71.0703 471.048 66.8665 466.844 61.6809 466.844C56.4953 466.844 52.2915 471.048 52.2915 476.233Z" fill="#212121"/>
<path d="M51.3621 508.663C51.3621 514.362 55.9821 518.982 61.6811 518.982C67.3801 518.982 72 514.362 72 508.663C72 502.964 67.3801 498.344 61.6811 498.344C55.9821 498.344 51.3621 502.964 51.3621 508.663Z" fill="#212121"/>
<path d="M55.4798 541.053C55.4798 544.478 58.2563 547.255 61.6813 547.255C65.1063 547.255 67.8828 544.478 67.8828 541.053C67.8828 537.628 65.1063 534.852 61.6813 534.852C58.2563 534.852 55.4798 537.628 55.4798 541.053Z" fill="#212121"/>
<path d="M29.0909 541.096C29.0909 544.89 32.1665 547.966 35.9605 547.966C39.7545 547.966 42.8301 544.89 42.8301 541.096C42.8301 537.302 39.7545 534.227 35.9605 534.227C32.1665 534.227 29.0909 537.302 29.0909 541.096Z" fill="#212121"/>
<path d="M30.5569 508.551C30.5569 511.535 32.9757 513.954 35.9596 513.954C38.9434 513.954 41.3623 511.535 41.3623 508.551C41.3623 505.567 38.9434 503.148 35.9596 503.148C32.9757 503.148 30.5569 505.567 30.5569 508.551Z" fill="#212121"/>
<path d="M5.48283 508.552C5.48283 511.134 7.57659 513.228 10.1594 513.228C12.7422 513.228 14.8359 511.134 14.8359 508.552C14.8359 505.969 12.7422 503.875 10.1594 503.875C7.5766 503.875 5.48283 505.969 5.48283 508.552Z" fill="#212121"/>
<path d="M4.07349 476.031C4.07349 479.391 6.79798 482.116 10.1588 482.116C13.5196 482.116 16.2441 479.391 16.2441 476.031C16.2441 472.67 13.5196 469.945 10.1588 469.945C6.79798 469.945 4.07349 472.67 4.07349 476.031Z" fill="#212121"/>
<path d="M29.6784 476.031C29.6784 479.501 32.4907 482.313 35.9598 482.313C39.429 482.313 42.2412 479.501 42.2412 476.031C42.2412 472.562 39.429 469.75 35.9598 469.75C32.4907 469.75 29.6784 472.562 29.6784 476.031Z" fill="#212121"/>
<path d="M28.2624 443.627C28.2624 447.878 31.7086 451.325 35.9598 451.325C40.211 451.325 43.6572 447.878 43.6572 443.627C43.6572 439.376 40.211 435.93 35.9598 435.93C31.7086 435.93 28.2624 439.376 28.2624 443.627Z" fill="#212121"/>
<path d="M2.90516 443.629C2.90516 447.636 6.15308 450.884 10.1596 450.884C14.1661 450.884 17.4141 447.636 17.4141 443.629C17.4141 439.623 14.1661 436.375 10.1596 436.375C6.15308 436.375 2.90516 439.623 2.90516 443.629Z" fill="#212121"/>
<path d="M5.72185 411.093C5.72185 413.544 7.70831 415.53 10.1588 415.53C12.6092 415.53 14.5957 413.544 14.5957 411.093C14.5957 408.643 12.6092 406.656 10.1588 406.656C7.70831 406.656 5.72185 408.643 5.72185 411.093Z" fill="#212121"/>
<path d="M28.9085 411.098C28.9085 414.992 32.0654 418.149 35.9596 418.149C39.8539 418.149 43.0107 414.992 43.0107 411.098C43.0107 407.204 39.8539 404.047 35.9596 404.047C32.0654 404.047 28.9085 407.204 28.9085 411.098Z" fill="#212121"/>
<path d="M59.2988 411.155C59.2988 412.471 60.3652 413.537 61.6806 413.537C62.9961 413.537 64.0625 412.471 64.0625 411.155C64.0625 409.84 62.9961 408.773 61.6806 408.773C60.3652 408.773 59.2988 409.84 59.2988 411.155Z" fill="#212121"/>
<path d="M1.32875 541.096C1.32875 545.973 5.28217 549.926 10.159 549.926C15.0358 549.926 18.9893 545.973 18.9893 541.096C18.9893 536.219 15.0358 532.266 10.159 532.266C5.28217 532.266 1.32875 536.219 1.32875 541.096Z" fill="#212121"/>
<path d="M362.161 378.52C362.161 383.778 366.423 388.04 371.681 388.04C376.939 388.04 381.201 383.778 381.201 378.52C381.201 373.262 376.939 369 371.681 369C366.423 369 362.161 373.262 362.161 378.52Z" fill="#212121"/>
<path d="M342.213 378.731C342.213 380.801 343.891 382.478 345.96 382.478C348.029 382.478 349.707 380.801 349.707 378.731C349.707 376.662 348.029 374.984 345.96 374.984C343.891 374.984 342.213 376.662 342.213 378.731Z" fill="#212121"/>
<path d="M361.674 443.632C361.674 449.158 366.154 453.638 371.681 453.638C377.207 453.638 381.687 449.158 381.687 443.632C381.687 438.105 377.207 433.625 371.681 433.625C366.154 433.625 361.674 438.105 361.674 443.632Z" fill="#212121"/>
<path d="M362.292 476.233C362.292 481.419 366.495 485.623 371.681 485.623C376.867 485.623 381.07 481.419 381.07 476.233C381.07 471.048 376.867 466.844 371.681 466.844C366.495 466.844 362.292 471.048 362.292 476.233Z" fill="#212121"/>
<path d="M361.362 508.663C361.362 514.362 365.982 518.982 371.681 518.982C377.38 518.982 382 514.362 382 508.663C382 502.964 377.38 498.344 371.681 498.344C365.982 498.344 361.362 502.964 361.362 508.663Z" fill="#212121"/>
<path d="M365.48 541.053C365.48 544.478 368.256 547.255 371.681 547.255C375.106 547.255 377.883 544.478 377.883 541.053C377.883 537.628 375.106 534.852 371.681 534.852C368.256 534.852 365.48 537.628 365.48 541.053Z" fill="#212121"/>
<path d="M339.091 541.096C339.091 544.89 342.167 547.966 345.961 547.966C349.754 547.966 352.83 544.89 352.83 541.096C352.83 537.302 349.754 534.227 345.961 534.227C342.167 534.227 339.091 537.302 339.091 541.096Z" fill="#212121"/>
<path d="M340.557 508.551C340.557 511.535 342.976 513.954 345.96 513.954C348.943 513.954 351.362 511.535 351.362 508.551C351.362 505.567 348.943 503.148 345.96 503.148C342.976 503.148 340.557 505.567 340.557 508.551Z" fill="#212121"/>
<path d="M315.483 508.552C315.483 511.134 317.577 513.228 320.159 513.228C322.742 513.228 324.836 511.134 324.836 508.552C324.836 505.969 322.742 503.875 320.159 503.875C317.577 503.875 315.483 505.969 315.483 508.552Z" fill="#212121"/>
<path d="M314.073 476.031C314.073 479.391 316.798 482.116 320.159 482.116C323.52 482.116 326.244 479.391 326.244 476.031C326.244 472.67 323.52 469.945 320.159 469.945C316.798 469.945 314.073 472.67 314.073 476.031Z" fill="#212121"/>
<path d="M339.678 476.031C339.678 479.501 342.491 482.313 345.96 482.313C349.429 482.313 352.241 479.501 352.241 476.031C352.241 472.562 349.429 469.75 345.96 469.75C342.491 469.75 339.678 472.562 339.678 476.031Z" fill="#212121"/>
<path d="M338.262 443.627C338.262 447.878 341.709 451.325 345.96 451.325C350.211 451.325 353.657 447.878 353.657 443.627C353.657 439.376 350.211 435.93 345.96 435.93C341.709 435.93 338.262 439.376 338.262 443.627Z" fill="#212121"/>
<path d="M312.905 443.629C312.905 447.636 316.153 450.884 320.16 450.884C324.166 450.884 327.414 447.636 327.414 443.629C327.414 439.623 324.166 436.375 320.16 436.375C316.153 436.375 312.905 439.623 312.905 443.629Z" fill="#212121"/>
<path d="M315.722 411.093C315.722 413.544 317.708 415.53 320.159 415.53C322.609 415.53 324.596 413.544 324.596 411.093C324.596 408.643 322.609 406.656 320.159 406.656C317.708 406.656 315.722 408.643 315.722 411.093Z" fill="#212121"/>
<path d="M338.908 411.098C338.908 414.992 342.065 418.149 345.96 418.149C349.854 418.149 353.011 414.992 353.011 411.098C353.011 407.204 349.854 404.047 345.96 404.047C342.065 404.047 338.908 407.204 338.908 411.098Z" fill="#212121"/>
<path d="M369.299 411.155C369.299 412.471 370.365 413.537 371.681 413.537C372.996 413.537 374.062 412.471 374.062 411.155C374.062 409.84 372.996 408.773 371.681 408.773C370.365 408.773 369.299 409.84 369.299 411.155Z" fill="#212121"/>
<path d="M311.329 541.096C311.329 545.973 315.282 549.926 320.159 549.926C325.036 549.926 328.989 545.973 328.989 541.096C328.989 536.219 325.036 532.266 320.159 532.266C315.282 532.266 311.329 536.219 311.329 541.096Z" fill="#212121"/>
<g clip-path="url(#clip1_3142_85634)">
<path d="M207.161 378.52C207.161 383.778 211.423 388.04 216.681 388.04C221.939 388.04 226.201 383.778 226.201 378.52C226.201 373.262 221.939 369 216.681 369C211.423 369 207.161 373.262 207.161 378.52Z" fill="#212121"/>
<path d="M187.213 378.731C187.213 380.801 188.891 382.478 190.96 382.478C193.029 382.478 194.707 380.801 194.707 378.731C194.707 376.662 193.029 374.984 190.96 374.984C188.891 374.984 187.213 376.662 187.213 378.731Z" fill="#212121"/>
<path d="M206.674 443.632C206.674 449.158 211.154 453.638 216.681 453.638C222.207 453.638 226.687 449.158 226.687 443.632C226.687 438.105 222.207 433.625 216.681 433.625C211.154 433.625 206.674 438.105 206.674 443.632Z" fill="#212121"/>
<path d="M207.292 476.233C207.292 481.419 211.495 485.623 216.681 485.623C221.867 485.623 226.07 481.419 226.07 476.233C226.07 471.048 221.867 466.844 216.681 466.844C211.495 466.844 207.292 471.048 207.292 476.233Z" fill="#212121"/>
<path d="M206.362 508.663C206.362 514.362 210.982 518.982 216.681 518.982C222.38 518.982 227 514.362 227 508.663C227 502.964 222.38 498.344 216.681 498.344C210.982 498.344 206.362 502.964 206.362 508.663Z" fill="#212121"/>
<path d="M210.48 541.053C210.48 544.478 213.256 547.255 216.681 547.255C220.106 547.255 222.883 544.478 222.883 541.053C222.883 537.628 220.106 534.852 216.681 534.852C213.256 534.852 210.48 537.628 210.48 541.053Z" fill="#212121"/>
<path d="M184.091 541.096C184.091 544.89 187.167 547.966 190.961 547.966C194.754 547.966 197.83 544.89 197.83 541.096C197.83 537.302 194.754 534.227 190.961 534.227C187.167 534.227 184.091 537.302 184.091 541.096Z" fill="#212121"/>
<path d="M185.557 508.551C185.557 511.535 187.976 513.954 190.96 513.954C193.943 513.954 196.362 511.535 196.362 508.551C196.362 505.567 193.943 503.148 190.96 503.148C187.976 503.148 185.557 505.567 185.557 508.551Z" fill="#212121"/>
<path d="M160.483 508.552C160.483 511.134 162.577 513.228 165.159 513.228C167.742 513.228 169.836 511.134 169.836 508.552C169.836 505.969 167.742 503.875 165.159 503.875C162.577 503.875 160.483 505.969 160.483 508.552Z" fill="#212121"/>
<path d="M159.073 476.031C159.073 479.391 161.798 482.116 165.159 482.116C168.52 482.116 171.244 479.391 171.244 476.031C171.244 472.67 168.52 469.945 165.159 469.945C161.798 469.945 159.073 472.67 159.073 476.031Z" fill="#212121"/>
<path d="M184.678 476.031C184.678 479.501 187.491 482.313 190.96 482.313C194.429 482.313 197.241 479.501 197.241 476.031C197.241 472.562 194.429 469.75 190.96 469.75C187.491 469.75 184.678 472.562 184.678 476.031Z" fill="#212121"/>
<path d="M183.262 443.627C183.262 447.878 186.709 451.325 190.96 451.325C195.211 451.325 198.657 447.878 198.657 443.627C198.657 439.376 195.211 435.93 190.96 435.93C186.709 435.93 183.262 439.376 183.262 443.627Z" fill="#212121"/>
<path d="M157.905 443.629C157.905 447.636 161.153 450.884 165.16 450.884C169.166 450.884 172.414 447.636 172.414 443.629C172.414 439.623 169.166 436.375 165.16 436.375C161.153 436.375 157.905 439.623 157.905 443.629Z" fill="#212121"/>
<path d="M160.722 411.093C160.722 413.544 162.708 415.53 165.159 415.53C167.609 415.53 169.596 413.544 169.596 411.093C169.596 408.643 167.609 406.656 165.159 406.656C162.708 406.656 160.722 408.643 160.722 411.093Z" fill="#212121"/>
<path d="M183.908 411.098C183.908 414.992 187.065 418.149 190.96 418.149C194.854 418.149 198.011 414.992 198.011 411.098C198.011 407.204 194.854 404.047 190.96 404.047C187.065 404.047 183.908 407.204 183.908 411.098Z" fill="#212121"/>
<path d="M214.299 411.155C214.299 412.471 215.365 413.537 216.681 413.537C217.996 413.537 219.062 412.471 219.062 411.155C219.062 409.84 217.996 408.773 216.681 408.773C215.365 408.773 214.299 409.84 214.299 411.155Z" fill="#212121"/>
<path d="M156.329 541.096C156.329 545.973 160.282 549.926 165.159 549.926C170.036 549.926 173.989 545.973 173.989 541.096C173.989 536.219 170.036 532.266 165.159 532.266C160.282 532.266 156.329 536.219 156.329 541.096Z" fill="#212121"/>
</g>
<g clip-path="url(#clip2_3142_85634)">
<path d="M131.674 346.632C131.674 352.158 136.154 356.638 141.681 356.638C147.207 356.638 151.687 352.158 151.687 346.632C151.687 341.105 147.207 336.625 141.681 336.625C136.154 336.625 131.674 341.105 131.674 346.632Z" fill="#212121"/>
<path d="M132.292 379.233C132.292 384.419 136.495 388.623 141.681 388.623C146.867 388.623 151.07 384.419 151.07 379.233C151.07 374.048 146.867 369.844 141.681 369.844C136.495 369.844 132.292 374.048 132.292 379.233Z" fill="#212121"/>
<path d="M131.362 411.663C131.362 417.362 135.982 421.982 141.681 421.982C147.38 421.982 152 417.362 152 411.663C152 405.964 147.38 401.344 141.681 401.344C135.982 401.344 131.362 405.964 131.362 411.663Z" fill="#212121"/>
<path d="M135.48 444.053C135.48 447.478 138.256 450.255 141.681 450.255C145.106 450.255 147.883 447.478 147.883 444.053C147.883 440.628 145.106 437.852 141.681 437.852C138.256 437.852 135.48 440.628 135.48 444.053Z" fill="#212121"/>
<path d="M133.424 476.624C133.424 481.184 137.121 484.88 141.681 484.88C146.241 484.88 149.937 481.184 149.937 476.624C149.937 472.064 146.241 468.367 141.681 468.367C137.121 468.367 133.424 472.064 133.424 476.624Z" fill="#212121"/>
<path d="M136.351 508.9C136.351 511.844 138.737 514.231 141.681 514.231C144.624 514.231 147.011 511.844 147.011 508.9C147.011 505.957 144.624 503.57 141.681 503.57C138.737 503.57 136.351 505.957 136.351 508.9Z" fill="#212121"/>
<path d="M136.489 541.466C136.489 544.333 138.813 546.658 141.681 546.658C144.548 546.658 146.873 544.333 146.873 541.466C146.873 538.598 144.548 536.273 141.681 536.273C138.813 536.273 136.489 538.598 136.489 541.466Z" fill="#212121"/>
<path d="M88.1479 541.316C88.1479 542.427 89.0485 543.328 90.1594 543.328C91.2703 543.328 92.1709 542.427 92.1709 541.316C92.1709 540.205 91.2703 539.305 90.1594 539.305C89.0485 539.305 88.1479 540.205 88.1479 541.316Z" fill="#212121"/>
<path d="M109.185 541.517C109.185 545.259 112.218 548.293 115.96 548.293C119.702 548.293 122.735 545.259 122.735 541.517C122.735 537.776 119.702 534.742 115.96 534.742C112.218 534.742 109.185 537.776 109.185 541.517Z" fill="#212121"/>
<path d="M114.116 508.868C114.116 509.887 114.942 510.712 115.96 510.712C116.979 510.712 117.805 509.887 117.805 508.868C117.805 507.849 116.979 507.023 115.96 507.023C114.942 507.023 114.116 507.849 114.116 508.868Z" fill="#212121"/>
<path d="M83.6741 508.868C83.6741 512.449 86.5774 515.352 90.1588 515.352C93.7403 515.352 96.6436 512.449 96.6436 508.868C96.6436 505.286 93.7403 502.383 90.1588 502.383C86.5774 502.383 83.6741 505.286 83.6741 508.868Z" fill="#212121"/>
<path d="M80.4062 476.534C80.4062 481.92 84.7725 486.286 90.1586 486.286C95.5448 486.286 99.9111 481.92 99.9111 476.534C99.9111 471.148 95.5448 466.781 90.1586 466.781C84.7725 466.781 80.4062 471.148 80.4062 476.534Z" fill="#212121"/>
<path d="M103.993 476.53C103.993 483.139 109.351 488.497 115.96 488.497C122.57 488.497 127.928 483.139 127.928 476.53C127.928 469.92 122.57 464.562 115.96 464.562C109.351 464.562 103.993 469.92 103.993 476.53Z" fill="#212121"/>
<path d="M109.091 444.096C109.091 447.89 112.167 450.966 115.961 450.966C119.754 450.966 122.83 447.89 122.83 444.096C122.83 440.302 119.754 437.227 115.961 437.227C112.167 437.227 109.091 440.302 109.091 444.096Z" fill="#212121"/>
<path d="M110.557 411.551C110.557 414.535 112.976 416.954 115.96 416.954C118.943 416.954 121.362 414.535 121.362 411.551C121.362 408.567 118.943 406.148 115.96 406.148C112.976 406.148 110.557 408.567 110.557 411.551Z" fill="#212121"/>
<path d="M85.4828 411.552C85.4828 414.134 87.5766 416.228 90.1594 416.228C92.7422 416.228 94.8359 414.134 94.8359 411.552C94.8359 408.969 92.7422 406.875 90.1594 406.875C87.5766 406.875 85.4828 408.969 85.4828 411.552Z" fill="#212121"/>
<path d="M84.0735 379.031C84.0735 382.391 86.798 385.116 90.1588 385.116C93.5196 385.116 96.2441 382.391 96.2441 379.031C96.2441 375.67 93.5196 372.945 90.1588 372.945C86.798 372.945 84.0735 375.67 84.0735 379.031Z" fill="#212121"/>
<path d="M109.678 379.031C109.678 382.501 112.491 385.313 115.96 385.313C119.429 385.313 122.241 382.501 122.241 379.031C122.241 375.562 119.429 372.75 115.96 372.75C112.491 372.75 109.678 375.562 109.678 379.031Z" fill="#212121"/>
<path d="M108.262 346.627C108.262 350.878 111.709 354.325 115.96 354.325C120.211 354.325 123.657 350.878 123.657 346.627C123.657 342.376 120.211 338.93 115.96 338.93C111.709 338.93 108.262 342.376 108.262 346.627Z" fill="#212121"/>
<path d="M82.9052 346.629C82.9052 350.636 86.1531 353.884 90.1596 353.884C94.1661 353.884 97.4141 350.636 97.4141 346.629C97.4141 342.623 94.1661 339.375 90.1596 339.375C86.1531 339.375 82.9052 342.623 82.9052 346.629Z" fill="#212121"/>
<path d="M85.7219 314.093C85.7219 316.544 87.7083 318.53 90.1588 318.53C92.6092 318.53 94.5957 316.544 94.5957 314.093C94.5957 311.643 92.6092 309.656 90.1588 309.656C87.7083 309.656 85.7219 311.643 85.7219 314.093Z" fill="#212121"/>
<path d="M108.908 314.098C108.908 317.992 112.065 321.149 115.96 321.149C119.854 321.149 123.011 317.992 123.011 314.098C123.011 310.204 119.854 307.047 115.96 307.047C112.065 307.047 108.908 310.204 108.908 314.098Z" fill="#212121"/>
<path d="M139.299 314.155C139.299 315.471 140.365 316.537 141.681 316.537C142.996 316.537 144.062 315.471 144.062 314.155C144.062 312.84 142.996 311.773 141.681 311.773C140.365 311.773 139.299 312.84 139.299 314.155Z" fill="#212121"/>
<path d="M81.3287 444.096C81.3287 448.973 85.2822 452.926 90.159 452.926C95.0358 452.926 98.9893 448.973 98.9893 444.096C98.9893 439.219 95.0358 435.266 90.159 435.266C85.2822 435.266 81.3287 439.219 81.3287 444.096Z" fill="#212121"/>
</g>
<path d="M442.161 281.52C442.161 286.778 446.423 291.04 451.681 291.04C456.939 291.04 461.201 286.778 461.201 281.52C461.201 276.262 456.939 272 451.681 272C446.423 272 442.161 276.262 442.161 281.52Z" fill="#212121"/>
<path d="M422.213 281.731C422.213 283.801 423.891 285.478 425.96 285.478C428.029 285.478 429.707 283.801 429.707 281.731C429.707 279.662 428.029 277.984 425.96 277.984C423.891 277.984 422.213 279.662 422.213 281.731Z" fill="#212121"/>
<path d="M441.674 346.632C441.674 352.158 446.154 356.638 451.681 356.638C457.207 356.638 461.687 352.158 461.687 346.632C461.687 341.105 457.207 336.625 451.681 336.625C446.154 336.625 441.674 341.105 441.674 346.632Z" fill="#212121"/>
<path d="M442.292 379.233C442.292 384.419 446.495 388.623 451.681 388.623C456.867 388.623 461.07 384.419 461.07 379.233C461.07 374.048 456.867 369.844 451.681 369.844C446.495 369.844 442.292 374.048 442.292 379.233Z" fill="#212121"/>
<path d="M441.362 411.663C441.362 417.362 445.982 421.982 451.681 421.982C457.38 421.982 462 417.362 462 411.663C462 405.964 457.38 401.344 451.681 401.344C445.982 401.344 441.362 405.964 441.362 411.663Z" fill="#212121"/>
<path d="M445.48 444.053C445.48 447.478 448.256 450.255 451.681 450.255C455.106 450.255 457.883 447.478 457.883 444.053C457.883 440.628 455.106 437.852 451.681 437.852C448.256 437.852 445.48 440.628 445.48 444.053Z" fill="#212121"/>
<path d="M443.424 476.624C443.424 481.184 447.121 484.88 451.681 484.88C456.241 484.88 459.937 481.184 459.937 476.624C459.937 472.064 456.241 468.367 451.681 468.367C447.121 468.367 443.424 472.064 443.424 476.624Z" fill="#212121"/>
<path d="M446.351 508.9C446.351 511.844 448.737 514.231 451.681 514.231C454.624 514.231 457.011 511.844 457.011 508.9C457.011 505.957 454.624 503.57 451.681 503.57C448.737 503.57 446.351 505.957 446.351 508.9Z" fill="#212121"/>
<path d="M446.489 541.466C446.489 544.333 448.813 546.658 451.681 546.658C454.548 546.658 456.873 544.333 456.873 541.466C456.873 538.598 454.548 536.273 451.681 536.273C448.813 536.273 446.489 538.598 446.489 541.466Z" fill="#212121"/>
<path d="M398.148 541.316C398.148 542.427 399.048 543.328 400.159 543.328C401.27 543.328 402.171 542.427 402.171 541.316C402.171 540.205 401.27 539.305 400.159 539.305C399.048 539.305 398.148 540.205 398.148 541.316Z" fill="#212121"/>
<path d="M419.185 541.517C419.185 545.259 422.218 548.293 425.96 548.293C429.702 548.293 432.735 545.259 432.735 541.517C432.735 537.776 429.702 534.742 425.96 534.742C422.218 534.742 419.185 537.776 419.185 541.517Z" fill="#212121"/>
<path d="M424.116 508.868C424.116 509.887 424.942 510.712 425.96 510.712C426.979 510.712 427.805 509.887 427.805 508.868C427.805 507.849 426.979 507.023 425.96 507.023C424.942 507.023 424.116 507.849 424.116 508.868Z" fill="#212121"/>
<path d="M393.674 508.868C393.674 512.449 396.577 515.352 400.159 515.352C403.74 515.352 406.644 512.449 406.644 508.868C406.644 505.286 403.74 502.383 400.159 502.383C396.577 502.383 393.674 505.286 393.674 508.868Z" fill="#212121"/>
<path d="M390.406 476.534C390.406 481.92 394.772 486.286 400.159 486.286C405.545 486.286 409.911 481.92 409.911 476.534C409.911 471.148 405.545 466.781 400.159 466.781C394.772 466.781 390.406 471.148 390.406 476.534Z" fill="#212121"/>
<path d="M413.993 476.53C413.993 483.139 419.351 488.497 425.96 488.497C432.57 488.497 437.928 483.139 437.928 476.53C437.928 469.92 432.57 464.562 425.96 464.562C419.351 464.562 413.993 469.92 413.993 476.53Z" fill="#212121"/>
<path d="M419.091 444.096C419.091 447.89 422.167 450.966 425.961 450.966C429.754 450.966 432.83 447.89 432.83 444.096C432.83 440.302 429.754 437.227 425.961 437.227C422.167 437.227 419.091 440.302 419.091 444.096Z" fill="#212121"/>
<path d="M420.557 411.551C420.557 414.535 422.976 416.954 425.96 416.954C428.943 416.954 431.362 414.535 431.362 411.551C431.362 408.567 428.943 406.148 425.96 406.148C422.976 406.148 420.557 408.567 420.557 411.551Z" fill="#212121"/>
<path d="M395.483 411.552C395.483 414.134 397.577 416.228 400.159 416.228C402.742 416.228 404.836 414.134 404.836 411.552C404.836 408.969 402.742 406.875 400.159 406.875C397.577 406.875 395.483 408.969 395.483 411.552Z" fill="#212121"/>
<path d="M394.073 379.031C394.073 382.391 396.798 385.116 400.159 385.116C403.52 385.116 406.244 382.391 406.244 379.031C406.244 375.67 403.52 372.945 400.159 372.945C396.798 372.945 394.073 375.67 394.073 379.031Z" fill="#212121"/>
<path d="M419.678 379.031C419.678 382.501 422.491 385.313 425.96 385.313C429.429 385.313 432.241 382.501 432.241 379.031C432.241 375.562 429.429 372.75 425.96 372.75C422.491 372.75 419.678 375.562 419.678 379.031Z" fill="#212121"/>
<path d="M418.262 346.627C418.262 350.878 421.709 354.325 425.96 354.325C430.211 354.325 433.657 350.878 433.657 346.627C433.657 342.376 430.211 338.93 425.96 338.93C421.709 338.93 418.262 342.376 418.262 346.627Z" fill="#212121"/>
<path d="M392.905 346.629C392.905 350.636 396.153 353.884 400.16 353.884C404.166 353.884 407.414 350.636 407.414 346.629C407.414 342.623 404.166 339.375 400.16 339.375C396.153 339.375 392.905 342.623 392.905 346.629Z" fill="#212121"/>
<path d="M395.722 314.093C395.722 316.544 397.708 318.53 400.159 318.53C402.609 318.53 404.596 316.544 404.596 314.093C404.596 311.643 402.609 309.656 400.159 309.656C397.708 309.656 395.722 311.643 395.722 314.093Z" fill="#212121"/>
<path d="M418.908 314.098C418.908 317.992 422.065 321.149 425.96 321.149C429.854 321.149 433.011 317.992 433.011 314.098C433.011 310.204 429.854 307.047 425.96 307.047C422.065 307.047 418.908 310.204 418.908 314.098Z" fill="#212121"/>
<path d="M449.299 314.155C449.299 315.471 450.365 316.537 451.681 316.537C452.996 316.537 454.062 315.471 454.062 314.155C454.062 312.84 452.996 311.773 451.681 311.773C450.365 311.773 449.299 312.84 449.299 314.155Z" fill="#212121"/>
<path d="M391.329 444.096C391.329 448.973 395.282 452.926 400.159 452.926C405.036 452.926 408.989 448.973 408.989 444.096C408.989 439.219 405.036 435.266 400.159 435.266C395.282 435.266 391.329 439.219 391.329 444.096Z" fill="#212121"/>
<g clip-path="url(#clip3_3142_85634)">
<path d="M254.708 379.233C254.708 384.419 250.505 388.623 245.319 388.623C240.133 388.623 235.93 384.419 235.93 379.233C235.93 374.048 240.133 369.844 245.319 369.844C250.505 369.844 254.708 374.048 254.708 379.233Z" fill="#212121"/>
<path d="M255.638 411.663C255.638 417.362 251.018 421.982 245.319 421.982C239.62 421.982 235 417.362 235 411.663C235 405.964 239.62 401.344 245.319 401.344C251.018 401.344 255.638 405.964 255.638 411.663Z" fill="#212121"/>
<path d="M251.52 444.053C251.52 447.478 248.744 450.255 245.319 450.255C241.894 450.255 239.117 447.478 239.117 444.053C239.117 440.628 241.894 437.852 245.319 437.852C248.744 437.852 251.52 440.628 251.52 444.053Z" fill="#212121"/>
<path d="M253.576 476.624C253.576 481.184 249.879 484.88 245.319 484.88C240.759 484.88 237.063 481.184 237.063 476.624C237.063 472.064 240.759 468.367 245.319 468.367C249.879 468.367 253.576 472.064 253.576 476.624Z" fill="#212121"/>
<path d="M250.649 508.9C250.649 511.844 248.263 514.231 245.319 514.231C242.376 514.231 239.989 511.844 239.989 508.9C239.989 505.957 242.376 503.57 245.319 503.57C248.263 503.57 250.649 505.957 250.649 508.9Z" fill="#212121"/>
<path d="M250.511 541.466C250.511 544.333 248.187 546.658 245.319 546.658C242.452 546.658 240.127 544.333 240.127 541.466C240.127 538.598 242.452 536.273 245.319 536.273C248.187 536.273 250.511 538.598 250.511 541.466Z" fill="#212121"/>
<path d="M298.852 541.316C298.852 542.427 297.952 543.328 296.841 543.328C295.73 543.328 294.829 542.427 294.829 541.316C294.829 540.205 295.73 539.305 296.841 539.305C297.952 539.305 298.852 540.205 298.852 541.316Z" fill="#212121"/>
<path d="M277.815 541.517C277.815 545.259 274.782 548.293 271.04 548.293C267.298 548.293 264.265 545.259 264.265 541.517C264.265 537.776 267.298 534.742 271.04 534.742C274.782 534.742 277.815 537.776 277.815 541.517Z" fill="#212121"/>
<path d="M272.884 508.868C272.884 509.887 272.058 510.712 271.04 510.712C270.021 510.712 269.195 509.887 269.195 508.868C269.195 507.849 270.021 507.023 271.04 507.023C272.058 507.023 272.884 507.849 272.884 508.868Z" fill="#212121"/>
<path d="M303.326 508.868C303.326 512.449 300.423 515.352 296.841 515.352C293.26 515.352 290.356 512.449 290.356 508.868C290.356 505.286 293.26 502.383 296.841 502.383C300.423 502.383 303.326 505.286 303.326 508.868Z" fill="#212121"/>
<path d="M306.594 476.534C306.594 481.92 302.228 486.286 296.841 486.286C291.455 486.286 287.089 481.92 287.089 476.534C287.089 471.148 291.455 466.781 296.841 466.781C302.228 466.781 306.594 471.148 306.594 476.534Z" fill="#212121"/>
<path d="M283.007 476.53C283.007 483.139 277.649 488.497 271.04 488.497C264.43 488.497 259.072 483.139 259.072 476.53C259.072 469.92 264.43 464.562 271.04 464.562C277.649 464.562 283.007 469.92 283.007 476.53Z" fill="#212121"/>
<path d="M277.909 444.096C277.909 447.89 274.833 450.966 271.039 450.966C267.246 450.966 264.17 447.89 264.17 444.096C264.17 440.302 267.246 437.227 271.039 437.227C274.833 437.227 277.909 440.302 277.909 444.096Z" fill="#212121"/>
<path d="M276.443 411.551C276.443 414.535 274.024 416.954 271.04 416.954C268.057 416.954 265.638 414.535 265.638 411.551C265.638 408.567 268.057 406.148 271.04 406.148C274.024 406.148 276.443 408.567 276.443 411.551Z" fill="#212121"/>
<path d="M301.517 411.552C301.517 414.134 299.423 416.228 296.841 416.228C294.258 416.228 292.164 414.134 292.164 411.552C292.164 408.969 294.258 406.875 296.841 406.875C299.423 406.875 301.517 408.969 301.517 411.552Z" fill="#212121"/>
<path d="M302.927 379.031C302.927 382.391 300.202 385.116 296.841 385.116C293.48 385.116 290.756 382.391 290.756 379.031C290.756 375.67 293.48 372.945 296.841 372.945C300.202 372.945 302.927 375.67 302.927 379.031Z" fill="#212121"/>
<path d="M277.322 379.031C277.322 382.501 274.509 385.313 271.04 385.313C267.571 385.313 264.759 382.501 264.759 379.031C264.759 375.562 267.571 372.75 271.04 372.75C274.509 372.75 277.322 375.562 277.322 379.031Z" fill="#212121"/>
<path d="M305.671 444.096C305.671 448.973 301.718 452.926 296.841 452.926C291.964 452.926 288.011 448.973 288.011 444.096C288.011 439.219 291.964 435.266 296.841 435.266C301.718 435.266 305.671 439.219 305.671 444.096Z" fill="#212121"/>
</g>
<path d="M563.839 281.512C563.839 286.77 559.577 291.032 554.319 291.032C549.061 291.032 544.799 286.77 544.799 281.512C544.799 276.254 549.061 271.992 554.319 271.992C559.577 271.992 563.839 276.254 563.839 281.512Z" fill="#212121"/>
<path d="M564.326 346.624C564.326 352.15 559.846 356.63 554.319 356.63C548.793 356.63 544.312 352.15 544.312 346.624C544.312 341.097 548.793 336.617 554.319 336.617C559.846 336.617 564.326 341.097 564.326 346.624Z" fill="#212121"/>
<path d="M563.708 379.225C563.708 384.411 559.505 388.615 554.319 388.615C549.133 388.615 544.93 384.411 544.93 379.225C544.93 374.04 549.133 369.836 554.319 369.836C559.505 369.836 563.708 374.04 563.708 379.225Z" fill="#212121"/>
<path d="M564.638 411.655C564.638 417.354 560.018 421.974 554.319 421.974C548.62 421.974 544 417.354 544 411.655C544 405.956 548.62 401.336 554.319 401.336C560.018 401.336 564.638 405.956 564.638 411.655Z" fill="#212121"/>
<path d="M560.52 444.045C560.52 447.47 557.744 450.247 554.319 450.247C550.894 450.247 548.117 447.47 548.117 444.045C548.117 440.62 550.894 437.844 554.319 437.844C557.744 437.844 560.52 440.62 560.52 444.045Z" fill="#212121"/>
<path d="M562.576 476.616C562.576 481.176 558.879 484.873 554.319 484.873C549.759 484.873 546.062 481.176 546.062 476.616C546.062 472.056 549.759 468.359 554.319 468.359C558.879 468.359 562.576 472.056 562.576 476.616Z" fill="#212121"/>
<path d="M559.649 508.893C559.649 511.836 557.263 514.223 554.319 514.223C551.376 514.223 548.989 511.836 548.989 508.893C548.989 505.949 551.376 503.563 554.319 503.563C557.263 503.563 559.649 505.949 559.649 508.893Z" fill="#212121"/>
<path d="M559.511 541.458C559.511 544.325 557.187 546.65 554.319 546.65C551.452 546.65 549.127 544.325 549.127 541.458C549.127 538.59 551.452 536.266 554.319 536.266C557.187 536.266 559.511 538.59 559.511 541.458Z" fill="#212121"/>
<path d="M556.701 314.147C556.701 315.463 555.635 316.529 554.319 316.529C553.004 316.529 551.937 315.463 551.937 314.147C551.937 312.832 553.004 311.766 554.319 311.766C555.635 311.766 556.701 312.832 556.701 314.147Z" fill="#212121"/>
<path d="M518.161 281.512C518.161 286.77 522.423 291.032 527.681 291.032C532.939 291.032 537.201 286.77 537.201 281.512C537.201 276.254 532.939 271.992 527.681 271.992C522.423 271.992 518.161 276.254 518.161 281.512Z" fill="#212121"/>
<path d="M498.213 281.724C498.213 283.793 499.891 285.471 501.96 285.471C504.029 285.471 505.707 283.793 505.707 281.724C505.707 279.654 504.029 277.977 501.96 277.977C499.891 277.977 498.213 279.654 498.213 281.724Z" fill="#212121"/>
<path d="M517.674 346.624C517.674 352.15 522.154 356.63 527.681 356.63C533.207 356.63 537.687 352.15 537.687 346.624C537.687 341.097 533.207 336.617 527.681 336.617C522.154 336.617 517.674 341.097 517.674 346.624Z" fill="#212121"/>
<path d="M518.292 379.225C518.292 384.411 522.495 388.615 527.681 388.615C532.867 388.615 537.07 384.411 537.07 379.225C537.07 374.04 532.867 369.836 527.681 369.836C522.495 369.836 518.292 374.04 518.292 379.225Z" fill="#212121"/>
<path d="M517.362 411.655C517.362 417.354 521.982 421.974 527.681 421.974C533.38 421.974 538 417.354 538 411.655C538 405.956 533.38 401.336 527.681 401.336C521.982 401.336 517.362 405.956 517.362 411.655Z" fill="#212121"/>
<path d="M521.48 444.045C521.48 447.47 524.256 450.247 527.681 450.247C531.106 450.247 533.883 447.47 533.883 444.045C533.883 440.62 531.106 437.844 527.681 437.844C524.256 437.844 521.48 440.62 521.48 444.045Z" fill="#212121"/>
<path d="M519.424 476.616C519.424 481.176 523.121 484.873 527.681 484.873C532.241 484.873 535.937 481.176 535.937 476.616C535.937 472.056 532.241 468.359 527.681 468.359C523.121 468.359 519.424 472.056 519.424 476.616Z" fill="#212121"/>
<path d="M522.351 508.893C522.351 511.836 524.737 514.223 527.681 514.223C530.624 514.223 533.011 511.836 533.011 508.893C533.011 505.949 530.624 503.562 527.681 503.562C524.737 503.562 522.351 505.949 522.351 508.893Z" fill="#212121"/>
<path d="M522.489 541.458C522.489 544.325 524.813 546.65 527.681 546.65C530.548 546.65 532.873 544.325 532.873 541.458C532.873 538.59 530.548 536.266 527.681 536.266C524.813 536.266 522.489 538.59 522.489 541.458Z" fill="#212121"/>
<path d="M474.148 541.308C474.148 542.419 475.048 543.32 476.159 543.32C477.27 543.32 478.171 542.419 478.171 541.308C478.171 540.197 477.27 539.297 476.159 539.297C475.048 539.297 474.148 540.197 474.148 541.308Z" fill="#212121"/>
<path d="M495.185 541.51C495.185 545.251 498.218 548.285 501.96 548.285C505.702 548.285 508.735 545.251 508.735 541.51C508.735 537.768 505.702 534.734 501.96 534.734C498.218 534.734 495.185 537.768 495.185 541.51Z" fill="#212121"/>
<path d="M500.116 508.86C500.116 509.879 500.942 510.705 501.96 510.705C502.979 510.705 503.805 509.879 503.805 508.86C503.805 507.841 502.979 507.016 501.96 507.016C500.942 507.016 500.116 507.841 500.116 508.86Z" fill="#212121"/>
<path d="M469.674 508.86C469.674 512.441 472.577 515.344 476.159 515.344C479.74 515.344 482.644 512.441 482.644 508.86C482.644 505.278 479.74 502.375 476.159 502.375C472.577 502.375 469.674 505.278 469.674 508.86Z" fill="#212121"/>
<path d="M466.406 476.526C466.406 481.912 470.772 486.278 476.159 486.278C481.545 486.278 485.911 481.912 485.911 476.526C485.911 471.14 481.545 466.773 476.159 466.773C470.772 466.773 466.406 471.14 466.406 476.526Z" fill="#212121"/>
<path d="M489.993 476.522C489.993 483.131 495.351 488.489 501.96 488.489C508.57 488.489 513.928 483.131 513.928 476.522C513.928 469.913 508.57 464.555 501.96 464.555C495.351 464.555 489.993 469.913 489.993 476.522Z" fill="#212121"/>
<path d="M495.091 444.088C495.091 447.882 498.167 450.958 501.961 450.958C505.754 450.958 508.83 447.882 508.83 444.088C508.83 440.294 505.754 437.219 501.961 437.219C498.167 437.219 495.091 440.294 495.091 444.088Z" fill="#212121"/>
<path d="M496.557 411.543C496.557 414.527 498.976 416.946 501.96 416.946C504.943 416.946 507.362 414.527 507.362 411.543C507.362 408.56 504.943 406.141 501.96 406.141C498.976 406.141 496.557 408.56 496.557 411.543Z" fill="#212121"/>
<path d="M471.483 411.544C471.483 414.127 473.577 416.22 476.159 416.22C478.742 416.22 480.836 414.127 480.836 411.544C480.836 408.961 478.742 406.867 476.159 406.867C473.577 406.867 471.483 408.961 471.483 411.544Z" fill="#212121"/>
<path d="M470.073 379.023C470.073 382.384 472.798 385.108 476.159 385.108C479.52 385.108 482.244 382.384 482.244 379.023C482.244 375.662 479.52 372.937 476.159 372.937C472.798 372.937 470.073 375.662 470.073 379.023Z" fill="#212121"/>
<path d="M495.678 379.024C495.678 382.493 498.491 385.305 501.96 385.305C505.429 385.305 508.241 382.493 508.241 379.024C508.241 375.554 505.429 372.742 501.96 372.742C498.491 372.742 495.678 375.554 495.678 379.024Z" fill="#212121"/>
<path d="M494.262 346.619C494.262 350.87 497.709 354.317 501.96 354.317C506.211 354.317 509.657 350.87 509.657 346.619C509.657 342.368 506.211 338.922 501.96 338.922C497.709 338.922 494.262 342.368 494.262 346.619Z" fill="#212121"/>
<path d="M468.905 346.622C468.905 350.628 472.153 353.876 476.16 353.876C480.166 353.876 483.414 350.628 483.414 346.622C483.414 342.615 480.166 339.367 476.16 339.367C472.153 339.367 468.905 342.615 468.905 346.622Z" fill="#212121"/>
<path d="M471.722 314.085C471.722 316.536 473.708 318.522 476.159 318.522C478.609 318.522 480.596 316.536 480.596 314.085C480.596 311.635 478.609 309.648 476.159 309.648C473.708 309.648 471.722 311.635 471.722 314.085Z" fill="#212121"/>
<path d="M494.908 314.09C494.908 317.984 498.065 321.141 501.96 321.141C505.854 321.141 509.011 317.984 509.011 314.09C509.011 310.196 505.854 307.039 501.96 307.039C498.065 307.039 494.908 310.196 494.908 314.09Z" fill="#212121"/>
<path d="M525.299 314.147C525.299 315.463 526.365 316.529 527.681 316.529C528.996 316.529 530.062 315.463 530.062 314.147C530.062 312.832 528.996 311.766 527.681 311.766C526.365 311.766 525.299 312.832 525.299 314.147Z" fill="#212121"/>
<path d="M467.329 444.088C467.329 448.965 471.282 452.918 476.159 452.918C481.036 452.918 484.989 448.965 484.989 444.088C484.989 439.211 481.036 435.258 476.159 435.258C471.282 435.258 467.329 439.211 467.329 444.088Z" fill="#212121"/>
<path d="M563.839 248.777C563.839 243.519 559.577 239.257 554.319 239.257C549.061 239.257 544.799 243.519 544.799 248.777C544.799 254.035 549.061 258.297 554.319 258.297C559.577 258.297 563.839 254.035 563.839 248.777Z" fill="#212121"/>
<path d="M564.326 183.665C564.326 178.139 559.846 173.659 554.319 173.659C548.793 173.659 544.313 178.139 544.313 183.665C544.313 189.192 548.793 193.672 554.319 193.672C559.846 193.672 564.326 189.192 564.326 183.665Z" fill="#212121"/>
<path d="M563.708 151.064C563.708 145.878 559.505 141.674 554.319 141.674C549.133 141.674 544.93 145.878 544.93 151.064C544.93 156.249 549.133 160.453 554.319 160.453C559.505 160.453 563.708 156.249 563.708 151.064Z" fill="#212121"/>
<path d="M564.638 118.634C564.638 112.935 560.018 108.315 554.319 108.315C548.62 108.315 544 112.935 544 118.634C544 124.333 548.62 128.953 554.319 128.953C560.018 128.953 564.638 124.333 564.638 118.634Z" fill="#212121"/>
<path d="M560.52 86.2438C560.52 82.8188 557.744 80.0423 554.319 80.0423C550.894 80.0423 548.117 82.8188 548.117 86.2438C548.117 89.6688 550.894 92.4453 554.319 92.4453C557.744 92.4453 560.52 89.6688 560.52 86.2438Z" fill="#212121"/>
<path d="M562.576 53.6731C562.576 49.1131 558.879 45.4165 554.319 45.4165C549.759 45.4165 546.063 49.1131 546.063 53.6731C546.063 58.2331 549.759 61.9297 554.319 61.9297C558.879 61.9297 562.576 58.2331 562.576 53.6731Z" fill="#212121"/>
<path d="M559.649 21.3965C559.649 18.4527 557.263 16.0663 554.319 16.0663C551.376 16.0663 548.989 18.4527 548.989 21.3965C548.989 24.3402 551.376 26.7266 554.319 26.7266C557.263 26.7266 559.649 24.3402 559.649 21.3965Z" fill="#212121"/>
<path d="M556.701 216.142C556.701 214.826 555.635 213.76 554.319 213.76C553.004 213.76 551.938 214.826 551.938 216.142C551.938 217.457 553.004 218.523 554.319 218.523C555.635 218.523 556.701 217.457 556.701 216.142Z" fill="#212121"/>
<path d="M483.839 345.777C483.839 340.519 479.577 336.257 474.319 336.257C469.061 336.257 464.799 340.519 464.799 345.777C464.799 351.035 469.061 355.297 474.319 355.297C479.577 355.297 483.839 351.035 483.839 345.777Z" fill="#212121"/>
<path d="M503.787 345.565C503.787 343.496 502.109 341.818 500.04 341.818C497.971 341.818 496.293 343.496 496.293 345.565C496.293 347.635 497.971 349.313 500.04 349.313C502.109 349.313 503.787 347.635 503.787 345.565Z" fill="#212121"/>
<path d="M484.326 280.665C484.326 275.139 479.846 270.659 474.319 270.659C468.793 270.659 464.313 275.139 464.313 280.665C464.313 286.192 468.793 290.672 474.319 290.672C479.846 290.672 484.326 286.192 484.326 280.665Z" fill="#212121"/>
<path d="M483.708 248.064C483.708 242.878 479.505 238.674 474.319 238.674C469.133 238.674 464.93 242.878 464.93 248.064C464.93 253.249 469.133 257.453 474.319 257.453C479.505 257.453 483.708 253.249 483.708 248.064Z" fill="#212121"/>
<path d="M484.638 215.634C484.638 209.935 480.018 205.315 474.319 205.315C468.62 205.315 464 209.935 464 215.634C464 221.333 468.62 225.953 474.319 225.953C480.018 225.953 484.638 221.333 484.638 215.634Z" fill="#212121"/>
<path d="M480.52 183.244C480.52 179.819 477.744 177.042 474.319 177.042C470.894 177.042 468.117 179.819 468.117 183.244C468.117 186.669 470.894 189.445 474.319 189.445C477.744 189.445 480.52 186.669 480.52 183.244Z" fill="#212121"/>
<path d="M482.576 150.673C482.576 146.113 478.879 142.417 474.319 142.417C469.759 142.417 466.063 146.113 466.063 150.673C466.063 155.233 469.759 158.93 474.319 158.93C478.879 158.93 482.576 155.233 482.576 150.673Z" fill="#212121"/>
<path d="M479.649 118.396C479.649 115.453 477.263 113.066 474.319 113.066C471.376 113.066 468.989 115.453 468.989 118.396C468.989 121.34 471.376 123.727 474.319 123.727C477.263 123.727 479.649 121.34 479.649 118.396Z" fill="#212121"/>
<path d="M479.511 85.8313C479.511 82.9638 477.187 80.6392 474.319 80.6392C471.452 80.6392 469.127 82.9638 469.127 85.8313C469.127 88.6988 471.452 91.0234 474.319 91.0234C477.187 91.0234 479.511 88.6988 479.511 85.8313Z" fill="#212121"/>
<path d="M482.924 53.3558C482.924 48.6033 479.072 44.7507 474.319 44.7507C469.567 44.7507 465.714 48.6033 465.714 53.3558C465.714 58.1083 469.567 61.9609 474.319 61.9609C479.072 61.9609 482.924 58.1083 482.924 53.3558Z" fill="#212121"/>
<path d="M482.365 20.7353C482.365 16.2916 478.763 12.6893 474.319 12.6893C469.876 12.6893 466.273 16.2916 466.273 20.7353C466.273 25.1789 469.876 28.7813 474.319 28.7813C478.763 28.7813 482.365 25.179 482.365 20.7353Z" fill="#212121"/>
<path d="M505.435 20.9561C505.435 17.9763 503.02 15.5606 500.04 15.5606C497.06 15.5606 494.645 17.9763 494.645 20.9561C494.645 23.9359 497.06 26.3516 500.04 26.3516C503.02 26.3516 505.435 23.9359 505.435 20.9561Z" fill="#212121"/>
<path d="M509.887 53.3562C509.887 47.9179 505.479 43.5093 500.04 43.5093C494.602 43.5093 490.193 47.9179 490.193 53.3562C490.193 58.7945 494.602 63.2031 500.04 63.2031C505.479 63.2031 509.887 58.7945 509.887 53.3562Z" fill="#212121"/>
<path d="M529.69 53.3544C529.69 51.2288 527.967 49.5057 525.841 49.5057C523.715 49.5057 521.992 51.2288 521.992 53.3544C521.992 55.48 523.715 57.2031 525.841 57.2031C527.967 57.2031 529.69 55.48 529.69 53.3544Z" fill="#212121"/>
<path d="M527.852 85.9807C527.852 84.8698 526.952 83.9692 525.841 83.9692C524.73 83.9692 523.829 84.8698 523.829 85.9807C523.829 87.0916 524.73 87.9922 525.841 87.9922C526.952 87.9922 527.852 87.0916 527.852 85.9807Z" fill="#212121"/>
<path d="M506.815 85.7795C506.815 82.0377 503.782 79.0043 500.04 79.0043C496.298 79.0043 493.265 82.0377 493.265 85.7795C493.265 89.5213 496.298 92.5547 500.04 92.5547C503.782 92.5547 506.815 89.5213 506.815 85.7795Z" fill="#212121"/>
<path d="M501.884 118.429C501.884 117.41 501.058 116.584 500.04 116.584C499.021 116.584 498.195 117.41 498.195 118.429C498.195 119.448 499.021 120.273 500.04 120.273C501.058 120.273 501.884 119.448 501.884 118.429Z" fill="#212121"/>
<path d="M532.326 118.429C532.326 114.848 529.423 111.945 525.841 111.945C522.26 111.945 519.356 114.848 519.356 118.429C519.356 122.011 522.26 124.914 525.841 124.914C529.423 124.914 532.326 122.011 532.326 118.429Z" fill="#212121"/>
<path d="M535.594 150.763C535.594 145.377 531.228 141.011 525.841 141.011C520.455 141.011 516.089 145.377 516.089 150.763C516.089 156.149 520.455 160.516 525.841 160.516C531.228 160.516 535.594 156.149 535.594 150.763Z" fill="#212121"/>
<path d="M512.007 150.767C512.007 144.158 506.649 138.8 500.04 138.8C493.43 138.8 488.072 144.158 488.072 150.767C488.072 157.376 493.43 162.734 500.04 162.734C506.649 162.734 512.007 157.376 512.007 150.767Z" fill="#212121"/>
<path d="M506.909 183.201C506.909 179.407 503.833 176.331 500.039 176.331C496.246 176.331 493.17 179.407 493.17 183.201C493.17 186.995 496.246 190.07 500.039 190.07C503.833 190.07 506.909 186.995 506.909 183.201Z" fill="#212121"/>
<path d="M505.443 215.746C505.443 212.762 503.024 210.343 500.04 210.343C497.057 210.343 494.638 212.762 494.638 215.746C494.638 218.73 497.057 221.148 500.04 221.148C503.024 221.148 505.443 218.73 505.443 215.746Z" fill="#212121"/>
<path d="M530.517 215.745C530.517 213.163 528.423 211.069 525.841 211.069C523.258 211.069 521.164 213.163 521.164 215.745C521.164 218.328 523.258 220.422 525.841 220.422C528.423 220.422 530.517 218.328 530.517 215.745Z" fill="#212121"/>
<path d="M531.927 248.266C531.927 244.905 529.202 242.181 525.841 242.181C522.48 242.181 519.756 244.905 519.756 248.266C519.756 251.627 522.48 254.352 525.841 254.352C529.202 254.352 531.927 251.627 531.927 248.266Z" fill="#212121"/>
<path d="M506.322 248.265C506.322 244.796 503.509 241.984 500.04 241.984C496.571 241.984 493.759 244.796 493.759 248.265C493.759 251.735 496.571 254.547 500.04 254.547C503.509 254.547 506.322 251.735 506.322 248.265Z" fill="#212121"/>
<path d="M507.738 280.67C507.738 276.419 504.291 272.972 500.04 272.972C495.789 272.972 492.343 276.419 492.343 280.67C492.343 284.921 495.789 288.367 500.04 288.367C504.291 288.367 507.738 284.921 507.738 280.67Z" fill="#212121"/>
<path d="M533.095 280.667C533.095 276.661 529.847 273.413 525.84 273.413C521.834 273.413 518.586 276.661 518.586 280.667C518.586 284.674 521.834 287.922 525.84 287.922C529.847 287.922 533.095 284.674 533.095 280.667Z" fill="#212121"/>
<path d="M530.278 313.204C530.278 310.753 528.292 308.767 525.841 308.767C523.391 308.767 521.404 310.753 521.404 313.204C521.404 315.654 523.391 317.641 525.841 317.641C528.292 317.641 530.278 315.654 530.278 313.204Z" fill="#212121"/>
<path d="M507.092 313.199C507.092 309.305 503.935 306.148 500.04 306.148C496.146 306.148 492.989 309.305 492.989 313.199C492.989 317.093 496.146 320.25 500.04 320.25C503.935 320.25 507.092 317.093 507.092 313.199Z" fill="#212121"/>
<path d="M476.701 313.142C476.701 311.826 475.635 310.76 474.319 310.76C473.004 310.76 471.938 311.826 471.938 313.142C471.938 314.457 473.004 315.523 474.319 315.523C475.635 315.523 476.701 314.457 476.701 313.142Z" fill="#212121"/>
<path d="M534.671 183.201C534.671 178.324 530.718 174.371 525.841 174.371C520.964 174.371 517.011 178.324 517.011 183.201C517.011 188.078 520.964 192.031 525.841 192.031C530.718 192.031 534.671 188.078 534.671 183.201Z" fill="#212121"/>
<path d="M536 20.8487C536 15.2379 531.452 10.6895 525.841 10.6895C520.23 10.6895 515.682 15.2379 515.682 20.8487C515.682 26.4594 520.23 31.0078 525.841 31.0078C531.452 31.0078 536 26.4594 536 20.8487Z" fill="#212121"/>
</g>
<defs>
<clipPath id="clip0_3142_85634">
<rect width="565" height="552" fill="white"/>
</clipPath>
<clipPath id="clip1_3142_85634">
<rect width="372.301" height="72" fill="white" transform="translate(227 369) rotate(90)"/>
</clipPath>
<clipPath id="clip2_3142_85634">
<rect width="72" height="342" fill="white" transform="translate(80 302)"/>
</clipPath>
<clipPath id="clip3_3142_85634">
<rect width="72" height="287" fill="white" transform="matrix(-1 0 0 1 307 357)"/>
</clipPath>
</defs>
</svg>
