<svg width="18" height="18" viewBox="0 0 18 18" fill="none" xmlns="http://www.w3.org/2000/svg">
<path d="M1.70711 0.292894L9 7.58579L16.2929 0.292895C16.6834 -0.0976295 17.3166 -0.0976296 17.7071 0.292895C18.0976 0.683419 18.0976 1.31658 17.7071 1.70711L10.4141 9.00008L17.7071 16.2931C18.0976 16.6836 18.0976 17.3167 17.7071 17.7073C17.3166 18.0978 16.6834 18.0978 16.2929 17.7073L9 10.4144L1.70711 17.7073C1.31658 18.0978 0.683418 18.0978 0.292893 17.7073C-0.0976311 17.3167 -0.0976311 16.6836 0.292893 16.2931L7.58587 9.00008L0.292894 1.70711C-0.0976303 1.31658 -0.0976304 0.683418 0.292894 0.292894C0.683419 -0.0976312 1.31658 -0.0976312 1.70711 0.292894Z" fill="#212121"/>
</svg>
