<svg width="24" height="24" viewBox="0 0 24 24" fill="none" xmlns="http://www.w3.org/2000/svg">
<path d="M4.70711 3.29289L12 10.5858L19.2929 3.2929C19.6834 2.90237 20.3166 2.90237 20.7071 3.2929C21.0976 3.68342 21.0976 4.31658 20.7071 4.70711L13.4141 12.0001L20.7071 19.2931C21.0976 19.6836 21.0976 20.3167 20.7071 20.7073C20.3166 21.0978 19.6834 21.0978 19.2929 20.7073L12 13.4144L4.70711 20.7073C4.31658 21.0978 3.68342 21.0978 3.29289 20.7073C2.90237 20.3167 2.90237 19.6836 3.29289 19.2931L10.5859 12.0001L3.29289 4.70711C2.90237 4.31658 2.90237 3.68342 3.29289 3.29289C3.68342 2.90237 4.31658 2.90237 4.70711 3.29289Z" fill="white"/>
</svg>
