<svg width="248" height="96" viewBox="0 0 248 96" fill="none" xmlns="http://www.w3.org/2000/svg">
    <g clip-path="url(#clip0_2774_73907)">
        <path d="M9.52012 31.8371C14.7779 31.8371 19.0402 27.5748 19.0402 22.317C19.0402 17.0592 14.7779 12.7969 9.52012 12.7969C4.2623 12.7969 0 17.0592 0 22.317C0 27.5748 4.2623 31.8371 9.52012 31.8371Z" fill="#212121"/>
        <path d="M9.73045 51.7832C11.7999 51.7832 13.4775 50.1055 13.4775 48.0361C13.4775 45.9667 11.7999 44.2891 9.73045 44.2891C7.66101 44.2891 5.9834 45.9667 5.9834 48.0361C5.9834 50.1055 7.66101 51.7832 9.73045 51.7832Z" fill="#212121"/>
        <path d="M74.6287 32.3258C80.1552 32.3258 84.6354 27.8457 84.6354 22.3192C84.6354 16.7927 80.1552 12.3125 74.6287 12.3125C69.1022 12.3125 64.6221 16.7927 64.6221 22.3192C64.6221 27.8457 69.1022 32.3258 74.6287 32.3258Z" fill="#212121"/>
        <path d="M107.234 31.7085C112.42 31.7085 116.624 27.5047 116.624 22.3191C116.624 17.1335 112.42 12.9297 107.234 12.9297C102.049 12.9297 97.8447 17.1335 97.8447 22.3191C97.8447 27.5047 102.049 31.7085 107.234 31.7085Z" fill="#212121"/>
        <path d="M139.665 32.6378C145.364 32.6378 149.984 28.0179 149.984 22.3189C149.984 16.6199 145.364 12 139.665 12C133.966 12 129.346 16.6199 129.346 22.3189C129.346 28.0179 133.966 32.6378 139.665 32.6378Z" fill="#212121"/>
        <path d="M172.052 28.5202C175.477 28.5202 178.254 25.7437 178.254 22.3187C178.254 18.8937 175.477 16.1172 172.052 16.1172C168.627 16.1172 165.851 18.8937 165.851 22.3187C165.851 25.7437 168.627 28.5202 172.052 28.5202Z" fill="#212121"/>
        <path d="M204.621 30.5756C209.181 30.5756 212.877 26.8791 212.877 22.3191C212.877 17.7591 209.181 14.0625 204.621 14.0625C200.061 14.0625 196.364 17.7591 196.364 22.3191C196.364 26.8791 200.061 30.5756 204.621 30.5756Z" fill="#212121"/>
        <path d="M236.899 27.6524C239.843 27.6524 242.23 25.266 242.23 22.3223C242.23 19.3786 239.843 16.9922 236.899 16.9922C233.956 16.9922 231.569 19.3786 231.569 22.3223C231.569 25.266 233.956 27.6524 236.899 27.6524Z" fill="#212121"/>
        <path d="M236.87 49.8843C237.889 49.8843 238.714 49.0584 238.714 48.0398C238.714 47.0211 237.889 46.1953 236.87 46.1953C235.851 46.1953 235.025 47.0211 235.025 48.0398C235.025 49.0584 235.851 49.8843 236.87 49.8843Z" fill="#212121"/>
        <path d="M236.87 80.3288C240.452 80.3288 243.355 77.4255 243.355 73.8441C243.355 70.2627 240.452 67.3594 236.87 67.3594C233.289 67.3594 230.386 70.2627 230.386 73.8441C230.386 77.4255 233.289 80.3288 236.87 80.3288Z" fill="#212121"/>
        <path d="M204.534 83.5909C209.92 83.5909 214.286 79.2246 214.286 73.8384C214.286 68.4523 209.92 64.0859 204.534 64.0859C199.148 64.0859 194.781 68.4523 194.781 73.8384C194.781 79.2246 199.148 83.5909 204.534 83.5909Z" fill="#212121"/>
        <path d="M204.534 60.0049C211.143 60.0049 216.501 54.647 216.501 48.0376C216.501 41.4282 211.143 36.0703 204.534 36.0703C197.924 36.0703 192.566 41.4282 192.566 48.0376C192.566 54.647 197.924 60.0049 204.534 60.0049Z" fill="#212121"/>
        <path d="M172.095 54.911C175.889 54.911 178.965 51.8354 178.965 48.0414C178.965 44.2475 175.889 41.1719 172.095 41.1719C168.301 41.1719 165.226 44.2475 165.226 48.0414C165.226 51.8354 168.301 54.911 172.095 54.911Z" fill="#212121"/>
        <path d="M139.548 53.4461C142.532 53.4461 144.951 51.0272 144.951 48.0433C144.951 45.0595 142.532 42.6406 139.548 42.6406C136.564 42.6406 134.146 45.0595 134.146 48.0433C134.146 51.0272 136.564 53.4461 139.548 53.4461Z" fill="#212121"/>
        <path d="M139.549 78.5172C142.131 78.5172 144.225 76.4234 144.225 73.8406C144.225 71.2578 142.131 69.1641 139.549 69.1641C136.966 69.1641 134.872 71.2578 134.872 73.8406C134.872 76.4234 136.966 78.5172 139.549 78.5172Z" fill="#212121"/>
        <path d="M107.031 79.9285C110.391 79.9285 113.116 77.204 113.116 73.8431C113.116 70.4823 110.391 67.7578 107.031 67.7578C103.67 67.7578 100.945 70.4823 100.945 73.8431C100.945 77.204 103.67 79.9285 107.031 79.9285Z" fill="#212121"/>
        <path d="M107.03 54.3206C110.5 54.3206 113.312 51.5083 113.312 48.0392C113.312 44.5701 110.5 41.7578 107.03 41.7578C103.561 41.7578 100.749 44.5701 100.749 48.0392C100.749 51.5083 103.561 54.3206 107.03 54.3206Z" fill="#212121"/>
        <path d="M74.6291 55.7386C78.8802 55.7386 82.3265 52.2923 82.3265 48.0412C82.3265 43.79 78.8802 40.3438 74.6291 40.3438C70.3779 40.3438 66.9316 43.79 66.9316 48.0412C66.9316 52.2923 70.3779 55.7386 74.6291 55.7386Z" fill="#212121"/>
        <path d="M74.6285 81.0948C78.635 81.0948 81.8829 77.8469 81.8829 73.8404C81.8829 69.8339 78.635 66.5859 74.6285 66.5859C70.622 66.5859 67.374 69.8339 67.374 73.8404C67.374 77.8469 70.622 81.0948 74.6285 81.0948Z" fill="#212121"/>
        <path d="M42.0961 78.2801C44.5465 78.2801 46.533 76.2936 46.533 73.8432C46.533 71.3928 44.5465 69.4062 42.0961 69.4062C39.6457 69.4062 37.6592 71.3928 37.6592 73.8432C37.6592 76.2936 39.6457 78.2801 42.0961 78.2801Z" fill="#212121"/>
        <path d="M42.0961 55.0944C45.9903 55.0944 49.1472 51.9375 49.1472 48.0433C49.1472 44.1491 45.9903 40.9922 42.0961 40.9922C38.2018 40.9922 35.0449 44.1491 35.0449 48.0433C35.0449 51.9375 38.2018 55.0944 42.0961 55.0944Z" fill="#212121"/>
        <path d="M42.1543 24.7012C43.4698 24.7012 44.5362 23.6348 44.5362 22.3194C44.5362 21.0039 43.4698 19.9375 42.1543 19.9375C40.8388 19.9375 39.7725 21.0039 39.7725 22.3194C39.7725 23.6348 40.8388 24.7012 42.1543 24.7012Z" fill="#212121"/>
        <path d="M172.096 82.6683C176.973 82.6683 180.926 78.7149 180.926 73.8381C180.926 68.9613 176.973 65.0078 172.096 65.0078C167.219 65.0078 163.266 68.9613 163.266 73.8381C163.266 78.7149 167.219 82.6683 172.096 82.6683Z" fill="#212121"/>
    </g>
    <defs>
        <clipPath id="clip0_2774_73907">
            <rect width="248" height="96" fill="white"/>
        </clipPath>
    </defs>
</svg>
