<svg width="24" height="24" viewBox="0 0 24 24" fill="none" xmlns="http://www.w3.org/2000/svg">
    <path fill-rule="evenodd" clip-rule="evenodd" d="M12.7076 21.1919C9.97389 23.9256 5.54174 23.9256 2.80807 21.1919C0.0743966 18.4583 0.0743969 14.0261 2.80807 11.2924L4.92939 9.17112C5.31991 8.78059 5.95308 8.78059 6.3436 9.17112C6.73413 9.56164 6.73413 10.1948 6.3436 10.5853L4.22228 12.7067C2.26966 14.6593 2.26966 17.8251 4.22228 19.7777C6.1749 21.7303 9.34073 21.7303 11.2933 19.7777L13.4147 17.6564C13.8052 17.2659 14.4384 17.2659 14.8289 17.6564C15.2194 18.0469 15.2194 18.6801 14.8289 19.0706L12.7076 21.1919ZM11.2924 2.80725C14.0261 0.073579 18.4583 0.0735794 21.1919 2.80725C23.9256 5.54092 23.9256 9.97307 21.1919 12.7067L19.0706 14.8281C18.6801 15.2186 18.0469 15.2186 17.6564 14.8281C17.2659 14.4375 17.2659 13.8044 17.6564 13.4139L19.7777 11.2925C21.7303 9.33991 21.7303 6.17409 19.7777 4.22146C17.8251 2.26884 14.6593 2.26884 12.7067 4.22146L10.5853 6.34278C10.1948 6.73331 9.56165 6.73331 9.17112 6.34278C8.7806 5.95226 8.7806 5.31909 9.17112 4.92857L11.2924 2.80725ZM7.75774 16.2422C8.14826 16.6327 8.78143 16.6327 9.17195 16.2422L16.243 9.17112C16.6335 8.7806 16.6335 8.14744 16.243 7.75691C15.8525 7.36639 15.2193 7.36639 14.8288 7.75691L7.75774 14.828C7.36721 15.2185 7.36721 15.8517 7.75774 16.2422Z" fill="#212121"/>
</svg>
