<svg width="512" height="512" viewBox="0 0 512 512" fill="none" xmlns="http://www.w3.org/2000/svg">
<rect width="512" height="512" rx="96" fill="white"/>
<path d="M265.846 51.2C265.846 56.6379 261.438 61.0462 256 61.0462C250.562 61.0462 246.154 56.6379 246.154 51.2C246.154 45.7622 250.562 41.3539 256 41.3539C261.438 41.3539 265.846 45.7622 265.846 51.2Z" fill="#212121"/>
<path d="M265.846 72.8616C265.846 78.2995 261.438 82.7077 256 82.7077C250.562 82.7077 246.154 78.2995 246.154 72.8616C246.154 67.4237 250.562 63.0154 256 63.0154C261.438 63.0154 265.846 67.4237 265.846 72.8616Z" fill="#212121"/>
<path d="M256 104.369C261.438 104.369 265.846 99.961 265.846 94.5231C265.846 89.0852 261.438 84.677 256 84.677C250.562 84.677 246.154 89.0852 246.154 94.5231C246.154 99.961 250.562 104.369 256 104.369Z" fill="#212121"/>
<path d="M265.846 116.185C265.846 121.623 261.438 126.031 256 126.031C250.562 126.031 246.154 121.623 246.154 116.185C246.154 110.747 250.562 106.338 256 106.338C261.438 106.338 265.846 110.747 265.846 116.185Z" fill="#212121"/>
<path d="M256 147.692C261.438 147.692 265.846 143.284 265.846 137.846C265.846 132.408 261.438 128 256 128C250.562 128 246.154 132.408 246.154 137.846C246.154 143.284 250.562 147.692 256 147.692Z" fill="#212121"/>
<path d="M265.846 159.508C265.846 164.946 261.438 169.354 256 169.354C250.562 169.354 246.154 164.946 246.154 159.508C246.154 154.07 250.562 149.662 256 149.662C261.438 149.662 265.846 154.07 265.846 159.508Z" fill="#212121"/>
<path d="M256 191.015C261.438 191.015 265.846 186.607 265.846 181.169C265.846 175.731 261.438 171.323 256 171.323C250.562 171.323 246.154 175.731 246.154 181.169C246.154 186.607 250.562 191.015 256 191.015Z" fill="#212121"/>
<path d="M265.846 202.831C265.846 208.269 261.438 212.677 256 212.677C250.562 212.677 246.154 208.269 246.154 202.831C246.154 197.393 250.562 192.985 256 192.985C261.438 192.985 265.846 197.393 265.846 202.831Z" fill="#212121"/>
<path d="M256 234.338C261.438 234.338 265.846 229.93 265.846 224.492C265.846 219.054 261.438 214.646 256 214.646C250.562 214.646 246.154 219.054 246.154 224.492C246.154 229.93 250.562 234.338 256 234.338Z" fill="#212121"/>
<path d="M265.846 246.154C265.846 251.592 261.438 256 256 256C250.562 256 246.154 251.592 246.154 246.154C246.154 240.716 250.562 236.308 256 236.308C261.438 236.308 265.846 240.716 265.846 246.154Z" fill="#212121"/>
<path d="M256 273.723C259.263 273.723 261.908 271.078 261.908 267.815C261.908 264.553 259.263 261.908 256 261.908C252.737 261.908 250.092 264.553 250.092 267.815C250.092 271.078 252.737 273.723 256 273.723Z" fill="#212121"/>
<path d="M263.877 289.477C263.877 293.827 260.35 297.354 256 297.354C251.65 297.354 248.123 293.827 248.123 289.477C248.123 285.127 251.65 281.6 256 281.6C260.35 281.6 263.877 285.127 263.877 289.477Z" fill="#212121"/>
<path d="M256 315.077C258.175 315.077 259.938 313.314 259.938 311.138C259.938 308.963 258.175 307.2 256 307.2C253.825 307.2 252.062 308.963 252.062 311.138C252.062 313.314 253.825 315.077 256 315.077Z" fill="#212121"/>
<path d="M265.846 354.462C265.846 359.899 261.438 364.308 256 364.308C250.562 364.308 246.154 359.899 246.154 354.462C246.154 349.024 250.562 344.615 256 344.615C261.438 344.615 265.846 349.024 265.846 354.462Z" fill="#212121"/>
<path d="M256 385.969C261.438 385.969 265.846 381.561 265.846 376.123C265.846 370.685 261.438 366.277 256 366.277C250.562 366.277 246.154 370.685 246.154 376.123C246.154 381.561 250.562 385.969 256 385.969Z" fill="#212121"/>
<path d="M265.846 397.785C265.846 403.223 261.438 407.631 256 407.631C250.562 407.631 246.154 403.223 246.154 397.785C246.154 392.347 250.562 387.938 256 387.938C261.438 387.938 265.846 392.347 265.846 397.785Z" fill="#212121"/>
<path d="M256 429.292C261.438 429.292 265.846 424.884 265.846 419.446C265.846 414.008 261.438 409.6 256 409.6C250.562 409.6 246.154 414.008 246.154 419.446C246.154 424.884 250.562 429.292 256 429.292Z" fill="#212121"/>
<path d="M265.846 441.108C265.846 446.546 261.438 450.954 256 450.954C250.562 450.954 246.154 446.546 246.154 441.108C246.154 435.67 250.562 431.262 256 431.262C261.438 431.262 265.846 435.67 265.846 441.108Z" fill="#212121"/>
<path d="M256 472.615C261.438 472.615 265.846 468.207 265.846 462.769C265.846 457.331 261.438 452.923 256 452.923C250.562 452.923 246.154 457.331 246.154 462.769C246.154 468.207 250.562 472.615 256 472.615Z" fill="#212121"/>
<path d="M384 94.5231C384 99.961 379.592 104.369 374.154 104.369C368.716 104.369 364.308 99.961 364.308 94.5231C364.308 89.0852 368.716 84.677 374.154 84.677C379.592 84.677 384 89.0852 384 94.5231Z" fill="#212121"/>
<path d="M374.154 126.031C379.592 126.031 384 121.623 384 116.185C384 110.747 379.592 106.338 374.154 106.338C368.716 106.338 364.308 110.747 364.308 116.185C364.308 121.623 368.716 126.031 374.154 126.031Z" fill="#212121"/>
<path d="M384 137.846C384 143.284 379.592 147.692 374.154 147.692C368.716 147.692 364.308 143.284 364.308 137.846C364.308 132.408 368.716 128 374.154 128C379.592 128 384 132.408 384 137.846Z" fill="#212121"/>
<path d="M374.154 169.354C379.592 169.354 384 164.946 384 159.508C384 154.07 379.592 149.662 374.154 149.662C368.716 149.662 364.308 154.07 364.308 159.508C364.308 164.946 368.716 169.354 374.154 169.354Z" fill="#212121"/>
<path d="M384 181.169C384 186.607 379.592 191.015 374.154 191.015C368.716 191.015 364.308 186.607 364.308 181.169C364.308 175.731 368.716 171.323 374.154 171.323C379.592 171.323 384 175.731 384 181.169Z" fill="#212121"/>
<path d="M374.154 212.677C379.592 212.677 384 208.269 384 202.831C384 197.393 379.592 192.985 374.154 192.985C368.716 192.985 364.308 197.393 364.308 202.831C364.308 208.269 368.716 212.677 374.154 212.677Z" fill="#212121"/>
<path d="M384 224.492C384 229.93 379.592 234.338 374.154 234.338C368.716 234.338 364.308 229.93 364.308 224.492C364.308 219.054 368.716 214.646 374.154 214.646C379.592 214.646 384 219.054 384 224.492Z" fill="#212121"/>
<path d="M374.154 256C379.592 256 384 251.592 384 246.154C384 240.716 379.592 236.308 374.154 236.308C368.716 236.308 364.308 240.716 364.308 246.154C364.308 251.592 368.716 256 374.154 256Z" fill="#212121"/>
<path d="M384 267.815C384 273.253 379.592 277.662 374.154 277.662C368.716 277.662 364.308 273.253 364.308 267.815C364.308 262.378 368.716 257.969 374.154 257.969C379.592 257.969 384 262.378 384 267.815Z" fill="#212121"/>
<path d="M374.154 299.323C379.592 299.323 384 294.915 384 289.477C384 284.039 379.592 279.631 374.154 279.631C368.716 279.631 364.308 284.039 364.308 289.477C364.308 294.915 368.716 299.323 374.154 299.323Z" fill="#212121"/>
<path d="M384 311.138C384 316.576 379.592 320.985 374.154 320.985C368.716 320.985 364.308 316.576 364.308 311.138C364.308 305.701 368.716 301.292 374.154 301.292C379.592 301.292 384 305.701 384 311.138Z" fill="#212121"/>
<path d="M374.154 364.308C379.592 364.308 384 359.899 384 354.462C384 349.024 379.592 344.615 374.154 344.615C368.716 344.615 364.308 349.024 364.308 354.462C364.308 359.899 368.716 364.308 374.154 364.308Z" fill="#212121"/>
<path d="M384 332.8C384 338.238 379.592 342.646 374.154 342.646C368.716 342.646 364.308 338.238 364.308 332.8C364.308 327.362 368.716 322.954 374.154 322.954C379.592 322.954 384 327.362 384 332.8Z" fill="#212121"/>
<path d="M374.154 385.969C379.592 385.969 384 381.561 384 376.123C384 370.685 379.592 366.277 374.154 366.277C368.716 366.277 364.308 370.685 364.308 376.123C364.308 381.561 368.716 385.969 374.154 385.969Z" fill="#212121"/>
<path d="M360.369 116.185C360.369 121.623 355.961 126.031 350.523 126.031C345.085 126.031 340.677 121.623 340.677 116.185C340.677 110.747 345.085 106.338 350.523 106.338C355.961 106.338 360.369 110.747 360.369 116.185Z" fill="#212121"/>
<path d="M350.523 147.692C355.961 147.692 360.369 143.284 360.369 137.846C360.369 132.408 355.961 128 350.523 128C345.085 128 340.677 132.408 340.677 137.846C340.677 143.284 345.085 147.692 350.523 147.692Z" fill="#212121"/>
<path d="M360.369 267.815C360.369 273.253 355.961 277.662 350.523 277.662C345.085 277.662 340.677 273.253 340.677 267.815C340.677 262.378 345.085 257.969 350.523 257.969C355.961 257.969 360.369 262.378 360.369 267.815Z" fill="#212121"/>
<path d="M350.523 299.323C355.961 299.323 360.369 294.915 360.369 289.477C360.369 284.039 355.961 279.631 350.523 279.631C345.085 279.631 340.677 284.039 340.677 289.477C340.677 294.915 345.085 299.323 350.523 299.323Z" fill="#212121"/>
<path d="M360.369 311.138C360.369 316.576 355.961 320.985 350.523 320.985C345.085 320.985 340.677 316.576 340.677 311.138C340.677 305.701 345.085 301.292 350.523 301.292C355.961 301.292 360.369 305.701 360.369 311.138Z" fill="#212121"/>
<path d="M350.523 385.969C355.961 385.969 360.369 381.561 360.369 376.123C360.369 370.685 355.961 366.277 350.523 366.277C345.085 366.277 340.677 370.685 340.677 376.123C340.677 381.561 345.085 385.969 350.523 385.969Z" fill="#212121"/>
<path d="M171.323 116.185C171.323 121.623 166.915 126.031 161.477 126.031C156.039 126.031 151.631 121.623 151.631 116.185C151.631 110.747 156.039 106.338 161.477 106.338C166.915 106.338 171.323 110.747 171.323 116.185Z" fill="#212121"/>
<path d="M161.477 147.692C166.915 147.692 171.323 143.284 171.323 137.846C171.323 132.408 166.915 128 161.477 128C156.039 128 151.631 132.408 151.631 137.846C151.631 143.284 156.039 147.692 161.477 147.692Z" fill="#212121"/>
<path d="M171.323 267.815C171.323 273.253 166.915 277.662 161.477 277.662C156.039 277.662 151.631 273.253 151.631 267.815C151.631 262.378 156.039 257.969 161.477 257.969C166.915 257.969 171.323 262.378 171.323 267.815Z" fill="#212121"/>
<path d="M161.477 299.323C166.915 299.323 171.323 294.915 171.323 289.477C171.323 284.039 166.915 279.631 161.477 279.631C156.039 279.631 151.631 284.039 151.631 289.477C151.631 294.915 156.039 299.323 161.477 299.323Z" fill="#212121"/>
<path d="M171.323 311.138C171.323 316.576 166.915 320.985 161.477 320.985C156.039 320.985 151.631 316.576 151.631 311.138C151.631 305.701 156.039 301.292 161.477 301.292C166.915 301.292 171.323 305.701 171.323 311.138Z" fill="#212121"/>
<path d="M161.477 385.969C166.915 385.969 171.323 381.561 171.323 376.123C171.323 370.685 166.915 366.277 161.477 366.277C156.039 366.277 151.631 370.685 151.631 376.123C151.631 381.561 156.039 385.969 161.477 385.969Z" fill="#212121"/>
<path d="M147.692 94.5231C147.692 99.961 143.284 104.369 137.846 104.369C132.408 104.369 128 99.961 128 94.5231C128 89.0852 132.408 84.677 137.846 84.677C143.284 84.677 147.692 89.0852 147.692 94.5231Z" fill="#212121"/>
<path d="M137.846 126.031C143.284 126.031 147.692 121.623 147.692 116.185C147.692 110.747 143.284 106.338 137.846 106.338C132.408 106.338 128 110.747 128 116.185C128 121.623 132.408 126.031 137.846 126.031Z" fill="#212121"/>
<path d="M147.692 137.846C147.692 143.284 143.284 147.692 137.846 147.692C132.408 147.692 128 143.284 128 137.846C128 132.408 132.408 128 137.846 128C143.284 128 147.692 132.408 147.692 137.846Z" fill="#212121"/>
<path d="M137.846 169.354C143.284 169.354 147.692 164.946 147.692 159.508C147.692 154.07 143.284 149.662 137.846 149.662C132.408 149.662 128 154.07 128 159.508C128 164.946 132.408 169.354 137.846 169.354Z" fill="#212121"/>
<path d="M147.692 181.169C147.692 186.607 143.284 191.015 137.846 191.015C132.408 191.015 128 186.607 128 181.169C128 175.731 132.408 171.323 137.846 171.323C143.284 171.323 147.692 175.731 147.692 181.169Z" fill="#212121"/>
<path d="M137.846 212.677C143.284 212.677 147.692 208.269 147.692 202.831C147.692 197.393 143.284 192.985 137.846 192.985C132.408 192.985 128 197.393 128 202.831C128 208.269 132.408 212.677 137.846 212.677Z" fill="#212121"/>
<path d="M147.692 224.492C147.692 229.93 143.284 234.338 137.846 234.338C132.408 234.338 128 229.93 128 224.492C128 219.054 132.408 214.646 137.846 214.646C143.284 214.646 147.692 219.054 147.692 224.492Z" fill="#212121"/>
<path d="M137.846 256C143.284 256 147.692 251.592 147.692 246.154C147.692 240.716 143.284 236.308 137.846 236.308C132.408 236.308 128 240.716 128 246.154C128 251.592 132.408 256 137.846 256Z" fill="#212121"/>
<path d="M147.692 267.815C147.692 273.253 143.284 277.662 137.846 277.662C132.408 277.662 128 273.253 128 267.815C128 262.378 132.408 257.969 137.846 257.969C143.284 257.969 147.692 262.378 147.692 267.815Z" fill="#212121"/>
<path d="M137.846 299.323C143.284 299.323 147.692 294.915 147.692 289.477C147.692 284.039 143.284 279.631 137.846 279.631C132.408 279.631 128 284.039 128 289.477C128 294.915 132.408 299.323 137.846 299.323Z" fill="#212121"/>
<path d="M147.692 311.138C147.692 316.576 143.284 320.985 137.846 320.985C132.408 320.985 128 316.576 128 311.138C128 305.701 132.408 301.292 137.846 301.292C143.284 301.292 147.692 305.701 147.692 311.138Z" fill="#212121"/>
<path d="M137.846 364.308C143.284 364.308 147.692 359.899 147.692 354.462C147.692 349.024 143.284 344.615 137.846 344.615C132.408 344.615 128 349.024 128 354.462C128 359.899 132.408 364.308 137.846 364.308Z" fill="#212121"/>
<path d="M147.692 332.8C147.692 338.238 143.284 342.646 137.846 342.646C132.408 342.646 128 338.238 128 332.8C128 327.362 132.408 322.954 137.846 322.954C143.284 322.954 147.692 327.362 147.692 332.8Z" fill="#212121"/>
<path d="M137.846 385.969C143.284 385.969 147.692 381.561 147.692 376.123C147.692 370.685 143.284 366.277 137.846 366.277C132.408 366.277 128 370.685 128 376.123C128 381.561 132.408 385.969 137.846 385.969Z" fill="#212121"/>
<path d="M192.985 137.846C192.985 142.196 189.458 145.723 185.108 145.723C180.757 145.723 177.231 142.196 177.231 137.846C177.231 133.496 180.757 129.969 185.108 129.969C189.458 129.969 192.985 133.496 192.985 137.846Z" fill="#212121"/>
<path d="M185.108 169.354C190.546 169.354 194.954 164.946 194.954 159.508C194.954 154.07 190.546 149.662 185.108 149.662C179.67 149.662 175.262 154.07 175.262 159.508C175.262 164.946 179.67 169.354 185.108 169.354Z" fill="#212121"/>
<path d="M194.954 181.169C194.954 186.607 190.546 191.015 185.108 191.015C179.67 191.015 175.262 186.607 175.262 181.169C175.262 175.731 179.67 171.323 185.108 171.323C190.546 171.323 194.954 175.731 194.954 181.169Z" fill="#212121"/>
<path d="M185.108 212.677C190.546 212.677 194.954 208.269 194.954 202.831C194.954 197.393 190.546 192.985 185.108 192.985C179.67 192.985 175.262 197.393 175.262 202.831C175.262 208.269 179.67 212.677 185.108 212.677Z" fill="#212121"/>
<path d="M194.954 224.492C194.954 229.93 190.546 234.338 185.108 234.338C179.67 234.338 175.262 229.93 175.262 224.492C175.262 219.054 179.67 214.646 185.108 214.646C190.546 214.646 194.954 219.054 194.954 224.492Z" fill="#212121"/>
<path d="M185.108 256C190.546 256 194.954 251.592 194.954 246.154C194.954 240.716 190.546 236.308 185.108 236.308C179.67 236.308 175.262 240.716 175.262 246.154C175.262 251.592 179.67 256 185.108 256Z" fill="#212121"/>
<path d="M194.954 267.815C194.954 273.253 190.546 277.662 185.108 277.662C179.67 277.662 175.262 273.253 175.262 267.815C175.262 262.378 179.67 257.969 185.108 257.969C190.546 257.969 194.954 262.378 194.954 267.815Z" fill="#212121"/>
<path d="M185.108 299.323C190.546 299.323 194.954 294.915 194.954 289.477C194.954 284.039 190.546 279.631 185.108 279.631C179.67 279.631 175.262 284.039 175.262 289.477C175.262 294.915 179.67 299.323 185.108 299.323Z" fill="#212121"/>
<path d="M194.954 311.138C194.954 316.576 190.546 320.985 185.108 320.985C179.67 320.985 175.262 316.576 175.262 311.138C175.262 305.701 179.67 301.292 185.108 301.292C190.546 301.292 194.954 305.701 194.954 311.138Z" fill="#212121"/>
<path d="M185.108 385.969C190.546 385.969 194.954 381.561 194.954 376.123C194.954 370.685 190.546 366.277 185.108 366.277C179.67 366.277 175.262 370.685 175.262 376.123C175.262 381.561 179.67 385.969 185.108 385.969Z" fill="#212121"/>
<path d="M330.831 137.846C330.831 140.021 329.067 141.785 326.892 141.785C324.717 141.785 322.954 140.021 322.954 137.846C322.954 135.671 324.717 133.908 326.892 133.908C329.067 133.908 330.831 135.671 330.831 137.846Z" fill="#212121"/>
<path d="M326.892 169.354C332.33 169.354 336.738 164.946 336.738 159.508C336.738 154.07 332.33 149.662 326.892 149.662C321.454 149.662 317.046 154.07 317.046 159.508C317.046 164.946 321.454 169.354 326.892 169.354Z" fill="#212121"/>
<path d="M336.738 181.169C336.738 186.607 332.33 191.015 326.892 191.015C321.454 191.015 317.046 186.607 317.046 181.169C317.046 175.731 321.454 171.323 326.892 171.323C332.33 171.323 336.738 175.731 336.738 181.169Z" fill="#212121"/>
<path d="M326.892 212.677C332.33 212.677 336.738 208.269 336.738 202.831C336.738 197.393 332.33 192.985 326.892 192.985C321.454 192.985 317.046 197.393 317.046 202.831C317.046 208.269 321.454 212.677 326.892 212.677Z" fill="#212121"/>
<path d="M336.738 224.492C336.738 229.93 332.33 234.338 326.892 234.338C321.454 234.338 317.046 229.93 317.046 224.492C317.046 219.054 321.454 214.646 326.892 214.646C332.33 214.646 336.738 219.054 336.738 224.492Z" fill="#212121"/>
<path d="M326.892 256C332.33 256 336.738 251.592 336.738 246.154C336.738 240.716 332.33 236.308 326.892 236.308C321.454 236.308 317.046 240.716 317.046 246.154C317.046 251.592 321.454 256 326.892 256Z" fill="#212121"/>
<path d="M336.738 267.815C336.738 273.253 332.33 277.662 326.892 277.662C321.454 277.662 317.046 273.253 317.046 267.815C317.046 262.378 321.454 257.969 326.892 257.969C332.33 257.969 336.738 262.378 336.738 267.815Z" fill="#212121"/>
<path d="M326.892 299.323C332.33 299.323 336.738 294.915 336.738 289.477C336.738 284.039 332.33 279.631 326.892 279.631C321.454 279.631 317.046 284.039 317.046 289.477C317.046 294.915 321.454 299.323 326.892 299.323Z" fill="#212121"/>
<path d="M336.738 311.138C336.738 316.576 332.33 320.985 326.892 320.985C321.454 320.985 317.046 316.576 317.046 311.138C317.046 305.701 321.454 301.292 326.892 301.292C332.33 301.292 336.738 305.701 336.738 311.138Z" fill="#212121"/>
<path d="M326.892 385.969C332.33 385.969 336.738 381.561 336.738 376.123C336.738 370.685 332.33 366.277 326.892 366.277C321.454 366.277 317.046 370.685 317.046 376.123C317.046 381.561 321.454 385.969 326.892 385.969Z" fill="#212121"/>
<path d="M289.477 267.815C289.477 273.253 285.069 277.662 279.631 277.662C274.193 277.662 269.785 273.253 269.785 267.815C269.785 262.378 274.193 257.969 279.631 257.969C285.069 257.969 289.477 262.378 289.477 267.815Z" fill="#212121"/>
<path d="M279.631 299.323C285.069 299.323 289.477 294.915 289.477 289.477C289.477 284.039 285.069 279.631 279.631 279.631C274.193 279.631 269.785 284.039 269.785 289.477C269.785 294.915 274.193 299.323 279.631 299.323Z" fill="#212121"/>
<path d="M289.477 311.138C289.477 316.576 285.069 320.985 279.631 320.985C274.193 320.985 269.785 316.576 269.785 311.138C269.785 305.701 274.193 301.292 279.631 301.292C285.069 301.292 289.477 305.701 289.477 311.138Z" fill="#212121"/>
<path d="M279.631 342.646C285.069 342.646 289.477 338.238 289.477 332.8C289.477 327.362 285.069 322.954 279.631 322.954C274.193 322.954 269.785 327.362 269.785 332.8C269.785 338.238 274.193 342.646 279.631 342.646Z" fill="#212121"/>
<path d="M289.477 376.123C289.477 381.561 285.069 385.969 279.631 385.969C274.193 385.969 269.785 381.561 269.785 376.123C269.785 370.685 274.193 366.277 279.631 366.277C285.069 366.277 289.477 370.685 289.477 376.123Z" fill="#212121"/>
<path d="M279.631 429.292C285.069 429.292 289.477 424.884 289.477 419.446C289.477 414.008 285.069 409.6 279.631 409.6C274.193 409.6 269.785 414.008 269.785 419.446C269.785 424.884 274.193 429.292 279.631 429.292Z" fill="#212121"/>
<path d="M289.477 441.108C289.477 446.546 285.069 450.954 279.631 450.954C274.193 450.954 269.785 446.546 269.785 441.108C269.785 435.67 274.193 431.262 279.631 431.262C285.069 431.262 289.477 435.67 289.477 441.108Z" fill="#212121"/>
<path d="M303.262 320.985C308.699 320.985 313.108 316.576 313.108 311.138C313.108 305.701 308.699 301.292 303.262 301.292C297.824 301.292 293.415 305.701 293.415 311.138C293.415 316.576 297.824 320.985 303.262 320.985Z" fill="#212121"/>
<path d="M313.108 332.8C313.108 338.238 308.699 342.646 303.262 342.646C297.824 342.646 293.415 338.238 293.415 332.8C293.415 327.362 297.824 322.954 303.262 322.954C308.699 322.954 313.108 327.362 313.108 332.8Z" fill="#212121"/>
<path d="M303.262 364.308C308.699 364.308 313.108 359.899 313.108 354.462C313.108 349.024 308.699 344.615 303.262 344.615C297.824 344.615 293.415 349.024 293.415 354.462C293.415 359.899 297.824 364.308 303.262 364.308Z" fill="#212121"/>
<path d="M313.108 376.123C313.108 381.561 308.699 385.969 303.262 385.969C297.824 385.969 293.415 381.561 293.415 376.123C293.415 370.685 297.824 366.277 303.262 366.277C308.699 366.277 313.108 370.685 313.108 376.123Z" fill="#212121"/>
<path d="M303.262 407.631C308.699 407.631 313.108 403.223 313.108 397.785C313.108 392.347 308.699 387.938 303.262 387.938C297.824 387.938 293.415 392.347 293.415 397.785C293.415 403.223 297.824 407.631 303.262 407.631Z" fill="#212121"/>
<path d="M313.108 419.446C313.108 424.884 308.699 429.292 303.262 429.292C297.824 429.292 293.415 424.884 293.415 419.446C293.415 414.008 297.824 409.6 303.262 409.6C308.699 409.6 313.108 414.008 313.108 419.446Z" fill="#212121"/>
<path d="M208.738 320.985C214.176 320.985 218.585 316.576 218.585 311.138C218.585 305.701 214.176 301.292 208.738 301.292C203.301 301.292 198.892 305.701 198.892 311.138C198.892 316.576 203.301 320.985 208.738 320.985Z" fill="#212121"/>
<path d="M218.585 332.8C218.585 338.238 214.176 342.646 208.738 342.646C203.301 342.646 198.892 338.238 198.892 332.8C198.892 327.362 203.301 322.954 208.738 322.954C214.176 322.954 218.585 327.362 218.585 332.8Z" fill="#212121"/>
<path d="M208.738 364.308C214.176 364.308 218.585 359.899 218.585 354.462C218.585 349.024 214.176 344.615 208.738 344.615C203.301 344.615 198.892 349.024 198.892 354.462C198.892 359.899 203.301 364.308 208.738 364.308Z" fill="#212121"/>
<path d="M218.585 376.123C218.585 381.561 214.176 385.969 208.738 385.969C203.301 385.969 198.892 381.561 198.892 376.123C198.892 370.685 203.301 366.277 208.738 366.277C214.176 366.277 218.585 370.685 218.585 376.123Z" fill="#212121"/>
<path d="M208.738 407.631C214.176 407.631 218.585 403.223 218.585 397.785C218.585 392.347 214.176 387.938 208.738 387.938C203.301 387.938 198.892 392.347 198.892 397.785C198.892 403.223 203.301 407.631 208.738 407.631Z" fill="#212121"/>
<path d="M218.585 419.446C218.585 424.884 214.176 429.292 208.738 429.292C203.301 429.292 198.892 424.884 198.892 419.446C198.892 414.008 203.301 409.6 208.738 409.6C214.176 409.6 218.585 414.008 218.585 419.446Z" fill="#212121"/>
<path d="M232.369 277.662C237.807 277.662 242.215 273.253 242.215 267.815C242.215 262.378 237.807 257.969 232.369 257.969C226.931 257.969 222.523 262.378 222.523 267.815C222.523 273.253 226.931 277.662 232.369 277.662Z" fill="#212121"/>
<path d="M242.215 289.477C242.215 294.915 237.807 299.323 232.369 299.323C226.931 299.323 222.523 294.915 222.523 289.477C222.523 284.039 226.931 279.631 232.369 279.631C237.807 279.631 242.215 284.039 242.215 289.477Z" fill="#212121"/>
<path d="M232.369 320.985C237.807 320.985 242.215 316.576 242.215 311.138C242.215 305.701 237.807 301.292 232.369 301.292C226.931 301.292 222.523 305.701 222.523 311.138C222.523 316.576 226.931 320.985 232.369 320.985Z" fill="#212121"/>
<path d="M242.215 332.8C242.215 338.238 237.807 342.646 232.369 342.646C226.931 342.646 222.523 338.238 222.523 332.8C222.523 327.362 226.931 322.954 232.369 322.954C237.807 322.954 242.215 327.362 242.215 332.8Z" fill="#212121"/>
<path d="M232.369 385.969C237.807 385.969 242.215 381.561 242.215 376.123C242.215 370.685 237.807 366.277 232.369 366.277C226.931 366.277 222.523 370.685 222.523 376.123C222.523 381.561 226.931 385.969 232.369 385.969Z" fill="#212121"/>
<path d="M242.215 419.446C242.215 424.884 237.807 429.292 232.369 429.292C226.931 429.292 222.523 424.884 222.523 419.446C222.523 414.008 226.931 409.6 232.369 409.6C237.807 409.6 242.215 414.008 242.215 419.446Z" fill="#212121"/>
<path d="M232.369 450.954C237.807 450.954 242.215 446.546 242.215 441.108C242.215 435.67 237.807 431.262 232.369 431.262C226.931 431.262 222.523 435.67 222.523 441.108C222.523 446.546 226.931 450.954 232.369 450.954Z" fill="#212121"/>
</svg>
