<svg width="476" height="168" viewBox="0 0 476 168" fill="none" xmlns="http://www.w3.org/2000/svg">
<path d="M0.250732 0H24.4807C30.3439 12.395 36.2258 24.7313 42.1262 37.0089L59.7716 0H83.9181V60.2449H64.1365V29.7795H63.9601L49.5559 60.2449H34.6408L20.2365 29.7795H20.06V60.2449H0.250732V0Z" fill="#212121"/>
<path d="M96.4741 0H151.751V15.5803H116.822V20.9096H148.129V35.7391H116.822V44.7759H152.271V60.2635H96.4741V0Z" fill="#212121"/>
<path d="M200.935 17.2115V60.2449H180.587V17.2115H157.007V0H224.441V17.2115H200.935Z" fill="#212121"/>
<path d="M294.363 60.2449H271.851L265.564 45.1837H245.133L238.836 60.2449H216.547L243.479 0H267.459L294.363 60.2449ZM255.45 17.3876H255.274L249.934 30.3634H260.716L255.45 17.3876Z" fill="#212121"/>
<path d="M45.0052 100.618H20.5987V126.783H0.250732V66.5382H20.5987V83.3697H45.0052V66.5011H65.4367V126.746H45.0052V100.618Z" fill="#212121"/>
<path d="M77.8164 66.5289H98.1644V126.774H77.8164V66.5289Z" fill="#212121"/>
<path d="M124.503 105.002C126.481 109.479 133.037 112.927 141.925 112.927C149.169 112.927 154.425 111.805 154.425 108.45C154.425 105.262 150.636 104.317 137.867 103.455C117.519 101.99 108.371 95.6227 108.371 85.205C108.371 73.4155 120.193 64.7217 140.281 64.7217C157.927 64.7217 170.214 71.8677 174.643 80.3854L155.503 87.3645C154.212 83.3142 148.779 80.6449 140.235 80.6449C134.282 80.6449 129.545 82.0259 129.545 84.4357C129.545 86.4098 132.647 87.3645 143.476 88.3099C162.19 89.7743 175.386 94.7978 175.386 108.098C175.386 122.992 160.035 128.85 140.894 128.85C123.815 128.85 111.046 121.788 105.269 111.37L124.503 105.002Z" fill="#212121"/>
<path d="M222.407 83.7497V126.783H202.05V83.7497H178.507V66.5289H245.95V83.7497H222.407Z" fill="#212121"/>
<path d="M285.541 64.8977C307.969 64.8977 323.06 76.4276 323.06 96.7441C323.06 117.061 307.969 128.674 285.541 128.674C263.112 128.674 248.021 117.144 248.021 96.7441C248.021 76.3442 263.122 64.8977 285.541 64.8977ZM268.982 96.7441C268.982 106.383 275.798 111.574 285.541 111.574C295.283 111.574 302.192 106.411 302.192 96.7441C302.192 87.0771 295.292 82.0258 285.541 82.0258C275.789 82.0258 268.982 87.0771 268.982 96.7441Z" fill="#212121"/>
<path d="M331.289 66.5289H366.58C383.399 66.5289 393.401 71.8676 393.401 84.9546C393.401 93.2962 388.832 99.0612 380.808 101.48L401.685 126.783H377.854L359.057 103.371H351.628V126.783H331.28L331.289 66.5289ZM351.637 81.3585V89.0235H367.768C370.555 89.0235 372.514 87.6425 372.514 85.2327C372.514 82.656 370.657 81.3585 367.768 81.3585H351.637Z" fill="#212121"/>
<path d="M423.129 106.207L418.383 99.4968C409.932 88.5693 401.573 77.5491 393.206 66.5289H416.572C422.265 74.7037 427.791 82.7951 433.484 90.8864L450.377 66.5289H473.697L448.427 99.4968C446.876 101.731 445.148 103.973 443.597 106.207V126.783H423.166L423.129 106.207Z" fill="#212121"/>
<path d="M0 136.515H12.2497C15.2122 142.771 18.1748 148.99 21.1838 155.219L30.118 136.515H42.3212V166.962H32.3004V151.558H32.2076L24.9265 166.962H17.3947L10.1136 151.558H10.03V166.962H0V136.515Z" fill="#212121"/>
<path d="M58.6201 153.124C58.6201 157.082 60.8396 159.177 64.8052 159.177C68.7708 159.177 71.0461 157.082 71.0461 153.124V136.515H81.3269V153.653C81.3269 163.394 74.4823 167.87 64.8052 167.87C55.128 167.87 48.2927 163.394 48.2927 153.653V136.515H58.6201V153.124Z" fill="#212121"/>
<path d="M94.0689 155.951C95.0719 158.213 98.3781 159.955 102.864 159.955C106.579 159.955 109.188 159.39 109.188 157.694C109.188 155.997 107.266 155.608 100.83 155.172C90.5398 154.431 85.9706 151.215 85.9706 145.95C85.9706 139.991 91.9422 135.598 102.093 135.598C110.99 135.598 117.222 139.212 119.488 143.513L109.811 147.035C109.16 144.996 106.411 143.643 102.093 143.643C99.0932 143.643 96.6879 144.338 96.6879 145.561C96.6879 146.562 98.2574 147.035 103.755 147.517C113.21 148.258 119.878 150.779 119.878 157.517C119.878 165.043 112.123 168 102.446 168C93.8182 168 87.3637 164.432 84.4475 159.176L94.0689 155.951Z" fill="#212121"/>
<path d="M124.595 136.515H152.531V144.384H134.886V147.081H150.674V154.561H134.886V159.13H152.8V166.962H124.595V136.515Z" fill="#212121"/>
<path d="M168.152 153.124C168.152 157.082 170.372 159.177 174.337 159.177C178.303 159.177 180.578 157.082 180.578 153.124V136.515H190.859V153.653C190.859 163.394 184.014 167.87 174.337 167.87C164.66 167.87 157.825 163.394 157.825 153.653V136.515H168.152V153.124Z" fill="#212121"/>
<path d="M196.793 136.515H209.015C211.978 142.771 214.94 148.99 217.949 155.219L226.883 136.515H239.087V166.962H229.056V151.558H228.973L221.692 166.962H214.16L206.879 151.558H206.786V166.962H196.765L196.793 136.515Z" fill="#212121"/>
<path d="M275.65 135.69C286.98 135.69 294.605 141.511 294.605 151.78C294.605 162.05 286.98 167.917 275.65 167.917C264.32 167.917 256.686 162.087 256.686 151.78C256.686 141.474 264.32 135.69 275.65 135.69ZM267.291 151.78C267.291 156.646 270.728 159.26 275.65 159.26C280.572 159.26 284.008 156.646 284.008 151.78C284.008 146.914 280.526 144.365 275.65 144.365C270.774 144.365 267.282 146.905 267.282 151.78H267.291Z" fill="#212121"/>
<path d="M299.1 136.515H326.729V144.69H309.408V147.776H324.964V155.784H309.408V166.962H299.1V136.515Z" fill="#212121"/>
<path d="M341.579 136.515H352.825L359.057 155.562L365.855 136.515H376.758L383.556 155.562L389.742 136.515H400.988L389.519 166.962H378.588L371.307 148.471L363.989 166.962H353.048L341.579 136.515Z" fill="#212121"/>
<path d="M437.319 166.962H425.943L422.757 159.343H412.402L409.226 166.962H397.933L411.529 136.515H423.649L437.319 166.962ZM417.659 145.302H417.575L414.872 151.864H420.324L417.659 145.302Z" fill="#212121"/>
<path d="M440.44 136.515H458.271C466.769 136.515 471.821 139.212 471.821 145.784C471.821 150.001 469.508 152.92 465.459 154.125L476 166.916H463.927L454.426 155.08H450.711V166.916H440.421L440.44 136.515ZM450.73 143.995V147.86H458.838C460.231 147.86 461.234 147.165 461.234 145.95C461.234 144.736 460.305 143.995 458.838 143.995H450.73Z" fill="#212121"/>
</svg>
