<svg width="248" height="57" viewBox="0 0 248 57" fill="none" xmlns="http://www.w3.org/2000/svg">
<g clip-path="url(#clip0_812_8436)">
<path d="M81.4623 3.93445H79.0135L76.0799 11.7896L73.1208 3.93445H70.6465V13.6892H72.2026V5.78271L75.1616 13.6892H76.9472L79.9063 5.78271V13.6892H81.4623V3.93445Z" fill="black"/>
<path d="M84.166 4.90991H85.8495V3.36969H84.166V4.90991ZM84.2425 13.6892H85.7731V5.98806H84.2425V13.6892Z" fill="black"/>
<path d="M92.4313 5.85974C91.2834 5.85974 90.3141 6.37314 89.7273 7.19459L89.6254 5.98809H88.2988V13.6892H89.8294V9.2739C89.8294 8.04172 90.7987 7.16892 91.9976 7.16892C93.0435 7.16892 93.6813 7.91336 93.6813 9.22256V13.6892H95.2118V8.81183C95.2118 7.04058 94.0639 5.85974 92.4313 5.85974Z" fill="black"/>
<path d="M97.5312 4.90991H99.2149V3.36969H97.5312V4.90991ZM97.6077 13.6892H99.1383V5.98806H97.6077V13.6892Z" fill="black"/>
<path d="M104.166 13.8175C106.079 13.8175 107.278 12.9191 107.278 11.5072C107.278 10.3007 106.487 9.65894 104.395 9.11987C103.094 8.78615 102.686 8.52945 102.686 8.04172C102.686 7.50263 103.273 7.16892 104.14 7.16892C104.956 7.16892 105.645 7.45129 106.257 7.96471L107.125 6.80955C106.283 6.19346 105.288 5.85974 104.217 5.85974C102.406 5.85974 101.207 6.7582 101.207 8.14439C101.207 9.32523 101.997 9.96699 103.987 10.4804C105.39 10.8141 105.798 11.0965 105.798 11.5842C105.798 12.1746 105.186 12.4827 104.217 12.4827C103.196 12.4827 102.354 12.149 101.717 11.5329L100.875 12.6367C101.717 13.4068 102.865 13.8175 104.166 13.8175Z" fill="black"/>
<path d="M113.322 7.29726V5.98807H110.975V3.93445H109.649L109.445 5.98807H107.939V7.29726H109.445V11.6612C109.445 13.0731 110.261 13.8175 111.766 13.8175C112.276 13.8175 112.812 13.7662 113.322 13.6378V12.226C112.812 12.3543 112.48 12.38 112.072 12.38C111.332 12.38 110.975 12.149 110.975 11.3532V7.29726H113.322Z" fill="black"/>
<path d="M119.242 5.85974C118.094 5.85974 117.125 6.39882 116.563 7.22026L116.461 5.98809H115.135V13.6892H116.665V9.37657C116.665 8.14439 117.584 7.34862 118.808 7.34862C119.14 7.34862 119.497 7.37429 119.828 7.39996V5.93674C119.624 5.88541 119.446 5.85974 119.242 5.85974Z" fill="black"/>
<path d="M126.637 5.9881L124.673 12.3544H124.061L121.842 5.9881H120.158L122.633 12.3544H121.536C121.026 12.8678 120.77 13.4582 120.77 14.1513C120.77 15.5119 121.638 16.3847 122.913 16.3847C124.214 16.3847 125.081 15.5375 125.719 13.5865L128.27 5.9881H126.637ZM122.964 15.1011C122.454 15.1011 122.097 14.7417 122.097 14.2026C122.097 13.9716 122.148 13.7662 122.275 13.5865H124.189L124.036 14.0486C123.806 14.7161 123.423 15.1011 122.964 15.1011Z" fill="black"/>
<path d="M73.7055 33.5323C76.0013 33.5323 77.5828 31.9152 77.5828 29.5535C77.5828 27.1405 76.0522 25.5746 73.7055 25.5746C71.4097 25.5746 69.8281 27.1918 69.8281 29.5535C69.8281 31.9666 71.3586 33.5323 73.7055 33.5323ZM73.7055 32.2233C72.3025 32.2233 71.3842 31.1708 71.3842 29.5535C71.3842 27.9363 72.3025 26.8838 73.7055 26.8838C75.1085 26.8838 76.0267 27.9363 76.0267 29.5535C76.0267 31.1708 75.1085 32.2233 73.7055 32.2233Z" fill="black"/>
<path d="M82.3272 24.2653C82.8884 24.2653 83.3476 24.445 83.7557 24.7531L84.4699 23.598C83.8578 23.1872 83.169 22.9561 82.3782 22.9561C80.8477 22.9561 79.9038 23.8033 79.9038 25.1638V25.7028H78.3223V27.012H79.9038V33.404H81.4344V27.012H83.6281V25.7028H81.4344V25.1895C81.4344 24.6247 81.766 24.2653 82.3272 24.2653Z" fill="black"/>
<path d="M93.0145 23.6494H89.4688V33.4041H93.0145C96.0245 33.4041 97.8102 31.4018 97.8102 28.5268C97.8102 25.5746 96.1011 23.6494 93.0145 23.6494ZM93.0145 31.9922H91.0758V25.0612H93.0145C94.9786 25.0612 96.1521 26.3961 96.1521 28.5268C96.1521 30.6574 94.9786 31.9922 93.0145 31.9922Z" fill="black"/>
<path d="M99.7754 24.6247H101.459V23.0846H99.7754V24.6247ZM99.8519 33.404H101.382V25.7029H99.8519V33.404Z" fill="black"/>
<path d="M109.419 25.7029L109.317 26.8068C108.73 26.0366 107.812 25.5746 106.689 25.5746C104.725 25.5746 103.348 27.0891 103.348 29.3225C103.348 31.5814 104.674 33.0703 106.689 33.0703C107.786 33.0703 108.679 32.6083 109.291 31.8381V32.5826C109.291 33.8148 108.679 34.7903 106.97 34.7903C106.001 34.7903 105.312 34.5592 104.7 33.9175L103.883 34.9956C104.572 35.6887 105.592 36.0995 106.995 36.0995C109.342 36.0995 110.72 34.6619 110.72 32.6083L110.745 25.7029H109.419ZM107.098 31.8125C105.771 31.8125 104.904 30.8627 104.904 29.3481C104.904 27.8593 105.771 26.8838 107.098 26.8838C108.449 26.8838 109.317 27.8593 109.317 29.3481C109.317 30.8627 108.449 31.8125 107.098 31.8125Z" fill="black"/>
<path d="M113.195 24.6247H114.879V23.0846H113.195V24.6247ZM113.272 33.404H114.802V25.7029H113.272V33.404Z" fill="black"/>
<path d="M121.841 27.0121V25.7029H119.495V23.6494H118.168L117.964 25.7029H116.459V27.0121H117.964V31.3762C117.964 32.788 118.78 33.5324 120.285 33.5324C120.796 33.5324 121.331 33.4811 121.841 33.3527V31.9408C121.331 32.0693 121 32.0949 120.591 32.0949C119.852 32.0949 119.495 31.8638 119.495 31.068V27.0121H121.841Z" fill="black"/>
<path d="M129.7 32.0692C129.368 32.0692 129.215 31.9152 129.215 31.5814V28.116C129.215 26.5244 128.093 25.5746 126.256 25.5746C124.93 25.5746 123.833 26.0366 122.94 26.8838L123.884 27.8849C124.496 27.2432 125.313 26.8582 126.18 26.8582C127.149 26.8582 127.787 27.2688 127.787 27.8849C127.787 28.4753 127.226 28.578 126.078 28.7321C124.598 28.963 122.787 29.3738 122.787 31.2734C122.787 32.6083 123.782 33.5323 125.287 33.5323C126.409 33.5323 127.43 33.019 127.965 32.2233C128.067 33.1217 128.501 33.4554 129.445 33.4554C129.7 33.4554 129.904 33.4297 129.981 33.404V32.0692H129.7ZM125.542 32.2745C124.751 32.2745 124.292 31.8895 124.292 31.1708C124.292 30.1695 125.287 30.0155 126.256 29.8616C126.996 29.7331 127.455 29.6561 127.736 29.4764V30.4777C127.736 31.4531 126.716 32.2745 125.542 32.2745Z" fill="black"/>
<path d="M131.688 33.404H133.218V23.1358H131.688V33.404Z" fill="black"/>
<path d="M147.273 23.6494H138.754V25.1382H142.198V33.4041H143.83V25.1382H147.273V23.6494Z" fill="black"/>
<path d="M151.563 25.5746C150.415 25.5746 149.445 26.1136 148.884 26.935L148.782 25.7029H147.455V33.404H148.986V29.0914C148.986 27.8592 149.904 27.0635 151.129 27.0635C151.46 27.0635 151.818 27.0891 152.149 27.1147V25.6516C151.944 25.6002 151.767 25.5746 151.563 25.5746Z" fill="black"/>
<path d="M159.545 32.0692C159.213 32.0692 159.059 31.9152 159.059 31.5814V28.116C159.059 26.5244 157.937 25.5746 156.101 25.5746C154.774 25.5746 153.677 26.0366 152.784 26.8838L153.728 27.8849C154.34 27.2432 155.157 26.8582 156.025 26.8582C156.993 26.8582 157.631 27.2688 157.631 27.8849C157.631 28.4753 157.07 28.578 155.922 28.7321C154.443 28.963 152.631 29.3738 152.631 31.2734C152.631 32.6083 153.626 33.5323 155.132 33.5323C156.254 33.5323 157.274 33.019 157.81 32.2233C157.912 33.1217 158.345 33.4554 159.289 33.4554C159.545 33.4554 159.748 33.4297 159.825 33.404V32.0692H159.545ZM155.387 32.2745C154.595 32.2745 154.136 31.8895 154.136 31.1708C154.136 30.1695 155.132 30.0155 156.101 29.8616C156.84 29.7331 157.299 29.6561 157.581 29.4764V30.4777C157.581 31.4531 156.56 32.2745 155.387 32.2745Z" fill="black"/>
<path d="M165.664 25.5746C164.517 25.5746 163.548 26.088 162.961 26.9094L162.858 25.7029H161.531V33.404H163.062V28.9888C163.062 27.7566 164.032 26.8838 165.231 26.8838C166.277 26.8838 166.915 27.6282 166.915 28.9374V33.404H168.446V28.5267C168.446 26.7554 167.296 25.5746 165.664 25.5746Z" fill="black"/>
<path d="M173.219 33.5323C175.132 33.5323 176.331 32.6339 176.331 31.222C176.331 30.0155 175.539 29.3738 173.448 28.8347C172.147 28.501 171.739 28.2443 171.739 27.7566C171.739 27.2175 172.326 26.8838 173.193 26.8838C174.009 26.8838 174.699 27.1661 175.31 27.6796L176.177 26.5244C175.335 25.9083 174.341 25.5746 173.269 25.5746C171.458 25.5746 170.26 26.473 170.26 27.8592C170.26 29.04 171.05 29.6819 173.04 30.1952C174.442 30.5289 174.851 30.8113 174.851 31.2991C174.851 31.8895 174.24 32.1975 173.269 32.1975C172.25 32.1975 171.408 31.8638 170.77 31.2477L169.928 32.3516C170.77 33.1217 171.918 33.5323 173.219 33.5323Z" fill="black"/>
<path d="M181.023 24.2653C181.584 24.2653 182.043 24.445 182.45 24.7531L183.166 23.598C182.553 23.1872 181.865 22.9561 181.073 22.9561C179.542 22.9561 178.599 23.8033 178.599 25.1638V25.7028H177.018V27.012H178.599V33.404H180.13V27.012H182.324V25.7028H180.13V25.1895C180.13 24.6247 180.461 24.2653 181.023 24.2653Z" fill="black"/>
<path d="M186.763 33.5323C189.058 33.5323 190.64 31.9152 190.64 29.5535C190.64 27.1405 189.109 25.5746 186.763 25.5746C184.466 25.5746 182.885 27.1918 182.885 29.5535C182.885 31.9666 184.415 33.5323 186.763 33.5323ZM186.763 32.2233C185.359 32.2233 184.441 31.1708 184.441 29.5535C184.441 27.9363 185.359 26.8838 186.763 26.8838C188.166 26.8838 189.084 27.9363 189.084 29.5535C189.084 31.1708 188.166 32.2233 186.763 32.2233Z" fill="black"/>
<path d="M196.582 25.5746C195.435 25.5746 194.464 26.1136 193.904 26.935L193.801 25.7029H192.475V33.404H194.005V29.0914C194.005 27.8592 194.923 27.0635 196.149 27.0635C196.48 27.0635 196.837 27.0891 197.17 27.1147V25.6516C196.965 25.6002 196.787 25.5746 196.582 25.5746Z" fill="black"/>
<path d="M207.783 25.5746C206.584 25.5746 205.589 26.165 205.053 27.0635C204.62 26.1393 203.778 25.5746 202.63 25.5746C201.508 25.5746 200.589 26.0624 200.053 26.8582L199.952 25.7029H198.625V33.404H200.156V28.9888C200.156 27.7566 201.023 26.8838 202.196 26.8838C203.268 26.8838 203.803 27.6282 203.803 28.9374V33.404H205.334V28.9888C205.334 27.7566 206.201 26.8838 207.374 26.8838C208.42 26.8838 208.982 27.6282 208.982 28.9374V33.404H210.512V28.5267C210.512 26.7554 209.441 25.5746 207.783 25.5746Z" fill="black"/>
<path d="M219.007 32.0692C218.674 32.0692 218.521 31.9152 218.521 31.5814V28.116C218.521 26.5244 217.398 25.5746 215.562 25.5746C214.236 25.5746 213.139 26.0366 212.246 26.8838L213.189 27.8849C213.802 27.2432 214.619 26.8582 215.486 26.8582C216.455 26.8582 217.093 27.2688 217.093 27.8849C217.093 28.4753 216.531 28.578 215.383 28.7321C213.905 28.963 212.094 29.3738 212.094 31.2734C212.094 32.6083 213.088 33.5323 214.593 33.5323C215.716 33.5323 216.735 33.019 217.272 32.2233C217.373 33.1217 217.807 33.4554 218.75 33.4554C219.007 33.4554 219.211 33.4297 219.287 33.404V32.0692H219.007ZM214.848 32.2745C214.057 32.2745 213.598 31.8895 213.598 31.1708C213.598 30.1695 214.593 30.0155 215.562 29.8616C216.301 29.7331 216.762 29.6561 217.042 29.4764V30.4777C217.042 31.4531 216.021 32.2745 214.848 32.2745Z" fill="black"/>
<path d="M225.357 27.0121V25.7029H223.011V23.6494H221.684L221.48 25.7029H219.975V27.0121H221.48V31.3762C221.48 32.788 222.295 33.5324 223.801 33.5324C224.31 33.5324 224.847 33.4811 225.357 33.3527V31.9408C224.847 32.0693 224.515 32.0949 224.108 32.0949C223.367 32.0949 223.011 31.8638 223.011 31.068V27.0121H225.357Z" fill="black"/>
<path d="M227.217 24.6247H228.901V23.0846H227.217V24.6247ZM227.294 33.404H228.825V25.7029H227.294V33.404Z" fill="black"/>
<path d="M234.668 33.5323C236.963 33.5323 238.545 31.9152 238.545 29.5535C238.545 27.1405 237.015 25.5746 234.668 25.5746C232.372 25.5746 230.791 27.1918 230.791 29.5535C230.791 31.9666 232.32 33.5323 234.668 33.5323ZM234.668 32.2233C233.265 32.2233 232.347 31.1708 232.347 29.5535C232.347 27.9363 233.265 26.8838 234.668 26.8838C236.07 26.8838 236.989 27.9363 236.989 29.5535C236.989 31.1708 236.07 32.2233 234.668 32.2233Z" fill="black"/>
<path d="M244.514 25.5746C243.367 25.5746 242.398 26.088 241.811 26.9094L241.709 25.7029H240.383V33.404H241.912V28.9888C241.912 27.7566 242.882 26.8838 244.081 26.8838C245.127 26.8838 245.765 27.6282 245.765 28.9374V33.404H247.296V28.5267C247.296 26.7554 246.148 25.5746 244.514 25.5746Z" fill="black"/>
<path d="M73.7055 53.2472C76.0013 53.2472 77.5828 51.63 77.5828 49.2683C77.5828 46.8553 76.0522 45.2894 73.7055 45.2894C71.4097 45.2894 69.8281 46.9066 69.8281 49.2683C69.8281 51.6814 71.3586 53.2472 73.7055 53.2472ZM73.7055 51.9381C72.3025 51.9381 71.3842 50.8856 71.3842 49.2683C71.3842 47.6511 72.3025 46.5986 73.7055 46.5986C75.1085 46.5986 76.0267 47.6511 76.0267 49.2683C76.0267 50.8856 75.1085 51.9381 73.7055 51.9381Z" fill="black"/>
<path d="M82.3272 43.9802C82.8884 43.9802 83.3476 44.1599 83.7557 44.468L84.4699 43.3128C83.8578 42.902 83.169 42.671 82.3782 42.671C80.8477 42.671 79.9038 43.5181 79.9038 44.8786V45.4177H78.3223V46.7269H79.9038V53.1188H81.4344V46.7269H83.6281V45.4177H81.4344V44.9044C81.4344 44.3395 81.766 43.9802 82.3272 43.9802Z" fill="black"/>
<path d="M93.4251 53.2472C95.9251 53.2472 97.5067 51.6814 97.5067 49.2683V43.3641H95.8996V49.2427C95.8996 50.8342 94.9557 51.8097 93.4251 51.8097C91.8947 51.8097 90.9508 50.8342 90.9508 49.2427V43.3641H89.3438V49.2683C89.3438 51.6814 90.9253 53.2472 93.4251 53.2472Z" fill="black"/>
<path d="M106.409 51.7584C106.179 51.7584 106.026 51.6044 106.026 51.3733V48.5496H104.623L106.562 45.4177H104.929L103.118 48.4725H101.562V42.8507H100.031V53.1189H101.562V49.8844H104.521V51.707C104.521 52.6311 105.057 53.1189 106 53.1189H106.689V51.7584H106.409Z" fill="black"/>
<path d="M112.582 45.2894C111.434 45.2894 110.464 45.8285 109.903 46.6499L109.801 45.4177H108.475V53.1189H110.005V48.8063C110.005 47.5741 110.923 46.7783 112.148 46.7783C112.48 46.7783 112.837 46.804 113.168 46.8296V45.3665C112.964 45.3151 112.786 45.2894 112.582 45.2894Z" fill="black"/>
<path d="M120.567 51.7841C120.236 51.7841 120.083 51.63 120.083 51.2963V47.8308C120.083 46.2393 118.96 45.2894 117.124 45.2894C115.797 45.2894 114.7 45.7515 113.807 46.5986L114.751 47.5997C115.363 46.958 116.18 46.573 117.047 46.573C118.016 46.573 118.654 46.9836 118.654 47.5997C118.654 48.1902 118.093 48.2928 116.945 48.4469C115.465 48.6778 113.654 49.0886 113.654 50.9883C113.654 52.3231 114.649 53.2472 116.154 53.2472C117.277 53.2472 118.297 52.7339 118.833 51.9381C118.935 52.8365 119.368 53.1703 120.312 53.1703C120.567 53.1703 120.771 53.1445 120.848 53.1189V51.7841H120.567ZM116.409 51.9894C115.618 51.9894 115.159 51.6044 115.159 50.8856C115.159 49.8844 116.154 49.7303 117.124 49.5764C117.863 49.448 118.322 49.371 118.603 49.1913V50.1925C118.603 51.168 117.583 51.9894 116.409 51.9894Z" fill="black"/>
<path d="M122.605 44.3396H124.289V42.7994H122.605V44.3396ZM122.682 53.1189H124.213V45.4177H122.682V53.1189Z" fill="black"/>
<path d="M130.873 45.2894C129.725 45.2894 128.755 45.8029 128.169 46.6243L128.067 45.4177H126.74V53.1189H128.271V48.7036C128.271 47.4714 129.24 46.5986 130.439 46.5986C131.485 46.5986 132.123 47.343 132.123 48.6522V53.1189H133.653V48.2416C133.653 46.4702 132.505 45.2894 130.873 45.2894Z" fill="black"/>
<path d="M136.894 49.7561H142.786C142.837 49.5764 142.837 49.448 142.837 49.2683C142.837 46.8553 141.383 45.2894 139.139 45.2894C136.894 45.2894 135.363 46.9066 135.363 49.2683C135.363 51.553 136.741 53.2472 139.266 53.2472C140.873 53.2472 141.944 52.6311 142.582 51.8611L141.537 50.9369C141.103 51.5017 140.389 51.9381 139.266 51.9381C137.914 51.9381 137.072 51.0909 136.894 49.7561ZM139.139 46.573C140.286 46.573 141.078 47.3174 141.281 48.5752H136.919C137.149 47.343 137.94 46.573 139.139 46.573Z" fill="black"/>
<path fill-rule="evenodd" clip-rule="evenodd" d="M5.27225 5.29773L5.27075 5.29925C3.23568 7.34252 2.17636 9.95716 1.6362 13.6594C1.09143 17.3933 1.08915 22.114 1.08915 28.3098C1.08915 34.5055 1.09143 39.2264 1.63621 42.9615C2.17637 46.6651 3.23578 49.2828 5.2715 51.3314L5.27225 51.3321C7.30268 53.3801 9.9009 54.4461 13.5799 54.9896C17.2903 55.5379 21.9813 55.5401 28.1382 55.5401C34.295 55.5401 38.986 55.5379 42.6978 54.9896C46.3779 54.4461 48.9793 53.3799 51.015 51.3314C53.0508 49.2826 54.1101 46.6673 54.6503 42.9653C55.1951 39.2314 55.1974 34.5107 55.1974 28.3098C55.1974 22.1088 55.1951 17.3883 54.6503 13.6543C54.1101 9.95233 53.0508 7.33703 51.015 5.28828C48.9793 3.24478 46.3805 2.18125 42.7018 1.63897C38.9912 1.09197 34.3001 1.08968 28.1382 1.08968C21.9762 1.08968 17.2852 1.09198 13.5761 1.64019C9.89864 2.18372 7.30282 3.24964 5.27225 5.29773ZM51.6746 4.62444C56.1303 9.10821 56.1303 15.9616 56.1303 28.3098C56.1303 40.6581 56.1303 47.5114 51.6746 51.9952C47.2191 56.479 40.3987 56.479 28.1382 56.479C15.8777 56.479 9.05728 56.479 4.61184 51.9952C0.15625 47.5114 0.15625 40.6478 0.15625 28.3098C0.15625 15.9717 0.15625 9.10821 4.61184 4.63465C9.05728 0.150879 15.8676 0.150879 28.1382 0.150879C40.4089 0.150879 47.2191 0.150879 51.6746 4.62444Z" fill="black"/>
<path d="M27.0144 45.8021C25.0784 44.3166 23.6506 42.1005 23.1908 39.519H16.9473V12.3656C20.311 14.046 22.7068 17.772 22.9972 21.6197L23.9411 29.2422L23.4812 29.1691C22.4649 29.1691 21.5936 30.1188 21.5936 31.0686C21.5936 31.9452 22.2713 32.7002 23.1425 32.8951L24.2798 33.1629C26.1675 29.5831 27.2322 26.0763 27.2322 22.6182C27.2322 19.501 26.8209 16.4083 26.7724 13.2423C26.7724 11.8299 27.3047 10.5392 28.176 9.54071C29.0472 10.5635 29.5795 11.8299 29.5795 13.2423C29.5795 16.4083 29.1198 19.5253 29.1198 22.6182C29.1198 26.0519 30.1845 29.5831 32.0722 33.1629L33.2095 32.8951C34.0807 32.7002 34.7583 31.9452 34.7583 31.0686C34.7583 30.1188 33.8871 29.1691 32.8708 29.1691L32.4109 29.2422L33.3548 21.6197C33.8146 17.772 36.0409 14.046 39.4047 12.3656V39.519H33.1612C32.7014 42.0761 31.3461 44.3897 29.3376 45.8021C28.8778 46.143 28.4664 46.557 28.2002 47.0927C27.8856 46.5327 27.4741 46.143 27.0144 45.8021ZM19.8997 30.1432C20.1659 29.1204 20.916 28.2436 21.8357 27.708L21.0854 21.4249C20.8193 19.4766 20.0207 17.7233 18.8107 16.2865V30.1188H19.8997V30.1432ZM23.0698 37.6195C23.0698 36.6698 23.215 35.793 23.4087 34.9164L22.5374 34.7215C21.2548 34.3075 20.2627 33.3091 19.9239 32.0183H18.859V37.6195H23.0698ZM27.208 37.6195C27.208 36.4749 26.3369 35.4521 25.1995 35.3303C25.0058 36.061 24.8607 36.8159 24.8607 37.6195H27.208ZM27.208 39.519H25.1268C25.4656 41.0045 26.1915 42.344 27.208 43.5129V39.519ZM30.1604 33.65C29.3618 32.1645 28.6115 30.6059 28.1518 28.9986C27.692 30.6303 26.9418 32.1645 26.1432 33.65C26.9418 33.8448 27.6193 34.3806 28.1518 34.9894C28.6842 34.3806 29.3618 33.8448 30.1604 33.65ZM31.443 37.6195C31.443 36.8159 31.2977 36.061 31.1042 35.3303C29.9668 35.4765 29.0955 36.4749 29.0955 37.6195H31.443ZM31.1767 39.519H29.0955V43.5129C30.112 42.344 30.8379 41.0045 31.1767 39.519ZM37.4929 37.6195V32.0183H36.428C36.0892 33.3091 35.0972 34.3075 33.8146 34.7215L32.9433 34.9164C33.1369 35.793 33.2821 36.6698 33.2821 37.6195H37.4929ZM37.4929 30.1432V16.3108C36.2829 17.7233 35.4117 19.4766 35.2181 21.4492L34.468 27.7323C35.4117 28.268 36.1377 29.1448 36.404 30.1675H37.4929V30.1432Z" fill="black"/>
</g>
<defs>
<clipPath id="clip0_812_8436">
<rect width="247.844" height="56.3281" fill="black" transform="translate(0.15625 0.150879)"/>
</clipPath>
</defs>
</svg>
