<svg width="24" height="24" viewBox="0 0 24 24" fill="none" xmlns="http://www.w3.org/2000/svg">
<path d="M9 1C5.13401 1 2 4.13401 2 8V16C2 19.866 5.13401 23 9 23H14C14.5523 23 15 22.5523 15 22C15 21.4477 14.5523 21 14 21H9C6.23858 21 4 18.7614 4 16V8C4 5.23858 6.23858 3 9 3H14C14.5523 3 15 2.55228 15 2C15 1.44772 14.5523 1 14 1H9Z" fill="#212121"/>
<path d="M18.2929 9.70711C17.9024 9.31658 17.9024 8.68342 18.2929 8.29289C18.6834 7.90237 19.3166 7.90237 19.7071 8.29289L22.7071 11.2929C23.0976 11.6834 23.0976 12.3166 22.7071 12.7071L19.7071 15.7071C19.3166 16.0976 18.6834 16.0976 18.2929 15.7071C17.9024 15.3166 17.9024 14.6834 18.2929 14.2929L19.5858 13H9.07692C8.48215 13 8 12.5523 8 12C8 11.4477 8.48215 11 9.07692 11H19.5858L18.2929 9.70711Z" fill="#212121"/>
</svg>
