<svg width="48" height="48" viewBox="0 0 48 48" fill="none" xmlns="http://www.w3.org/2000/svg">
<path d="M0 24C0 10.7452 10.7452 0 24 0C37.2548 0 48 10.7452 48 24C48 37.2548 37.2548 48 24 48C10.7452 48 0 37.2548 0 24Z" fill="white"/>
<path fill-rule="evenodd" clip-rule="evenodd" d="M19.4138 24L28.7067 14.7071C29.0972 14.3166 29.0972 13.6834 28.7067 13.2929C28.3162 12.9024 27.683 12.9024 27.2925 13.2929L17.3632 23.2222C16.9336 23.6518 16.9336 24.3482 17.3632 24.7778L27.2925 34.7071C27.683 35.0976 28.3162 35.0976 28.7067 34.7071C29.0972 34.3166 29.0972 33.6834 28.7067 33.2929L19.4138 24Z" fill="#212121"/>
</svg>
