<svg width="48" height="48" viewBox="0 0 48 48" fill="none" xmlns="http://www.w3.org/2000/svg">    <path d="M0 24C0 10.7452 10.7452 0 24 0C37.2548 0 48 10.7452 48 24C48 37.2548 37.2548 48 24 48C10.7452 48 0 37.2548 0 24Z" fill="#212121"/>    <path d="M34 25.8658V26.8528C34 26.9094 33.9633 26.9598 33.91 26.9818C33.5834 27.1141 32.465 27.5989 32 28.2096C30.8133 29.7695 29.9067 32 27.88 32H19.425C16.4283 32 14 29.6987 14 26.8591V26.7678C14 26.6922 14.065 26.6308 14.145 26.6308H18.8583C18.9517 26.6308 19.02 26.7127 19.0117 26.7992C18.9783 27.0889 19.035 27.3848 19.18 27.654C19.46 28.1907 20.04 28.526 20.6667 28.526H23V26.8056H20.6933C20.575 26.8056 20.505 26.6765 20.5733 26.5852C20.5983 26.549 20.6267 26.5112 20.6567 26.4687C20.875 26.1759 21.1867 25.721 21.4967 25.2032C21.7083 24.8537 21.9133 24.4807 22.0783 24.106C22.1117 24.0383 22.1383 23.9691 22.165 23.9014C22.21 23.7817 22.2567 23.67 22.29 23.5582C22.3234 23.4638 22.35 23.3646 22.3767 23.2717C22.455 22.9538 22.4883 22.6169 22.4883 22.2675C22.4883 22.1306 22.4817 21.9873 22.4683 21.8504C22.4617 21.7008 22.4417 21.5513 22.4217 21.4018C22.4083 21.2695 22.3833 21.1389 22.3567 21.0019C22.3234 20.802 22.2767 20.6037 22.2233 20.4038L22.205 20.3282C22.165 20.1913 22.1317 20.0607 22.085 19.9237C21.9533 19.494 21.8017 19.0753 21.6417 18.6833C21.5833 18.5275 21.5167 18.378 21.45 18.2284C21.3517 18.0033 21.2517 17.7987 21.16 17.6051C21.1133 17.5169 21.0733 17.4367 21.0333 17.3548C20.9883 17.2619 20.9417 17.1691 20.895 17.0809C20.8617 17.0132 20.8233 16.9503 20.7967 16.8873L20.5117 16.3899C20.4717 16.3222 20.5383 16.2419 20.6167 16.2624L22.4 16.7189H22.405C22.4083 16.7189 22.41 16.7205 22.4117 16.7205L22.6467 16.7818L22.905 16.8511L23 16.8763V15.8752C23 15.3919 23.41 15 23.9167 15C24.17 15 24.4 15.0976 24.565 15.2566C24.73 15.4156 24.8333 15.6328 24.8333 15.8752V17.3611L25.0234 17.4115C25.0383 17.4162 25.0533 17.4225 25.0667 17.4319C25.1134 17.465 25.18 17.5138 25.265 17.5736C25.3317 17.624 25.4033 17.6854 25.49 17.7483C25.6617 17.879 25.8667 18.0474 26.0917 18.241C26.1517 18.2898 26.21 18.3402 26.2633 18.3906C26.5534 18.6456 26.8783 18.9446 27.1884 19.2752C27.275 19.3681 27.36 19.4625 27.4467 19.5617C27.5333 19.6624 27.625 19.7616 27.705 19.8608C27.81 19.993 27.9233 20.1299 28.0217 20.2732C28.0683 20.3408 28.1217 20.4101 28.1667 20.4778C28.2933 20.6588 28.405 20.8461 28.5117 21.0334C28.5567 21.12 28.6033 21.2144 28.6433 21.3073C28.7617 21.5576 28.855 21.8126 28.915 22.0676C28.9333 22.1227 28.9467 22.1825 28.9533 22.236V22.2486C28.9733 22.3242 28.98 22.4044 28.9867 22.4863C29.0133 22.7476 29 23.0089 28.94 23.2717C28.915 23.3835 28.8817 23.489 28.8417 23.6007C28.8017 23.7078 28.7617 23.8195 28.71 23.925C28.61 24.1438 28.4917 24.3626 28.3517 24.5672C28.3067 24.6428 28.2533 24.7231 28.2 24.7986C28.1417 24.8789 28.0817 24.9544 28.0283 25.0284C27.955 25.1229 27.8767 25.222 27.7967 25.3102C27.725 25.4031 27.6517 25.4959 27.5717 25.5778C27.46 25.7021 27.3533 25.8202 27.2417 25.9335C27.175 26.0075 27.1033 26.0831 27.03 26.1508C26.9584 26.2263 26.885 26.294 26.8183 26.3569C26.7067 26.4624 26.6133 26.5443 26.535 26.6119L26.3517 26.7709C26.325 26.793 26.29 26.8056 26.2533 26.8056H24.8333V28.526H26.62C27.02 28.526 27.4 28.3922 27.7067 28.1467C27.8117 28.0601 28.27 27.6855 28.8117 27.1204C28.83 27.1015 28.8534 27.0873 28.88 27.081L33.815 25.7336C33.9067 25.7084 34 25.7745 34 25.8658Z" fill="white"/></svg>