<svg width="44" height="59" viewBox="0 0 44 59" fill="none" xmlns="http://www.w3.org/2000/svg">
    <path d="M35.5849 14.7716C31.6277 14.7716 28.4197 11.5611 28.4197 7.60066C28.4197 3.64025 31.6277 0.429688 35.5849 0.429688C39.5421 0.429688 42.75 3.64025 42.75 7.60066C42.75 11.5611 39.5421 14.7716 35.5849 14.7716Z" fill="white"/>
    <path d="M8.42349 14.3045C4.72343 14.3045 1.72394 11.3026 1.72394 7.59953C1.72394 3.89647 4.72343 0.894531 8.42349 0.894531C12.1236 0.894531 15.123 3.89647 15.123 7.59953C15.123 11.3026 12.1236 14.3045 8.42349 14.3045Z" fill="white"/>
    <path d="M8.60508 33.5276C6.1239 33.5276 4.11252 31.5146 4.11252 29.0314C4.11252 26.5482 6.1239 24.5352 8.60508 24.5352C11.0863 24.5352 13.0977 26.5482 13.0977 29.0314C13.0977 31.5146 11.0863 33.5276 8.60508 33.5276Z" fill="white"/>
    <path d="M35.5841 37.2396C31.0559 37.2396 27.385 33.5658 27.385 29.0339C27.385 24.502 31.0559 20.8281 35.5841 20.8281C40.1123 20.8281 43.7832 24.502 43.7832 29.0339C43.7832 33.5658 40.1123 37.2396 35.5841 37.2396Z" fill="white"/>
    <path d="M35.5844 53.7427C33.8145 53.7427 32.3797 52.3067 32.3797 50.5354C32.3797 48.7641 33.8145 47.3281 35.5844 47.3281C37.3543 47.3281 38.7891 48.7641 38.7891 50.5354C38.7891 52.3067 37.3543 53.7427 35.5844 53.7427Z" fill="white"/>
    <path d="M8.52135 58.9983C3.8495 58.9983 0.0622253 55.208 0.0622253 50.5324C0.0622253 45.8567 3.8495 42.0664 8.52135 42.0664C13.1932 42.0664 16.9805 45.8567 16.9805 50.5324C16.9805 55.208 13.1932 58.9983 8.52135 58.9983Z" fill="white"/>
</svg>
