<svg width="48" height="48" viewBox="0 0 48 48" fill="none" xmlns="http://www.w3.org/2000/svg">
    <path d="M0 24C0 10.7452 10.7452 0 24 0C37.2548 0 48 10.7452 48 24C48 37.2548 37.2548 48 24 48C10.7452 48 0 37.2548 0 24Z" fill="#212121"/>
    <path d="M35 24C35 26.2103 35 27.7009 34.9486 28.5234C34.8458 30.528 34.2804 32.0701 33.1495 33.1495C32.0187 34.229 30.528 34.8458 28.5234 34.9486C27.7009 35 26.1589 35 24 35C21.7897 35 20.2991 35 19.4766 34.9486C17.472 34.8458 15.9299 34.2804 14.8505 33.1495C13.771 32.0701 13.1542 30.528 13.0514 28.5234C13 27.7009 13 26.1589 13 24C13 21.8411 13 20.2991 13.0514 19.4766C13.1542 17.472 13.7196 15.9299 14.8505 14.8505C15.9299 13.771 17.472 13.1542 19.4766 13.0514C20.2991 13 21.8411 13 24 13C26.2103 13 27.7009 13 28.5234 13.0514C30.528 13.1542 32.0701 13.7196 33.1495 14.8505C34.229 15.9813 34.8458 17.472 34.9486 19.4766C34.9486 20.2991 35 21.7897 35 24ZM25.0794 14.9533C24.4112 14.9533 24.0514 14.9533 24 14.9533C23.9486 14.9533 23.5888 14.9533 22.9206 14.9533C22.2523 14.9533 21.7383 14.9533 21.4299 14.9533C21.0701 14.9533 20.6075 14.9533 20.0421 15.0047C19.4766 15.0047 18.9626 15.0561 18.5514 15.1589C18.1402 15.2103 17.7804 15.3131 17.5234 15.4159C17.0607 15.6215 16.6495 15.8785 16.2383 16.2383C15.8785 16.5981 15.6215 17.0093 15.4159 17.5234C15.3131 17.7804 15.2103 18.1402 15.1589 18.5514C15.1075 18.9626 15.0561 19.4252 15.0047 20.0421C15.0047 20.6075 14.9533 21.0701 14.9533 21.4299C14.9533 21.7897 14.9533 22.3037 14.9533 22.9206C14.9533 23.5888 14.9533 23.9486 14.9533 24C14.9533 24.0514 14.9533 24.4112 14.9533 25.0794C14.9533 25.7477 14.9533 26.2617 14.9533 26.5701C14.9533 26.9299 14.9533 27.3925 15.0047 27.9579C15.0047 28.5234 15.0561 29.0374 15.1589 29.4486C15.2617 29.8598 15.3131 30.2196 15.4159 30.4766C15.6215 30.9393 15.8785 31.3505 16.2383 31.7617C16.5981 32.1215 17.0093 32.3785 17.5234 32.5841C17.7804 32.6869 18.1402 32.7897 18.5514 32.8411C18.9626 32.8925 19.4252 32.9439 20.0421 32.9953C20.6589 33.0467 21.0701 33.0467 21.4299 33.0467C21.7897 33.0467 22.3037 33.0467 22.9206 33.0467C23.5888 33.0467 23.9486 33.0467 24 33.0467C24.0514 33.0467 24.4112 33.0467 25.0794 33.0467C25.7477 33.0467 26.2617 33.0467 26.5701 33.0467C26.9299 33.0467 27.3925 33.0467 27.9579 32.9953C28.5234 32.9953 29.0374 32.9439 29.4486 32.8411C29.8598 32.7897 30.2196 32.6869 30.4766 32.5841C30.9393 32.3785 31.3505 32.1215 31.7617 31.7617C32.1215 31.4019 32.3785 30.9907 32.5841 30.4766C32.6869 30.2196 32.7897 29.8598 32.8411 29.4486C32.8925 29.0374 32.9439 28.5748 32.9953 27.9579C32.9953 27.3925 33.0467 26.9299 33.0467 26.5701C33.0467 26.2103 33.0467 25.6963 33.0467 25.0794C33.0467 24.4112 33.0467 24.0514 33.0467 24C33.0467 23.9486 33.0467 23.5888 33.0467 22.9206C33.0467 22.2523 33.0467 21.7383 33.0467 21.4299C33.0467 21.0701 33.0467 20.6075 32.9953 20.0421C32.9953 19.4766 32.9439 18.9626 32.8411 18.5514C32.7897 18.1402 32.6869 17.7804 32.5841 17.5234C32.3785 17.0607 32.1215 16.6495 31.7617 16.2383C31.4019 15.8785 30.9907 15.6215 30.4766 15.4159C30.2196 15.3131 29.8598 15.2103 29.4486 15.1589C29.0374 15.1075 28.5748 15.0561 27.9579 15.0047C27.3925 15.0047 26.9299 14.9533 26.5701 14.9533C26.2617 14.9533 25.7477 14.9533 25.0794 14.9533ZM27.9579 19.9907C29.0374 21.0701 29.6028 22.4065 29.6028 24C29.6028 25.5935 29.0374 26.8785 27.9579 28.0093C26.8785 29.0888 25.5421 29.6542 23.9486 29.6542C22.3551 29.6542 21.0701 29.0888 19.9393 28.0093C18.8598 26.9299 18.2944 25.5935 18.2944 24C18.2944 22.4065 18.8598 21.1215 19.9393 19.9907C21.0187 18.9112 22.3551 18.3458 23.9486 18.3458C25.5421 18.3458 26.8785 18.8598 27.9579 19.9907ZM26.5701 26.5701C27.2897 25.8505 27.6495 24.9766 27.6495 24C27.6495 23.0234 27.2897 22.0981 26.5701 21.3785C25.8505 20.6589 24.9766 20.2991 23.9486 20.2991C22.9206 20.2991 22.0467 20.6589 21.3271 21.3785C20.6075 22.0981 20.2477 22.972 20.2477 24C20.2477 25.028 20.6075 25.9019 21.3271 26.5701C22.0467 27.2897 22.9206 27.6495 23.9486 27.6495C24.9766 27.6495 25.8505 27.2897 26.5701 26.5701ZM30.785 17.1636C31.0421 17.4206 31.1963 17.729 31.1963 18.0888C31.1963 18.4486 31.0421 18.757 30.785 19.014C30.528 19.271 30.2196 19.4252 29.8598 19.4252C29.5 19.4252 29.1916 19.271 28.9346 19.014C28.6776 18.757 28.5234 18.4486 28.5234 18.0888C28.5234 17.729 28.6776 17.4206 28.9346 17.1636C29.1916 16.9065 29.5 16.7523 29.8598 16.7523C30.2196 16.7523 30.528 16.9065 30.785 17.1636Z" fill="white"/>
</svg>
