<svg width="136" height="48" viewBox="0 0 136 48" fill="none" xmlns="http://www.w3.org/2000/svg">
    <path d="M0.0722656 0H6.99108C8.66531 3.54143 10.3449 7.06609 12.0297 10.574L17.0683 0H23.9633V17.2128H18.3147V8.50844H18.2643L14.1512 17.2128H9.89226L5.77916 8.50844H5.72877V17.2128H0.0722656V0Z" fill="#212121"/>
    <path d="M27.5488 0H43.333V4.4515H33.3592V5.97418H42.2987V10.2112H33.3592V12.7931H43.4815V17.2181H27.5488V0Z" fill="#212121"/>
    <path d="M57.3775 4.91758V17.2128H51.5672V4.91758H44.834V0H64.0895V4.91758H57.3775Z" fill="#212121"/>
    <path d="M84.0543 17.2128H77.6261L75.8308 12.9096H69.9966L68.1986 17.2128H61.834L69.5245 0H76.3718L84.0543 17.2128ZM72.9428 4.96789H72.8925L71.3676 8.67527H74.4465L72.9428 4.96789Z" fill="#212121"/>
    <path d="M12.8518 28.7478H5.88258V36.2234H0.0722656V19.0106H5.88258V23.8196H12.8518V19H18.686V36.2128H12.8518V28.7478Z" fill="#212121"/>
    <path d="M22.2207 19.0078H28.031V36.2207H22.2207V19.0078Z" fill="#212121"/>
    <path d="M35.5507 30.001C36.1155 31.28 37.9878 32.2651 40.5257 32.2651C42.5941 32.2651 44.0951 31.9447 44.0951 30.9861C44.0951 30.0751 43.0131 29.805 39.3668 29.5587C33.5565 29.1403 30.9443 27.321 30.9443 24.3445C30.9443 20.9761 34.3202 18.4922 40.0563 18.4922C45.0949 18.4922 48.6034 20.5339 49.8683 22.9675L44.4027 24.9616C44.0341 23.8043 42.4827 23.0417 40.043 23.0417C38.3431 23.0417 36.9907 23.4362 36.9907 24.1248C36.9907 24.6888 37.8764 24.9616 40.9685 25.2317C46.3121 25.6501 50.0805 27.0854 50.0805 30.8854C50.0805 35.141 45.6969 36.8146 40.2313 36.8146C35.3544 36.8146 31.7081 34.7967 30.0586 31.8202L35.5507 30.001Z" fill="#212121"/>
    <path d="M63.5082 23.928V36.2233H57.6952V23.928H50.9727V19.0078H70.2308V23.928H63.5082Z" fill="#212121"/>
    <path d="M81.536 18.543C87.9403 18.543 92.2497 21.8372 92.2497 27.6419C92.2497 33.4466 87.9403 36.7647 81.536 36.7647C75.1316 36.7647 70.8223 33.4705 70.8223 27.6419C70.8223 21.8134 75.1343 18.543 81.536 18.543ZM76.8076 27.6419C76.8076 30.396 78.7541 31.8789 81.536 31.8789C84.3178 31.8789 86.2908 30.4039 86.2908 27.6419C86.2908 24.8799 84.3205 23.4367 81.536 23.4367C78.7515 23.4367 76.8076 24.8799 76.8076 27.6419Z" fill="#212121"/>
    <path d="M94.5984 19.0078H104.676C109.478 19.0078 112.334 20.5331 112.334 24.2723C112.334 26.6556 111.03 28.3027 108.738 28.9939L114.7 36.2233H107.895L102.528 29.5341H100.406V36.2233H94.5957L94.5984 19.0078ZM100.409 23.2448V25.4348H105.015C105.811 25.4348 106.37 25.0402 106.37 24.3517C106.37 23.6156 105.84 23.2448 105.015 23.2448H100.409Z" fill="#212121"/>
    <path d="M120.824 30.3445L119.469 28.4272C117.055 25.3051 114.669 22.1564 112.279 19.0078H118.952C120.577 21.3435 122.155 23.6553 123.781 25.9671L128.604 19.0078H135.263L128.048 28.4272C127.605 29.0654 127.111 29.7063 126.669 30.3445V36.2233H120.834L120.824 30.3445Z" fill="#212121"/>
    <path d="M0 39.0039H3.49786C4.34382 40.7914 5.18978 42.5683 6.049 44.3478L8.60013 39.0039H12.0847V47.703H9.22332V43.3018H9.19681L7.11772 47.703H4.96701L2.88793 43.3018H2.86405V47.703H0V39.0039Z" fill="#212121"/>
    <path d="M16.738 43.7494C16.738 44.8801 17.3718 45.4786 18.5042 45.4786C19.6365 45.4786 20.2862 44.8801 20.2862 43.7494V39.0039H23.2219V43.9003C23.2219 46.6835 21.2674 47.9625 18.5042 47.9625C15.7409 47.9625 13.7891 46.6835 13.7891 43.9003V39.0039H16.738V43.7494Z" fill="#212121"/>
    <path d="M26.8607 44.5575C27.1471 45.2036 28.0911 45.7015 29.372 45.7015C30.4328 45.7015 31.178 45.5399 31.178 45.0553C31.178 44.5707 30.629 44.4595 28.7912 44.335C25.8529 44.1232 24.5482 43.2043 24.5482 41.7001C24.5482 39.9974 26.2534 38.7422 29.1519 38.7422C31.6924 38.7422 33.4719 39.775 34.1189 41.0037L31.3557 42.01C31.17 41.4274 30.385 41.0408 29.1519 41.0408C28.2953 41.0408 27.6085 41.2394 27.6085 41.5889C27.6085 41.8749 28.0567 42.01 29.6266 42.1477C32.3262 42.3595 34.2303 43.0798 34.2303 45.005C34.2303 47.1553 32.016 48 29.2527 48C26.7891 48 24.946 46.9805 24.1133 45.479L26.8607 44.5575Z" fill="#212121"/>
    <path d="M35.5781 39.0039H43.5551V41.2522H38.5165V42.0228H43.0247V44.1598H38.5165V45.4653H43.632V47.703H35.5781V39.0039Z" fill="#212121"/>
    <path d="M48.0153 43.7494C48.0153 44.8801 48.6491 45.4786 49.7815 45.4786C50.9139 45.4786 51.5636 44.8801 51.5636 43.7494V39.0039H54.4992V43.9003C54.4992 46.6835 52.5448 47.9625 49.7815 47.9625C47.0182 47.9625 45.0664 46.6835 45.0664 43.9003V39.0039H48.0153V43.7494Z" fill="#212121"/>
    <path d="M56.1935 39.0039H59.6834C60.5294 40.7914 61.3753 42.5683 62.2345 44.3478L64.7857 39.0039H68.2703V47.703H65.4062V43.3018H65.3823L63.3033 47.703H61.1526L59.0734 43.3018H59.0469V47.703H56.1855L56.1935 39.0039Z" fill="#212121"/>
    <path d="M78.7121 38.7695C81.9474 38.7695 84.1246 40.4326 84.1246 43.3667C84.1246 46.3008 81.9474 47.9771 78.7121 47.9771C75.4768 47.9771 73.2969 46.3114 73.2969 43.3667C73.2969 40.422 75.4768 38.7695 78.7121 38.7695ZM76.3254 43.3667C76.3254 44.757 77.3066 45.5037 78.7121 45.5037C80.1176 45.5037 81.0988 44.757 81.0988 43.3667C81.0988 41.9764 80.1043 41.2482 78.7121 41.2482C77.3198 41.2482 76.3227 41.9738 76.3227 43.3667H76.3254Z" fill="#212121"/>
    <path d="M85.4082 39.0039H93.2976V41.3396H88.3518V42.2214H92.7938V44.5094H88.3518V47.703H85.4082V39.0039Z" fill="#212121"/>
    <path d="M97.5371 39.0039H100.749L102.528 44.4458L104.469 39.0039H107.583L109.524 44.4458L111.29 39.0039H114.501L111.226 47.703H108.105L106.026 42.42L103.936 47.703H100.812L97.5371 39.0039Z" fill="#212121"/>
    <path d="M124.876 47.703H121.627L120.717 45.5262H117.761L116.854 47.703H113.629L117.511 39.0039H120.972L124.876 47.703ZM119.262 41.5143H119.238L118.466 43.3892H120.023L119.262 41.5143Z" fill="#212121"/>
    <path d="M125.767 39.0039H130.859C133.285 39.0039 134.728 39.7745 134.728 41.652C134.728 42.8569 134.067 43.6911 132.911 44.0354L135.921 47.6898H132.474L129.761 44.3081H128.7V47.6898H125.762L125.767 39.0039ZM128.705 41.1409V42.2452H131.02C131.418 42.2452 131.705 42.0466 131.705 41.6997C131.705 41.3528 131.439 41.1409 131.02 41.1409H128.705Z" fill="#212121"/>
</svg>
