<svg width="48" height="48" viewBox="0 0 48 48" fill="none" xmlns="http://www.w3.org/2000/svg">
    <path d="M0 24C0 10.7452 10.7452 0 24 0C37.2548 0 48 10.7452 48 24C48 37.2548 37.2548 48 24 48C10.7452 48 0 37.2548 0 24Z" fill="#212121"/>
    <path d="M33 17.8942C32.3377 18.2158 31.626 18.4323 30.879 18.5299C31.6418 18.0304 32.2275 17.2387 32.5028 16.2953C31.7895 16.758 30.999 17.0943 30.1575 17.2756C29.4847 16.4906 28.524 16 27.462 16C25.0777 16 23.3258 18.4331 23.8643 20.959C20.796 20.7908 18.075 19.1829 16.2533 16.7391C15.2858 18.5546 15.7515 20.9294 17.3955 22.1321C16.791 22.1107 16.221 21.9295 15.7237 21.6267C15.6832 23.4979 16.9095 25.2486 18.6855 25.6382C18.1658 25.7925 17.5965 25.8285 17.0175 25.7071C17.487 27.3117 18.8505 28.4791 20.4675 28.5119C18.915 29.8433 16.959 30.4381 15 30.1854C16.6342 31.3314 18.576 32 20.661 32C27.5175 32 31.3912 25.6661 31.1572 19.9852C31.8787 19.4151 32.505 18.7039 33 17.8942Z" fill="white"/>
</svg>
