<svg width="361" height="72" viewBox="0 0 361 72" fill="none" xmlns="http://www.w3.org/2000/svg">
<path d="M-2.47988 19.839C2.77794 19.839 7.04024 15.5768 7.04024 10.3189C7.04024 5.06112 2.77794 0.798828 -2.47988 0.798828C-7.7377 0.798828 -12 5.06112 -12 10.3189C-12 15.5768 -7.7377 19.839 -2.47988 19.839Z" fill="#212121"/>
<path d="M-2.26858 39.7871C-0.199137 39.7871 1.47847 38.1094 1.47847 36.04C1.47847 33.9706 -0.199137 32.293 -2.26858 32.293C-4.33801 32.293 -6.01562 33.9706 -6.01562 36.04C-6.01562 38.1094 -4.33801 39.7871 -2.26858 39.7871Z" fill="#212121"/>
<path d="M62.6277 20.3258C68.1543 20.3258 72.6344 15.8457 72.6344 10.3192C72.6344 4.79265 68.1543 0.3125 62.6277 0.3125C57.1012 0.3125 52.6211 4.79265 52.6211 10.3192C52.6211 15.8457 57.1012 20.3258 62.6277 20.3258Z" fill="#212121"/>
<path d="M95.2332 19.7085C100.419 19.7085 104.623 15.5047 104.623 10.3191C104.623 5.13346 100.419 0.929688 95.2332 0.929688C90.0475 0.929688 85.8438 5.13346 85.8438 10.3191C85.8438 15.5047 90.0475 19.7085 95.2332 19.7085Z" fill="#212121"/>
<path d="M127.665 20.6378C133.364 20.6378 137.984 16.0179 137.984 10.3189C137.984 4.61995 133.364 0 127.665 0C121.966 0 117.346 4.61995 117.346 10.3189C117.346 16.0179 121.966 20.6378 127.665 20.6378Z" fill="#212121"/>
<path d="M160.051 16.5202C163.476 16.5202 166.253 13.7437 166.253 10.3187C166.253 6.89368 163.476 4.11719 160.051 4.11719C156.626 4.11719 153.85 6.89368 153.85 10.3187C153.85 13.7437 156.626 16.5202 160.051 16.5202Z" fill="#212121"/>
<path d="M192.622 18.5756C197.182 18.5756 200.878 14.8791 200.878 10.3191C200.878 5.75909 197.182 2.0625 192.622 2.0625C188.062 2.0625 184.365 5.75909 184.365 10.3191C184.365 14.8791 188.062 18.5756 192.622 18.5756Z" fill="#212121"/>
<path d="M224.898 15.6485C227.842 15.6485 230.229 13.2621 230.229 10.3184C230.229 7.37467 227.842 4.98828 224.898 4.98828C221.955 4.98828 219.568 7.37467 219.568 10.3184C219.568 13.2621 221.955 15.6485 224.898 15.6485Z" fill="#212121"/>
<path d="M257.468 15.5112C260.335 15.5112 262.66 13.1866 262.66 10.3191C262.66 7.45157 260.335 5.12695 257.468 5.12695C254.6 5.12695 252.275 7.45157 252.275 10.3191C252.275 13.1866 254.6 15.5112 257.468 15.5112Z" fill="#212121"/>
<path d="M289.943 18.9232C294.696 18.9232 298.548 15.0705 298.548 10.3181C298.548 5.56557 294.696 1.71289 289.943 1.71289C285.191 1.71289 281.338 5.56557 281.338 10.3181C281.338 15.0705 285.191 18.9232 289.943 18.9232Z" fill="#212121"/>
<path d="M322.562 18.3654C327.005 18.3654 330.608 14.7631 330.608 10.3194C330.608 5.87576 327.005 2.27344 322.562 2.27344C318.118 2.27344 314.516 5.87576 314.516 10.3194C314.516 14.7631 318.118 18.3654 322.562 18.3654Z" fill="#212121"/>
<path d="M322.345 41.4354C325.325 41.4354 327.74 39.0198 327.74 36.04C327.74 33.0602 325.325 30.6445 322.345 30.6445C319.365 30.6445 316.949 33.0602 316.949 36.04C316.949 39.0198 319.365 41.4354 322.345 41.4354Z" fill="#212121"/>
<path d="M289.943 45.8871C295.381 45.8871 299.789 41.4785 299.789 36.0403C299.789 30.602 295.381 26.1934 289.943 26.1934C284.504 26.1934 280.096 30.602 280.096 36.0403C280.096 41.4785 284.504 45.8871 289.943 45.8871Z" fill="#212121"/>
<path d="M289.942 65.6896C292.068 65.6896 293.791 63.9665 293.791 61.8409C293.791 59.7153 292.068 57.9922 289.942 57.9922C287.817 57.9922 286.094 59.7153 286.094 61.8409C286.094 63.9665 287.817 65.6896 289.942 65.6896Z" fill="#212121"/>
<path d="M257.316 63.8531C258.427 63.8531 259.328 62.9525 259.328 61.8416C259.328 60.7307 258.427 59.8301 257.316 59.8301C256.205 59.8301 255.305 60.7307 255.305 61.8416C255.305 62.9525 256.205 63.8531 257.316 63.8531Z" fill="#212121"/>
<path d="M257.519 42.816C261.261 42.816 264.295 39.7827 264.295 36.0408C264.295 32.299 261.261 29.2656 257.519 29.2656C253.777 29.2656 250.744 32.299 250.744 36.0408C250.744 39.7827 253.777 42.816 257.519 42.816Z" fill="#212121"/>
<path d="M224.87 37.8843C225.889 37.8843 226.714 37.0584 226.714 36.0398C226.714 35.0211 225.889 34.1953 224.87 34.1953C223.851 34.1953 223.025 35.0211 223.025 36.0398C223.025 37.0584 223.851 37.8843 224.87 37.8843Z" fill="#212121"/>
<path d="M224.869 68.3249C228.451 68.3249 231.354 65.4216 231.354 61.8402C231.354 58.2588 228.451 55.3555 224.869 55.3555C221.288 55.3555 218.385 58.2588 218.385 61.8402C218.385 65.4216 221.288 68.3249 224.869 68.3249Z" fill="#212121"/>
<path d="M192.534 71.5929C197.92 71.5929 202.286 67.2265 202.286 61.8404C202.286 56.4542 197.92 52.0879 192.534 52.0879C187.148 52.0879 182.781 56.4542 182.781 61.8404C182.781 67.2265 187.148 71.5929 192.534 71.5929Z" fill="#212121"/>
<path d="M192.534 48.0069C199.143 48.0069 204.501 42.6489 204.501 36.0396C204.501 29.4302 199.143 24.0723 192.534 24.0723C185.924 24.0723 180.566 29.4302 180.566 36.0396C180.566 42.6489 185.924 48.0069 192.534 48.0069Z" fill="#212121"/>
<path d="M160.096 42.9091C163.89 42.9091 166.966 39.8335 166.966 36.0395C166.966 32.2455 163.89 29.1699 160.096 29.1699C156.302 29.1699 153.227 32.2455 153.227 36.0395C153.227 39.8335 156.302 42.9091 160.096 42.9091Z" fill="#212121"/>
<path d="M127.549 41.4422C130.533 41.4422 132.952 39.0233 132.952 36.0394C132.952 33.0556 130.533 30.6367 127.549 30.6367C124.565 30.6367 122.146 33.0556 122.146 36.0394C122.146 39.0233 124.565 41.4422 127.549 41.4422Z" fill="#212121"/>
<path d="M127.548 66.5172C130.13 66.5172 132.224 64.4234 132.224 61.8406C132.224 59.2578 130.13 57.1641 127.548 57.1641C124.965 57.1641 122.871 59.2578 122.871 61.8406C122.871 64.4234 124.965 66.5172 127.548 66.5172Z" fill="#212121"/>
<path d="M95.0306 67.9265C98.3915 67.9265 101.116 65.202 101.116 61.8412C101.116 58.4804 98.3915 55.7559 95.0306 55.7559C91.6698 55.7559 88.9453 58.4804 88.9453 61.8412C88.9453 65.202 91.6698 67.9265 95.0306 67.9265Z" fill="#212121"/>
<path d="M95.0314 42.3206C98.5005 42.3206 101.313 39.5083 101.313 36.0392C101.313 32.5701 98.5005 29.7578 95.0314 29.7578C91.5623 29.7578 88.75 32.5701 88.75 36.0392C88.75 39.5083 91.5623 42.3206 95.0314 42.3206Z" fill="#212121"/>
<path d="M62.6291 43.7367C66.8802 43.7367 70.3265 40.2904 70.3265 36.0392C70.3265 31.788 66.8802 28.3418 62.6291 28.3418C58.3779 28.3418 54.9316 31.788 54.9316 36.0392C54.9316 40.2904 58.3779 43.7367 62.6291 43.7367Z" fill="#212121"/>
<path d="M62.6295 69.0948C66.636 69.0948 69.8839 65.8469 69.8839 61.8404C69.8839 57.8339 66.636 54.5859 62.6295 54.5859C58.6229 54.5859 55.375 57.8339 55.375 61.8404C55.375 65.8469 58.6229 69.0948 62.6295 69.0948Z" fill="#212121"/>
<path d="M30.0971 66.2781C32.5475 66.2781 34.534 64.2917 34.534 61.8412C34.534 59.3908 32.5475 57.4043 30.0971 57.4043C27.6466 57.4043 25.6602 59.3908 25.6602 61.8412C25.6602 64.2917 27.6466 66.2781 30.0971 66.2781Z" fill="#212121"/>
<path d="M30.0961 43.0905C33.9903 43.0905 37.1472 39.9336 37.1472 36.0394C37.1472 32.1452 33.9903 28.9883 30.0961 28.9883C26.2018 28.9883 23.0449 32.1452 23.0449 36.0394C23.0449 39.9336 26.2018 43.0905 30.0961 43.0905Z" fill="#212121"/>
<path d="M30.1553 12.7012C31.4707 12.7012 32.5371 11.6348 32.5371 10.3194C32.5371 9.00391 31.4707 7.9375 30.1553 7.9375C28.8398 7.9375 27.7734 9.00391 27.7734 10.3194C27.7734 11.6348 28.8398 12.7012 30.1553 12.7012Z" fill="#212121"/>
<path d="M160.096 70.6703C164.973 70.6703 168.926 66.7169 168.926 61.84C168.926 56.9632 164.973 53.0098 160.096 53.0098C155.219 53.0098 151.266 56.9632 151.266 61.84C151.266 66.7169 155.219 70.6703 160.096 70.6703Z" fill="#212121"/>
<path d="M322.446 71.9999C328.057 71.9999 332.605 67.4515 332.605 61.8408C332.605 56.23 328.057 51.6816 322.446 51.6816C316.836 51.6816 312.287 56.23 312.287 61.8408C312.287 67.4515 316.836 71.9999 322.446 71.9999Z" fill="#212121"/>
<path d="M354.899 67.2429C357.883 67.2429 360.302 64.8241 360.302 61.8402C360.302 58.8564 357.883 56.4375 354.899 56.4375C351.915 56.4375 349.496 58.8564 349.496 61.8402C349.496 64.8241 351.915 67.2429 354.899 67.2429Z" fill="#212121"/>
</svg>
