<svg width="281" height="72" viewBox="0 0 281 72" fill="none" xmlns="http://www.w3.org/2000/svg">
    <path d="M10.6277 20.3258C16.1543 20.3258 20.6344 15.8457 20.6344 10.3192C20.6344 4.79265 16.1543 0.3125 10.6277 0.3125C5.10122 0.3125 0.621094 4.79265 0.621094 10.3192C0.621094 15.8457 5.10122 20.3258 10.6277 20.3258Z" fill="white"/>
    <path d="M43.2332 19.7085C48.4188 19.7085 52.6226 15.5047 52.6226 10.3191C52.6226 5.13346 48.4188 0.929688 43.2332 0.929688C38.0475 0.929688 33.8438 5.13346 33.8438 10.3191C33.8438 15.5047 38.0475 19.7085 43.2332 19.7085Z" fill="white"/>
    <path d="M75.6646 20.6378C81.3636 20.6378 85.9835 16.0179 85.9835 10.3189C85.9835 4.61995 81.3636 0 75.6646 0C69.9656 0 65.3457 4.61995 65.3457 10.3189C65.3457 16.0179 69.9656 20.6378 75.6646 20.6378Z" fill="white"/>
    <path d="M108.051 16.5202C111.476 16.5202 114.253 13.7437 114.253 10.3187C114.253 6.89368 111.476 4.11719 108.051 4.11719C104.626 4.11719 101.85 6.89368 101.85 10.3187C101.85 13.7437 104.626 16.5202 108.051 16.5202Z" fill="white"/>
    <path d="M140.622 18.5756C145.182 18.5756 148.878 14.8791 148.878 10.3191C148.878 5.75909 145.182 2.0625 140.622 2.0625C136.062 2.0625 132.365 5.75909 132.365 10.3191C132.365 14.8791 136.062 18.5756 140.622 18.5756Z" fill="white"/>
    <path d="M172.898 15.6485C175.842 15.6485 178.229 13.2621 178.229 10.3184C178.229 7.37467 175.842 4.98828 172.898 4.98828C169.955 4.98828 167.568 7.37467 167.568 10.3184C167.568 13.2621 169.955 15.6485 172.898 15.6485Z" fill="white"/>
    <path d="M205.468 15.5093C208.335 15.5093 210.66 13.1847 210.66 10.3171C210.66 7.44961 208.335 5.125 205.468 5.125C202.6 5.125 200.275 7.44961 200.275 10.3171C200.275 13.1847 202.6 15.5093 205.468 15.5093Z" fill="white"/>
    <path d="M237.943 18.9251C242.696 18.9251 246.548 15.0725 246.548 10.32C246.548 5.56752 242.696 1.71484 237.943 1.71484C233.191 1.71484 229.338 5.56752 229.338 10.32C229.338 15.0725 233.191 18.9251 237.943 18.9251Z" fill="white"/>
    <path d="M270.562 18.3654C275.005 18.3654 278.608 14.7631 278.608 10.3194C278.608 5.87576 275.005 2.27344 270.562 2.27344C266.118 2.27344 262.516 5.87576 262.516 10.3194C262.516 14.7631 266.118 18.3654 270.562 18.3654Z" fill="white"/>
    <path d="M270.345 41.4354C273.325 41.4354 275.74 39.0198 275.74 36.04C275.74 33.0602 273.325 30.6445 270.345 30.6445C267.365 30.6445 264.949 33.0602 264.949 36.04C264.949 39.0198 267.365 41.4354 270.345 41.4354Z" fill="white"/>
    <path d="M237.943 45.8852C243.381 45.8852 247.789 41.4766 247.789 36.0383C247.789 30.6 243.381 26.1914 237.943 26.1914C232.504 26.1914 228.096 30.6 228.096 36.0383C228.096 41.4766 232.504 45.8852 237.943 45.8852Z" fill="white"/>
    <path d="M237.942 65.6896C240.068 65.6896 241.791 63.9665 241.791 61.8409C241.791 59.7153 240.068 57.9922 237.942 57.9922C235.817 57.9922 234.094 59.7153 234.094 61.8409C234.094 63.9665 235.817 65.6896 237.942 65.6896Z" fill="white"/>
    <path d="M205.316 63.8511C206.427 63.8511 207.328 62.9506 207.328 61.8396C207.328 60.7287 206.427 59.8281 205.316 59.8281C204.205 59.8281 203.305 60.7287 203.305 61.8396C203.305 62.9506 204.205 63.8511 205.316 63.8511Z" fill="white"/>
    <path d="M205.519 42.816C209.261 42.816 212.295 39.7827 212.295 36.0408C212.295 32.299 209.261 29.2656 205.519 29.2656C201.777 29.2656 198.744 32.299 198.744 36.0408C198.744 39.7827 201.777 42.816 205.519 42.816Z" fill="white"/>
    <path d="M172.87 37.8843C173.889 37.8843 174.714 37.0584 174.714 36.0398C174.714 35.0211 173.889 34.1953 172.87 34.1953C171.851 34.1953 171.025 35.0211 171.025 36.0398C171.025 37.0584 171.851 37.8843 172.87 37.8843Z" fill="white"/>
    <path d="M172.869 68.3249C176.451 68.3249 179.354 65.4216 179.354 61.8402C179.354 58.2588 176.451 55.3555 172.869 55.3555C169.288 55.3555 166.385 58.2588 166.385 61.8402C166.385 65.4216 169.288 68.3249 172.869 68.3249Z" fill="white"/>
    <path d="M140.534 71.5948C145.92 71.5948 150.286 67.2285 150.286 61.8423C150.286 56.4562 145.92 52.0898 140.534 52.0898C135.148 52.0898 130.781 56.4562 130.781 61.8423C130.781 67.2285 135.148 71.5948 140.534 71.5948Z" fill="white"/>
    <path d="M140.534 48.0088C147.143 48.0088 152.501 42.6509 152.501 36.0415C152.501 29.4322 147.143 24.0742 140.534 24.0742C133.924 24.0742 128.566 29.4322 128.566 36.0415C128.566 42.6509 133.924 48.0088 140.534 48.0088Z" fill="white"/>
    <path d="M108.096 42.911C111.89 42.911 114.966 39.8354 114.966 36.0414C114.966 32.2475 111.89 29.1719 108.096 29.1719C104.302 29.1719 101.227 32.2475 101.227 36.0414C101.227 39.8354 104.302 42.911 108.096 42.911Z" fill="white"/>
    <path d="M75.5492 41.4422C78.5331 41.4422 80.9519 39.0233 80.9519 36.0394C80.9519 33.0556 78.5331 30.6367 75.5492 30.6367C72.5654 30.6367 70.1465 33.0556 70.1465 36.0394C70.1465 39.0233 72.5654 41.4422 75.5492 41.4422Z" fill="white"/>
    <path d="M75.5477 66.5172C78.1304 66.5172 80.2242 64.4234 80.2242 61.8406C80.2242 59.2578 78.1304 57.1641 75.5477 57.1641C72.9649 57.1641 70.8711 59.2578 70.8711 61.8406C70.8711 64.4234 72.9649 66.5172 75.5477 66.5172Z" fill="white"/>
    <path d="M43.0306 67.9246C46.3915 67.9246 49.116 65.2001 49.116 61.8392C49.116 58.4784 46.3915 55.7539 43.0306 55.7539C39.6698 55.7539 36.9453 58.4784 36.9453 61.8392C36.9453 65.2001 39.6698 67.9246 43.0306 67.9246Z" fill="white"/>
    <path d="M43.0314 42.3206C46.5005 42.3206 49.3128 39.5083 49.3128 36.0392C49.3128 32.5701 46.5005 29.7578 43.0314 29.7578C39.5623 29.7578 36.75 32.5701 36.75 36.0392C36.75 39.5083 39.5623 42.3206 43.0314 42.3206Z" fill="white"/>
    <path d="M10.6291 43.7386C14.8802 43.7386 18.3265 40.2923 18.3265 36.0412C18.3265 31.79 14.8802 28.3438 10.6291 28.3438C6.37789 28.3438 2.93164 31.79 2.93164 36.0412C2.93164 40.2923 6.37789 43.7386 10.6291 43.7386Z" fill="white"/>
    <path d="M10.6295 69.0948C14.636 69.0948 17.8839 65.8469 17.8839 61.8404C17.8839 57.8339 14.636 54.5859 10.6295 54.5859C6.62293 54.5859 3.375 57.8339 3.375 61.8404C3.375 65.8469 6.62293 69.0948 10.6295 69.0948Z" fill="white"/>
    <path d="M108.096 70.6722C112.973 70.6722 116.926 66.7188 116.926 61.842C116.926 56.9652 112.973 53.0117 108.096 53.0117C103.219 53.0117 99.2656 56.9652 99.2656 61.842C99.2656 66.7188 103.219 70.6722 108.096 70.6722Z" fill="white"/>
    <path d="M270.446 72.0019C276.057 72.0019 280.605 67.4535 280.605 61.8427C280.605 56.232 276.057 51.6836 270.446 51.6836C264.836 51.6836 260.287 56.232 260.287 61.8427C260.287 67.4535 264.836 72.0019 270.446 72.0019Z" fill="white"/>
</svg>
