<svg width="24" height="24" viewBox="0 0 24 24" fill="none" xmlns="http://www.w3.org/2000/svg">
    <path fill-rule="evenodd" clip-rule="evenodd" d="M17.5559 16.6424C20.3869 13.1087 20.1644 7.93548 16.8884 4.65948C13.3737 1.14476 7.67517 1.14476 4.16045 4.65948C0.645734 8.1742 0.645734 13.8727 4.16045 17.3874C7.43587 20.6628 12.6078 20.8858 16.1415 18.0564L20.422 22.337C20.8125 22.7275 21.4457 22.7275 21.8362 22.337C22.2268 21.9464 22.2268 21.3133 21.8362 20.9227L17.5559 16.6424ZM15.4742 6.07369C18.2078 8.80736 18.2078 13.2395 15.4742 15.9732C12.7405 18.7069 8.30834 18.7069 5.57467 15.9732C2.841 13.2395 2.841 8.80736 5.57467 6.07369C8.30834 3.34002 12.7405 3.34002 15.4742 6.07369Z" fill="#212121"/>
</svg>
