<svg width="48" height="48" viewBox="0 0 48 48" fill="none" xmlns="http://www.w3.org/2000/svg">
    <path d="M0 24C0 10.7452 10.7452 0 24 0C37.2548 0 48 10.7452 48 24C48 37.2548 37.2548 48 24 48C10.7452 48 0 37.2548 0 24Z" fill="#212121"/>
    <path d="M15.1033 22.5294L25.8267 18.0793C26.8849 17.6157 30.4736 16.1324 30.4736 16.1324C30.4736 16.1324 32.1299 15.4834 31.9918 17.0595C31.9458 17.7085 31.5778 19.9799 31.2097 22.4403L30.0595 29.7217C30.0595 29.7217 29.9675 30.7879 29.1853 30.9733C28.4032 31.1587 27.115 30.3243 26.8849 30.1389C26.7009 29.9998 23.4343 27.9138 22.2381 26.894C21.9161 26.6159 21.548 26.0596 22.2841 25.4106C23.9404 23.8809 25.9188 21.9803 27.115 20.7751C27.6671 20.2188 28.2192 18.9208 25.9188 20.4969L19.4281 24.8936C19.4281 24.8936 18.6919 25.3571 17.3117 24.9399C15.9315 24.5227 14.3212 23.9665 14.3212 23.9665C14.3212 23.9665 13.217 23.2711 15.1033 22.5294Z" fill="white"/>
</svg>
