<svg width="148" height="377" viewBox="0 0 148 377" fill="none" xmlns="http://www.w3.org/2000/svg">
<path d="M128.161 366.781C128.161 361.523 132.423 357.261 137.681 357.261C142.939 357.261 147.201 361.523 147.201 366.781C147.201 372.038 142.939 376.301 137.681 376.301C132.423 376.301 128.161 372.038 128.161 366.781Z" fill="#212121"/>
<path d="M108.213 366.569C108.213 364.5 109.891 362.822 111.96 362.822C114.029 362.822 115.707 364.5 115.707 366.569C115.707 368.639 114.029 370.316 111.96 370.316C109.891 370.316 108.213 368.639 108.213 366.569Z" fill="#212121"/>
<path d="M127.674 301.671C127.674 296.145 132.154 291.664 137.681 291.664C143.207 291.664 147.688 296.145 147.688 301.671C147.688 307.198 143.207 311.678 137.681 311.678C132.154 311.678 127.674 307.198 127.674 301.671Z" fill="#212121"/>
<path d="M128.292 269.068C128.292 263.882 132.495 259.678 137.681 259.678C142.867 259.678 147.07 263.882 147.07 269.068C147.07 274.253 142.867 278.457 137.681 278.457C132.495 278.457 128.292 274.253 128.292 269.068Z" fill="#212121"/>
<path d="M127.362 236.636C127.362 230.937 131.982 226.317 137.681 226.317C143.38 226.317 148 230.937 148 236.636C148 242.335 143.38 246.955 137.681 246.955C131.982 246.955 127.362 242.335 127.362 236.636Z" fill="#212121"/>
<path d="M131.48 204.25C131.48 200.825 134.256 198.048 137.681 198.048C141.106 198.048 143.883 200.825 143.883 204.25C143.883 207.675 141.106 210.451 137.681 210.451C134.256 210.451 131.48 207.675 131.48 204.25Z" fill="#212121"/>
<path d="M129.424 171.679C129.424 167.119 133.121 163.422 137.681 163.422C142.241 163.422 145.938 167.119 145.938 171.679C145.938 176.239 142.241 179.936 137.681 179.936C133.121 179.936 129.424 176.239 129.424 171.679Z" fill="#212121"/>
<path d="M132.351 139.402C132.351 136.459 134.737 134.072 137.681 134.072C140.624 134.072 143.011 136.459 143.011 139.402C143.011 142.346 140.624 144.732 137.681 144.732C134.737 144.732 132.351 142.346 132.351 139.402Z" fill="#212121"/>
<path d="M132.489 106.833C132.489 103.966 134.813 101.641 137.681 101.641C140.548 101.641 142.873 103.966 142.873 106.833C142.873 109.701 140.548 112.025 137.681 112.025C134.813 112.025 132.489 109.701 132.489 106.833Z" fill="#212121"/>
<path d="M129.076 74.3578C129.076 69.6053 132.928 65.7526 137.681 65.7526C142.433 65.7526 146.286 69.6053 146.286 74.3578C146.286 79.1103 142.433 82.9629 137.681 82.9629C132.928 82.9629 129.076 79.1103 129.076 74.3578Z" fill="#212121"/>
<path d="M129.636 41.7392C129.636 37.2955 133.238 33.6932 137.682 33.6932C142.125 33.6932 145.728 37.2955 145.728 41.7392C145.728 46.1829 142.125 49.7852 137.682 49.7852C133.238 49.7852 129.636 46.1829 129.636 41.7392Z" fill="#212121"/>
<path d="M106.565 41.9561C106.565 38.9763 108.98 36.5606 111.96 36.5606C114.94 36.5606 117.355 38.9763 117.355 41.9561C117.355 44.9359 114.94 47.3516 111.96 47.3516C108.98 47.3516 106.565 44.9359 106.565 41.9561Z" fill="#212121"/>
<path d="M102.113 74.3582C102.113 68.9199 106.521 64.5113 111.96 64.5113C117.398 64.5113 121.807 68.9199 121.807 74.3582C121.807 79.7965 117.398 84.2051 111.96 84.2051C106.521 84.2051 102.113 79.7965 102.113 74.3582Z" fill="#212121"/>
<path d="M82.3104 74.3583C82.3104 72.2327 84.0335 70.5096 86.1591 70.5096C88.2847 70.5096 90.0078 72.2327 90.0078 74.3583C90.0078 76.4839 88.2847 78.207 86.1591 78.207C84.0335 78.207 82.3104 76.4839 82.3104 74.3583Z" fill="#212121"/>
<path d="M84.1479 106.985C84.1479 105.874 85.0485 104.973 86.1594 104.973C87.2703 104.973 88.1709 105.874 88.1709 106.985C88.1709 108.096 87.2703 108.996 86.1594 108.996C85.0485 108.996 84.1479 108.096 84.1479 106.985Z" fill="#212121"/>
<path d="M105.185 106.781C105.185 103.04 108.218 100.006 111.96 100.006C115.702 100.006 118.735 103.04 118.735 106.781C118.735 110.523 115.702 113.557 111.96 113.557C108.218 113.557 105.185 110.523 105.185 106.781Z" fill="#212121"/>
<path d="M110.116 139.431C110.116 138.412 110.942 137.586 111.96 137.586C112.979 137.586 113.805 138.412 113.805 139.431C113.805 140.45 112.979 141.275 111.96 141.275C110.942 141.275 110.116 140.45 110.116 139.431Z" fill="#212121"/>
<path d="M79.6741 139.431C79.6741 135.85 82.5774 132.947 86.1588 132.947C89.7403 132.947 92.6436 135.85 92.6436 139.431C92.6436 143.013 89.7403 145.916 86.1588 145.916C82.5774 145.916 79.6741 143.013 79.6741 139.431Z" fill="#212121"/>
<path d="M76.4062 171.767C76.4062 166.381 80.7725 162.015 86.1586 162.015C91.5448 162.015 95.9111 166.381 95.9111 171.767C95.9111 177.153 91.5448 181.52 86.1586 181.52C80.7725 181.52 76.4062 177.153 76.4062 171.767Z" fill="#212121"/>
<path d="M99.9931 171.767C99.9931 165.158 105.351 159.8 111.96 159.8C118.57 159.8 123.928 165.158 123.928 171.767C123.928 178.376 118.57 183.734 111.96 183.734C105.351 183.734 99.9931 178.376 99.9931 171.767Z" fill="#212121"/>
<path d="M105.091 204.205C105.091 200.411 108.167 197.335 111.961 197.335C115.754 197.335 118.83 200.411 118.83 204.205C118.83 207.999 115.754 211.074 111.961 211.074C108.167 211.074 105.091 207.999 105.091 204.205Z" fill="#212121"/>
<path d="M106.557 236.752C106.557 233.768 108.976 231.349 111.96 231.349C114.943 231.349 117.362 233.768 117.362 236.752C117.362 239.735 114.943 242.154 111.96 242.154C108.976 242.154 106.557 239.735 106.557 236.752Z" fill="#212121"/>
<path d="M81.4828 236.753C81.4828 234.17 83.5766 232.077 86.1594 232.077C88.7422 232.077 90.8359 234.17 90.8359 236.753C90.8359 239.336 88.7422 241.43 86.1594 241.43C83.5766 241.43 81.4828 239.336 81.4828 236.753Z" fill="#212121"/>
<path d="M80.0735 269.27C80.0735 265.909 82.798 263.185 86.1588 263.185C89.5196 263.185 92.2441 265.909 92.2441 269.27C92.2441 272.631 89.5196 275.355 86.1588 275.355C82.798 275.355 80.0735 272.631 80.0735 269.27Z" fill="#212121"/>
<path d="M105.678 269.269C105.678 265.8 108.491 262.988 111.96 262.988C115.429 262.988 118.241 265.8 118.241 269.269C118.241 272.739 115.429 275.551 111.96 275.551C108.491 275.551 105.678 272.739 105.678 269.269Z" fill="#212121"/>
<path d="M104.262 301.672C104.262 297.421 107.709 293.974 111.96 293.974C116.211 293.974 119.657 297.421 119.657 301.672C119.657 305.923 116.211 309.369 111.96 309.369C107.709 309.369 104.262 305.923 104.262 301.672Z" fill="#212121"/>
<path d="M78.9052 301.671C78.9052 297.665 82.1531 294.417 86.1596 294.417C90.1661 294.417 93.4141 297.665 93.4141 301.671C93.4141 305.678 90.1661 308.926 86.1596 308.926C82.1531 308.926 78.9052 305.678 78.9052 301.671Z" fill="#212121"/>
<path d="M81.7219 334.204C81.7219 331.753 83.7083 329.767 86.1588 329.767C88.6092 329.767 90.5957 331.753 90.5957 334.204C90.5957 336.654 88.6092 338.641 86.1588 338.641C83.7083 338.641 81.7219 336.654 81.7219 334.204Z" fill="#212121"/>
<path d="M104.908 334.205C104.908 330.31 108.065 327.154 111.96 327.154C115.854 327.154 119.011 330.31 119.011 334.205C119.011 338.099 115.854 341.256 111.96 341.256C108.065 341.256 104.908 338.099 104.908 334.205Z" fill="#212121"/>
<path d="M135.299 334.145C135.299 332.83 136.365 331.764 137.681 331.764C138.996 331.764 140.063 332.83 140.063 334.145C140.063 335.461 138.996 336.527 137.681 336.527C136.365 336.527 135.299 335.461 135.299 334.145Z" fill="#212121"/>
<path d="M77.3287 204.205C77.3287 199.328 81.2822 195.375 86.159 195.375C91.0358 195.375 94.9893 199.328 94.9893 204.205C94.9893 209.082 91.0358 213.035 86.159 213.035C81.2822 213.035 77.3287 209.082 77.3287 204.205Z" fill="#212121"/>
<path d="M76.0001 41.8545C76.0001 36.2438 80.5485 31.6954 86.1592 31.6954C91.77 31.6954 96.3184 36.2438 96.3184 41.8545C96.3184 47.4653 91.77 52.0137 86.1592 52.0137C80.5485 52.0137 76.0001 47.4653 76.0001 41.8545Z" fill="#212121"/>
<path d="M80.7561 9.40196C80.7561 6.41812 83.175 3.99924 86.1588 3.99924C89.1426 3.99924 91.5615 6.41812 91.5615 9.40196C91.5615 12.3858 89.1426 14.8047 86.1588 14.8047C83.175 14.8047 80.7561 12.3858 80.7561 9.40196Z" fill="#212121"/>
<path d="M52.161 9.52012C52.161 14.7779 56.4232 19.0402 61.6811 19.0402C66.9389 19.0402 71.2012 14.7779 71.2012 9.52012C71.2012 4.2623 66.9389 5.08273e-08 61.6811 1.13526e-07C56.4232 1.76225e-07 52.161 4.2623 52.161 9.52012Z" fill="#212121"/>
<path d="M32.2129 9.73142C32.2129 11.8009 33.8906 13.4785 35.96 13.4785C38.0294 13.4785 39.707 11.8009 39.707 9.73142C39.707 7.66199 38.0294 5.98438 35.96 5.98438C33.8906 5.98438 32.2129 7.66199 32.2129 9.73142Z" fill="#212121"/>
<path d="M51.6742 74.6297C51.6742 80.1562 56.1543 84.6364 61.6808 84.6364C67.2073 84.6364 71.6875 80.1562 71.6875 74.6297C71.6875 69.1032 67.2073 64.623 61.6808 64.623C56.1543 64.623 51.6742 69.1032 51.6742 74.6297Z" fill="#212121"/>
<path d="M52.2915 107.233C52.2915 112.419 56.4953 116.623 61.6809 116.623C66.8665 116.623 71.0703 112.419 71.0703 107.233C71.0703 102.048 66.8665 97.8438 61.6809 97.8438C56.4953 97.8438 52.2915 102.048 52.2915 107.233Z" fill="#212121"/>
<path d="M51.3622 139.665C51.3622 145.364 55.9821 149.984 61.6811 149.984C67.3801 149.984 72 145.364 72 139.665C72 133.966 67.3801 129.346 61.6811 129.346C55.9821 129.346 51.3622 133.966 51.3622 139.665Z" fill="#212121"/>
<path d="M55.4798 172.051C55.4798 175.476 58.2563 178.253 61.6813 178.253C65.1063 178.253 67.8828 175.476 67.8828 172.051C67.8828 168.626 65.1063 165.85 61.6813 165.85C58.2563 165.85 55.4798 168.626 55.4798 172.051Z" fill="#212121"/>
<path d="M53.4244 204.622C53.4244 209.182 57.1209 212.878 61.6809 212.878C66.2409 212.878 69.9375 209.182 69.9375 204.622C69.9375 200.062 66.2409 196.365 61.6809 196.365C57.1209 196.365 53.4244 200.062 53.4244 204.622Z" fill="#212121"/>
<path d="M56.3505 236.898C56.3505 239.842 58.7369 242.229 61.6806 242.229C64.6244 242.229 67.0107 239.842 67.0107 236.898C67.0107 233.955 64.6244 231.568 61.6806 231.568C58.7369 231.568 56.3505 233.955 56.3505 236.898Z" fill="#212121"/>
<path d="M56.4888 269.468C56.4888 272.335 58.8134 274.66 61.6809 274.66C64.5484 274.66 66.873 272.335 66.873 269.468C66.873 266.6 64.5484 264.275 61.6809 264.275C58.8134 264.275 56.4888 266.6 56.4888 269.468Z" fill="#212121"/>
<path d="M53.0758 301.943C53.0758 306.696 56.9285 310.548 61.681 310.548C66.4335 310.548 70.2861 306.696 70.2861 301.943C70.2861 297.191 66.4335 293.338 61.681 293.338C56.9285 293.338 53.0758 297.191 53.0758 301.943Z" fill="#212121"/>
<path d="M53.6355 334.562C53.6355 339.005 57.2379 342.608 61.6815 342.608C66.1252 342.608 69.7275 339.005 69.7275 334.562C69.7275 330.118 66.1252 326.516 61.6815 326.516C57.2379 326.516 53.6355 330.118 53.6355 334.562Z" fill="#212121"/>
<path d="M30.5646 334.345C30.5646 337.325 32.9802 339.74 35.96 339.74C38.9398 339.74 41.3555 337.325 41.3555 334.345C41.3555 331.365 38.9398 328.949 35.96 328.949C32.9802 328.949 30.5646 331.365 30.5646 334.345Z" fill="#212121"/>
<path d="M26.1129 301.943C26.1129 307.381 30.5215 311.789 35.9597 311.789C41.398 311.789 45.8066 307.381 45.8066 301.943C45.8066 296.504 41.398 292.096 35.9597 292.096C30.5215 292.096 26.1129 296.504 26.1129 301.943Z" fill="#212121"/>
<path d="M6.31036 301.942C6.31036 304.068 8.03348 305.791 10.1591 305.791C12.2847 305.791 14.0078 304.068 14.0078 301.942C14.0078 299.817 12.2847 298.094 10.1591 298.094C8.03348 298.094 6.31036 299.817 6.31036 301.942Z" fill="#212121"/>
<path d="M8.14792 269.316C8.14792 270.427 9.04847 271.328 10.1594 271.328C11.2703 271.328 12.1709 270.427 12.1709 269.316C12.1709 268.205 11.2703 267.305 10.1594 267.305C9.04847 267.305 8.14792 268.205 8.14792 269.316Z" fill="#212121"/>
<path d="M29.185 269.519C29.185 273.261 32.2183 276.295 35.9602 276.295C39.702 276.295 42.7354 273.261 42.7354 269.519C42.7354 265.777 39.702 262.744 35.9602 262.744C32.2183 262.744 29.185 265.777 29.185 269.519Z" fill="#212121"/>
<path d="M34.1157 236.87C34.1157 237.889 34.9416 238.714 35.9602 238.714C36.9789 238.714 37.8047 237.889 37.8047 236.87C37.8047 235.851 36.9789 235.025 35.9602 235.025C34.9416 235.025 34.1157 235.851 34.1157 236.87Z" fill="#212121"/>
<path d="M3.67413 236.869C3.67413 240.451 6.57743 243.354 10.1588 243.354C13.7403 243.354 16.6436 240.451 16.6436 236.869C16.6436 233.288 13.7403 230.385 10.1588 230.385C6.57743 230.385 3.67413 233.288 3.67413 236.869Z" fill="#212121"/>
<path d="M0.406155 204.534C0.406155 209.92 4.77249 214.286 10.1586 214.286C15.5448 214.286 19.9111 209.92 19.9111 204.534C19.9111 199.148 15.5448 194.781 10.1586 194.781C4.77249 194.781 0.406155 199.148 0.406155 204.534Z" fill="#212121"/>
<path d="M23.9931 204.534C23.9931 211.143 29.3511 216.501 35.9604 216.501C42.5698 216.501 47.9277 211.143 47.9277 204.534C47.9277 197.924 42.5698 192.566 35.9604 192.566C29.3511 192.566 23.9931 197.924 23.9931 204.534Z" fill="#212121"/>
<path d="M29.0909 172.096C29.0909 175.89 32.1665 178.966 35.9605 178.966C39.7545 178.966 42.8301 175.89 42.8301 172.096C42.8301 168.302 39.7545 165.227 35.9605 165.227C32.1665 165.227 29.0909 168.302 29.0909 172.096Z" fill="#212121"/>
<path d="M30.5569 139.549C30.5569 142.533 32.9757 144.952 35.9596 144.952C38.9434 144.952 41.3623 142.533 41.3623 139.549C41.3623 136.565 38.9434 134.146 35.9596 134.146C32.9757 134.146 30.5569 136.565 30.5569 139.549Z" fill="#212121"/>
<path d="M5.48283 139.548C5.48283 142.13 7.5766 144.224 10.1594 144.224C12.7422 144.224 14.8359 142.13 14.8359 139.548C14.8359 136.965 12.7422 134.871 10.1594 134.871C7.5766 134.871 5.48283 136.965 5.48283 139.548Z" fill="#212121"/>
<path d="M4.07349 107.031C4.07349 110.391 6.79798 113.116 10.1588 113.116C13.5196 113.116 16.2441 110.391 16.2441 107.031C16.2441 103.67 13.5196 100.945 10.1588 100.945C6.79798 100.945 4.07349 103.67 4.07349 107.031Z" fill="#212121"/>
<path d="M29.6784 107.031C29.6784 110.501 32.4907 113.313 35.9598 113.313C39.429 113.313 42.2412 110.501 42.2412 107.031C42.2412 103.562 39.429 100.75 35.9598 100.75C32.4907 100.75 29.6784 103.562 29.6784 107.031Z" fill="#212121"/>
<path d="M28.2624 74.6291C28.2624 78.8802 31.7086 82.3265 35.9598 82.3265C40.211 82.3265 43.6572 78.8802 43.6572 74.6291C43.6572 70.3779 40.211 66.9316 35.9598 66.9316C31.7086 66.9316 28.2624 70.3779 28.2624 74.6291Z" fill="#212121"/>
<path d="M2.90516 74.6295C2.90516 78.636 6.15308 81.8839 10.1596 81.8839C14.1661 81.8839 17.4141 78.636 17.4141 74.6295C17.4141 70.6229 14.1661 67.375 10.1596 67.375C6.15308 67.375 2.90516 70.6229 2.90516 74.6295Z" fill="#212121"/>
<path d="M5.72185 42.0971C5.72185 44.5475 7.70832 46.534 10.1588 46.534C12.6092 46.534 14.5957 44.5475 14.5957 42.0971C14.5957 39.6466 12.6092 37.6602 10.1588 37.6602C7.70831 37.6602 5.72185 39.6466 5.72185 42.0971Z" fill="#212121"/>
<path d="M28.9085 42.0961C28.9085 45.9903 32.0654 49.1472 35.9596 49.1472C39.8539 49.1472 43.0107 45.9903 43.0107 42.0961C43.0107 38.2018 39.8539 35.0449 35.9596 35.0449C32.0654 35.0449 28.9085 38.2018 28.9085 42.0961Z" fill="#212121"/>
<path d="M59.2988 42.1553C59.2988 43.4707 60.3652 44.5371 61.6806 44.5371C62.9961 44.5371 64.0625 43.4707 64.0625 42.1553C64.0625 40.8398 62.9961 39.7734 61.6806 39.7734C60.3652 39.7734 59.2988 40.8398 59.2988 42.1553Z" fill="#212121"/>
<path d="M1.32875 172.096C1.32875 176.973 5.28217 180.926 10.159 180.926C15.0358 180.926 18.9893 176.973 18.9893 172.096C18.9893 167.219 15.0358 163.266 10.159 163.266C5.28217 163.266 1.32875 167.219 1.32875 172.096Z" fill="#212121"/>
<path d="M7.26004e-05 334.446C7.26673e-05 340.057 4.54847 344.605 10.1592 344.605C15.77 344.605 20.3184 340.057 20.3184 334.446C20.3184 328.836 15.77 324.287 10.1592 324.287C4.54847 324.287 7.25335e-05 328.836 7.26004e-05 334.446Z" fill="#212121"/>
<path d="M4.75608 366.899C4.75608 369.883 7.17496 372.302 10.1588 372.302C13.1426 372.302 15.5615 369.883 15.5615 366.899C15.5615 363.915 13.1426 361.496 10.1588 361.496C7.17496 361.496 4.75608 363.915 4.75608 366.899Z" fill="#212121"/>
</svg>
